<?xml version="1.0" encoding="UTF-8" standalone="no"?>
<svg xmlns:ffdec="https://www.free-decompiler.com/flash" xmlns:xlink="http://www.w3.org/1999/xlink" ffdec:objectType="frame" height="756.85px" width="83.35px" xmlns="http://www.w3.org/2000/svg">
  <g transform="matrix(1.0, 0.0, 0.0, 1.0, 25.9, 99.2)">
    <use ffdec:characterId="511" height="16.85" transform="matrix(1.0, 0.0, 0.0, 1.0, 1.85, -99.2)" width="16.6" xlink:href="#shape0"/>
    <use ffdec:characterId="508" height="13.3" transform="matrix(1.6504, 0.0, 0.0, 1.6504, -1.5248, 186.7248)" width="11.35" xlink:href="#shape1"/>
    <use ffdec:characterId="511" height="16.85" transform="matrix(0.5448, -0.8367, 0.8367, 0.5448, -6.4006, 172.4683)" width="16.6" xlink:href="#shape2"/>
    <use ffdec:characterId="510" height="13.45" transform="matrix(0.9959, -0.083, 0.083, 0.9959, 3.3692, 35.834)" width="12.2" xlink:href="#shape3"/>
    <use ffdec:characterId="510" height="13.45" transform="matrix(0.7246, 0.6848, -0.6848, 0.7246, 10.1677, 261.4679)" width="12.2" xlink:href="#shape4"/>
    <use ffdec:characterId="508" height="13.3" transform="matrix(1.5626, -2.2008, 2.2008, 1.5626, -21.514, 121.7433)" width="11.35" xlink:href="#shape1"/>
    <clipPath id="clipPath0">
      <path d="M 13.45 275.02 L 12.3 275.04 L 11.16 275.08 L 10.04 275.16 L 8.93 275.26 L 7.84 275.39 L 6.76 275.55 L 5.69 275.74 L 4.64 275.96 L 3.6 276.21 L 2.57 276.49 L 1.56 276.79 L 0.56 277.13 L -0.43 277.5 L -1.4 277.89 L -2.36 278.32 L -3.3 278.77 L -4.23 279.25 L -5.15 279.76 L -6.05 280.3 L -6.94 280.87 L -7.82 281.47 L -8.68 282.1 L -9.53 282.76 L -10.36 283.45 L -11.18 284.17 L -11.99 284.91 L -12.79 285.69 L -13.57 286.49 L -14.33 287.32 L -15.09 288.19 L -15.82 289.08 L -16.55 290 L -16.55 349.85 L 57.45 349.85 L 57.45 290 L 55.86 289.08 L 54.29 288.19 L 52.73 287.32 L 51.18 286.49 L 49.65 285.69 L 48.13 284.91 L 46.63 284.17 L 45.14 283.45 L 43.66 282.76 L 42.2 282.1 L 40.75 281.47 L 39.31 280.87 L 37.89 280.3 L 36.48 279.76 L 35.08 279.25 L 33.7 278.77 L 32.33 278.32 L 30.98 277.89 L 29.64 277.5 L 28.31 277.13 L 27 276.79 L 25.7 276.49 L 24.41 276.21 L 23.14 275.96 L 21.88 275.74 L 20.63 275.55 L 19.4 275.39 L 18.18 275.26 L 16.98 275.16 L 15.79 275.08 L 14.61 275.04 L 13.45 275.02 Z"/>
    </clipPath>
    <g clip-path="url(#clipPath0)">
      <use ffdec:characterId="513" height="332.65" transform="matrix(1.0, 0.0, 0.0, 1.0, 0.0, 0.0)" width="33.25" xlink:href="#shape5"/>
    </g>
    <clipPath id="clipPath1">
      <path d="M 13.4 276.48 L 12.25 276.49 L 11.12 276.53 L 9.99 276.59 L 8.89 276.69 L 7.79 276.81 L 6.71 276.95 L 5.64 277.12 L 4.59 277.32 L 3.55 277.54 L 2.53 277.8 L 1.51 278.07 L 0.52 278.38 L -0.47 278.71 L -1.44 279.06 L -2.39 279.45 L -3.34 279.86 L -4.27 280.29 L -5.18 280.75 L -6.08 281.24 L -6.97 281.76 L -7.85 282.3 L -8.71 282.87 L -9.55 283.46 L -10.38 284.08 L -11.2 284.73 L -12.01 285.4 L -12.8 286.1 L -13.58 286.83 L -14.34 287.58 L -15.09 288.36 L -15.83 289.17 L -16.55 290 L -16.55 349.85 L 57.45 349.85 L 57.45 290 L 55.86 289.17 L 54.28 288.36 L 52.72 287.58 L 51.17 286.83 L 49.64 286.1 L 48.12 285.4 L 46.61 284.73 L 45.12 284.08 L 43.64 283.46 L 42.17 282.87 L 40.72 282.3 L 39.28 281.76 L 37.85 281.24 L 36.44 280.75 L 35.05 280.29 L 33.66 279.86 L 32.29 279.45 L 30.94 279.06 L 29.59 278.71 L 28.27 278.38 L 26.95 278.07 L 25.65 277.8 L 24.36 277.54 L 23.09 277.32 L 21.83 277.12 L 20.59 276.95 L 19.35 276.81 L 18.14 276.69 L 16.93 276.59 L 15.74 276.53 L 14.56 276.49 L 13.4 276.48 Z"/>
    </clipPath>
    <g clip-path="url(#clipPath1)">
      <use ffdec:characterId="515" height="333.65" transform="matrix(1.0, 0.0, 0.0, 1.0, -0.75, -0.75)" width="34.75" xlink:href="#shape6"/>
    </g>
  </g>
  <defs>
    <g id="shape0" transform="matrix(1.0, 0.0, 0.0, 1.0, 8.3, 8.4)">
      <path d="M7.65 0.45 Q7.0 4.45 4.4 6.2 1.8 7.95 -1.25 7.95 -3.9 7.95 -6.05 6.35 -7.95 4.9 -7.8 1.75 -7.6 -2.0 -5.25 -4.5 -3.1 -6.7 -0.5 -7.85 L0.35 -7.8 Q3.4 -8.25 5.9 -5.95 8.35 -3.7 7.65 0.45" fill="#ffffff" fill-rule="evenodd" stroke="none"/>
      <path d="M7.65 0.45 Q7.0 4.45 4.4 6.2 1.8 7.95 -1.25 7.95 -3.9 7.95 -6.05 6.35 -7.95 4.9 -7.8 1.75 -7.6 -2.0 -5.25 -4.5 -3.1 -6.7 -0.5 -7.85 L0.35 -7.8 Q3.4 -8.25 5.9 -5.95 8.35 -3.7 7.65 0.45 Z" fill="none" stroke="#000000" stroke-linecap="round" stroke-linejoin="round" stroke-width="1.0"/>
    </g>
    <g id="shape1" transform="matrix(1.0, 0.0, 0.0, 1.0, 5.65, 6.65)">
      <path d="M4.25 -3.85 Q5.5 -1.95 5.1 0.9 4.75 3.7 2.4 5.25 0.1 6.7 -1.65 5.8 -3.4 4.85 -4.35 2.75 -5.25 0.9 -5.15 -1.35 -5.05 -3.4 -3.35 -4.8 -1.35 -6.5 0.7 -6.05 2.55 -5.65 4.0 -4.45 L4.25 -3.85" fill="#ffffff" fill-rule="evenodd" stroke="none"/>
      <path d="M4.25 -3.85 Q5.5 -1.95 5.1 0.9 4.75 3.7 2.4 5.25 0.1 6.7 -1.65 5.8 -3.4 4.85 -4.35 2.75 -5.25 0.9 -5.15 -1.35 -5.05 -3.4 -3.35 -4.8 -1.35 -6.5 0.7 -6.05 2.55 -5.65 4.0 -4.45 L4.25 -3.85 Z" fill="none" stroke="#000000" stroke-linecap="round" stroke-linejoin="round" stroke-width="1.0"/>
    </g>
    <g id="shape2" transform="matrix(1.0, 0.0, 0.0, 1.0, 8.3, 8.4)">
      <path d="M7.65 0.45 Q7.0 4.45 4.4 6.2 1.8 7.95 -1.25 7.95 -3.9 7.95 -6.05 6.35 -7.95 4.9 -7.8 1.75 -7.6 -2.0 -5.25 -4.5 -3.1 -6.7 -0.5 -7.85 L0.35 -7.8 Q3.4 -8.25 5.9 -5.95 8.35 -3.7 7.65 0.45" fill="#ffffff" fill-rule="evenodd" stroke="none"/>
      <path d="M7.65 0.45 Q7.0 4.45 4.4 6.2 1.8 7.95 -1.25 7.95 -3.9 7.95 -6.05 6.35 -7.95 4.9 -7.8 1.75 -7.6 -2.0 -5.25 -4.5 -3.1 -6.7 -0.5 -7.85 L0.35 -7.8 Q3.4 -8.25 5.9 -5.95 8.35 -3.7 7.65 0.45 Z" ffdec:has-small-stroke="true" ffdec:original-stroke-width="1.0" fill="none" stroke="#000000" stroke-linecap="round" stroke-linejoin="round" stroke-width="1.0015240899510196"/>
    </g>
    <g id="shape3" transform="matrix(1.0, 0.0, 0.0, 1.0, 6.1, 6.7)">
      <path d="M0.55 -5.95 Q2.45 -6.1 3.95 -4.25 5.45 -2.35 5.6 0.6 5.75 3.5 3.7 4.9 1.7 6.25 -0.65 6.25 -2.7 6.25 -4.25 4.75 -5.8 3.25 -5.6 -0.25 -5.4 -3.8 -3.75 -5.1 -2.05 -6.35 -0.9 -6.2 L0.55 -5.95" fill="#ffffff" fill-rule="evenodd" stroke="none"/>
      <path d="M0.55 -5.95 Q2.45 -6.1 3.95 -4.25 5.45 -2.35 5.6 0.6 5.75 3.5 3.7 4.9 1.7 6.25 -0.65 6.25 -2.7 6.25 -4.25 4.75 -5.8 3.25 -5.6 -0.25 -5.4 -3.8 -3.75 -5.1 -2.05 -6.35 -0.9 -6.2 L0.55 -5.95 Z" ffdec:has-small-stroke="true" ffdec:original-stroke-width="1.0" fill="none" stroke="#000000" stroke-linecap="round" stroke-linejoin="round" stroke-width="1.0006834001083182"/>
    </g>
    <g id="shape4" transform="matrix(1.0, 0.0, 0.0, 1.0, 6.1, 6.7)">
      <path d="M0.55 -5.95 Q2.45 -6.1 3.95 -4.25 5.45 -2.35 5.6 0.6 5.75 3.5 3.7 4.9 1.7 6.25 -0.65 6.25 -2.7 6.25 -4.25 4.75 -5.8 3.25 -5.6 -0.25 -5.4 -3.8 -3.75 -5.1 -2.05 -6.35 -0.9 -6.2 L0.55 -5.95" fill="#ffffff" fill-rule="evenodd" stroke="none"/>
      <path d="M0.55 -5.95 Q2.45 -6.1 3.95 -4.25 5.45 -2.35 5.6 0.6 5.75 3.5 3.7 4.9 1.7 6.25 -0.65 6.25 -2.7 6.25 -4.25 4.75 -5.8 3.25 -5.6 -0.25 -5.4 -3.8 -3.75 -5.1 -2.05 -6.35 -0.9 -6.2 L0.55 -5.95 Z" ffdec:has-small-stroke="true" ffdec:original-stroke-width="1.0" fill="none" stroke="#000000" stroke-linecap="round" stroke-linejoin="round" stroke-width="1.0030191174923844"/>
    </g>
    <g id="shape5" transform="matrix(1.0, 0.0, 0.0, 1.0, 0.0, 0.0)">
      <path d="M4.3 1.7 Q26.3 18.75 21.45 40.75 16.15 68.8 16.6 80.95 17.05 93.1 18.15 99.55 19.2 106.0 18.65 112.15 L17.55 123.6 Q24.3 134.95 25.3 147.9 25.8 153.9 24.65 159.85 27.45 163.85 26.6 168.85 24.85 179.4 20.7 189.05 L19.5 191.5 21.55 219.6 28.25 226.7 Q29.3 240.6 33.25 253.5 31.9 257.65 32.55 261.8 27.75 286.85 33.1 320.6 L33.2 320.65 32.8 321.55 Q30.85 326.25 29.5 331.2 31.45 335.5 0.0 326.9 L0.0 0.0 4.3 1.7" fill="#000000" fill-rule="evenodd" stroke="none"/>
    </g>
    <g id="shape6" transform="matrix(1.0, 0.0, 0.0, 1.0, 0.75, 0.75)">
      <path d="M0.0 0.0 L4.3 1.7 Q26.3 18.75 21.45 40.75 16.15 68.8 16.6 80.95 17.05 93.1 18.15 99.55 19.2 106.0 18.65 112.15 L17.55 123.6 Q24.3 134.95 25.3 147.9 25.8 153.9 24.65 159.85 27.45 163.85 26.6 168.85 24.85 179.4 20.7 189.05 L19.5 191.5 21.55 219.6 28.25 226.7 Q29.3 240.6 33.25 253.5 31.9 257.65 32.55 261.8 27.75 286.85 33.1 320.6 L33.2 320.65 32.8 321.55 Q30.85 326.25 29.5 331.2 31.45 335.5 0.0 326.9 L0.0 0.0" fill="#ffffff" fill-rule="evenodd" stroke="none"/>
      <path d="M0.0 0.0 L4.3 1.7 Q26.3 18.75 21.45 40.75 16.15 68.8 16.6 80.95 17.05 93.1 18.15 99.55 19.2 106.0 18.65 112.15 L17.55 123.6 Q24.3 134.95 25.3 147.9 25.8 153.9 24.65 159.85 27.45 163.85 26.6 168.85 24.85 179.4 20.7 189.05 L19.5 191.5 21.55 219.6 28.25 226.7 Q29.3 240.6 33.25 253.5 31.9 257.65 32.55 261.8 27.75 286.85 33.1 320.6 L33.2 320.65 32.8 321.55 Q30.85 326.25 29.5 331.2" fill="none" stroke="#000000" stroke-linecap="round" stroke-linejoin="round" stroke-width="1.5"/>
      <path d="M12.2 23.7 Q11.05 23.25 9.6 23.15 L9.35 23.1 7.4 23.1 6.45 23.1 4.4 25.55 Q2.0 28.15 -0.75 30.35 L-0.75 21.0 1.2 20.6 8.25 20.3 Q14.8 20.15 16.3 24.65 17.0 26.65 17.0 28.3 17.05 33.05 11.6 34.6 L8.0 34.6 6.45 33.65 Q5.25 31.75 4.85 29.45 L4.65 28.25 5.15 27.4 Q6.35 25.6 8.25 25.05 L8.3 24.9 10.7 24.9 8.9 25.5 8.0 27.0 8.0 30.05 8.6 30.95 8.85 31.2 Q9.65 31.85 10.7 32.15 L11.3 32.15 12.9 31.65 14.35 30.65 14.65 30.35 14.95 26.4 14.05 24.9 Q13.3 24.15 12.2 23.7" fill="#def2fe" fill-rule="evenodd" stroke="none"/>
      <path d="M32.5 253.8 Q31.15 257.95 31.8 262.1 29.85 272.2 29.6 283.75 L28.8 282.15 Q27.65 274.95 29.65 269.15 30.9 265.5 30.6 260.65 L28.8 258.4 28.8 255.3 Q31.0 249.35 27.95 245.0 L26.6 242.75 Q22.85 239.55 18.1 237.25 16.9 236.65 16.75 235.6 19.8 232.1 23.5 229.85 24.65 229.2 25.25 227.95 L26.6 227.5 27.15 226.65 27.5 227.0 Q28.55 240.9 32.5 253.8 M28.75 331.5 Q29.3 332.7 27.15 332.9 25.75 330.0 25.7 326.05 L25.7 325.6 27.95 322.0 Q30.05 320.8 32.2 319.75 L32.35 320.9 32.45 320.95 32.05 321.85 Q30.1 326.55 28.75 331.5 M16.4 69.3 Q15.65 76.5 15.85 81.25 16.3 93.4 17.4 99.85 18.45 106.3 17.9 112.45 L16.85 123.45 Q14.65 121.3 12.2 119.65 L11.8 119.6 10.9 117.8 10.9 112.4 13.6 107.05 Q11.5 89.6 15.1 73.6 15.55 71.45 16.4 69.3 M23.95 163.05 L23.5 159.45 24.25 158.05 23.9 160.15 Q26.7 164.15 25.85 169.15 L24.2 176.95 Q22.75 182.45 20.7 187.65 L19.95 189.35 19.1 191.15 18.75 191.8 18.9 193.5 18.55 193.05 18.5 192.3 18.25 192.3 17.95 191.65 14.0 190.0 12.85 189.85 11.05 189.0 10.7 188.95 13.45 187.75 14.65 186.55 17.05 185.05 17.35 184.4 20.75 181.15 Q24.85 174.8 25.25 165.25 L23.95 163.05" fill="#caeafe" fill-rule="evenodd" stroke="none"/>
    </g>
  </defs>
</svg>
