<?xml version="1.0" encoding="UTF-8" standalone="no"?>
<svg xmlns:ffdec="https://www.free-decompiler.com/flash" xmlns:xlink="http://www.w3.org/1999/xlink" ffdec:objectType="frame" height="756.85px" width="83.35px" xmlns="http://www.w3.org/2000/svg">
  <g transform="matrix(1.0, 0.0, 0.0, 1.0, 25.9, 99.2)">
    <use ffdec:characterId="511" height="16.85" transform="matrix(0.9965, 0.0789, -0.0789, 0.9965, 2.5417, -69.8257)" width="16.6" xlink:href="#shape0"/>
    <use ffdec:characterId="508" height="13.3" transform="matrix(1.6504, 0.0, 0.0, 1.6504, -1.5248, 212.7248)" width="11.35" xlink:href="#shape1"/>
    <use ffdec:characterId="511" height="16.85" transform="matrix(0.4193, -0.9064, 0.9064, 0.4193, -5.9446, 211.4009)" width="16.6" xlink:href="#shape2"/>
    <use ffdec:characterId="510" height="13.45" transform="matrix(0.994, -0.1012, 0.1012, 0.994, 3.2085, 64.4576)" width="12.2" xlink:href="#shape3"/>
    <use ffdec:characterId="510" height="13.45" transform="matrix(0.6785, 0.7304, -0.7304, 0.6785, 10.7548, 290.1491)" width="12.2" xlink:href="#shape4"/>
    <use ffdec:characterId="508" height="13.3" transform="matrix(1.2553, -2.4019, 2.4019, 1.2553, -21.415, 150.9231)" width="11.35" xlink:href="#shape1"/>
    <clipPath id="clipPath0">
      <path d="M 12.52 255.77 L 11.38 255.79 L 10.24 255.84 L 9.13 255.91 L 8.02 256.02 L 6.94 256.16 L 5.87 256.33 L 4.81 256.53 L 3.77 256.75 L 2.75 257.01 L 1.74 257.31 L 0.74 257.63 L -0.24 257.98 L -1.2 258.36 L -2.15 258.78 L -3.08 259.22 L -3.99 259.69 L -4.89 260.2 L -5.78 260.73 L -6.65 261.3 L -7.5 261.9 L -8.34 262.53 L -9.17 263.18 L -9.97 263.87 L -10.77 264.59 L -11.54 265.34 L -12.31 266.12 L -13.05 266.93 L -13.78 267.78 L -14.5 268.65 L -15.2 269.55 L -15.88 270.49 L -16.55 271.45 L -16.55 349.85 L 57.45 349.85 L 57.45 271.45 L 55.81 270.49 L 54.18 269.55 L 52.56 268.65 L 50.97 267.78 L 49.39 266.93 L 47.82 266.12 L 46.27 265.34 L 44.73 264.59 L 43.21 263.87 L 41.71 263.18 L 40.22 262.53 L 38.75 261.9 L 37.29 261.3 L 35.85 260.73 L 34.42 260.2 L 33.01 259.69 L 31.61 259.22 L 30.23 258.78 L 28.86 258.36 L 27.51 257.98 L 26.18 257.63 L 24.86 257.31 L 23.56 257.01 L 22.27 256.75 L 21 256.53 L 19.74 256.33 L 18.5 256.16 L 17.27 256.02 L 16.06 255.91 L 14.87 255.84 L 13.69 255.79 L 12.52 255.77 Z"/>
    </clipPath>
    <g clip-path="url(#clipPath0)">
      <use ffdec:characterId="513" height="332.65" transform="matrix(1.0, 0.0, 0.0, 1.0, 0.0, 0.0)" width="33.25" xlink:href="#shape5"/>
    </g>
    <clipPath id="clipPath1">
      <path d="M 12.45 257.23 L 11.3 257.24 L 10.17 257.28 L 9.05 257.35 L 7.95 257.45 L 6.86 257.57 L 5.79 257.73 L 4.74 257.91 L 3.7 258.11 L 2.68 258.35 L 1.67 258.61 L 0.68 258.91 L -0.3 259.23 L -1.26 259.57 L -2.21 259.95 L -3.14 260.35 L -4.05 260.78 L -4.95 261.24 L -5.83 261.73 L -6.7 262.24 L -7.55 262.78 L -8.39 263.35 L -9.21 263.95 L -10.01 264.57 L -10.8 265.23 L -11.57 265.91 L -12.33 266.62 L -13.07 267.35 L -13.8 268.12 L -14.51 268.91 L -15.21 269.73 L -15.89 270.57 L -16.55 271.45 L -16.55 349.85 L 57.45 349.85 L 57.45 271.45 L 55.8 270.57 L 54.17 269.73 L 52.55 268.91 L 50.95 268.12 L 49.36 267.35 L 47.79 266.62 L 46.24 265.91 L 44.7 265.23 L 43.18 264.57 L 41.67 263.95 L 40.18 263.35 L 38.7 262.78 L 37.24 262.24 L 35.79 261.73 L 34.36 261.24 L 32.95 260.78 L 31.55 260.35 L 30.17 259.95 L 28.8 259.57 L 27.45 259.23 L 26.11 258.91 L 24.79 258.61 L 23.49 258.35 L 22.2 258.11 L 20.93 257.91 L 19.67 257.73 L 18.43 257.57 L 17.2 257.45 L 15.99 257.35 L 14.79 257.28 L 13.61 257.24 L 12.45 257.23 Z"/>
    </clipPath>
    <g clip-path="url(#clipPath1)">
      <use ffdec:characterId="515" height="333.65" transform="matrix(1.0, 0.0, 0.0, 1.0, -0.75, -0.75)" width="34.75" xlink:href="#shape6"/>
    </g>
  </g>
  <defs>
    <g id="shape0" transform="matrix(1.0, 0.0, 0.0, 1.0, 8.3, 8.4)">
      <path d="M7.65 0.45 Q7.0 4.45 4.4 6.2 1.8 7.95 -1.25 7.95 -3.9 7.95 -6.05 6.35 -7.95 4.9 -7.8 1.75 -7.6 -2.0 -5.25 -4.5 -3.1 -6.7 -0.5 -7.85 L0.35 -7.8 Q3.4 -8.25 5.9 -5.95 8.35 -3.7 7.65 0.45" fill="#ffffff" fill-rule="evenodd" stroke="none"/>
      <path d="M7.65 0.45 Q7.0 4.45 4.4 6.2 1.8 7.95 -1.25 7.95 -3.9 7.95 -6.05 6.35 -7.95 4.9 -7.8 1.75 -7.6 -2.0 -5.25 -4.5 -3.1 -6.7 -0.5 -7.85 L0.35 -7.8 Q3.4 -8.25 5.9 -5.95 8.35 -3.7 7.65 0.45 Z" ffdec:has-small-stroke="true" ffdec:original-stroke-width="1.0" fill="none" stroke="#000000" stroke-linecap="round" stroke-linejoin="round" stroke-width="1.0003602894449684"/>
    </g>
    <g id="shape1" transform="matrix(1.0, 0.0, 0.0, 1.0, 5.65, 6.65)">
      <path d="M4.25 -3.85 Q5.5 -1.95 5.1 0.9 4.75 3.7 2.4 5.25 0.1 6.7 -1.65 5.8 -3.4 4.85 -4.35 2.75 -5.25 0.9 -5.15 -1.35 -5.05 -3.4 -3.35 -4.8 -1.35 -6.5 0.7 -6.05 2.55 -5.65 4.0 -4.45 L4.25 -3.85" fill="#ffffff" fill-rule="evenodd" stroke="none"/>
      <path d="M4.25 -3.85 Q5.5 -1.95 5.1 0.9 4.75 3.7 2.4 5.25 0.1 6.7 -1.65 5.8 -3.4 4.85 -4.35 2.75 -5.25 0.9 -5.15 -1.35 -5.05 -3.4 -3.35 -4.8 -1.35 -6.5 0.7 -6.05 2.55 -5.65 4.0 -4.45 L4.25 -3.85 Z" fill="none" stroke="#000000" stroke-linecap="round" stroke-linejoin="round" stroke-width="1.0"/>
    </g>
    <g id="shape2" transform="matrix(1.0, 0.0, 0.0, 1.0, 8.3, 8.4)">
      <path d="M7.65 0.45 Q7.0 4.45 4.4 6.2 1.8 7.95 -1.25 7.95 -3.9 7.95 -6.05 6.35 -7.95 4.9 -7.8 1.75 -7.6 -2.0 -5.25 -4.5 -3.1 -6.7 -0.5 -7.85 L0.35 -7.8 Q3.4 -8.25 5.9 -5.95 8.35 -3.7 7.65 0.45" fill="#ffffff" fill-rule="evenodd" stroke="none"/>
      <path d="M7.65 0.45 Q7.0 4.45 4.4 6.2 1.8 7.95 -1.25 7.95 -3.9 7.95 -6.05 6.35 -7.95 4.9 -7.8 1.75 -7.6 -2.0 -5.25 -4.5 -3.1 -6.7 -0.5 -7.85 L0.35 -7.8 Q3.4 -8.25 5.9 -5.95 8.35 -3.7 7.65 0.45 Z" ffdec:has-small-stroke="true" ffdec:original-stroke-width="1.0" fill="none" stroke="#000000" stroke-linecap="round" stroke-linejoin="round" stroke-width="1.0012680468162167"/>
    </g>
    <g id="shape3" transform="matrix(1.0, 0.0, 0.0, 1.0, 6.1, 6.7)">
      <path d="M0.55 -5.95 Q2.45 -6.1 3.95 -4.25 5.45 -2.35 5.6 0.6 5.75 3.5 3.7 4.9 1.7 6.25 -0.65 6.25 -2.7 6.25 -4.25 4.75 -5.8 3.25 -5.6 -0.25 -5.4 -3.8 -3.75 -5.1 -2.05 -6.35 -0.9 -6.2 L0.55 -5.95" fill="#ffffff" fill-rule="evenodd" stroke="none"/>
      <path d="M0.55 -5.95 Q2.45 -6.1 3.95 -4.25 5.45 -2.35 5.6 0.6 5.75 3.5 3.7 4.9 1.7 6.25 -0.65 6.25 -2.7 6.25 -4.25 4.75 -5.8 3.25 -5.6 -0.25 -5.4 -3.8 -3.75 -5.1 -2.05 -6.35 -0.9 -6.2 L0.55 -5.95 Z" ffdec:has-small-stroke="true" ffdec:original-stroke-width="1.0" fill="none" stroke="#000000" stroke-linecap="round" stroke-linejoin="round" stroke-width="1.000857937987021"/>
    </g>
    <g id="shape4" transform="matrix(1.0, 0.0, 0.0, 1.0, 6.1, 6.7)">
      <path d="M0.55 -5.95 Q2.45 -6.1 3.95 -4.25 5.45 -2.35 5.6 0.6 5.75 3.5 3.7 4.9 1.7 6.25 -0.65 6.25 -2.7 6.25 -4.25 4.75 -5.8 3.25 -5.6 -0.25 -5.4 -3.8 -3.75 -5.1 -2.05 -6.35 -0.9 -6.2 L0.55 -5.95" fill="#ffffff" fill-rule="evenodd" stroke="none"/>
      <path d="M0.55 -5.95 Q2.45 -6.1 3.95 -4.25 5.45 -2.35 5.6 0.6 5.75 3.5 3.7 4.9 1.7 6.25 -0.65 6.25 -2.7 6.25 -4.25 4.75 -5.8 3.25 -5.6 -0.25 -5.4 -3.8 -3.75 -5.1 -2.05 -6.35 -0.9 -6.2 L0.55 -5.95 Z" ffdec:has-small-stroke="true" ffdec:original-stroke-width="1.0" fill="none" stroke="#000000" stroke-linecap="round" stroke-linejoin="round" stroke-width="1.0031418673913943"/>
    </g>
    <g id="shape5" transform="matrix(1.0, 0.0, 0.0, 1.0, 0.0, 0.0)">
      <path d="M4.3 1.7 Q26.3 18.75 21.45 40.75 16.15 68.8 16.6 80.95 17.05 93.1 18.15 99.55 19.2 106.0 18.65 112.15 L17.55 123.6 Q24.3 134.95 25.3 147.9 25.8 153.9 24.65 159.85 27.45 163.85 26.6 168.85 24.85 179.4 20.7 189.05 L19.5 191.5 21.55 219.6 28.25 226.7 Q29.3 240.6 33.25 253.5 31.9 257.65 32.55 261.8 27.75 286.85 33.1 320.6 L33.2 320.65 32.8 321.55 Q30.85 326.25 29.5 331.2 31.45 335.5 0.0 326.9 L0.0 0.0 4.3 1.7" fill="#000000" fill-rule="evenodd" stroke="none"/>
    </g>
    <g id="shape6" transform="matrix(1.0, 0.0, 0.0, 1.0, 0.75, 0.75)">
      <path d="M0.0 0.0 L4.3 1.7 Q26.3 18.75 21.45 40.75 16.15 68.8 16.6 80.95 17.05 93.1 18.15 99.55 19.2 106.0 18.65 112.15 L17.55 123.6 Q24.3 134.95 25.3 147.9 25.8 153.9 24.65 159.85 27.45 163.85 26.6 168.85 24.85 179.4 20.7 189.05 L19.5 191.5 21.55 219.6 28.25 226.7 Q29.3 240.6 33.25 253.5 31.9 257.65 32.55 261.8 27.75 286.85 33.1 320.6 L33.2 320.65 32.8 321.55 Q30.85 326.25 29.5 331.2 31.45 335.5 0.0 326.9 L0.0 0.0" fill="#ffffff" fill-rule="evenodd" stroke="none"/>
      <path d="M0.0 0.0 L4.3 1.7 Q26.3 18.75 21.45 40.75 16.15 68.8 16.6 80.95 17.05 93.1 18.15 99.55 19.2 106.0 18.65 112.15 L17.55 123.6 Q24.3 134.95 25.3 147.9 25.8 153.9 24.65 159.85 27.45 163.85 26.6 168.85 24.85 179.4 20.7 189.05 L19.5 191.5 21.55 219.6 28.25 226.7 Q29.3 240.6 33.25 253.5 31.9 257.65 32.55 261.8 27.75 286.85 33.1 320.6 L33.2 320.65 32.8 321.55 Q30.85 326.25 29.5 331.2" fill="none" stroke="#000000" stroke-linecap="round" stroke-linejoin="round" stroke-width="1.5"/>
      <path d="M12.2 23.7 Q11.05 23.25 9.6 23.15 L9.35 23.1 7.4 23.1 6.45 23.1 4.4 25.55 Q2.0 28.15 -0.75 30.35 L-0.75 21.0 1.2 20.6 8.25 20.3 Q14.8 20.15 16.3 24.65 17.0 26.65 17.0 28.3 17.05 33.05 11.6 34.6 L8.0 34.6 6.45 33.65 Q5.25 31.75 4.85 29.45 L4.65 28.25 5.15 27.4 Q6.35 25.6 8.25 25.05 L8.3 24.9 10.7 24.9 8.9 25.5 8.0 27.0 8.0 30.05 8.6 30.95 8.85 31.2 Q9.65 31.85 10.7 32.15 L11.3 32.15 12.9 31.65 14.35 30.65 14.65 30.35 14.95 26.4 14.05 24.9 Q13.3 24.15 12.2 23.7" fill="#def2fe" fill-rule="evenodd" stroke="none"/>
      <path d="M32.5 253.8 Q31.15 257.95 31.8 262.1 29.85 272.2 29.6 283.75 L28.8 282.15 Q27.65 274.95 29.65 269.15 30.9 265.5 30.6 260.65 L28.8 258.4 28.8 255.3 Q31.0 249.35 27.95 245.0 L26.6 242.75 Q22.85 239.55 18.1 237.25 16.9 236.65 16.75 235.6 19.8 232.1 23.5 229.85 24.65 229.2 25.25 227.95 L26.6 227.5 27.15 226.65 27.5 227.0 Q28.55 240.9 32.5 253.8 M28.75 331.5 Q29.3 332.7 27.15 332.9 25.75 330.0 25.7 326.05 L25.7 325.6 27.95 322.0 Q30.05 320.8 32.2 319.75 L32.35 320.9 32.45 320.95 32.05 321.85 Q30.1 326.55 28.75 331.5 M16.4 69.3 Q15.65 76.5 15.85 81.25 16.3 93.4 17.4 99.85 18.45 106.3 17.9 112.45 L16.85 123.45 Q14.65 121.3 12.2 119.65 L11.8 119.6 10.9 117.8 10.9 112.4 13.6 107.05 Q11.5 89.6 15.1 73.6 15.55 71.45 16.4 69.3 M23.95 163.05 L23.5 159.45 24.25 158.05 23.9 160.15 Q26.7 164.15 25.85 169.15 L24.2 176.95 Q22.75 182.45 20.7 187.65 L19.95 189.35 19.1 191.15 18.75 191.8 18.9 193.5 18.55 193.05 18.5 192.3 18.25 192.3 17.95 191.65 14.0 190.0 12.85 189.85 11.05 189.0 10.7 188.95 13.45 187.75 14.65 186.55 17.05 185.05 17.35 184.4 20.75 181.15 Q24.85 174.8 25.25 165.25 L23.95 163.05" fill="#caeafe" fill-rule="evenodd" stroke="none"/>
    </g>
  </defs>
</svg>
