<?xml version="1.0" encoding="UTF-8" standalone="no"?>
<svg xmlns:ffdec="https://www.free-decompiler.com/flash" xmlns:xlink="http://www.w3.org/1999/xlink" ffdec:objectType="frame" height="756.85px" width="83.35px" xmlns="http://www.w3.org/2000/svg">
  <g transform="matrix(1.0, 0.0, 0.0, 1.0, 25.9, 99.2)">
    <use ffdec:characterId="511" height="16.85" transform="matrix(0.9481, 0.3137, -0.3137, 0.9481, 4.9161, 18.5822)" width="16.6" xlink:href="#shape0"/>
    <use ffdec:characterId="508" height="13.3" transform="matrix(1.6504, 0.0, 0.0, 1.6504, -1.5248, 290.7248)" width="11.35" xlink:href="#shape1"/>
    <use ffdec:characterId="511" height="16.85" transform="matrix(0.009, -0.9999, 0.9999, 0.009, -3.3243, 327.4235)" width="16.6" xlink:href="#shape2"/>
    <use ffdec:characterId="510" height="13.45" transform="matrix(0.9849, -0.1653, 0.1653, 0.9849, 2.8346, 150.6599)" width="12.2" xlink:href="#shape3"/>
    <use ffdec:characterId="508" height="13.3" transform="matrix(0.2047, -2.7369, 2.7369, 0.2047, -18.507, 237.8027)" width="11.35" xlink:href="#shape1"/>
    <use ffdec:characterId="508" height="13.3" transform="matrix(0.9949, -0.0966, 0.0966, 0.9949, 3.5363, -55.2202)" width="11.35" xlink:href="#shape4"/>
    <clipPath id="clipPath0">
      <path d="M 9.95 201.82 L 8.8 201.84 L 7.68 201.89 L 6.57 201.98 L 5.49 202.1 L 4.43 202.26 L 3.38 202.45 L 2.36 202.67 L 1.36 202.93 L 0.37 203.22 L -0.59 203.55 L -1.53 203.91 L -2.45 204.31 L -3.35 204.74 L -3.79 204.97 L -4.23 205.21 L -4.66 205.45 L -5.09 205.71 L -5.51 205.97 L -5.93 206.24 L -6.34 206.52 L -6.74 206.81 L -7.54 207.42 L -8.32 208.06 L -9.07 208.73 L -9.81 209.44 L -10.52 210.18 L -11.22 210.96 L -11.89 211.77 L -12.55 212.61 L -13.18 213.49 L -13.79 214.41 L -14.39 215.36 L -14.96 216.34 L -15.51 217.36 L -16.04 218.41 L -16.55 219.5 L -16.55 349.85 L 57.45 349.85 L 57.45 219.5 L 55.65 218.41 L 53.87 217.36 L 52.1 216.34 L 50.36 215.36 L 48.64 214.41 L 46.94 213.49 L 45.26 212.61 L 43.61 211.77 L 41.97 210.96 L 40.35 210.18 L 38.75 209.44 L 37.18 208.73 L 35.62 208.06 L 34.08 207.42 L 32.57 206.81 L 31.08 206.24 L 29.6 205.71 L 28.15 205.21 L 26.71 204.74 L 25.3 204.31 L 23.91 203.91 L 22.54 203.55 L 21.19 203.22 L 19.86 202.93 L 18.55 202.67 L 17.26 202.45 L 15.99 202.26 L 14.74 202.1 L 13.51 201.98 L 12.3 201.89 L 11.12 201.84 L 9.95 201.82 Z"/>
    </clipPath>
    <g clip-path="url(#clipPath0)">
      <use ffdec:characterId="513" height="332.65" transform="matrix(1.0, 0.0, 0.0, 1.0, 0.0, 0.0)" width="33.25" xlink:href="#shape5"/>
    </g>
    <clipPath id="clipPath1">
      <path d="M 9.8 203.25 L 8.65 203.27 L 7.53 203.31 L 6.42 203.39 L 5.34 203.5 L 4.28 203.65 L 3.24 203.82 L 2.22 204.03 L 1.22 204.27 L 0.24 204.54 L -0.72 204.84 L -1.66 205.17 L -2.58 205.54 L -3.47 205.93 L -4.35 206.36 L -5.2 206.82 L -6.04 207.31 L -6.85 207.84 L -7.64 208.39 L -8.41 208.98 L -9.16 209.6 L -9.89 210.25 L -10.6 210.93 L -11.29 211.64 L -11.96 212.39 L -12.61 213.17 L -13.23 213.98 L -13.84 214.82 L -14.42 215.69 L -14.98 216.6 L -15.53 217.53 L -16.05 218.5 L -16.55 219.5 L -16.55 349.85 L 57.45 349.85 L 57.45 219.5 L 55.64 218.5 L 53.85 217.53 L 52.08 216.6 L 50.33 215.69 L 48.6 214.82 L 46.89 213.98 L 45.21 213.17 L 43.54 212.39 L 41.9 211.64 L 40.27 210.93 L 38.67 210.25 L 37.09 209.6 L 35.52 208.98 L 33.98 208.39 L 32.46 207.84 L 30.96 207.31 L 29.48 206.82 L 28.03 206.36 L 26.59 205.93 L 25.17 205.54 L 23.78 205.17 L 22.4 204.84 L 21.05 204.54 L 19.72 204.27 L 18.4 204.03 L 17.11 203.82 L 15.84 203.65 L 14.59 203.5 L 13.36 203.39 L 12.15 203.31 L 10.97 203.27 L 9.8 203.25 Z"/>
    </clipPath>
    <g clip-path="url(#clipPath1)">
      <use ffdec:characterId="515" height="333.65" transform="matrix(1.0, 0.0, 0.0, 1.0, -0.75, -0.75)" width="34.75" xlink:href="#shape6"/>
    </g>
  </g>
  <defs>
    <g id="shape0" transform="matrix(1.0, 0.0, 0.0, 1.0, 8.3, 8.4)">
      <path d="M7.65 0.45 Q7.0 4.45 4.4 6.2 1.8 7.95 -1.25 7.95 -3.9 7.95 -6.05 6.35 -7.95 4.9 -7.8 1.75 -7.6 -2.0 -5.25 -4.5 -3.1 -6.7 -0.5 -7.85 L0.35 -7.8 Q3.4 -8.25 5.9 -5.95 8.35 -3.7 7.65 0.45" fill="#ffffff" fill-rule="evenodd" stroke="none"/>
      <path d="M7.65 0.45 Q7.0 4.45 4.4 6.2 1.8 7.95 -1.25 7.95 -3.9 7.95 -6.05 6.35 -7.95 4.9 -7.8 1.75 -7.6 -2.0 -5.25 -4.5 -3.1 -6.7 -0.5 -7.85 L0.35 -7.8 Q3.4 -8.25 5.9 -5.95 8.35 -3.7 7.65 0.45 Z" ffdec:has-small-stroke="true" ffdec:original-stroke-width="1.0" fill="none" stroke="#000000" stroke-linecap="round" stroke-linejoin="round" stroke-width="1.0013554667344016"/>
    </g>
    <g id="shape1" transform="matrix(1.0, 0.0, 0.0, 1.0, 5.65, 6.65)">
      <path d="M4.25 -3.85 Q5.5 -1.95 5.1 0.9 4.75 3.7 2.4 5.25 0.1 6.7 -1.65 5.8 -3.4 4.85 -4.35 2.75 -5.25 0.9 -5.15 -1.35 -5.05 -3.4 -3.35 -4.8 -1.35 -6.5 0.7 -6.05 2.55 -5.65 4.0 -4.45 L4.25 -3.85" fill="#ffffff" fill-rule="evenodd" stroke="none"/>
      <path d="M4.25 -3.85 Q5.5 -1.95 5.1 0.9 4.75 3.7 2.4 5.25 0.1 6.7 -1.65 5.8 -3.4 4.85 -4.35 2.75 -5.25 0.9 -5.15 -1.35 -5.05 -3.4 -3.35 -4.8 -1.35 -6.5 0.7 -6.05 2.55 -5.65 4.0 -4.45 L4.25 -3.85 Z" fill="none" stroke="#000000" stroke-linecap="round" stroke-linejoin="round" stroke-width="1.0"/>
    </g>
    <g id="shape2" transform="matrix(1.0, 0.0, 0.0, 1.0, 8.3, 8.4)">
      <path d="M7.65 0.45 Q7.0 4.45 4.4 6.2 1.8 7.95 -1.25 7.95 -3.9 7.95 -6.05 6.35 -7.95 4.9 -7.8 1.75 -7.6 -2.0 -5.25 -4.5 -3.1 -6.7 -0.5 -7.85 L0.35 -7.8 Q3.4 -8.25 5.9 -5.95 8.35 -3.7 7.65 0.45" fill="#ffffff" fill-rule="evenodd" stroke="none"/>
      <path d="M7.65 0.45 Q7.0 4.45 4.4 6.2 1.8 7.95 -1.25 7.95 -3.9 7.95 -6.05 6.35 -7.95 4.9 -7.8 1.75 -7.6 -2.0 -5.25 -4.5 -3.1 -6.7 -0.5 -7.85 L0.35 -7.8 Q3.4 -8.25 5.9 -5.95 8.35 -3.7 7.65 0.45 Z" ffdec:has-small-stroke="true" ffdec:original-stroke-width="1.0" fill="none" stroke="#000000" stroke-linecap="round" stroke-linejoin="round" stroke-width="1.0000354935451792"/>
    </g>
    <g id="shape3" transform="matrix(1.0, 0.0, 0.0, 1.0, 6.1, 6.7)">
      <path d="M0.55 -5.95 Q2.45 -6.1 3.95 -4.25 5.45 -2.35 5.6 0.6 5.75 3.5 3.7 4.9 1.7 6.25 -0.65 6.25 -2.7 6.25 -4.25 4.75 -5.8 3.25 -5.6 -0.25 -5.4 -3.8 -3.75 -5.1 -2.05 -6.35 -0.9 -6.2 L0.55 -5.95" fill="#ffffff" fill-rule="evenodd" stroke="none"/>
      <path d="M0.55 -5.95 Q2.45 -6.1 3.95 -4.25 5.45 -2.35 5.6 0.6 5.75 3.5 3.7 4.9 1.7 6.25 -0.65 6.25 -2.7 6.25 -4.25 4.75 -5.8 3.25 -5.6 -0.25 -5.4 -3.8 -3.75 -5.1 -2.05 -6.35 -0.9 -6.2 L0.55 -5.95 Z" ffdec:has-small-stroke="true" ffdec:original-stroke-width="1.0" fill="none" stroke="#000000" stroke-linecap="round" stroke-linejoin="round" stroke-width="1.0013580844817735"/>
    </g>
    <g id="shape4" transform="matrix(1.0, 0.0, 0.0, 1.0, 5.65, 6.65)">
      <path d="M4.25 -3.85 Q5.5 -1.95 5.1 0.9 4.75 3.7 2.4 5.25 0.1 6.7 -1.65 5.8 -3.4 4.85 -4.35 2.75 -5.25 0.9 -5.15 -1.35 -5.05 -3.4 -3.35 -4.8 -1.35 -6.5 0.7 -6.05 2.55 -5.65 4.0 -4.45 L4.25 -3.85" fill="#ffffff" fill-rule="evenodd" stroke="none"/>
      <path d="M4.25 -3.85 Q5.5 -1.95 5.1 0.9 4.75 3.7 2.4 5.25 0.1 6.7 -1.65 5.8 -3.4 4.85 -4.35 2.75 -5.25 0.9 -5.15 -1.35 -5.05 -3.4 -3.35 -4.8 -1.35 -6.5 0.7 -6.05 2.55 -5.65 4.0 -4.45 L4.25 -3.85 Z" ffdec:has-small-stroke="true" ffdec:original-stroke-width="1.0" fill="none" stroke="#000000" stroke-linecap="round" stroke-linejoin="round" stroke-width="1.0004161263265128"/>
    </g>
    <g id="shape5" transform="matrix(1.0, 0.0, 0.0, 1.0, 0.0, 0.0)">
      <path d="M4.3 1.7 Q26.3 18.75 21.45 40.75 16.15 68.8 16.6 80.95 17.05 93.1 18.15 99.55 19.2 106.0 18.65 112.15 L17.55 123.6 Q24.3 134.95 25.3 147.9 25.8 153.9 24.65 159.85 27.45 163.85 26.6 168.85 24.85 179.4 20.7 189.05 L19.5 191.5 21.55 219.6 28.25 226.7 Q29.3 240.6 33.25 253.5 31.9 257.65 32.55 261.8 27.75 286.85 33.1 320.6 L33.2 320.65 32.8 321.55 Q30.85 326.25 29.5 331.2 31.45 335.5 0.0 326.9 L0.0 0.0 4.3 1.7" fill="#000000" fill-rule="evenodd" stroke="none"/>
    </g>
    <g id="shape6" transform="matrix(1.0, 0.0, 0.0, 1.0, 0.75, 0.75)">
      <path d="M0.0 0.0 L4.3 1.7 Q26.3 18.75 21.45 40.75 16.15 68.8 16.6 80.95 17.05 93.1 18.15 99.55 19.2 106.0 18.65 112.15 L17.55 123.6 Q24.3 134.95 25.3 147.9 25.8 153.9 24.65 159.85 27.45 163.85 26.6 168.85 24.85 179.4 20.7 189.05 L19.5 191.5 21.55 219.6 28.25 226.7 Q29.3 240.6 33.25 253.5 31.9 257.65 32.55 261.8 27.75 286.85 33.1 320.6 L33.2 320.65 32.8 321.55 Q30.85 326.25 29.5 331.2 31.45 335.5 0.0 326.9 L0.0 0.0" fill="#ffffff" fill-rule="evenodd" stroke="none"/>
      <path d="M0.0 0.0 L4.3 1.7 Q26.3 18.75 21.45 40.75 16.15 68.8 16.6 80.95 17.05 93.1 18.15 99.55 19.2 106.0 18.65 112.15 L17.55 123.6 Q24.3 134.95 25.3 147.9 25.8 153.9 24.65 159.85 27.45 163.85 26.6 168.85 24.85 179.4 20.7 189.05 L19.5 191.5 21.55 219.6 28.25 226.7 Q29.3 240.6 33.25 253.5 31.9 257.65 32.55 261.8 27.75 286.85 33.1 320.6 L33.2 320.65 32.8 321.55 Q30.85 326.25 29.5 331.2" fill="none" stroke="#000000" stroke-linecap="round" stroke-linejoin="round" stroke-width="1.5"/>
      <path d="M12.2 23.7 Q11.05 23.25 9.6 23.15 L9.35 23.1 7.4 23.1 6.45 23.1 4.4 25.55 Q2.0 28.15 -0.75 30.35 L-0.75 21.0 1.2 20.6 8.25 20.3 Q14.8 20.15 16.3 24.65 17.0 26.65 17.0 28.3 17.05 33.05 11.6 34.6 L8.0 34.6 6.45 33.65 Q5.25 31.75 4.85 29.45 L4.65 28.25 5.15 27.4 Q6.35 25.6 8.25 25.05 L8.3 24.9 10.7 24.9 8.9 25.5 8.0 27.0 8.0 30.05 8.6 30.95 8.85 31.2 Q9.65 31.85 10.7 32.15 L11.3 32.15 12.9 31.65 14.35 30.65 14.65 30.35 14.95 26.4 14.05 24.9 Q13.3 24.15 12.2 23.7" fill="#def2fe" fill-rule="evenodd" stroke="none"/>
      <path d="M32.5 253.8 Q31.15 257.95 31.8 262.1 29.85 272.2 29.6 283.75 L28.8 282.15 Q27.65 274.95 29.65 269.15 30.9 265.5 30.6 260.65 L28.8 258.4 28.8 255.3 Q31.0 249.35 27.95 245.0 L26.6 242.75 Q22.85 239.55 18.1 237.25 16.9 236.65 16.75 235.6 19.8 232.1 23.5 229.85 24.65 229.2 25.25 227.95 L26.6 227.5 27.15 226.65 27.5 227.0 Q28.55 240.9 32.5 253.8 M28.75 331.5 Q29.3 332.7 27.15 332.9 25.75 330.0 25.7 326.05 L25.7 325.6 27.95 322.0 Q30.05 320.8 32.2 319.75 L32.35 320.9 32.45 320.95 32.05 321.85 Q30.1 326.55 28.75 331.5 M16.4 69.3 Q15.65 76.5 15.85 81.25 16.3 93.4 17.4 99.85 18.45 106.3 17.9 112.45 L16.85 123.45 Q14.65 121.3 12.2 119.65 L11.8 119.6 10.9 117.8 10.9 112.4 13.6 107.05 Q11.5 89.6 15.1 73.6 15.55 71.45 16.4 69.3 M23.95 163.05 L23.5 159.45 24.25 158.05 23.9 160.15 Q26.7 164.15 25.85 169.15 L24.2 176.95 Q22.75 182.45 20.7 187.65 L19.95 189.35 19.1 191.15 18.75 191.8 18.9 193.5 18.55 193.05 18.5 192.3 18.25 192.3 17.95 191.65 14.0 190.0 12.85 189.85 11.05 189.0 10.7 188.95 13.45 187.75 14.65 186.55 17.05 185.05 17.35 184.4 20.75 181.15 Q24.85 174.8 25.25 165.25 L23.95 163.05" fill="#caeafe" fill-rule="evenodd" stroke="none"/>
    </g>
  </defs>
</svg>
