<?xml version="1.0" encoding="UTF-8" standalone="no"?>
<svg xmlns:ffdec="https://www.free-decompiler.com/flash" xmlns:xlink="http://www.w3.org/1999/xlink" ffdec:objectType="frame" height="756.85px" width="83.35px" xmlns="http://www.w3.org/2000/svg">
  <g transform="matrix(1.0, 0.0, 0.0, 1.0, 25.9, 99.2)">
    <use ffdec:characterId="511" height="16.85" transform="matrix(0.8453, 0.5304, -0.5304, 0.8453, 7.5398, 107.6974)" width="16.6" xlink:href="#shape0"/>
    <use ffdec:characterId="510" height="13.45" transform="matrix(0.9723, -0.2255, 0.2255, 0.9723, 2.5578, 236.861)" width="12.2" xlink:href="#shape1"/>
    <use ffdec:characterId="508" height="13.3" transform="matrix(-0.9041, -2.6225, 2.6225, -0.9041, -12.2815, 322.5291)" width="11.35" xlink:href="#shape2"/>
    <use ffdec:characterId="510" height="13.45" transform="matrix(0.9918, 0.1229, -0.1229, 0.9918, -5.2267, -22.5445)" width="12.2" xlink:href="#shape3"/>
    <use ffdec:characterId="508" height="13.3" transform="matrix(0.9219, -0.3834, 0.3834, 0.9219, 2.0415, 49.3357)" width="11.35" xlink:href="#shape4"/>
    <clipPath id="clipPath0">
      <path d="M 7.65 153.57 L 6.51 153.59 L 5.39 153.65 L 4.29 153.75 L 3.76 153.81 L 3.22 153.88 L 2.7 153.96 L 2.18 154.05 L 1.67 154.15 L 1.16 154.26 L 0.66 154.38 L 0.17 154.5 L -0.32 154.64 L -0.8 154.79 L -1.27 154.95 L -1.74 155.11 L -2.21 155.29 L -2.66 155.47 L -3.11 155.67 L -3.56 155.87 L -3.99 156.08 L -4.43 156.31 L -4.85 156.54 L -5.27 156.78 L -5.68 157.03 L -6.09 157.29 L -6.49 157.56 L -6.88 157.84 L -7.27 158.13 L -7.65 158.43 L -8.02 158.74 L -8.39 159.06 L -8.76 159.38 L -9.11 159.72 L -9.46 160.07 L -9.81 160.42 L -10.14 160.79 L -10.48 161.16 L -10.8 161.55 L -11.12 161.94 L -11.43 162.34 L -11.74 162.76 L -12.04 163.18 L -12.33 163.61 L -12.62 164.05 L -12.9 164.5 L -13.18 164.96 L -13.44 165.43 L -13.96 166.4 L -14.46 167.4 L -14.93 168.45 L -15.37 169.53 L -15.79 170.65 L -16.18 171.8 L -16.55 173 L -16.55 349.9 L 57.45 349.9 L 57.45 173 L 55.51 171.8 L 53.59 170.65 L 51.69 169.53 L 49.83 168.45 L 47.98 167.4 L 46.16 166.4 L 44.37 165.43 L 42.6 164.5 L 40.86 163.61 L 39.14 162.76 L 37.44 161.94 L 35.78 161.16 L 34.13 160.42 L 32.51 159.72 L 30.92 159.06 L 29.35 158.43 L 27.81 157.84 L 26.29 157.29 L 24.79 156.78 L 23.33 156.31 L 21.88 155.87 L 20.46 155.47 L 19.07 155.11 L 17.7 154.79 L 16.36 154.5 L 15.04 154.26 L 13.74 154.05 L 12.48 153.88 L 11.23 153.75 L 10.01 153.65 L 8.82 153.59 L 7.65 153.57 Z"/>
    </clipPath>
    <g clip-path="url(#clipPath0)">
      <use ffdec:characterId="513" height="332.65" transform="matrix(1.0, 0.0, 0.0, 1.0, 0.0, 0.0)" width="33.25" xlink:href="#shape5"/>
    </g>
    <clipPath id="clipPath1">
      <path d="M 7.43 154.93 L 6.28 154.94 L 5.16 155 L 4.07 155.08 L 3 155.21 L 1.96 155.37 L 0.95 155.56 L 0.45 155.67 L -0.05 155.79 L -0.53 155.92 L -1.01 156.05 L -1.48 156.2 L -1.95 156.35 L -2.41 156.52 L -2.87 156.69 L -3.31 156.87 L -3.75 157.06 L -4.19 157.26 L -4.62 157.47 L -5.04 157.68 L -5.46 157.91 L -5.87 158.14 L -6.27 158.38 L -6.67 158.64 L -7.06 158.9 L -7.44 159.17 L -7.82 159.44 L -8.19 159.73 L -8.56 160.03 L -8.91 160.33 L -9.27 160.64 L -9.61 160.97 L -9.95 161.3 L -10.29 161.64 L -10.61 161.99 L -10.93 162.34 L -11.25 162.71 L -11.55 163.08 L -11.86 163.47 L -12.15 163.86 L -12.44 164.26 L -12.72 164.67 L -13 165.09 L -13.27 165.52 L -13.53 165.96 L -14.04 166.86 L -14.52 167.79 L -14.98 168.76 L -15.41 169.77 L -15.81 170.81 L -16.2 171.89 L -16.55 173 L -16.55 349.9 L 57.45 349.9 L 57.45 173 L 55.49 171.89 L 53.56 170.81 L 51.65 169.77 L 49.77 168.76 L 47.92 167.79 L 46.09 166.86 L 44.28 165.96 L 42.5 165.09 L 40.75 164.26 L 39.02 163.47 L 37.32 162.71 L 35.64 161.99 L 33.99 161.3 L 32.36 160.64 L 30.76 160.03 L 29.18 159.44 L 27.63 158.9 L 26.11 158.38 L 24.61 157.91 L 23.13 157.47 L 21.68 157.06 L 20.26 156.69 L 18.86 156.35 L 17.49 156.05 L 16.14 155.79 L 14.82 155.56 L 13.52 155.37 L 12.25 155.21 L 11.01 155.08 L 9.79 155 L 8.59 154.94 L 7.43 154.93 Z"/>
    </clipPath>
    <g clip-path="url(#clipPath1)">
      <use ffdec:characterId="515" height="333.65" transform="matrix(1.0, 0.0, 0.0, 1.0, -0.75, -0.75)" width="34.75" xlink:href="#shape6"/>
    </g>
  </g>
  <defs>
    <g id="shape0" transform="matrix(1.0, 0.0, 0.0, 1.0, 8.3, 8.4)">
      <path d="M7.65 0.45 Q7.0 4.45 4.4 6.2 1.8 7.95 -1.25 7.95 -3.9 7.95 -6.05 6.35 -7.95 4.9 -7.8 1.75 -7.6 -2.0 -5.25 -4.5 -3.1 -6.7 -0.5 -7.85 L0.35 -7.8 Q3.4 -8.25 5.9 -5.95 8.35 -3.7 7.65 0.45" fill="#ffffff" fill-rule="evenodd" stroke="none"/>
      <path d="M7.65 0.45 Q7.0 4.45 4.4 6.2 1.8 7.95 -1.25 7.95 -3.9 7.95 -6.05 6.35 -7.95 4.9 -7.8 1.75 -7.6 -2.0 -5.25 -4.5 -3.1 -6.7 -0.5 -7.85 L0.35 -7.8 Q3.4 -8.25 5.9 -5.95 8.35 -3.7 7.65 0.45 Z" ffdec:has-small-stroke="true" ffdec:original-stroke-width="1.0" fill="none" stroke="#000000" stroke-linecap="round" stroke-linejoin="round" stroke-width="1.0021060861399245"/>
    </g>
    <g id="shape1" transform="matrix(1.0, 0.0, 0.0, 1.0, 6.1, 6.7)">
      <path d="M0.55 -5.95 Q2.45 -6.1 3.95 -4.25 5.45 -2.35 5.6 0.6 5.75 3.5 3.7 4.9 1.7 6.25 -0.65 6.25 -2.7 6.25 -4.25 4.75 -5.8 3.25 -5.6 -0.25 -5.4 -3.8 -3.75 -5.1 -2.05 -6.35 -0.9 -6.2 L0.55 -5.95" fill="#ffffff" fill-rule="evenodd" stroke="none"/>
      <path d="M0.55 -5.95 Q2.45 -6.1 3.95 -4.25 5.45 -2.35 5.6 0.6 5.75 3.5 3.7 4.9 1.7 6.25 -0.65 6.25 -2.7 6.25 -4.25 4.75 -5.8 3.25 -5.6 -0.25 -5.4 -3.8 -3.75 -5.1 -2.05 -6.35 -0.9 -6.2 L0.55 -5.95 Z" ffdec:has-small-stroke="true" ffdec:original-stroke-width="1.0" fill="none" stroke="#000000" stroke-linecap="round" stroke-linejoin="round" stroke-width="1.0018594045989155"/>
    </g>
    <g id="shape2" transform="matrix(1.0, 0.0, 0.0, 1.0, 5.65, 6.65)">
      <path d="M4.25 -3.85 Q5.5 -1.95 5.1 0.9 4.75 3.7 2.4 5.25 0.1 6.7 -1.65 5.8 -3.4 4.85 -4.35 2.75 -5.25 0.9 -5.15 -1.35 -5.05 -3.4 -3.35 -4.8 -1.35 -6.5 0.7 -6.05 2.55 -5.65 4.0 -4.45 L4.25 -3.85" fill="#ffffff" fill-rule="evenodd" stroke="none"/>
      <path d="M4.25 -3.85 Q5.5 -1.95 5.1 0.9 4.75 3.7 2.4 5.25 0.1 6.7 -1.65 5.8 -3.4 4.85 -4.35 2.75 -5.25 0.9 -5.15 -1.35 -5.05 -3.4 -3.35 -4.8 -1.35 -6.5 0.7 -6.05 2.55 -5.65 4.0 -4.45 L4.25 -3.85 Z" fill="none" stroke="#000000" stroke-linecap="round" stroke-linejoin="round" stroke-width="1.0"/>
    </g>
    <g id="shape3" transform="matrix(1.0, 0.0, 0.0, 1.0, 6.1, 6.7)">
      <path d="M0.55 -5.95 Q2.45 -6.1 3.95 -4.25 5.45 -2.35 5.6 0.6 5.75 3.5 3.7 4.9 1.7 6.25 -0.65 6.25 -2.7 6.25 -4.25 4.75 -5.8 3.25 -5.6 -0.25 -5.4 -3.8 -3.75 -5.1 -2.05 -6.35 -0.9 -6.2 L0.55 -5.95" fill="#ffffff" fill-rule="evenodd" stroke="none"/>
      <path d="M0.55 -5.95 Q2.45 -6.1 3.95 -4.25 5.45 -2.35 5.6 0.6 5.75 3.5 3.7 4.9 1.7 6.25 -0.65 6.25 -2.7 6.25 -4.25 4.75 -5.8 3.25 -5.6 -0.25 -5.4 -3.8 -3.75 -5.1 -2.05 -6.35 -0.9 -6.2 L0.55 -5.95 Z" ffdec:has-small-stroke="true" ffdec:original-stroke-width="1.0" fill="none" stroke="#000000" stroke-linecap="round" stroke-linejoin="round" stroke-width="1.0006283716480555"/>
    </g>
    <g id="shape4" transform="matrix(1.0, 0.0, 0.0, 1.0, 5.65, 6.65)">
      <path d="M4.25 -3.85 Q5.5 -1.95 5.1 0.9 4.75 3.7 2.4 5.25 0.1 6.7 -1.65 5.8 -3.4 4.85 -4.35 2.75 -5.25 0.9 -5.15 -1.35 -5.05 -3.4 -3.35 -4.8 -1.35 -6.5 0.7 -6.05 2.55 -5.65 4.0 -4.45 L4.25 -3.85" fill="#ffffff" fill-rule="evenodd" stroke="none"/>
      <path d="M4.25 -3.85 Q5.5 -1.95 5.1 0.9 4.75 3.7 2.4 5.25 0.1 6.7 -1.65 5.8 -3.4 4.85 -4.35 2.75 -5.25 0.9 -5.15 -1.35 -5.05 -3.4 -3.35 -4.8 -1.35 -6.5 0.7 -6.05 2.55 -5.65 4.0 -4.45 L4.25 -3.85 Z" ffdec:has-small-stroke="true" ffdec:original-stroke-width="1.0" fill="none" stroke="#000000" stroke-linecap="round" stroke-linejoin="round" stroke-width="1.0015421266907218"/>
    </g>
    <g id="shape5" transform="matrix(1.0, 0.0, 0.0, 1.0, 0.0, 0.0)">
      <path d="M4.3 1.7 Q26.3 18.75 21.45 40.75 16.15 68.8 16.6 80.95 17.05 93.1 18.15 99.55 19.2 106.0 18.65 112.15 L17.55 123.6 Q24.3 134.95 25.3 147.9 25.8 153.9 24.65 159.85 27.45 163.85 26.6 168.85 24.85 179.4 20.7 189.05 L19.5 191.5 21.55 219.6 28.25 226.7 Q29.3 240.6 33.25 253.5 31.9 257.65 32.55 261.8 27.75 286.85 33.1 320.6 L33.2 320.65 32.8 321.55 Q30.85 326.25 29.5 331.2 31.45 335.5 0.0 326.9 L0.0 0.0 4.3 1.7" fill="#000000" fill-rule="evenodd" stroke="none"/>
    </g>
    <g id="shape6" transform="matrix(1.0, 0.0, 0.0, 1.0, 0.75, 0.75)">
      <path d="M0.0 0.0 L4.3 1.7 Q26.3 18.75 21.45 40.75 16.15 68.8 16.6 80.95 17.05 93.1 18.15 99.55 19.2 106.0 18.65 112.15 L17.55 123.6 Q24.3 134.95 25.3 147.9 25.8 153.9 24.65 159.85 27.45 163.85 26.6 168.85 24.85 179.4 20.7 189.05 L19.5 191.5 21.55 219.6 28.25 226.7 Q29.3 240.6 33.25 253.5 31.9 257.65 32.55 261.8 27.75 286.85 33.1 320.6 L33.2 320.65 32.8 321.55 Q30.85 326.25 29.5 331.2 31.45 335.5 0.0 326.9 L0.0 0.0" fill="#ffffff" fill-rule="evenodd" stroke="none"/>
      <path d="M0.0 0.0 L4.3 1.7 Q26.3 18.75 21.45 40.75 16.15 68.8 16.6 80.95 17.05 93.1 18.15 99.55 19.2 106.0 18.65 112.15 L17.55 123.6 Q24.3 134.95 25.3 147.9 25.8 153.9 24.65 159.85 27.45 163.85 26.6 168.85 24.85 179.4 20.7 189.05 L19.5 191.5 21.55 219.6 28.25 226.7 Q29.3 240.6 33.25 253.5 31.9 257.65 32.55 261.8 27.75 286.85 33.1 320.6 L33.2 320.65 32.8 321.55 Q30.85 326.25 29.5 331.2" fill="none" stroke="#000000" stroke-linecap="round" stroke-linejoin="round" stroke-width="1.5"/>
      <path d="M12.2 23.7 Q11.05 23.25 9.6 23.15 L9.35 23.1 7.4 23.1 6.45 23.1 4.4 25.55 Q2.0 28.15 -0.75 30.35 L-0.75 21.0 1.2 20.6 8.25 20.3 Q14.8 20.15 16.3 24.65 17.0 26.65 17.0 28.3 17.05 33.05 11.6 34.6 L8.0 34.6 6.45 33.65 Q5.25 31.75 4.85 29.45 L4.65 28.25 5.15 27.4 Q6.35 25.6 8.25 25.05 L8.3 24.9 10.7 24.9 8.9 25.5 8.0 27.0 8.0 30.05 8.6 30.95 8.85 31.2 Q9.65 31.85 10.7 32.15 L11.3 32.15 12.9 31.65 14.35 30.65 14.65 30.35 14.95 26.4 14.05 24.9 Q13.3 24.15 12.2 23.7" fill="#def2fe" fill-rule="evenodd" stroke="none"/>
      <path d="M32.5 253.8 Q31.15 257.95 31.8 262.1 29.85 272.2 29.6 283.75 L28.8 282.15 Q27.65 274.95 29.65 269.15 30.9 265.5 30.6 260.65 L28.8 258.4 28.8 255.3 Q31.0 249.35 27.95 245.0 L26.6 242.75 Q22.85 239.55 18.1 237.25 16.9 236.65 16.75 235.6 19.8 232.1 23.5 229.85 24.65 229.2 25.25 227.95 L26.6 227.5 27.15 226.65 27.5 227.0 Q28.55 240.9 32.5 253.8 M28.75 331.5 Q29.3 332.7 27.15 332.9 25.75 330.0 25.7 326.05 L25.7 325.6 27.95 322.0 Q30.05 320.8 32.2 319.75 L32.35 320.9 32.45 320.95 32.05 321.85 Q30.1 326.55 28.75 331.5 M16.4 69.3 Q15.65 76.5 15.85 81.25 16.3 93.4 17.4 99.85 18.45 106.3 17.9 112.45 L16.85 123.45 Q14.65 121.3 12.2 119.65 L11.8 119.6 10.9 117.8 10.9 112.4 13.6 107.05 Q11.5 89.6 15.1 73.6 15.55 71.45 16.4 69.3 M23.95 163.05 L23.5 159.45 24.25 158.05 23.9 160.15 Q26.7 164.15 25.85 169.15 L24.2 176.95 Q22.75 182.45 20.7 187.65 L19.95 189.35 19.1 191.15 18.75 191.8 18.9 193.5 18.55 193.05 18.5 192.3 18.25 192.3 17.95 191.65 14.0 190.0 12.85 189.85 11.05 189.0 10.7 188.95 13.45 187.75 14.65 186.55 17.05 185.05 17.35 184.4 20.75 181.15 Q24.85 174.8 25.25 165.25 L23.95 163.05" fill="#caeafe" fill-rule="evenodd" stroke="none"/>
    </g>
  </defs>
</svg>
