<?xml version="1.0" encoding="UTF-8" standalone="no"?>
<svg xmlns:ffdec="https://www.free-decompiler.com/flash" xmlns:xlink="http://www.w3.org/1999/xlink" ffdec:objectType="frame" height="756.85px" width="83.35px" xmlns="http://www.w3.org/2000/svg">
  <g transform="matrix(1.0, 0.0, 0.0, 1.0, 25.9, 99.2)">
    <use ffdec:characterId="511" height="16.85" transform="matrix(0.7486, 0.6594, -0.6594, 0.7486, 9.4261, 167.4391)" width="16.6" xlink:href="#shape0"/>
    <use ffdec:characterId="510" height="13.45" transform="matrix(0.9614, -0.2673, 0.2673, 0.9614, 2.3449, 294.3392)" width="12.2" xlink:href="#shape1"/>
    <use ffdec:characterId="510" height="13.45" transform="matrix(0.9677, 0.247, -0.247, 0.9677, -4.2483, 33.9596)" width="12.2" xlink:href="#shape2"/>
    <use ffdec:characterId="508" height="13.3" transform="matrix(0.8265, -0.5592, 0.5592, 0.8265, 1.4616, 119.363)" width="11.35" xlink:href="#shape3"/>
    <clipPath id="clipPath0">
      <path d="M 6.25 124.55 L 5.68 124.56 L 5.11 124.57 L 4.55 124.6 L 3.99 124.63 L 3.45 124.68 L 2.91 124.73 L 2.37 124.8 L 1.85 124.87 L 1.33 124.96 L 0.82 125.05 L 0.31 125.16 L -0.19 125.27 L -0.68 125.4 L -1.16 125.53 L -1.64 125.68 L -2.11 125.83 L -2.58 126 L -3.03 126.17 L -3.48 126.36 L -3.93 126.55 L -4.36 126.76 L -4.79 126.97 L -5.21 127.2 L -5.63 127.43 L -6.04 127.68 L -6.44 127.93 L -6.83 128.2 L -7.22 128.47 L -7.6 128.76 L -7.97 129.05 L -8.34 129.36 L -8.7 129.68 L -9.05 130 L -9.4 130.34 L -9.74 130.68 L -10.07 131.04 L -10.39 131.4 L -10.71 131.78 L -11.02 132.16 L -11.33 132.56 L -11.63 132.96 L -11.92 133.38 L -12.2 133.8 L -12.48 134.24 L -12.75 134.68 L -13.01 135.14 L -13.26 135.61 L -13.51 136.08 L -13.75 136.57 L -13.99 137.06 L -14.22 137.57 L -14.44 138.08 L -14.65 138.61 L -14.86 139.14 L -15.25 140.25 L -15.62 141.39 L -15.96 142.57 L -16.27 143.79 L -16.55 145.05 L -16.55 349.9 L 57.45 349.9 L 57.45 145.05 L 55.42 143.79 L 53.42 142.57 L 51.44 141.39 L 49.5 140.25 L 47.58 139.14 L 45.69 138.08 L 43.82 137.06 L 41.99 136.08 L 40.18 135.14 L 38.4 134.24 L 36.65 133.38 L 34.92 132.56 L 33.22 131.78 L 31.56 131.04 L 29.91 130.34 L 28.3 129.68 L 26.71 129.05 L 25.16 128.47 L 23.62 127.93 L 22.12 127.43 L 20.65 126.97 L 19.2 126.55 L 17.78 126.17 L 16.39 125.83 L 15.02 125.53 L 13.69 125.27 L 12.38 125.05 L 11.1 124.87 L 9.84 124.73 L 8.62 124.63 L 7.42 124.57 L 6.25 124.55 Z"/>
    </clipPath>
    <g clip-path="url(#clipPath0)">
      <use ffdec:characterId="513" height="332.65" transform="matrix(1.0, 0.0, 0.0, 1.0, 0.0, 0.0)" width="33.25" xlink:href="#shape4"/>
    </g>
    <clipPath id="clipPath1">
      <path d="M 6 125.9 L 4.86 125.92 L 3.74 125.97 L 2.66 126.07 L 2.13 126.13 L 1.6 126.2 L 1.08 126.28 L 0.57 126.37 L 0.07 126.47 L -0.43 126.57 L -0.92 126.69 L -1.4 126.82 L -1.88 126.95 L -2.35 127.1 L -2.81 127.25 L -3.26 127.41 L -3.71 127.59 L -4.15 127.77 L -4.58 127.96 L -5.01 128.16 L -5.43 128.37 L -5.84 128.59 L -6.25 128.82 L -6.65 129.06 L -7.04 129.31 L -7.42 129.57 L -7.8 129.83 L -8.17 130.11 L -8.53 130.39 L -8.89 130.69 L -9.24 130.99 L -9.58 131.3 L -9.91 131.63 L -10.24 131.96 L -10.56 132.3 L -10.87 132.65 L -11.18 133.01 L -11.48 133.38 L -11.77 133.76 L -12.06 134.15 L -12.34 134.54 L -12.61 134.95 L -12.87 135.37 L -13.13 135.79 L -13.38 136.23 L -13.62 136.67 L -13.86 137.13 L -14.09 137.59 L -14.31 138.06 L -14.52 138.54 L -14.73 139.03 L -14.93 139.53 L -15.31 140.56 L -15.66 141.63 L -15.99 142.73 L -16.28 143.87 L -16.55 145.05 L -16.55 349.9 L 57.45 349.9 L 57.45 145.05 L 55.4 143.87 L 53.39 142.73 L 51.4 141.63 L 49.44 140.56 L 47.51 139.53 L 45.6 138.54 L 43.73 137.59 L 41.88 136.67 L 40.06 135.79 L 38.27 134.95 L 36.5 134.15 L 34.77 133.38 L 33.06 132.65 L 31.38 131.96 L 29.73 131.3 L 28.11 130.69 L 26.52 130.11 L 24.95 129.57 L 23.42 129.06 L 21.91 128.59 L 20.43 128.16 L 18.97 127.77 L 17.55 127.41 L 16.15 127.1 L 14.79 126.82 L 13.45 126.57 L 12.13 126.37 L 10.85 126.2 L 9.6 126.07 L 8.37 125.97 L 7.17 125.92 L 6 125.9 Z"/>
    </clipPath>
    <g clip-path="url(#clipPath1)">
      <use ffdec:characterId="515" height="333.65" transform="matrix(1.0, 0.0, 0.0, 1.0, -0.75, -0.75)" width="34.75" xlink:href="#shape5"/>
    </g>
  </g>
  <defs>
    <g id="shape0" transform="matrix(1.0, 0.0, 0.0, 1.0, 8.3, 8.4)">
      <path d="M7.65 0.45 Q7.0 4.45 4.4 6.2 1.8 7.95 -1.25 7.95 -3.9 7.95 -6.05 6.35 -7.95 4.9 -7.8 1.75 -7.6 -2.0 -5.25 -4.5 -3.1 -6.7 -0.5 -7.85 L0.35 -7.8 Q3.4 -8.25 5.9 -5.95 8.35 -3.7 7.65 0.45" fill="#ffffff" fill-rule="evenodd" stroke="none"/>
      <path d="M7.65 0.45 Q7.0 4.45 4.4 6.2 1.8 7.95 -1.25 7.95 -3.9 7.95 -6.05 6.35 -7.95 4.9 -7.8 1.75 -7.6 -2.0 -5.25 -4.5 -3.1 -6.7 -0.5 -7.85 L0.35 -7.8 Q3.4 -8.25 5.9 -5.95 8.35 -3.7 7.65 0.45 Z" ffdec:has-small-stroke="true" ffdec:original-stroke-width="1.0" fill="none" stroke="#000000" stroke-linecap="round" stroke-linejoin="round" stroke-width="1.0024351737283723"/>
    </g>
    <g id="shape1" transform="matrix(1.0, 0.0, 0.0, 1.0, 6.1, 6.7)">
      <path d="M0.55 -5.95 Q2.45 -6.1 3.95 -4.25 5.45 -2.35 5.6 0.6 5.75 3.5 3.7 4.9 1.7 6.25 -0.65 6.25 -2.7 6.25 -4.25 4.75 -5.8 3.25 -5.6 -0.25 -5.4 -3.8 -3.75 -5.1 -2.05 -6.35 -0.9 -6.2 L0.55 -5.95" fill="#ffffff" fill-rule="evenodd" stroke="none"/>
      <path d="M0.55 -5.95 Q2.45 -6.1 3.95 -4.25 5.45 -2.35 5.6 0.6 5.75 3.5 3.7 4.9 1.7 6.25 -0.65 6.25 -2.7 6.25 -4.25 4.75 -5.8 3.25 -5.6 -0.25 -5.4 -3.8 -3.75 -5.1 -2.05 -6.35 -0.9 -6.2 L0.55 -5.95 Z" ffdec:has-small-stroke="true" ffdec:original-stroke-width="1.0" fill="none" stroke="#000000" stroke-linecap="round" stroke-linejoin="round" stroke-width="1.0021785965923729"/>
    </g>
    <g id="shape2" transform="matrix(1.0, 0.0, 0.0, 1.0, 6.1, 6.7)">
      <path d="M0.55 -5.95 Q2.45 -6.1 3.95 -4.25 5.45 -2.35 5.6 0.6 5.75 3.5 3.7 4.9 1.7 6.25 -0.65 6.25 -2.7 6.25 -4.25 4.75 -5.8 3.25 -5.6 -0.25 -5.4 -3.8 -3.75 -5.1 -2.05 -6.35 -0.9 -6.2 L0.55 -5.95" fill="#ffffff" fill-rule="evenodd" stroke="none"/>
      <path d="M0.55 -5.95 Q2.45 -6.1 3.95 -4.25 5.45 -2.35 5.6 0.6 5.75 3.5 3.7 4.9 1.7 6.25 -0.65 6.25 -2.7 6.25 -4.25 4.75 -5.8 3.25 -5.6 -0.25 -5.4 -3.8 -3.75 -5.1 -2.05 -6.35 -0.9 -6.2 L0.55 -5.95 Z" ffdec:has-small-stroke="true" ffdec:original-stroke-width="1.0" fill="none" stroke="#000000" stroke-linecap="round" stroke-linejoin="round" stroke-width="1.0012509075843359"/>
    </g>
    <g id="shape3" transform="matrix(1.0, 0.0, 0.0, 1.0, 5.65, 6.65)">
      <path d="M4.25 -3.85 Q5.5 -1.95 5.1 0.9 4.75 3.7 2.4 5.25 0.1 6.7 -1.65 5.8 -3.4 4.85 -4.35 2.75 -5.25 0.9 -5.15 -1.35 -5.05 -3.4 -3.35 -4.8 -1.35 -6.5 0.7 -6.05 2.55 -5.65 4.0 -4.45 L4.25 -3.85" fill="#ffffff" fill-rule="evenodd" stroke="none"/>
      <path d="M4.25 -3.85 Q5.5 -1.95 5.1 0.9 4.75 3.7 2.4 5.25 0.1 6.7 -1.65 5.8 -3.4 4.85 -4.35 2.75 -5.25 0.9 -5.15 -1.35 -5.05 -3.4 -3.35 -4.8 -1.35 -6.5 0.7 -6.05 2.55 -5.65 4.0 -4.45 L4.25 -3.85 Z" ffdec:has-small-stroke="true" ffdec:original-stroke-width="1.0" fill="none" stroke="#000000" stroke-linecap="round" stroke-linejoin="round" stroke-width="1.0020990501571871"/>
    </g>
    <g id="shape4" transform="matrix(1.0, 0.0, 0.0, 1.0, 0.0, 0.0)">
      <path d="M4.3 1.7 Q26.3 18.75 21.45 40.75 16.15 68.8 16.6 80.95 17.05 93.1 18.15 99.55 19.2 106.0 18.65 112.15 L17.55 123.6 Q24.3 134.95 25.3 147.9 25.8 153.9 24.65 159.85 27.45 163.85 26.6 168.85 24.85 179.4 20.7 189.05 L19.5 191.5 21.55 219.6 28.25 226.7 Q29.3 240.6 33.25 253.5 31.9 257.65 32.55 261.8 27.75 286.85 33.1 320.6 L33.2 320.65 32.8 321.55 Q30.85 326.25 29.5 331.2 31.45 335.5 0.0 326.9 L0.0 0.0 4.3 1.7" fill="#000000" fill-rule="evenodd" stroke="none"/>
    </g>
    <g id="shape5" transform="matrix(1.0, 0.0, 0.0, 1.0, 0.75, 0.75)">
      <path d="M0.0 0.0 L4.3 1.7 Q26.3 18.75 21.45 40.75 16.15 68.8 16.6 80.95 17.05 93.1 18.15 99.55 19.2 106.0 18.65 112.15 L17.55 123.6 Q24.3 134.95 25.3 147.9 25.8 153.9 24.65 159.85 27.45 163.85 26.6 168.85 24.85 179.4 20.7 189.05 L19.5 191.5 21.55 219.6 28.25 226.7 Q29.3 240.6 33.25 253.5 31.9 257.65 32.55 261.8 27.75 286.85 33.1 320.6 L33.2 320.65 32.8 321.55 Q30.85 326.25 29.5 331.2 31.45 335.5 0.0 326.9 L0.0 0.0" fill="#ffffff" fill-rule="evenodd" stroke="none"/>
      <path d="M0.0 0.0 L4.3 1.7 Q26.3 18.75 21.45 40.75 16.15 68.8 16.6 80.95 17.05 93.1 18.15 99.55 19.2 106.0 18.65 112.15 L17.55 123.6 Q24.3 134.95 25.3 147.9 25.8 153.9 24.65 159.85 27.45 163.85 26.6 168.85 24.85 179.4 20.7 189.05 L19.5 191.5 21.55 219.6 28.25 226.7 Q29.3 240.6 33.25 253.5 31.9 257.65 32.55 261.8 27.75 286.85 33.1 320.6 L33.2 320.65 32.8 321.55 Q30.85 326.25 29.5 331.2" fill="none" stroke="#000000" stroke-linecap="round" stroke-linejoin="round" stroke-width="1.5"/>
      <path d="M12.2 23.7 Q11.05 23.25 9.6 23.15 L9.35 23.1 7.4 23.1 6.45 23.1 4.4 25.55 Q2.0 28.15 -0.75 30.35 L-0.75 21.0 1.2 20.6 8.25 20.3 Q14.8 20.15 16.3 24.65 17.0 26.65 17.0 28.3 17.05 33.05 11.6 34.6 L8.0 34.6 6.45 33.65 Q5.25 31.75 4.85 29.45 L4.65 28.25 5.15 27.4 Q6.35 25.6 8.25 25.05 L8.3 24.9 10.7 24.9 8.9 25.5 8.0 27.0 8.0 30.05 8.6 30.95 8.85 31.2 Q9.65 31.85 10.7 32.15 L11.3 32.15 12.9 31.65 14.35 30.65 14.65 30.35 14.95 26.4 14.05 24.9 Q13.3 24.15 12.2 23.7" fill="#def2fe" fill-rule="evenodd" stroke="none"/>
      <path d="M32.5 253.8 Q31.15 257.95 31.8 262.1 29.85 272.2 29.6 283.75 L28.8 282.15 Q27.65 274.95 29.65 269.15 30.9 265.5 30.6 260.65 L28.8 258.4 28.8 255.3 Q31.0 249.35 27.95 245.0 L26.6 242.75 Q22.85 239.55 18.1 237.25 16.9 236.65 16.75 235.6 19.8 232.1 23.5 229.85 24.65 229.2 25.25 227.95 L26.6 227.5 27.15 226.65 27.5 227.0 Q28.55 240.9 32.5 253.8 M28.75 331.5 Q29.3 332.7 27.15 332.9 25.75 330.0 25.7 326.05 L25.7 325.6 27.95 322.0 Q30.05 320.8 32.2 319.75 L32.35 320.9 32.45 320.95 32.05 321.85 Q30.1 326.55 28.75 331.5 M16.4 69.3 Q15.65 76.5 15.85 81.25 16.3 93.4 17.4 99.85 18.45 106.3 17.9 112.45 L16.85 123.45 Q14.65 121.3 12.2 119.65 L11.8 119.6 10.9 117.8 10.9 112.4 13.6 107.05 Q11.5 89.6 15.1 73.6 15.55 71.45 16.4 69.3 M23.95 163.05 L23.5 159.45 24.25 158.05 23.9 160.15 Q26.7 164.15 25.85 169.15 L24.2 176.95 Q22.75 182.45 20.7 187.65 L19.95 189.35 19.1 191.15 18.75 191.8 18.9 193.5 18.55 193.05 18.5 192.3 18.25 192.3 17.95 191.65 14.0 190.0 12.85 189.85 11.05 189.0 10.7 188.95 13.45 187.75 14.65 186.55 17.05 185.05 17.35 184.4 20.75 181.15 Q24.85 174.8 25.25 165.25 L23.95 163.05" fill="#caeafe" fill-rule="evenodd" stroke="none"/>
    </g>
  </defs>
</svg>
