<?xml version="1.0" encoding="UTF-8" standalone="no"?>
<svg xmlns:ffdec="https://www.free-decompiler.com/flash" xmlns:xlink="http://www.w3.org/1999/xlink" ffdec:objectType="frame" height="756.85px" width="83.35px" xmlns="http://www.w3.org/2000/svg">
  <g transform="matrix(1.0, 0.0, 0.0, 1.0, 25.9, 99.2)">
    <use ffdec:characterId="511" height="16.85" transform="matrix(0.6325, 0.7712, -0.7712, 0.6325, 11.329, 227.486)" width="16.6" xlink:href="#shape0"/>
    <use ffdec:characterId="510" height="13.45" transform="matrix(0.9282, 0.3671, -0.3671, 0.9282, -3.2027, 90.6915)" width="12.2" xlink:href="#shape1"/>
    <use ffdec:characterId="508" height="13.3" transform="matrix(0.7006, -0.7102, 0.7102, 0.7006, 1.1187, 189.404)" width="11.35" xlink:href="#shape2"/>
    <use ffdec:characterId="508" height="13.3" transform="matrix(2.615, -0.3565, 0.3565, 2.615, -15.5954, -51.6758)" width="11.35" xlink:href="#shape3"/>
    <clipPath id="clipPath0">
      <path d="M 4.97 98.03 L 4.4 98.03 L 3.83 98.05 L 3.27 98.07 L 2.72 98.11 L 2.18 98.16 L 1.64 98.21 L 1.11 98.28 L 0.59 98.36 L 0.08 98.45 L -0.43 98.55 L -0.93 98.66 L -1.42 98.78 L -1.9 98.91 L -2.38 99.05 L -2.85 99.2 L -3.31 99.37 L -3.76 99.54 L -4.21 99.72 L -4.65 99.92 L -5.08 100.12 L -5.5 100.34 L -5.92 100.56 L -6.32 100.8 L -6.72 101.04 L -7.12 101.3 L -7.5 101.57 L -7.88 101.85 L -8.25 102.14 L -8.61 102.43 L -8.97 102.74 L -9.32 103.06 L -9.66 103.39 L -9.99 103.73 L -10.31 104.09 L -10.63 104.45 L -10.94 104.82 L -11.24 105.2 L -11.54 105.6 L -11.83 106 L -12.11 106.41 L -12.38 106.84 L -12.64 107.27 L -12.9 107.72 L -13.15 108.18 L -13.39 108.64 L -13.62 109.12 L -13.85 109.61 L -14.07 110.1 L -14.28 110.61 L -14.49 111.13 L -14.68 111.66 L -14.87 112.2 L -15.05 112.75 L -15.23 113.31 L -15.39 113.88 L -15.55 114.47 L -15.85 115.66 L -16.11 116.9 L -16.35 118.18 L -16.55 119.5 L -16.55 349.85 L 57.45 349.85 L 57.45 119.5 L 55.34 118.18 L 53.26 116.9 L 51.22 115.66 L 49.2 114.47 L 47.21 113.31 L 45.25 112.2 L 43.33 111.13 L 41.43 110.1 L 39.56 109.12 L 37.73 108.18 L 35.92 107.27 L 34.14 106.41 L 32.4 105.6 L 30.68 104.82 L 29 104.09 L 27.34 103.39 L 25.72 102.74 L 24.12 102.14 L 22.56 101.57 L 21.03 101.04 L 19.52 100.56 L 18.05 100.12 L 16.61 99.72 L 15.19 99.37 L 13.81 99.05 L 12.46 98.78 L 11.13 98.55 L 9.84 98.36 L 8.58 98.21 L 7.35 98.11 L 6.74 98.07 L 6.15 98.05 L 5.56 98.03 L 4.97 98.03 Z"/>
    </clipPath>
    <g clip-path="url(#clipPath0)">
      <use ffdec:characterId="513" height="332.65" transform="matrix(1.0, 0.0, 0.0, 1.0, 0.0, 0.0)" width="33.25" xlink:href="#shape4"/>
    </g>
    <clipPath id="clipPath1">
      <path d="M 4.7 99.35 L 3.56 99.37 L 3 99.39 L 2.45 99.43 L 1.91 99.47 L 1.37 99.53 L 0.84 99.59 L 0.32 99.66 L -0.19 99.75 L -0.7 99.84 L -1.19 99.95 L -1.68 100.06 L -2.17 100.18 L -2.64 100.31 L -3.11 100.46 L -3.57 100.61 L -4.02 100.77 L -4.46 100.94 L -4.9 101.13 L -5.32 101.32 L -5.74 101.52 L -6.16 101.73 L -6.56 101.95 L -6.96 102.18 L -7.35 102.42 L -7.73 102.68 L -8.11 102.94 L -8.47 103.21 L -8.83 103.49 L -9.18 103.78 L -9.53 104.08 L -9.86 104.39 L -10.19 104.71 L -10.51 105.04 L -10.82 105.38 L -11.13 105.73 L -11.43 106.08 L -11.72 106.45 L -12 106.83 L -12.27 107.22 L -12.54 107.62 L -12.8 108.03 L -13.05 108.45 L -13.29 108.87 L -13.53 109.31 L -13.76 109.76 L -13.98 110.22 L -14.19 110.68 L -14.4 111.16 L -14.59 111.65 L -14.78 112.15 L -14.97 112.65 L -15.14 113.17 L -15.31 113.7 L -15.47 114.23 L -15.62 114.78 L -15.9 115.9 L -16.14 117.06 L -16.36 118.26 L -16.55 119.5 L -16.55 349.85 L 57.45 349.85 L 57.45 119.5 L 55.32 118.26 L 53.23 117.06 L 51.17 115.9 L 49.13 114.78 L 47.13 113.7 L 45.16 112.65 L 43.22 111.65 L 41.31 110.68 L 39.43 109.76 L 37.58 108.87 L 35.76 108.03 L 33.98 107.22 L 32.22 106.45 L 30.5 105.73 L 28.8 105.04 L 27.14 104.39 L 25.5 103.78 L 23.9 103.21 L 22.33 102.68 L 20.79 102.18 L 19.28 101.73 L 17.8 101.32 L 16.35 100.94 L 14.93 100.61 L 13.55 100.31 L 12.19 100.06 L 10.87 99.84 L 9.57 99.66 L 8.31 99.53 L 7.07 99.43 L 5.87 99.37 L 4.7 99.35 Z"/>
    </clipPath>
    <g clip-path="url(#clipPath1)">
      <use ffdec:characterId="515" height="333.65" transform="matrix(1.0, 0.0, 0.0, 1.0, -0.75, -0.75)" width="34.75" xlink:href="#shape5"/>
    </g>
  </g>
  <defs>
    <g id="shape0" transform="matrix(1.0, 0.0, 0.0, 1.0, 8.3, 8.4)">
      <path d="M7.65 0.45 Q7.0 4.45 4.4 6.2 1.8 7.95 -1.25 7.95 -3.9 7.95 -6.05 6.35 -7.95 4.9 -7.8 1.75 -7.6 -2.0 -5.25 -4.5 -3.1 -6.7 -0.5 -7.85 L0.35 -7.8 Q3.4 -8.25 5.9 -5.95 8.35 -3.7 7.65 0.45" fill="#ffffff" fill-rule="evenodd" stroke="none"/>
      <path d="M7.65 0.45 Q7.0 4.45 4.4 6.2 1.8 7.95 -1.25 7.95 -3.9 7.95 -6.05 6.35 -7.95 4.9 -7.8 1.75 -7.6 -2.0 -5.25 -4.5 -3.1 -6.7 -0.5 -7.85 L0.35 -7.8 Q3.4 -8.25 5.9 -5.95 8.35 -3.7 7.65 0.45 Z" ffdec:has-small-stroke="true" ffdec:original-stroke-width="1.0" fill="none" stroke="#000000" stroke-linecap="round" stroke-linejoin="round" stroke-width="1.0026005549537742"/>
    </g>
    <g id="shape1" transform="matrix(1.0, 0.0, 0.0, 1.0, 6.1, 6.7)">
      <path d="M0.55 -5.95 Q2.45 -6.1 3.95 -4.25 5.45 -2.35 5.6 0.6 5.75 3.5 3.7 4.9 1.7 6.25 -0.65 6.25 -2.7 6.25 -4.25 4.75 -5.8 3.25 -5.6 -0.25 -5.4 -3.8 -3.75 -5.1 -2.05 -6.35 -0.9 -6.2 L0.55 -5.95" fill="#ffffff" fill-rule="evenodd" stroke="none"/>
      <path d="M0.55 -5.95 Q2.45 -6.1 3.95 -4.25 5.45 -2.35 5.6 0.6 5.75 3.5 3.7 4.9 1.7 6.25 -0.65 6.25 -2.7 6.25 -4.25 4.75 -5.8 3.25 -5.6 -0.25 -5.4 -3.8 -3.75 -5.1 -2.05 -6.35 -0.9 -6.2 L0.55 -5.95 Z" ffdec:has-small-stroke="true" ffdec:original-stroke-width="1.0" fill="none" stroke="#000000" stroke-linecap="round" stroke-linejoin="round" stroke-width="1.0018123845195137"/>
    </g>
    <g id="shape2" transform="matrix(1.0, 0.0, 0.0, 1.0, 5.65, 6.65)">
      <path d="M4.25 -3.85 Q5.5 -1.95 5.1 0.9 4.75 3.7 2.4 5.25 0.1 6.7 -1.65 5.8 -3.4 4.85 -4.35 2.75 -5.25 0.9 -5.15 -1.35 -5.05 -3.4 -3.35 -4.8 -1.35 -6.5 0.7 -6.05 2.55 -5.65 4.0 -4.45 L4.25 -3.85" fill="#ffffff" fill-rule="evenodd" stroke="none"/>
      <path d="M4.25 -3.85 Q5.5 -1.95 5.1 0.9 4.75 3.7 2.4 5.25 0.1 6.7 -1.65 5.8 -3.4 4.85 -4.35 2.75 -5.25 0.9 -5.15 -1.35 -5.05 -3.4 -3.35 -4.8 -1.35 -6.5 0.7 -6.05 2.55 -5.65 4.0 -4.45 L4.25 -3.85 Z" ffdec:has-small-stroke="true" ffdec:original-stroke-width="1.0" fill="none" stroke="#000000" stroke-linecap="round" stroke-linejoin="round" stroke-width="1.0023873071229212"/>
    </g>
    <g id="shape3" transform="matrix(1.0, 0.0, 0.0, 1.0, 5.65, 6.65)">
      <path d="M4.25 -3.85 Q5.5 -1.95 5.1 0.9 4.75 3.7 2.4 5.25 0.1 6.7 -1.65 5.8 -3.4 4.85 -4.35 2.75 -5.25 0.9 -5.15 -1.35 -5.05 -3.4 -3.35 -4.8 -1.35 -6.5 0.7 -6.05 2.55 -5.65 4.0 -4.45 L4.25 -3.85" fill="#ffffff" fill-rule="evenodd" stroke="none"/>
      <path d="M4.25 -3.85 Q5.5 -1.95 5.1 0.9 4.75 3.7 2.4 5.25 0.1 6.7 -1.65 5.8 -3.4 4.85 -4.35 2.75 -5.25 0.9 -5.15 -1.35 -5.05 -3.4 -3.35 -4.8 -1.35 -6.5 0.7 -6.05 2.55 -5.65 4.0 -4.45 L4.25 -3.85 Z" fill="none" stroke="#000000" stroke-linecap="round" stroke-linejoin="round" stroke-width="1.0"/>
    </g>
    <g id="shape4" transform="matrix(1.0, 0.0, 0.0, 1.0, 0.0, 0.0)">
      <path d="M4.3 1.7 Q26.3 18.75 21.45 40.75 16.15 68.8 16.6 80.95 17.05 93.1 18.15 99.55 19.2 106.0 18.65 112.15 L17.55 123.6 Q24.3 134.95 25.3 147.9 25.8 153.9 24.65 159.85 27.45 163.85 26.6 168.85 24.85 179.4 20.7 189.05 L19.5 191.5 21.55 219.6 28.25 226.7 Q29.3 240.6 33.25 253.5 31.9 257.65 32.55 261.8 27.75 286.85 33.1 320.6 L33.2 320.65 32.8 321.55 Q30.85 326.25 29.5 331.2 31.45 335.5 0.0 326.9 L0.0 0.0 4.3 1.7" fill="#000000" fill-rule="evenodd" stroke="none"/>
    </g>
    <g id="shape5" transform="matrix(1.0, 0.0, 0.0, 1.0, 0.75, 0.75)">
      <path d="M0.0 0.0 L4.3 1.7 Q26.3 18.75 21.45 40.75 16.15 68.8 16.6 80.95 17.05 93.1 18.15 99.55 19.2 106.0 18.65 112.15 L17.55 123.6 Q24.3 134.95 25.3 147.9 25.8 153.9 24.65 159.85 27.45 163.85 26.6 168.85 24.85 179.4 20.7 189.05 L19.5 191.5 21.55 219.6 28.25 226.7 Q29.3 240.6 33.25 253.5 31.9 257.65 32.55 261.8 27.75 286.85 33.1 320.6 L33.2 320.65 32.8 321.55 Q30.85 326.25 29.5 331.2 31.45 335.5 0.0 326.9 L0.0 0.0" fill="#ffffff" fill-rule="evenodd" stroke="none"/>
      <path d="M0.0 0.0 L4.3 1.7 Q26.3 18.75 21.45 40.75 16.15 68.8 16.6 80.95 17.05 93.1 18.15 99.55 19.2 106.0 18.65 112.15 L17.55 123.6 Q24.3 134.95 25.3 147.9 25.8 153.9 24.65 159.85 27.45 163.85 26.6 168.85 24.85 179.4 20.7 189.05 L19.5 191.5 21.55 219.6 28.25 226.7 Q29.3 240.6 33.25 253.5 31.9 257.65 32.55 261.8 27.75 286.85 33.1 320.6 L33.2 320.65 32.8 321.55 Q30.85 326.25 29.5 331.2" fill="none" stroke="#000000" stroke-linecap="round" stroke-linejoin="round" stroke-width="1.5"/>
      <path d="M12.2 23.7 Q11.05 23.25 9.6 23.15 L9.35 23.1 7.4 23.1 6.45 23.1 4.4 25.55 Q2.0 28.15 -0.75 30.35 L-0.75 21.0 1.2 20.6 8.25 20.3 Q14.8 20.15 16.3 24.65 17.0 26.65 17.0 28.3 17.05 33.05 11.6 34.6 L8.0 34.6 6.45 33.65 Q5.25 31.75 4.85 29.45 L4.65 28.25 5.15 27.4 Q6.35 25.6 8.25 25.05 L8.3 24.9 10.7 24.9 8.9 25.5 8.0 27.0 8.0 30.05 8.6 30.95 8.85 31.2 Q9.65 31.85 10.7 32.15 L11.3 32.15 12.9 31.65 14.35 30.65 14.65 30.35 14.95 26.4 14.05 24.9 Q13.3 24.15 12.2 23.7" fill="#def2fe" fill-rule="evenodd" stroke="none"/>
      <path d="M32.5 253.8 Q31.15 257.95 31.8 262.1 29.85 272.2 29.6 283.75 L28.8 282.15 Q27.65 274.95 29.65 269.15 30.9 265.5 30.6 260.65 L28.8 258.4 28.8 255.3 Q31.0 249.35 27.95 245.0 L26.6 242.75 Q22.85 239.55 18.1 237.25 16.9 236.65 16.75 235.6 19.8 232.1 23.5 229.85 24.65 229.2 25.25 227.95 L26.6 227.5 27.15 226.65 27.5 227.0 Q28.55 240.9 32.5 253.8 M28.75 331.5 Q29.3 332.7 27.15 332.9 25.75 330.0 25.7 326.05 L25.7 325.6 27.95 322.0 Q30.05 320.8 32.2 319.75 L32.35 320.9 32.45 320.95 32.05 321.85 Q30.1 326.55 28.75 331.5 M16.4 69.3 Q15.65 76.5 15.85 81.25 16.3 93.4 17.4 99.85 18.45 106.3 17.9 112.45 L16.85 123.45 Q14.65 121.3 12.2 119.65 L11.8 119.6 10.9 117.8 10.9 112.4 13.6 107.05 Q11.5 89.6 15.1 73.6 15.55 71.45 16.4 69.3 M23.95 163.05 L23.5 159.45 24.25 158.05 23.9 160.15 Q26.7 164.15 25.85 169.15 L24.2 176.95 Q22.75 182.45 20.7 187.65 L19.95 189.35 19.1 191.15 18.75 191.8 18.9 193.5 18.55 193.05 18.5 192.3 18.25 192.3 17.95 191.65 14.0 190.0 12.85 189.85 11.05 189.0 10.7 188.95 13.45 187.75 14.65 186.55 17.05 185.05 17.35 184.4 20.75 181.15 Q24.85 174.8 25.25 165.25 L23.95 163.05" fill="#caeafe" fill-rule="evenodd" stroke="none"/>
    </g>
  </defs>
</svg>
