<?xml version="1.0" encoding="UTF-8" standalone="no"?>
<svg xmlns:ffdec="https://www.free-decompiler.com/flash" xmlns:xlink="http://www.w3.org/1999/xlink" ffdec:objectType="frame" height="756.85px" width="83.35px" xmlns="http://www.w3.org/2000/svg">
  <g transform="matrix(1.0, 0.0, 0.0, 1.0, 25.9, 99.2)">
    <use ffdec:characterId="511" height="16.85" transform="matrix(0.5694, 0.8189, -0.8189, 0.5694, 12.3023, 257.5704)" width="16.6" xlink:href="#shape0"/>
    <use ffdec:characterId="510" height="13.45" transform="matrix(0.9022, 0.4265, -0.4265, 0.9022, -2.5955, 119.0534)" width="12.2" xlink:href="#shape1"/>
    <use ffdec:characterId="508" height="13.3" transform="matrix(0.6258, -0.7768, 0.7768, 0.6258, 1.0981, 224.4272)" width="11.35" xlink:href="#shape2"/>
    <use ffdec:characterId="508" height="13.3" transform="matrix(2.5519, -0.7092, 0.7092, 2.5519, -17.9347, -23.2629)" width="11.35" xlink:href="#shape3"/>
    <clipPath id="clipPath0">
      <path d="M 4.4 85.72 L 3.83 85.73 L 3.26 85.75 L 2.7 85.77 L 2.15 85.81 L 1.61 85.86 L 1.07 85.92 L 0.55 85.99 L 0.03 86.07 L -0.49 86.16 L -0.99 86.26 L -1.49 86.37 L -1.97 86.5 L -2.45 86.63 L -2.93 86.77 L -3.39 86.93 L -3.85 87.1 L -4.3 87.27 L -4.74 87.46 L -5.17 87.66 L -5.6 87.87 L -6.01 88.09 L -6.42 88.32 L -6.82 88.56 L -7.22 88.81 L -7.6 89.07 L -7.98 89.34 L -8.35 89.63 L -8.72 89.92 L -9.07 90.23 L -9.42 90.54 L -9.76 90.87 L -10.09 91.21 L -10.41 91.55 L -10.73 91.91 L -11.03 92.28 L -11.33 92.66 L -11.63 93.05 L -11.91 93.45 L -12.19 93.87 L -12.46 94.29 L -12.72 94.72 L -12.97 95.17 L -13.21 95.62 L -13.45 96.09 L -13.68 96.56 L -13.9 97.05 L -14.12 97.55 L -14.32 98.06 L -14.52 98.58 L -14.71 99.11 L -14.89 99.65 L -15.07 100.2 L -15.23 100.76 L -15.39 101.33 L -15.54 101.92 L -15.69 102.51 L -15.95 103.73 L -16.18 105 L -16.38 106.3 L -16.55 107.65 L -16.55 349.9 L 57.45 349.9 L 57.45 107.65 L 55.31 106.3 L 53.19 105 L 51.11 103.73 L 49.06 102.51 L 47.04 101.33 L 45.06 100.2 L 43.1 99.11 L 41.18 98.06 L 39.29 97.05 L 37.42 96.09 L 35.59 95.17 L 33.79 94.29 L 32.03 93.45 L 30.29 92.66 L 28.59 91.91 L 26.91 91.21 L 25.27 90.54 L 23.66 89.92 L 22.08 89.34 L 20.53 88.81 L 19.02 88.32 L 17.53 87.87 L 16.08 87.46 L 14.65 87.1 L 13.26 86.77 L 11.9 86.5 L 10.57 86.26 L 9.28 86.07 L 8.01 85.92 L 6.78 85.81 L 6.17 85.77 L 5.57 85.75 L 4.98 85.73 L 4.4 85.72 Z"/>
    </clipPath>
    <g clip-path="url(#clipPath0)">
      <use ffdec:characterId="513" height="332.65" transform="matrix(1.0, 0.0, 0.0, 1.0, 0.0, 0.0)" width="33.25" xlink:href="#shape4"/>
    </g>
    <clipPath id="clipPath1">
      <path d="M 4.1 87.05 L 3.53 87.06 L 2.96 87.07 L 2.4 87.1 L 1.85 87.13 L 1.31 87.18 L 0.77 87.23 L 0.25 87.3 L -0.27 87.37 L -0.78 87.46 L -1.28 87.55 L -1.78 87.66 L -2.26 87.77 L -2.74 87.9 L -3.21 88.04 L -3.67 88.18 L -4.13 88.34 L -4.57 88.5 L -5.01 88.68 L -5.44 88.87 L -5.87 89.06 L -6.28 89.27 L -6.69 89.48 L -7.09 89.71 L -7.48 89.95 L -7.86 90.19 L -8.23 90.45 L -8.6 90.72 L -8.96 90.99 L -9.31 91.28 L -9.65 91.58 L -9.99 91.88 L -10.31 92.2 L -10.63 92.53 L -10.94 92.86 L -11.24 93.21 L -11.54 93.57 L -11.83 93.94 L -12.1 94.31 L -12.38 94.7 L -12.64 95.1 L -12.89 95.5 L -13.14 95.92 L -13.38 96.35 L -13.61 96.79 L -13.83 97.23 L -14.05 97.69 L -14.25 98.16 L -14.45 98.64 L -14.64 99.13 L -14.83 99.62 L -15 100.13 L -15.17 100.65 L -15.33 101.18 L -15.48 101.72 L -15.62 102.26 L -15.76 102.82 L -16 103.97 L -16.22 105.16 L -16.4 106.38 L -16.55 107.65 L -16.55 349.9 L 57.45 349.9 L 57.45 107.65 L 55.29 106.38 L 53.16 105.16 L 51.06 103.97 L 48.99 102.82 L 46.96 101.72 L 44.96 100.65 L 42.99 99.62 L 41.05 98.64 L 39.14 97.69 L 37.27 96.79 L 35.42 95.92 L 33.61 95.1 L 31.83 94.31 L 30.09 93.57 L 28.37 92.86 L 26.69 92.2 L 25.04 91.58 L 23.42 90.99 L 21.83 90.45 L 20.27 89.95 L 18.75 89.48 L 17.26 89.06 L 15.8 88.68 L 14.37 88.34 L 12.98 88.04 L 11.61 87.77 L 10.28 87.55 L 8.98 87.37 L 7.71 87.23 L 6.48 87.13 L 5.27 87.07 L 4.1 87.05 Z"/>
    </clipPath>
    <g clip-path="url(#clipPath1)">
      <use ffdec:characterId="515" height="333.65" transform="matrix(1.0, 0.0, 0.0, 1.0, -0.75, -0.75)" width="34.75" xlink:href="#shape5"/>
    </g>
  </g>
  <defs>
    <g id="shape0" transform="matrix(1.0, 0.0, 0.0, 1.0, 8.3, 8.4)">
      <path d="M7.65 0.45 Q7.0 4.45 4.4 6.2 1.8 7.95 -1.25 7.95 -3.9 7.95 -6.05 6.35 -7.95 4.9 -7.8 1.75 -7.6 -2.0 -5.25 -4.5 -3.1 -6.7 -0.5 -7.85 L0.35 -7.8 Q3.4 -8.25 5.9 -5.95 8.35 -3.7 7.65 0.45" fill="#ffffff" fill-rule="evenodd" stroke="none"/>
      <path d="M7.65 0.45 Q7.0 4.45 4.4 6.2 1.8 7.95 -1.25 7.95 -3.9 7.95 -6.05 6.35 -7.95 4.9 -7.8 1.75 -7.6 -2.0 -5.25 -4.5 -3.1 -6.7 -0.5 -7.85 L0.35 -7.8 Q3.4 -8.25 5.9 -5.95 8.35 -3.7 7.65 0.45 Z" ffdec:has-small-stroke="true" ffdec:original-stroke-width="1.0" fill="none" stroke="#000000" stroke-linecap="round" stroke-linejoin="round" stroke-width="1.0026269335598885"/>
    </g>
    <g id="shape1" transform="matrix(1.0, 0.0, 0.0, 1.0, 6.1, 6.7)">
      <path d="M0.55 -5.95 Q2.45 -6.1 3.95 -4.25 5.45 -2.35 5.6 0.6 5.75 3.5 3.7 4.9 1.7 6.25 -0.65 6.25 -2.7 6.25 -4.25 4.75 -5.8 3.25 -5.6 -0.25 -5.4 -3.8 -3.75 -5.1 -2.05 -6.35 -0.9 -6.2 L0.55 -5.95" fill="#ffffff" fill-rule="evenodd" stroke="none"/>
      <path d="M0.55 -5.95 Q2.45 -6.1 3.95 -4.25 5.45 -2.35 5.6 0.6 5.75 3.5 3.7 4.9 1.7 6.25 -0.65 6.25 -2.7 6.25 -4.25 4.75 -5.8 3.25 -5.6 -0.25 -5.4 -3.8 -3.75 -5.1 -2.05 -6.35 -0.9 -6.2 L0.55 -5.95 Z" ffdec:has-small-stroke="true" ffdec:original-stroke-width="1.0" fill="none" stroke="#000000" stroke-linecap="round" stroke-linejoin="round" stroke-width="1.0020619406385398"/>
    </g>
    <g id="shape2" transform="matrix(1.0, 0.0, 0.0, 1.0, 5.65, 6.65)">
      <path d="M4.25 -3.85 Q5.5 -1.95 5.1 0.9 4.75 3.7 2.4 5.25 0.1 6.7 -1.65 5.8 -3.4 4.85 -4.35 2.75 -5.25 0.9 -5.15 -1.35 -5.05 -3.4 -3.35 -4.8 -1.35 -6.5 0.7 -6.05 2.55 -5.65 4.0 -4.45 L4.25 -3.85" fill="#ffffff" fill-rule="evenodd" stroke="none"/>
      <path d="M4.25 -3.85 Q5.5 -1.95 5.1 0.9 4.75 3.7 2.4 5.25 0.1 6.7 -1.65 5.8 -3.4 4.85 -4.35 2.75 -5.25 0.9 -5.15 -1.35 -5.05 -3.4 -3.35 -4.8 -1.35 -6.5 0.7 -6.05 2.55 -5.65 4.0 -4.45 L4.25 -3.85 Z" ffdec:has-small-stroke="true" ffdec:original-stroke-width="1.0" fill="none" stroke="#000000" stroke-linecap="round" stroke-linejoin="round" stroke-width="1.0024430482413036"/>
    </g>
    <g id="shape3" transform="matrix(1.0, 0.0, 0.0, 1.0, 5.65, 6.65)">
      <path d="M4.25 -3.85 Q5.5 -1.95 5.1 0.9 4.75 3.7 2.4 5.25 0.1 6.7 -1.65 5.8 -3.4 4.85 -4.35 2.75 -5.25 0.9 -5.15 -1.35 -5.05 -3.4 -3.35 -4.8 -1.35 -6.5 0.7 -6.05 2.55 -5.65 4.0 -4.45 L4.25 -3.85" fill="#ffffff" fill-rule="evenodd" stroke="none"/>
      <path d="M4.25 -3.85 Q5.5 -1.95 5.1 0.9 4.75 3.7 2.4 5.25 0.1 6.7 -1.65 5.8 -3.4 4.85 -4.35 2.75 -5.25 0.9 -5.15 -1.35 -5.05 -3.4 -3.35 -4.8 -1.35 -6.5 0.7 -6.05 2.55 -5.65 4.0 -4.45 L4.25 -3.85 Z" fill="none" stroke="#000000" stroke-linecap="round" stroke-linejoin="round" stroke-width="1.0"/>
    </g>
    <g id="shape4" transform="matrix(1.0, 0.0, 0.0, 1.0, 0.0, 0.0)">
      <path d="M4.3 1.7 Q26.3 18.75 21.45 40.75 16.15 68.8 16.6 80.95 17.05 93.1 18.15 99.55 19.2 106.0 18.65 112.15 L17.55 123.6 Q24.3 134.95 25.3 147.9 25.8 153.9 24.65 159.85 27.45 163.85 26.6 168.85 24.85 179.4 20.7 189.05 L19.5 191.5 21.55 219.6 28.25 226.7 Q29.3 240.6 33.25 253.5 31.9 257.65 32.55 261.8 27.75 286.85 33.1 320.6 L33.2 320.65 32.8 321.55 Q30.85 326.25 29.5 331.2 31.45 335.5 0.0 326.9 L0.0 0.0 4.3 1.7" fill="#000000" fill-rule="evenodd" stroke="none"/>
    </g>
    <g id="shape5" transform="matrix(1.0, 0.0, 0.0, 1.0, 0.75, 0.75)">
      <path d="M0.0 0.0 L4.3 1.7 Q26.3 18.75 21.45 40.75 16.15 68.8 16.6 80.95 17.05 93.1 18.15 99.55 19.2 106.0 18.65 112.15 L17.55 123.6 Q24.3 134.95 25.3 147.9 25.8 153.9 24.65 159.85 27.45 163.85 26.6 168.85 24.85 179.4 20.7 189.05 L19.5 191.5 21.55 219.6 28.25 226.7 Q29.3 240.6 33.25 253.5 31.9 257.65 32.55 261.8 27.75 286.85 33.1 320.6 L33.2 320.65 32.8 321.55 Q30.85 326.25 29.5 331.2 31.45 335.5 0.0 326.9 L0.0 0.0" fill="#ffffff" fill-rule="evenodd" stroke="none"/>
      <path d="M0.0 0.0 L4.3 1.7 Q26.3 18.75 21.45 40.75 16.15 68.8 16.6 80.95 17.05 93.1 18.15 99.55 19.2 106.0 18.65 112.15 L17.55 123.6 Q24.3 134.95 25.3 147.9 25.8 153.9 24.65 159.85 27.45 163.85 26.6 168.85 24.85 179.4 20.7 189.05 L19.5 191.5 21.55 219.6 28.25 226.7 Q29.3 240.6 33.25 253.5 31.9 257.65 32.55 261.8 27.75 286.85 33.1 320.6 L33.2 320.65 32.8 321.55 Q30.85 326.25 29.5 331.2" fill="none" stroke="#000000" stroke-linecap="round" stroke-linejoin="round" stroke-width="1.5"/>
      <path d="M12.2 23.7 Q11.05 23.25 9.6 23.15 L9.35 23.1 7.4 23.1 6.45 23.1 4.4 25.55 Q2.0 28.15 -0.75 30.35 L-0.75 21.0 1.2 20.6 8.25 20.3 Q14.8 20.15 16.3 24.65 17.0 26.65 17.0 28.3 17.05 33.05 11.6 34.6 L8.0 34.6 6.45 33.65 Q5.25 31.75 4.85 29.45 L4.65 28.25 5.15 27.4 Q6.35 25.6 8.25 25.05 L8.3 24.9 10.7 24.9 8.9 25.5 8.0 27.0 8.0 30.05 8.6 30.95 8.85 31.2 Q9.65 31.85 10.7 32.15 L11.3 32.15 12.9 31.65 14.35 30.65 14.65 30.35 14.95 26.4 14.05 24.9 Q13.3 24.15 12.2 23.7" fill="#def2fe" fill-rule="evenodd" stroke="none"/>
      <path d="M32.5 253.8 Q31.15 257.95 31.8 262.1 29.85 272.2 29.6 283.75 L28.8 282.15 Q27.65 274.95 29.65 269.15 30.9 265.5 30.6 260.65 L28.8 258.4 28.8 255.3 Q31.0 249.35 27.95 245.0 L26.6 242.75 Q22.85 239.55 18.1 237.25 16.9 236.65 16.75 235.6 19.8 232.1 23.5 229.85 24.65 229.2 25.25 227.95 L26.6 227.5 27.15 226.65 27.5 227.0 Q28.55 240.9 32.5 253.8 M28.75 331.5 Q29.3 332.7 27.15 332.9 25.75 330.0 25.7 326.05 L25.7 325.6 27.95 322.0 Q30.05 320.8 32.2 319.75 L32.35 320.9 32.45 320.95 32.05 321.85 Q30.1 326.55 28.75 331.5 M16.4 69.3 Q15.65 76.5 15.85 81.25 16.3 93.4 17.4 99.85 18.45 106.3 17.9 112.45 L16.85 123.45 Q14.65 121.3 12.2 119.65 L11.8 119.6 10.9 117.8 10.9 112.4 13.6 107.05 Q11.5 89.6 15.1 73.6 15.55 71.45 16.4 69.3 M23.95 163.05 L23.5 159.45 24.25 158.05 23.9 160.15 Q26.7 164.15 25.85 169.15 L24.2 176.95 Q22.75 182.45 20.7 187.65 L19.95 189.35 19.1 191.15 18.75 191.8 18.9 193.5 18.55 193.05 18.5 192.3 18.25 192.3 17.95 191.65 14.0 190.0 12.85 189.85 11.05 189.0 10.7 188.95 13.45 187.75 14.65 186.55 17.05 185.05 17.35 184.4 20.75 181.15 Q24.85 174.8 25.25 165.25 L23.95 163.05" fill="#caeafe" fill-rule="evenodd" stroke="none"/>
    </g>
  </defs>
</svg>
