<?xml version="1.0" encoding="UTF-8" standalone="no"?>
<svg xmlns:ffdec="https://www.free-decompiler.com/flash" xmlns:xlink="http://www.w3.org/1999/xlink" ffdec:objectType="frame" height="756.85px" width="83.35px" xmlns="http://www.w3.org/2000/svg">
  <g transform="matrix(1.0, 0.0, 0.0, 1.0, 25.9, 99.2)">
    <use ffdec:characterId="508" height="13.3" transform="matrix(1.6504, 0.0, 0.0, 1.6504, -1.5248, -73.2752)" width="11.35" xlink:href="#shape0"/>
    <use ffdec:characterId="510" height="13.45" transform="matrix(0.9989, -0.0399, 0.0399, 0.9989, -6.3604, -21.5991)" width="12.2" xlink:href="#shape1"/>
    <use ffdec:characterId="510" height="13.45" transform="matrix(0.8057, 0.5878, -0.5878, 0.8057, -0.9769, 204.4164)" width="12.2" xlink:href="#shape2"/>
    <use ffdec:characterId="508" height="13.3" transform="matrix(0.3716, -0.9272, 0.9272, 0.3716, 1.535, 329.4678)" width="11.35" xlink:href="#shape3"/>
    <use ffdec:characterId="508" height="13.3" transform="matrix(2.0851, -1.6806, 1.6806, 2.0851, -22.5065, 63.3294)" width="11.35" xlink:href="#shape0"/>
    <clipPath id="clipPath0">
      <path d="M 2.8 52.6 L 2.23 52.61 L 1.66 52.62 L 1.1 52.65 L 0.56 52.69 L 0.02 52.74 L -0.51 52.8 L -1.04 52.88 L -1.55 52.96 L -2.05 53.06 L -2.55 53.17 L -3.04 53.28 L -3.52 53.41 L -3.99 53.56 L -4.45 53.71 L -4.9 53.87 L -5.35 54.05 L -5.78 54.23 L -6.21 54.43 L -6.63 54.64 L -7.04 54.86 L -7.44 55.09 L -7.83 55.34 L -8.22 55.59 L -8.59 55.86 L -8.96 56.13 L -9.32 56.42 L -9.67 56.72 L -10.01 57.03 L -10.34 57.35 L -10.67 57.69 L -10.98 58.03 L -11.29 58.39 L -11.59 58.75 L -11.87 59.13 L -12.16 59.52 L -12.43 59.92 L -12.69 60.34 L -12.95 60.76 L -13.19 61.2 L -13.43 61.64 L -13.66 62.1 L -13.88 62.57 L -14.09 63.05 L -14.3 63.54 L -14.49 64.05 L -14.68 64.56 L -14.85 65.08 L -15.02 65.62 L -15.18 66.17 L -15.33 66.73 L -15.48 67.3 L -15.61 67.88 L -15.74 68.48 L -15.85 69.08 L -15.96 69.7 L -16.06 70.32 L -16.15 70.96 L -16.24 71.61 L -16.37 72.95 L -16.48 74.33 L -16.55 75.75 L -16.55 349.9 L 57.45 349.9 L 57.45 75.75 L 55.21 74.33 L 53 72.95 L 50.83 71.61 L 48.69 70.32 L 46.58 69.08 L 44.51 67.88 L 42.48 66.73 L 40.48 65.62 L 38.51 64.56 L 36.58 63.54 L 34.68 62.57 L 32.82 61.64 L 30.99 60.76 L 29.2 59.92 L 27.44 59.13 L 25.71 58.39 L 24.02 57.69 L 22.37 57.03 L 20.74 56.42 L 19.16 55.86 L 17.6 55.34 L 16.09 54.86 L 14.6 54.43 L 13.15 54.05 L 11.74 53.71 L 10.36 53.41 L 9.01 53.17 L 7.7 52.96 L 7.06 52.88 L 6.42 52.8 L 5.8 52.74 L 5.18 52.69 L 4.57 52.65 L 3.97 52.62 L 3.38 52.61 L 2.8 52.6 Z"/>
    </clipPath>
    <g clip-path="url(#clipPath0)">
      <use ffdec:characterId="513" height="332.65" transform="matrix(1.0, 0.0, 0.0, 1.0, 0.0, 0.0)" width="33.25" xlink:href="#shape4"/>
    </g>
    <clipPath id="clipPath1">
      <path d="M 2.47 53.9 L 1.9 53.91 L 1.34 53.92 L 0.78 53.95 L 0.23 53.99 L -0.31 54.03 L -0.84 54.09 L -1.36 54.16 L -1.87 54.24 L -2.37 54.33 L -2.87 54.43 L -3.35 54.55 L -3.83 54.67 L -4.3 54.8 L -4.76 54.95 L -5.21 55.1 L -5.65 55.27 L -6.08 55.44 L -6.51 55.63 L -6.93 55.83 L -7.33 56.03 L -7.73 56.25 L -8.12 56.48 L -8.5 56.72 L -8.87 56.97 L -9.24 57.23 L -9.59 57.51 L -9.94 57.79 L -10.27 58.08 L -10.6 58.39 L -10.92 58.7 L -11.23 59.03 L -11.53 59.36 L -11.82 59.71 L -12.11 60.07 L -12.38 60.43 L -12.65 60.81 L -12.91 61.2 L -13.16 61.6 L -13.4 62.01 L -13.63 62.44 L -13.85 62.87 L -14.07 63.31 L -14.27 63.76 L -14.47 64.23 L -14.65 64.7 L -14.83 65.19 L -15 65.68 L -15.16 66.19 L -15.32 66.71 L -15.46 67.24 L -15.6 67.77 L -15.72 68.32 L -15.84 68.88 L -15.95 69.46 L -16.05 70.04 L -16.14 70.63 L -16.22 71.23 L -16.29 71.85 L -16.41 73.1 L -16.5 74.41 L -16.55 75.75 L -16.55 349.9 L 57.45 349.9 L 57.45 75.75 L 55.19 74.41 L 52.96 73.1 L 50.77 71.85 L 48.61 70.63 L 46.49 69.46 L 44.4 68.32 L 42.35 67.24 L 40.34 66.19 L 38.35 65.19 L 36.41 64.23 L 34.5 63.31 L 32.62 62.44 L 30.78 61.6 L 28.97 60.81 L 27.2 60.07 L 25.47 59.36 L 23.77 58.7 L 22.1 58.08 L 20.47 57.51 L 18.88 56.97 L 17.32 56.48 L 15.79 56.03 L 14.3 55.63 L 12.85 55.27 L 11.43 54.95 L 10.04 54.67 L 8.7 54.43 L 7.38 54.24 L 6.1 54.09 L 4.86 53.99 L 4.25 53.95 L 3.65 53.92 L 3.06 53.91 L 2.47 53.9 Z"/>
    </clipPath>
    <g clip-path="url(#clipPath1)">
      <use ffdec:characterId="515" height="333.65" transform="matrix(1.0, 0.0, 0.0, 1.0, -0.75, -0.75)" width="34.75" xlink:href="#shape5"/>
    </g>
  </g>
  <defs>
    <g id="shape0" transform="matrix(1.0, 0.0, 0.0, 1.0, 5.65, 6.65)">
      <path d="M4.25 -3.85 Q5.5 -1.95 5.1 0.9 4.75 3.7 2.4 5.25 0.1 6.7 -1.65 5.8 -3.4 4.85 -4.35 2.75 -5.25 0.9 -5.15 -1.35 -5.05 -3.4 -3.35 -4.8 -1.35 -6.5 0.7 -6.05 2.55 -5.65 4.0 -4.45 L4.25 -3.85" fill="#ffffff" fill-rule="evenodd" stroke="none"/>
      <path d="M4.25 -3.85 Q5.5 -1.95 5.1 0.9 4.75 3.7 2.4 5.25 0.1 6.7 -1.65 5.8 -3.4 4.85 -4.35 2.75 -5.25 0.9 -5.15 -1.35 -5.05 -3.4 -3.35 -4.8 -1.35 -6.5 0.7 -6.05 2.55 -5.65 4.0 -4.45 L4.25 -3.85 Z" fill="none" stroke="#000000" stroke-linecap="round" stroke-linejoin="round" stroke-width="1.0"/>
    </g>
    <g id="shape1" transform="matrix(1.0, 0.0, 0.0, 1.0, 6.1, 6.7)">
      <path d="M0.55 -5.95 Q2.45 -6.1 3.95 -4.25 5.45 -2.35 5.6 0.6 5.75 3.5 3.7 4.9 1.7 6.25 -0.65 6.25 -2.7 6.25 -4.25 4.75 -5.8 3.25 -5.6 -0.25 -5.4 -3.8 -3.75 -5.1 -2.05 -6.35 -0.9 -6.2 L0.55 -5.95" fill="#ffffff" fill-rule="evenodd" stroke="none"/>
      <path d="M0.55 -5.95 Q2.45 -6.1 3.95 -4.25 5.45 -2.35 5.6 0.6 5.75 3.5 3.7 4.9 1.7 6.25 -0.65 6.25 -2.7 6.25 -4.25 4.75 -5.8 3.25 -5.6 -0.25 -5.4 -3.8 -3.75 -5.1 -2.05 -6.35 -0.9 -6.2 L0.55 -5.95 Z" ffdec:has-small-stroke="true" ffdec:original-stroke-width="1.0" fill="none" stroke="#000000" stroke-linecap="round" stroke-linejoin="round" stroke-width="1.0003332139452767"/>
    </g>
    <g id="shape2" transform="matrix(1.0, 0.0, 0.0, 1.0, 6.1, 6.7)">
      <path d="M0.55 -5.95 Q2.45 -6.1 3.95 -4.25 5.45 -2.35 5.6 0.6 5.75 3.5 3.7 4.9 1.7 6.25 -0.65 6.25 -2.7 6.25 -4.25 4.75 -5.8 3.25 -5.6 -0.25 -5.4 -3.8 -3.75 -5.1 -2.05 -6.35 -0.9 -6.2 L0.55 -5.95" fill="#ffffff" fill-rule="evenodd" stroke="none"/>
      <path d="M0.55 -5.95 Q2.45 -6.1 3.95 -4.25 5.45 -2.35 5.6 0.6 5.75 3.5 3.7 4.9 1.7 6.25 -0.65 6.25 -2.7 6.25 -4.25 4.75 -5.8 3.25 -5.6 -0.25 -5.4 -3.8 -3.75 -5.1 -2.05 -6.35 -0.9 -6.2 L0.55 -5.95 Z" ffdec:has-small-stroke="true" ffdec:original-stroke-width="1.0" fill="none" stroke="#000000" stroke-linecap="round" stroke-linejoin="round" stroke-width="1.0026997531342257"/>
    </g>
    <g id="shape3" transform="matrix(1.0, 0.0, 0.0, 1.0, 5.65, 6.65)">
      <path d="M4.25 -3.85 Q5.5 -1.95 5.1 0.9 4.75 3.7 2.4 5.25 0.1 6.7 -1.65 5.8 -3.4 4.85 -4.35 2.75 -5.25 0.9 -5.15 -1.35 -5.05 -3.4 -3.35 -4.8 -1.35 -6.5 0.7 -6.05 2.55 -5.65 4.0 -4.45 L4.25 -3.85" fill="#ffffff" fill-rule="evenodd" stroke="none"/>
      <path d="M4.25 -3.85 Q5.5 -1.95 5.1 0.9 4.75 3.7 2.4 5.25 0.1 6.7 -1.65 5.8 -3.4 4.85 -4.35 2.75 -5.25 0.9 -5.15 -1.35 -5.05 -3.4 -3.35 -4.8 -1.35 -6.5 0.7 -6.05 2.55 -5.65 4.0 -4.45 L4.25 -3.85 Z" ffdec:has-small-stroke="true" ffdec:original-stroke-width="1.0" fill="none" stroke="#000000" stroke-linecap="round" stroke-linejoin="round" stroke-width="1.0011406184563285"/>
    </g>
    <g id="shape4" transform="matrix(1.0, 0.0, 0.0, 1.0, 0.0, 0.0)">
      <path d="M4.3 1.7 Q26.3 18.75 21.45 40.75 16.15 68.8 16.6 80.95 17.05 93.1 18.15 99.55 19.2 106.0 18.65 112.15 L17.55 123.6 Q24.3 134.95 25.3 147.9 25.8 153.9 24.65 159.85 27.45 163.85 26.6 168.85 24.85 179.4 20.7 189.05 L19.5 191.5 21.55 219.6 28.25 226.7 Q29.3 240.6 33.25 253.5 31.9 257.65 32.55 261.8 27.75 286.85 33.1 320.6 L33.2 320.65 32.8 321.55 Q30.85 326.25 29.5 331.2 31.45 335.5 0.0 326.9 L0.0 0.0 4.3 1.7" fill="#000000" fill-rule="evenodd" stroke="none"/>
    </g>
    <g id="shape5" transform="matrix(1.0, 0.0, 0.0, 1.0, 0.75, 0.75)">
      <path d="M0.0 0.0 L4.3 1.7 Q26.3 18.75 21.45 40.75 16.15 68.8 16.6 80.95 17.05 93.1 18.15 99.55 19.2 106.0 18.65 112.15 L17.55 123.6 Q24.3 134.95 25.3 147.9 25.8 153.9 24.65 159.85 27.45 163.85 26.6 168.85 24.85 179.4 20.7 189.05 L19.5 191.5 21.55 219.6 28.25 226.7 Q29.3 240.6 33.25 253.5 31.9 257.65 32.55 261.8 27.75 286.85 33.1 320.6 L33.2 320.65 32.8 321.55 Q30.85 326.25 29.5 331.2 31.45 335.5 0.0 326.9 L0.0 0.0" fill="#ffffff" fill-rule="evenodd" stroke="none"/>
      <path d="M0.0 0.0 L4.3 1.7 Q26.3 18.75 21.45 40.75 16.15 68.8 16.6 80.95 17.05 93.1 18.15 99.55 19.2 106.0 18.65 112.15 L17.55 123.6 Q24.3 134.95 25.3 147.9 25.8 153.9 24.65 159.85 27.45 163.85 26.6 168.85 24.85 179.4 20.7 189.05 L19.5 191.5 21.55 219.6 28.25 226.7 Q29.3 240.6 33.25 253.5 31.9 257.65 32.55 261.8 27.75 286.85 33.1 320.6 L33.2 320.65 32.8 321.55 Q30.85 326.25 29.5 331.2" fill="none" stroke="#000000" stroke-linecap="round" stroke-linejoin="round" stroke-width="1.5"/>
      <path d="M12.2 23.7 Q11.05 23.25 9.6 23.15 L9.35 23.1 7.4 23.1 6.45 23.1 4.4 25.55 Q2.0 28.15 -0.75 30.35 L-0.75 21.0 1.2 20.6 8.25 20.3 Q14.8 20.15 16.3 24.65 17.0 26.65 17.0 28.3 17.05 33.05 11.6 34.6 L8.0 34.6 6.45 33.65 Q5.25 31.75 4.85 29.45 L4.65 28.25 5.15 27.4 Q6.35 25.6 8.25 25.05 L8.3 24.9 10.7 24.9 8.9 25.5 8.0 27.0 8.0 30.05 8.6 30.95 8.85 31.2 Q9.65 31.85 10.7 32.15 L11.3 32.15 12.9 31.65 14.35 30.65 14.65 30.35 14.95 26.4 14.05 24.9 Q13.3 24.15 12.2 23.7" fill="#def2fe" fill-rule="evenodd" stroke="none"/>
      <path d="M32.5 253.8 Q31.15 257.95 31.8 262.1 29.85 272.2 29.6 283.75 L28.8 282.15 Q27.65 274.95 29.65 269.15 30.9 265.5 30.6 260.65 L28.8 258.4 28.8 255.3 Q31.0 249.35 27.95 245.0 L26.6 242.75 Q22.85 239.55 18.1 237.25 16.9 236.65 16.75 235.6 19.8 232.1 23.5 229.85 24.65 229.2 25.25 227.95 L26.6 227.5 27.15 226.65 27.5 227.0 Q28.55 240.9 32.5 253.8 M28.75 331.5 Q29.3 332.7 27.15 332.9 25.75 330.0 25.7 326.05 L25.7 325.6 27.95 322.0 Q30.05 320.8 32.2 319.75 L32.35 320.9 32.45 320.95 32.05 321.85 Q30.1 326.55 28.75 331.5 M16.4 69.3 Q15.65 76.5 15.85 81.25 16.3 93.4 17.4 99.85 18.45 106.3 17.9 112.45 L16.85 123.45 Q14.65 121.3 12.2 119.65 L11.8 119.6 10.9 117.8 10.9 112.4 13.6 107.05 Q11.5 89.6 15.1 73.6 15.55 71.45 16.4 69.3 M23.95 163.05 L23.5 159.45 24.25 158.05 23.9 160.15 Q26.7 164.15 25.85 169.15 L24.2 176.95 Q22.75 182.45 20.7 187.65 L19.95 189.35 19.1 191.15 18.75 191.8 18.9 193.5 18.55 193.05 18.5 192.3 18.25 192.3 17.95 191.65 14.0 190.0 12.85 189.85 11.05 189.0 10.7 188.95 13.45 187.75 14.65 186.55 17.05 185.05 17.35 184.4 20.75 181.15 Q24.85 174.8 25.25 165.25 L23.95 163.05" fill="#caeafe" fill-rule="evenodd" stroke="none"/>
    </g>
  </defs>
</svg>
