<?xml version="1.0" encoding="UTF-8" standalone="no"?>
<svg xmlns:ffdec="https://www.free-decompiler.com/flash" xmlns:xlink="http://www.w3.org/1999/xlink" ffdec:objectType="frame" height="756.85px" width="83.35px" xmlns="http://www.w3.org/2000/svg">
  <g transform="matrix(1.0, 0.0, 0.0, 1.0, 25.9, 99.2)">
    <use ffdec:characterId="508" height="13.3" transform="matrix(1.6504, 0.0, 0.0, 1.6504, -1.5248, -47.2752)" width="11.35" xlink:href="#shape0"/>
    <use ffdec:characterId="510" height="13.45" transform="matrix(0.9976, -0.0615, 0.0615, 0.9976, -6.4971, 7.0911)" width="12.2" xlink:href="#shape1"/>
    <use ffdec:characterId="510" height="13.45" transform="matrix(0.7656, 0.6388, -0.6388, 0.7656, -0.3904, 233.0237)" width="12.2" xlink:href="#shape2"/>
    <use ffdec:characterId="508" height="13.3" transform="matrix(1.8454, -1.9551, 1.9551, 1.8454, -23.2776, 92.4743)" width="11.35" xlink:href="#shape0"/>
    <clipPath id="clipPath0">
      <path d="M 2.35 42.8 L 1.78 42.81 L 1.21 42.82 L 0.66 42.85 L 0.11 42.89 L -0.43 42.94 L -0.96 43.01 L -1.48 43.08 L -1.99 43.17 L -2.5 43.26 L -2.99 43.37 L -3.47 43.49 L -3.95 43.63 L -4.42 43.77 L -4.88 43.92 L -5.33 44.09 L -5.77 44.27 L -6.2 44.46 L -6.62 44.66 L -7.04 44.87 L -7.44 45.09 L -7.84 45.33 L -8.23 45.58 L -8.61 45.84 L -8.98 46.1 L -9.34 46.39 L -9.69 46.68 L -10.04 46.98 L -10.37 47.3 L -10.7 47.63 L -11.02 47.96 L -11.33 48.31 L -11.62 48.67 L -11.92 49.05 L -12.2 49.43 L -12.47 49.83 L -12.74 50.24 L -12.99 50.65 L -13.24 51.08 L -13.48 51.53 L -13.7 51.98 L -13.92 52.44 L -14.14 52.92 L -14.34 53.41 L -14.53 53.91 L -14.72 54.42 L -14.89 54.94 L -15.06 55.47 L -15.22 56.02 L -15.37 56.58 L -15.51 57.14 L -15.64 57.72 L -15.76 58.31 L -15.88 58.92 L -15.98 59.53 L -16.08 60.16 L -16.17 60.79 L -16.25 61.44 L -16.32 62.1 L -16.43 63.45 L -16.51 64.85 L -16.55 66.3 L -16.55 349.85 L 57.45 349.85 L 57.45 66.3 L 55.18 64.85 L 52.95 63.45 L 50.75 62.1 L 48.58 60.79 L 46.45 59.53 L 44.36 58.31 L 42.3 57.14 L 40.28 56.02 L 38.29 54.94 L 36.34 53.91 L 34.43 52.92 L 32.55 51.98 L 30.7 51.08 L 28.89 50.24 L 27.11 49.43 L 25.38 48.67 L 23.67 47.96 L 22 47.3 L 20.37 46.68 L 18.77 46.1 L 17.21 45.58 L 15.68 45.09 L 14.19 44.66 L 12.73 44.27 L 11.31 43.92 L 9.92 43.63 L 8.57 43.37 L 7.26 43.17 L 6.61 43.08 L 5.98 43.01 L 5.35 42.94 L 4.73 42.89 L 4.12 42.85 L 3.52 42.82 L 2.93 42.81 L 2.35 42.8 Z"/>
    </clipPath>
    <g clip-path="url(#clipPath0)">
      <use ffdec:characterId="513" height="332.65" transform="matrix(1.0, 0.0, 0.0, 1.0, 0.0, 0.0)" width="33.25" xlink:href="#shape3"/>
    </g>
    <clipPath id="clipPath1">
      <path d="M 1.98 44.08 L 1.4 44.08 L 0.84 44.1 L 0.28 44.12 L -0.27 44.16 L -0.8 44.21 L -1.33 44.27 L -1.85 44.34 L -2.36 44.42 L -2.86 44.51 L -3.36 44.62 L -3.84 44.73 L -4.31 44.86 L -4.78 44.99 L -5.23 45.14 L -5.68 45.3 L -6.12 45.46 L -6.55 45.64 L -6.97 45.83 L -7.38 46.03 L -7.78 46.25 L -8.18 46.47 L -8.56 46.7 L -8.94 46.95 L -9.3 47.2 L -9.66 47.47 L -10.01 47.74 L -10.35 48.03 L -10.68 48.33 L -11 48.64 L -11.31 48.96 L -11.61 49.29 L -11.91 49.63 L -12.19 49.98 L -12.47 50.35 L -12.73 50.72 L -12.99 51.11 L -13.24 51.5 L -13.48 51.91 L -13.71 52.33 L -13.93 52.76 L -14.15 53.2 L -14.35 53.65 L -14.54 54.11 L -14.73 54.58 L -14.91 55.06 L -15.07 55.56 L -15.23 56.06 L -15.38 56.58 L -15.52 57.1 L -15.66 57.64 L -15.78 58.19 L -15.89 58.75 L -16 59.32 L -16.09 59.9 L -16.18 60.49 L -16.26 61.09 L -16.32 61.7 L -16.38 62.33 L -16.47 63.61 L -16.53 64.93 L -16.55 66.3 L -16.55 349.85 L 57.45 349.85 L 57.45 66.3 L 55.16 64.93 L 52.9 63.61 L 50.68 62.33 L 48.49 61.09 L 46.35 59.9 L 44.23 58.75 L 42.16 57.64 L 40.12 56.58 L 38.11 55.56 L 36.14 54.58 L 34.21 53.65 L 32.32 52.76 L 30.46 51.91 L 28.63 51.11 L 26.85 50.35 L 25.09 49.63 L 23.38 48.96 L 21.7 48.33 L 20.06 47.74 L 18.45 47.2 L 16.88 46.7 L 15.34 46.25 L 13.84 45.83 L 12.38 45.46 L 10.95 45.14 L 9.56 44.86 L 8.21 44.62 L 6.89 44.42 L 5.61 44.27 L 4.98 44.21 L 4.36 44.16 L 3.75 44.12 L 3.15 44.1 L 2.56 44.08 L 1.98 44.08 Z"/>
    </clipPath>
    <g clip-path="url(#clipPath1)">
      <use ffdec:characterId="515" height="333.65" transform="matrix(1.0, 0.0, 0.0, 1.0, -0.75, -0.75)" width="34.75" xlink:href="#shape4"/>
    </g>
  </g>
  <defs>
    <g id="shape0" transform="matrix(1.0, 0.0, 0.0, 1.0, 5.65, 6.65)">
      <path d="M4.25 -3.85 Q5.5 -1.95 5.1 0.9 4.75 3.7 2.4 5.25 0.1 6.7 -1.65 5.8 -3.4 4.85 -4.35 2.75 -5.25 0.9 -5.15 -1.35 -5.05 -3.4 -3.35 -4.8 -1.35 -6.5 0.7 -6.05 2.55 -5.65 4.0 -4.45 L4.25 -3.85" fill="#ffffff" fill-rule="evenodd" stroke="none"/>
      <path d="M4.25 -3.85 Q5.5 -1.95 5.1 0.9 4.75 3.7 2.4 5.25 0.1 6.7 -1.65 5.8 -3.4 4.85 -4.35 2.75 -5.25 0.9 -5.15 -1.35 -5.05 -3.4 -3.35 -4.8 -1.35 -6.5 0.7 -6.05 2.55 -5.65 4.0 -4.45 L4.25 -3.85 Z" fill="none" stroke="#000000" stroke-linecap="round" stroke-linejoin="round" stroke-width="1.0"/>
    </g>
    <g id="shape1" transform="matrix(1.0, 0.0, 0.0, 1.0, 6.1, 6.7)">
      <path d="M0.55 -5.95 Q2.45 -6.1 3.95 -4.25 5.45 -2.35 5.6 0.6 5.75 3.5 3.7 4.9 1.7 6.25 -0.65 6.25 -2.7 6.25 -4.25 4.75 -5.8 3.25 -5.6 -0.25 -5.4 -3.8 -3.75 -5.1 -2.05 -6.35 -0.9 -6.2 L0.55 -5.95" fill="#ffffff" fill-rule="evenodd" stroke="none"/>
      <path d="M0.55 -5.95 Q2.45 -6.1 3.95 -4.25 5.45 -2.35 5.6 0.6 5.75 3.5 3.7 4.9 1.7 6.25 -0.65 6.25 -2.7 6.25 -4.25 4.75 -5.8 3.25 -5.6 -0.25 -5.4 -3.8 -3.75 -5.1 -2.05 -6.35 -0.9 -6.2 L0.55 -5.95 Z" ffdec:has-small-stroke="true" ffdec:original-stroke-width="1.0" fill="none" stroke="#000000" stroke-linecap="round" stroke-linejoin="round" stroke-width="1.000519573683725"/>
    </g>
    <g id="shape2" transform="matrix(1.0, 0.0, 0.0, 1.0, 6.1, 6.7)">
      <path d="M0.55 -5.95 Q2.45 -6.1 3.95 -4.25 5.45 -2.35 5.6 0.6 5.75 3.5 3.7 4.9 1.7 6.25 -0.65 6.25 -2.7 6.25 -4.25 4.75 -5.8 3.25 -5.6 -0.25 -5.4 -3.8 -3.75 -5.1 -2.05 -6.35 -0.9 -6.2 L0.55 -5.95" fill="#ffffff" fill-rule="evenodd" stroke="none"/>
      <path d="M0.55 -5.95 Q2.45 -6.1 3.95 -4.25 5.45 -2.35 5.6 0.6 5.75 3.5 3.7 4.9 1.7 6.25 -0.65 6.25 -2.7 6.25 -4.25 4.75 -5.8 3.25 -5.6 -0.25 -5.4 -3.8 -3.75 -5.1 -2.05 -6.35 -0.9 -6.2 L0.55 -5.95 Z" ffdec:has-small-stroke="true" ffdec:original-stroke-width="1.0" fill="none" stroke="#000000" stroke-linecap="round" stroke-linejoin="round" stroke-width="1.002892831875216"/>
    </g>
    <g id="shape3" transform="matrix(1.0, 0.0, 0.0, 1.0, 0.0, 0.0)">
      <path d="M4.3 1.7 Q26.3 18.75 21.45 40.75 16.15 68.8 16.6 80.95 17.05 93.1 18.15 99.55 19.2 106.0 18.65 112.15 L17.55 123.6 Q24.3 134.95 25.3 147.9 25.8 153.9 24.65 159.85 27.45 163.85 26.6 168.85 24.85 179.4 20.7 189.05 L19.5 191.5 21.55 219.6 28.25 226.7 Q29.3 240.6 33.25 253.5 31.9 257.65 32.55 261.8 27.75 286.85 33.1 320.6 L33.2 320.65 32.8 321.55 Q30.85 326.25 29.5 331.2 31.45 335.5 0.0 326.9 L0.0 0.0 4.3 1.7" fill="#000000" fill-rule="evenodd" stroke="none"/>
    </g>
    <g id="shape4" transform="matrix(1.0, 0.0, 0.0, 1.0, 0.75, 0.75)">
      <path d="M0.0 0.0 L4.3 1.7 Q26.3 18.75 21.45 40.75 16.15 68.8 16.6 80.95 17.05 93.1 18.15 99.55 19.2 106.0 18.65 112.15 L17.55 123.6 Q24.3 134.95 25.3 147.9 25.8 153.9 24.65 159.85 27.45 163.85 26.6 168.85 24.85 179.4 20.7 189.05 L19.5 191.5 21.55 219.6 28.25 226.7 Q29.3 240.6 33.25 253.5 31.9 257.65 32.55 261.8 27.75 286.85 33.1 320.6 L33.2 320.65 32.8 321.55 Q30.85 326.25 29.5 331.2 31.45 335.5 0.0 326.9 L0.0 0.0" fill="#ffffff" fill-rule="evenodd" stroke="none"/>
      <path d="M0.0 0.0 L4.3 1.7 Q26.3 18.75 21.45 40.75 16.15 68.8 16.6 80.95 17.05 93.1 18.15 99.55 19.2 106.0 18.65 112.15 L17.55 123.6 Q24.3 134.95 25.3 147.9 25.8 153.9 24.65 159.85 27.45 163.85 26.6 168.85 24.85 179.4 20.7 189.05 L19.5 191.5 21.55 219.6 28.25 226.7 Q29.3 240.6 33.25 253.5 31.9 257.65 32.55 261.8 27.75 286.85 33.1 320.6 L33.2 320.65 32.8 321.55 Q30.85 326.25 29.5 331.2" fill="none" stroke="#000000" stroke-linecap="round" stroke-linejoin="round" stroke-width="1.5"/>
      <path d="M12.2 23.7 Q11.05 23.25 9.6 23.15 L9.35 23.1 7.4 23.1 6.45 23.1 4.4 25.55 Q2.0 28.15 -0.75 30.35 L-0.75 21.0 1.2 20.6 8.25 20.3 Q14.8 20.15 16.3 24.65 17.0 26.65 17.0 28.3 17.05 33.05 11.6 34.6 L8.0 34.6 6.45 33.65 Q5.25 31.75 4.85 29.45 L4.65 28.25 5.15 27.4 Q6.35 25.6 8.25 25.05 L8.3 24.9 10.7 24.9 8.9 25.5 8.0 27.0 8.0 30.05 8.6 30.95 8.85 31.2 Q9.65 31.85 10.7 32.15 L11.3 32.15 12.9 31.65 14.35 30.65 14.65 30.35 14.95 26.4 14.05 24.9 Q13.3 24.15 12.2 23.7" fill="#def2fe" fill-rule="evenodd" stroke="none"/>
      <path d="M32.5 253.8 Q31.15 257.95 31.8 262.1 29.85 272.2 29.6 283.75 L28.8 282.15 Q27.65 274.95 29.65 269.15 30.9 265.5 30.6 260.65 L28.8 258.4 28.8 255.3 Q31.0 249.35 27.95 245.0 L26.6 242.75 Q22.85 239.55 18.1 237.25 16.9 236.65 16.75 235.6 19.8 232.1 23.5 229.85 24.65 229.2 25.25 227.95 L26.6 227.5 27.15 226.65 27.5 227.0 Q28.55 240.9 32.5 253.8 M28.75 331.5 Q29.3 332.7 27.15 332.9 25.75 330.0 25.7 326.05 L25.7 325.6 27.95 322.0 Q30.05 320.8 32.2 319.75 L32.35 320.9 32.45 320.95 32.05 321.85 Q30.1 326.55 28.75 331.5 M16.4 69.3 Q15.65 76.5 15.85 81.25 16.3 93.4 17.4 99.85 18.45 106.3 17.9 112.45 L16.85 123.45 Q14.65 121.3 12.2 119.65 L11.8 119.6 10.9 117.8 10.9 112.4 13.6 107.05 Q11.5 89.6 15.1 73.6 15.55 71.45 16.4 69.3 M23.95 163.05 L23.5 159.45 24.25 158.05 23.9 160.15 Q26.7 164.15 25.85 169.15 L24.2 176.95 Q22.75 182.45 20.7 187.65 L19.95 189.35 19.1 191.15 18.75 191.8 18.9 193.5 18.55 193.05 18.5 192.3 18.25 192.3 17.95 191.65 14.0 190.0 12.85 189.85 11.05 189.0 10.7 188.95 13.45 187.75 14.65 186.55 17.05 185.05 17.35 184.4 20.75 181.15 Q24.85 174.8 25.25 165.25 L23.95 163.05" fill="#caeafe" fill-rule="evenodd" stroke="none"/>
    </g>
  </defs>
</svg>
