<?xml version="1.0" encoding="UTF-8" standalone="no"?>
<svg xmlns:ffdec="https://www.free-decompiler.com/flash" xmlns:xlink="http://www.w3.org/1999/xlink" ffdec:objectType="frame" height="756.85px" width="83.35px" xmlns="http://www.w3.org/2000/svg">
  <g transform="matrix(1.0, 0.0, 0.0, 1.0, 25.9, 99.2)">
    <use ffdec:characterId="508" height="13.3" transform="matrix(1.6504, 0.0, 0.0, 1.6504, -1.5248, -21.2752)" width="11.35" xlink:href="#shape0"/>
    <use ffdec:characterId="510" height="13.45" transform="matrix(0.9959, -0.083, 0.083, 0.9959, -6.6308, 35.834)" width="12.2" xlink:href="#shape1"/>
    <use ffdec:characterId="510" height="13.45" transform="matrix(0.7246, 0.6848, -0.6848, 0.7246, 0.1177, 261.4679)" width="12.2" xlink:href="#shape2"/>
    <use ffdec:characterId="508" height="13.3" transform="matrix(1.5626, -2.2008, 2.2008, 1.5626, -23.514, 121.7433)" width="11.35" xlink:href="#shape0"/>
    <clipPath id="clipPath0">
      <path d="M 1.9 33.67 L 1.33 33.68 L 0.76 33.7 L 0.21 33.73 L -0.34 33.77 L -0.88 33.82 L -1.41 33.88 L -1.92 33.96 L -2.44 34.05 L -2.94 34.15 L -3.43 34.26 L -3.91 34.38 L -4.39 34.51 L -4.85 34.66 L -5.31 34.82 L -5.75 34.98 L -6.19 35.16 L -6.62 35.36 L -7.04 35.56 L -7.45 35.77 L -7.85 36 L -8.24 36.24 L -8.63 36.49 L -9 36.75 L -9.37 37.03 L -9.72 37.31 L -10.07 37.61 L -10.41 37.92 L -10.74 38.24 L -11.06 38.57 L -11.37 38.91 L -11.67 39.26 L -11.96 39.63 L -12.25 40.01 L -12.52 40.4 L -12.79 40.8 L -13.04 41.21 L -13.29 41.64 L -13.53 42.07 L -13.76 42.52 L -13.98 42.98 L -14.19 43.45 L -14.39 43.94 L -14.59 44.43 L -14.77 44.94 L -14.94 45.45 L -15.11 45.98 L -15.27 46.52 L -15.42 47.08 L -15.55 47.64 L -15.68 48.22 L -15.8 48.8 L -15.92 49.4 L -16.02 50.01 L -16.11 50.64 L -16.2 51.27 L -16.27 51.92 L -16.34 52.57 L -16.4 53.24 L -16.48 54.61 L -16.54 56.03 L -16.55 57.5 L -16.55 349.9 L 57.45 349.9 L 57.45 57.5 L 55.15 56.03 L 52.89 54.61 L 50.67 53.24 L 48.48 51.92 L 46.32 50.64 L 44.21 49.4 L 42.13 48.22 L 40.08 47.08 L 38.08 45.98 L 36.11 44.94 L 34.17 43.94 L 32.27 42.98 L 30.41 42.07 L 28.58 41.21 L 26.79 40.4 L 25.04 39.63 L 23.32 38.91 L 21.64 38.24 L 19.99 37.61 L 18.38 37.03 L 16.81 36.49 L 15.27 36 L 13.77 35.56 L 12.31 35.16 L 10.88 34.82 L 9.49 34.51 L 8.13 34.26 L 7.47 34.15 L 6.81 34.05 L 6.17 33.96 L 5.53 33.88 L 4.9 33.82 L 4.28 33.77 L 3.68 33.73 L 3.07 33.7 L 2.48 33.68 L 1.9 33.67 Z"/>
    </clipPath>
    <g clip-path="url(#clipPath0)">
      <use ffdec:characterId="513" height="332.65" transform="matrix(1.0, 0.0, 0.0, 1.0, 0.0, 0.0)" width="33.25" xlink:href="#shape3"/>
    </g>
    <clipPath id="clipPath1">
      <path d="M 1.52 34.95 L 0.95 34.96 L 0.39 34.97 L -0.17 35 L -0.71 35.04 L -1.25 35.09 L -1.78 35.15 L -2.3 35.22 L -2.8 35.3 L -3.3 35.4 L -3.79 35.5 L -4.28 35.62 L -4.75 35.74 L -5.21 35.88 L -5.66 36.03 L -6.11 36.19 L -6.54 36.36 L -6.97 36.54 L -7.38 36.73 L -7.79 36.94 L -8.19 37.15 L -8.58 37.38 L -8.96 37.61 L -9.33 37.86 L -9.69 38.12 L -10.04 38.39 L -10.38 38.67 L -10.72 38.96 L -11.04 39.27 L -11.35 39.58 L -11.66 39.9 L -11.96 40.24 L -12.24 40.59 L -12.52 40.95 L -12.79 41.31 L -13.05 41.69 L -13.3 42.08 L -13.54 42.49 L -13.77 42.9 L -13.99 43.32 L -14.21 43.76 L -14.41 44.2 L -14.61 44.66 L -14.79 45.13 L -14.97 45.61 L -15.13 46.1 L -15.29 46.6 L -15.44 47.11 L -15.58 47.63 L -15.71 48.17 L -15.83 48.71 L -15.94 49.27 L -16.04 49.84 L -16.14 50.41 L -16.22 51 L -16.3 51.6 L -16.36 52.21 L -16.42 52.84 L -16.46 53.47 L -16.53 54.77 L -16.56 56.11 L -16.55 57.5 L -16.55 349.9 L 57.45 349.9 L 57.45 57.5 L 55.13 56.11 L 52.85 54.77 L 50.6 53.47 L 48.39 52.21 L 46.22 51 L 44.08 49.84 L 41.98 48.71 L 39.92 47.63 L 37.9 46.6 L 35.91 45.61 L 33.96 44.66 L 32.04 43.76 L 30.17 42.9 L 28.33 42.08 L 26.52 41.31 L 24.76 40.59 L 23.03 39.9 L 21.33 39.27 L 19.68 38.67 L 18.06 38.12 L 16.48 37.61 L 14.94 37.15 L 13.43 36.73 L 11.96 36.36 L 10.52 36.03 L 9.13 35.74 L 7.77 35.5 L 6.45 35.3 L 5.16 35.15 L 4.53 35.09 L 3.91 35.04 L 3.3 35 L 2.7 34.97 L 2.11 34.96 L 1.52 34.95 Z"/>
    </clipPath>
    <g clip-path="url(#clipPath1)">
      <use ffdec:characterId="515" height="333.65" transform="matrix(1.0, 0.0, 0.0, 1.0, -0.75, -0.75)" width="34.75" xlink:href="#shape4"/>
    </g>
  </g>
  <defs>
    <g id="shape0" transform="matrix(1.0, 0.0, 0.0, 1.0, 5.65, 6.65)">
      <path d="M4.25 -3.85 Q5.5 -1.95 5.1 0.9 4.75 3.7 2.4 5.25 0.1 6.7 -1.65 5.8 -3.4 4.85 -4.35 2.75 -5.25 0.9 -5.15 -1.35 -5.05 -3.4 -3.35 -4.8 -1.35 -6.5 0.7 -6.05 2.55 -5.65 4.0 -4.45 L4.25 -3.85" fill="#ffffff" fill-rule="evenodd" stroke="none"/>
      <path d="M4.25 -3.85 Q5.5 -1.95 5.1 0.9 4.75 3.7 2.4 5.25 0.1 6.7 -1.65 5.8 -3.4 4.85 -4.35 2.75 -5.25 0.9 -5.15 -1.35 -5.05 -3.4 -3.35 -4.8 -1.35 -6.5 0.7 -6.05 2.55 -5.65 4.0 -4.45 L4.25 -3.85 Z" fill="none" stroke="#000000" stroke-linecap="round" stroke-linejoin="round" stroke-width="1.0"/>
    </g>
    <g id="shape1" transform="matrix(1.0, 0.0, 0.0, 1.0, 6.1, 6.7)">
      <path d="M0.55 -5.95 Q2.45 -6.1 3.95 -4.25 5.45 -2.35 5.6 0.6 5.75 3.5 3.7 4.9 1.7 6.25 -0.65 6.25 -2.7 6.25 -4.25 4.75 -5.8 3.25 -5.6 -0.25 -5.4 -3.8 -3.75 -5.1 -2.05 -6.35 -0.9 -6.2 L0.55 -5.95" fill="#ffffff" fill-rule="evenodd" stroke="none"/>
      <path d="M0.55 -5.95 Q2.45 -6.1 3.95 -4.25 5.45 -2.35 5.6 0.6 5.75 3.5 3.7 4.9 1.7 6.25 -0.65 6.25 -2.7 6.25 -4.25 4.75 -5.8 3.25 -5.6 -0.25 -5.4 -3.8 -3.75 -5.1 -2.05 -6.35 -0.9 -6.2 L0.55 -5.95 Z" ffdec:has-small-stroke="true" ffdec:original-stroke-width="1.0" fill="none" stroke="#000000" stroke-linecap="round" stroke-linejoin="round" stroke-width="1.0006834001083182"/>
    </g>
    <g id="shape2" transform="matrix(1.0, 0.0, 0.0, 1.0, 6.1, 6.7)">
      <path d="M0.55 -5.95 Q2.45 -6.1 3.95 -4.25 5.45 -2.35 5.6 0.6 5.75 3.5 3.7 4.9 1.7 6.25 -0.65 6.25 -2.7 6.25 -4.25 4.75 -5.8 3.25 -5.6 -0.25 -5.4 -3.8 -3.75 -5.1 -2.05 -6.35 -0.9 -6.2 L0.55 -5.95" fill="#ffffff" fill-rule="evenodd" stroke="none"/>
      <path d="M0.55 -5.95 Q2.45 -6.1 3.95 -4.25 5.45 -2.35 5.6 0.6 5.75 3.5 3.7 4.9 1.7 6.25 -0.65 6.25 -2.7 6.25 -4.25 4.75 -5.8 3.25 -5.6 -0.25 -5.4 -3.8 -3.75 -5.1 -2.05 -6.35 -0.9 -6.2 L0.55 -5.95 Z" ffdec:has-small-stroke="true" ffdec:original-stroke-width="1.0" fill="none" stroke="#000000" stroke-linecap="round" stroke-linejoin="round" stroke-width="1.0030191174923844"/>
    </g>
    <g id="shape3" transform="matrix(1.0, 0.0, 0.0, 1.0, 0.0, 0.0)">
      <path d="M4.3 1.7 Q26.3 18.75 21.45 40.75 16.15 68.8 16.6 80.95 17.05 93.1 18.15 99.55 19.2 106.0 18.65 112.15 L17.55 123.6 Q24.3 134.95 25.3 147.9 25.8 153.9 24.65 159.85 27.45 163.85 26.6 168.85 24.85 179.4 20.7 189.05 L19.5 191.5 21.55 219.6 28.25 226.7 Q29.3 240.6 33.25 253.5 31.9 257.65 32.55 261.8 27.75 286.85 33.1 320.6 L33.2 320.65 32.8 321.55 Q30.85 326.25 29.5 331.2 31.45 335.5 0.0 326.9 L0.0 0.0 4.3 1.7" fill="#000000" fill-rule="evenodd" stroke="none"/>
    </g>
    <g id="shape4" transform="matrix(1.0, 0.0, 0.0, 1.0, 0.75, 0.75)">
      <path d="M0.0 0.0 L4.3 1.7 Q26.3 18.75 21.45 40.75 16.15 68.8 16.6 80.95 17.05 93.1 18.15 99.55 19.2 106.0 18.65 112.15 L17.55 123.6 Q24.3 134.95 25.3 147.9 25.8 153.9 24.65 159.85 27.45 163.85 26.6 168.85 24.85 179.4 20.7 189.05 L19.5 191.5 21.55 219.6 28.25 226.7 Q29.3 240.6 33.25 253.5 31.9 257.65 32.55 261.8 27.75 286.85 33.1 320.6 L33.2 320.65 32.8 321.55 Q30.85 326.25 29.5 331.2 31.45 335.5 0.0 326.9 L0.0 0.0" fill="#ffffff" fill-rule="evenodd" stroke="none"/>
      <path d="M0.0 0.0 L4.3 1.7 Q26.3 18.75 21.45 40.75 16.15 68.8 16.6 80.95 17.05 93.1 18.15 99.55 19.2 106.0 18.65 112.15 L17.55 123.6 Q24.3 134.95 25.3 147.9 25.8 153.9 24.65 159.85 27.45 163.85 26.6 168.85 24.85 179.4 20.7 189.05 L19.5 191.5 21.55 219.6 28.25 226.7 Q29.3 240.6 33.25 253.5 31.9 257.65 32.55 261.8 27.75 286.85 33.1 320.6 L33.2 320.65 32.8 321.55 Q30.85 326.25 29.5 331.2" fill="none" stroke="#000000" stroke-linecap="round" stroke-linejoin="round" stroke-width="1.5"/>
      <path d="M12.2 23.7 Q11.05 23.25 9.6 23.15 L9.35 23.1 7.4 23.1 6.45 23.1 4.4 25.55 Q2.0 28.15 -0.75 30.35 L-0.75 21.0 1.2 20.6 8.25 20.3 Q14.8 20.15 16.3 24.65 17.0 26.65 17.0 28.3 17.05 33.05 11.6 34.6 L8.0 34.6 6.45 33.65 Q5.25 31.75 4.85 29.45 L4.65 28.25 5.15 27.4 Q6.35 25.6 8.25 25.05 L8.3 24.9 10.7 24.9 8.9 25.5 8.0 27.0 8.0 30.05 8.6 30.95 8.85 31.2 Q9.65 31.85 10.7 32.15 L11.3 32.15 12.9 31.65 14.35 30.65 14.65 30.35 14.95 26.4 14.05 24.9 Q13.3 24.15 12.2 23.7" fill="#def2fe" fill-rule="evenodd" stroke="none"/>
      <path d="M32.5 253.8 Q31.15 257.95 31.8 262.1 29.85 272.2 29.6 283.75 L28.8 282.15 Q27.65 274.95 29.65 269.15 30.9 265.5 30.6 260.65 L28.8 258.4 28.8 255.3 Q31.0 249.35 27.95 245.0 L26.6 242.75 Q22.85 239.55 18.1 237.25 16.9 236.65 16.75 235.6 19.8 232.1 23.5 229.85 24.65 229.2 25.25 227.95 L26.6 227.5 27.15 226.65 27.5 227.0 Q28.55 240.9 32.5 253.8 M28.75 331.5 Q29.3 332.7 27.15 332.9 25.75 330.0 25.7 326.05 L25.7 325.6 27.95 322.0 Q30.05 320.8 32.2 319.75 L32.35 320.9 32.45 320.95 32.05 321.85 Q30.1 326.55 28.75 331.5 M16.4 69.3 Q15.65 76.5 15.85 81.25 16.3 93.4 17.4 99.85 18.45 106.3 17.9 112.45 L16.85 123.45 Q14.65 121.3 12.2 119.65 L11.8 119.6 10.9 117.8 10.9 112.4 13.6 107.05 Q11.5 89.6 15.1 73.6 15.55 71.45 16.4 69.3 M23.95 163.05 L23.5 159.45 24.25 158.05 23.9 160.15 Q26.7 164.15 25.85 169.15 L24.2 176.95 Q22.75 182.45 20.7 187.65 L19.95 189.35 19.1 191.15 18.75 191.8 18.9 193.5 18.55 193.05 18.5 192.3 18.25 192.3 17.95 191.65 14.0 190.0 12.85 189.85 11.05 189.0 10.7 188.95 13.45 187.75 14.65 186.55 17.05 185.05 17.35 184.4 20.75 181.15 Q24.85 174.8 25.25 165.25 L23.95 163.05" fill="#caeafe" fill-rule="evenodd" stroke="none"/>
    </g>
  </defs>
</svg>
