<?xml version="1.0" encoding="UTF-8" standalone="no"?>
<svg xmlns:ffdec="https://www.free-decompiler.com/flash" xmlns:xlink="http://www.w3.org/1999/xlink" ffdec:objectType="frame" height="756.85px" width="83.35px" xmlns="http://www.w3.org/2000/svg">
  <g transform="matrix(1.0, 0.0, 0.0, 1.0, 25.9, 99.2)">
    <use ffdec:characterId="508" height="13.3" transform="matrix(1.6504, 0.0, 0.0, 1.6504, -1.5248, 4.7248)" width="11.35" xlink:href="#shape0"/>
    <use ffdec:characterId="511" height="16.85" transform="matrix(1.0, 0.0, 0.0, 1.0, -3.15, -99.2)" width="16.6" xlink:href="#shape1"/>
    <use ffdec:characterId="510" height="13.45" transform="matrix(0.994, -0.1012, 0.1012, 0.994, -6.7915, 64.4576)" width="12.2" xlink:href="#shape2"/>
    <use ffdec:characterId="510" height="13.45" transform="matrix(0.6785, 0.7304, -0.7304, 0.6785, 0.7548, 290.1491)" width="12.2" xlink:href="#shape3"/>
    <use ffdec:characterId="508" height="13.3" transform="matrix(1.2553, -2.4019, 2.4019, 1.2553, -23.415, 150.9731)" width="11.35" xlink:href="#shape0"/>
    <clipPath id="clipPath0">
      <path d="M 1.5 25.15 L 0.93 25.16 L 0.36 25.17 L -0.19 25.2 L -0.74 25.24 L -1.27 25.3 L -1.8 25.36 L -2.32 25.44 L -2.83 25.53 L -3.33 25.63 L -3.82 25.74 L -4.3 25.86 L -4.77 26 L -5.23 26.15 L -5.69 26.31 L -6.13 26.48 L -6.57 26.66 L -6.99 26.85 L -7.41 27.06 L -7.81 27.28 L -8.21 27.51 L -8.6 27.75 L -8.98 28 L -9.35 28.27 L -9.71 28.55 L -10.06 28.83 L -10.4 29.14 L -10.74 29.45 L -11.06 29.77 L -11.37 30.11 L -11.68 30.46 L -11.98 30.82 L -12.26 31.19 L -12.54 31.57 L -12.81 31.97 L -13.07 32.37 L -13.32 32.79 L -13.56 33.22 L -13.79 33.66 L -14.01 34.12 L -14.22 34.58 L -14.43 35.06 L -14.62 35.55 L -14.81 36.05 L -14.98 36.56 L -15.15 37.09 L -15.3 37.63 L -15.45 38.17 L -15.59 38.73 L -15.72 39.31 L -15.84 39.89 L -15.95 40.49 L -16.05 41.09 L -16.14 41.71 L -16.23 42.34 L -16.3 42.99 L -16.37 43.64 L -16.42 44.31 L -16.47 44.98 L -16.53 46.38 L -16.56 47.81 L -16.55 49.3 L -16.55 349.9 L 57.45 349.9 L 57.45 49.3 L 55.13 47.81 L 52.84 46.38 L 50.59 44.98 L 48.38 43.64 L 46.21 42.34 L 44.07 41.09 L 41.97 39.89 L 39.91 38.73 L 37.88 37.63 L 35.89 36.56 L 33.94 35.55 L 32.03 34.58 L 30.15 33.66 L 28.31 32.79 L 26.5 31.97 L 24.74 31.19 L 23.01 30.46 L 21.31 29.77 L 19.66 29.14 L 18.04 28.55 L 16.46 28 L 14.91 27.51 L 13.41 27.06 L 11.93 26.66 L 10.5 26.31 L 9.1 26 L 7.74 25.74 L 7.08 25.63 L 6.42 25.53 L 5.77 25.44 L 5.14 25.36 L 4.51 25.3 L 3.89 25.24 L 3.28 25.2 L 2.67 25.17 L 2.08 25.16 L 1.5 25.15 Z"/>
    </clipPath>
    <g clip-path="url(#clipPath0)">
      <use ffdec:characterId="513" height="332.65" transform="matrix(1.0, 0.0, 0.0, 1.0, 0.0, 0.0)" width="33.25" xlink:href="#shape4"/>
    </g>
    <clipPath id="clipPath1">
      <path d="M 1.12 26.42 L 0.55 26.43 L -0.01 26.45 L -0.57 26.48 L -1.11 26.51 L -1.65 26.56 L -2.17 26.63 L -2.69 26.7 L -3.2 26.78 L -3.7 26.88 L -4.18 26.98 L -4.66 27.1 L -5.13 27.23 L -5.59 27.37 L -6.04 27.52 L -6.49 27.68 L -6.92 27.85 L -7.34 28.04 L -7.75 28.23 L -8.16 28.44 L -8.55 28.66 L -8.93 28.89 L -9.31 29.13 L -9.68 29.38 L -10.03 29.64 L -10.38 29.92 L -10.72 30.2 L -11.04 30.5 L -11.36 30.8 L -11.67 31.12 L -11.97 31.45 L -12.26 31.79 L -12.54 32.14 L -12.82 32.51 L -13.08 32.88 L -13.33 33.27 L -13.57 33.66 L -13.81 34.07 L -14.03 34.49 L -14.25 34.92 L -14.45 35.36 L -14.65 35.81 L -14.83 36.28 L -15.01 36.75 L -15.18 37.24 L -15.34 37.73 L -15.49 38.24 L -15.62 38.76 L -15.75 39.29 L -15.88 39.83 L -15.99 40.39 L -16.09 40.95 L -16.18 41.53 L -16.26 42.11 L -16.34 42.71 L -16.4 43.32 L -16.45 43.94 L -16.5 44.57 L -16.53 45.21 L -16.58 46.53 L -16.58 47.89 L -16.55 49.3 L -16.55 349.9 L 57.45 349.9 L 57.45 49.3 L 55.1 47.89 L 52.8 46.53 L 50.53 45.21 L 48.3 43.94 L 46.1 42.71 L 43.95 41.53 L 41.83 40.39 L 39.75 39.29 L 37.7 38.24 L 35.7 37.24 L 33.73 36.28 L 31.8 35.36 L 29.91 34.49 L 28.05 33.66 L 26.24 32.88 L 24.46 32.14 L 22.71 31.45 L 21.01 30.8 L 19.35 30.2 L 17.72 29.64 L 16.13 29.13 L 14.57 28.66 L 13.06 28.23 L 11.58 27.85 L 10.14 27.52 L 8.74 27.23 L 7.38 26.98 L 6.05 26.78 L 4.76 26.63 L 4.13 26.56 L 3.51 26.51 L 2.9 26.48 L 2.3 26.45 L 1.71 26.43 L 1.12 26.42 Z"/>
    </clipPath>
    <g clip-path="url(#clipPath1)">
      <use ffdec:characterId="515" height="333.65" transform="matrix(1.0, 0.0, 0.0, 1.0, -0.75, -0.75)" width="34.75" xlink:href="#shape5"/>
    </g>
  </g>
  <defs>
    <g id="shape0" transform="matrix(1.0, 0.0, 0.0, 1.0, 5.65, 6.65)">
      <path d="M4.25 -3.85 Q5.5 -1.95 5.1 0.9 4.75 3.7 2.4 5.25 0.1 6.7 -1.65 5.8 -3.4 4.85 -4.35 2.75 -5.25 0.9 -5.15 -1.35 -5.05 -3.4 -3.35 -4.8 -1.35 -6.5 0.7 -6.05 2.55 -5.65 4.0 -4.45 L4.25 -3.85" fill="#ffffff" fill-rule="evenodd" stroke="none"/>
      <path d="M4.25 -3.85 Q5.5 -1.95 5.1 0.9 4.75 3.7 2.4 5.25 0.1 6.7 -1.65 5.8 -3.4 4.85 -4.35 2.75 -5.25 0.9 -5.15 -1.35 -5.05 -3.4 -3.35 -4.8 -1.35 -6.5 0.7 -6.05 2.55 -5.65 4.0 -4.45 L4.25 -3.85 Z" fill="none" stroke="#000000" stroke-linecap="round" stroke-linejoin="round" stroke-width="1.0"/>
    </g>
    <g id="shape1" transform="matrix(1.0, 0.0, 0.0, 1.0, 8.3, 8.4)">
      <path d="M7.65 0.45 Q7.0 4.45 4.4 6.2 1.8 7.95 -1.25 7.95 -3.9 7.95 -6.05 6.35 -7.95 4.9 -7.8 1.75 -7.6 -2.0 -5.25 -4.5 -3.1 -6.7 -0.5 -7.85 L0.35 -7.8 Q3.4 -8.25 5.9 -5.95 8.35 -3.7 7.65 0.45" fill="#ffffff" fill-rule="evenodd" stroke="none"/>
      <path d="M7.65 0.45 Q7.0 4.45 4.4 6.2 1.8 7.95 -1.25 7.95 -3.9 7.95 -6.05 6.35 -7.95 4.9 -7.8 1.75 -7.6 -2.0 -5.25 -4.5 -3.1 -6.7 -0.5 -7.85 L0.35 -7.8 Q3.4 -8.25 5.9 -5.95 8.35 -3.7 7.65 0.45 Z" fill="none" stroke="#000000" stroke-linecap="round" stroke-linejoin="round" stroke-width="1.0"/>
    </g>
    <g id="shape2" transform="matrix(1.0, 0.0, 0.0, 1.0, 6.1, 6.7)">
      <path d="M0.55 -5.95 Q2.45 -6.1 3.95 -4.25 5.45 -2.35 5.6 0.6 5.75 3.5 3.7 4.9 1.7 6.25 -0.65 6.25 -2.7 6.25 -4.25 4.75 -5.8 3.25 -5.6 -0.25 -5.4 -3.8 -3.75 -5.1 -2.05 -6.35 -0.9 -6.2 L0.55 -5.95" fill="#ffffff" fill-rule="evenodd" stroke="none"/>
      <path d="M0.55 -5.95 Q2.45 -6.1 3.95 -4.25 5.45 -2.35 5.6 0.6 5.75 3.5 3.7 4.9 1.7 6.25 -0.65 6.25 -2.7 6.25 -4.25 4.75 -5.8 3.25 -5.6 -0.25 -5.4 -3.8 -3.75 -5.1 -2.05 -6.35 -0.9 -6.2 L0.55 -5.95 Z" ffdec:has-small-stroke="true" ffdec:original-stroke-width="1.0" fill="none" stroke="#000000" stroke-linecap="round" stroke-linejoin="round" stroke-width="1.000857937987021"/>
    </g>
    <g id="shape3" transform="matrix(1.0, 0.0, 0.0, 1.0, 6.1, 6.7)">
      <path d="M0.55 -5.95 Q2.45 -6.1 3.95 -4.25 5.45 -2.35 5.6 0.6 5.75 3.5 3.7 4.9 1.7 6.25 -0.65 6.25 -2.7 6.25 -4.25 4.75 -5.8 3.25 -5.6 -0.25 -5.4 -3.8 -3.75 -5.1 -2.05 -6.35 -0.9 -6.2 L0.55 -5.95" fill="#ffffff" fill-rule="evenodd" stroke="none"/>
      <path d="M0.55 -5.95 Q2.45 -6.1 3.95 -4.25 5.45 -2.35 5.6 0.6 5.75 3.5 3.7 4.9 1.7 6.25 -0.65 6.25 -2.7 6.25 -4.25 4.75 -5.8 3.25 -5.6 -0.25 -5.4 -3.8 -3.75 -5.1 -2.05 -6.35 -0.9 -6.2 L0.55 -5.95 Z" ffdec:has-small-stroke="true" ffdec:original-stroke-width="1.0" fill="none" stroke="#000000" stroke-linecap="round" stroke-linejoin="round" stroke-width="1.0031418673913943"/>
    </g>
    <g id="shape4" transform="matrix(1.0, 0.0, 0.0, 1.0, 0.0, 0.0)">
      <path d="M4.3 1.7 Q26.3 18.75 21.45 40.75 16.15 68.8 16.6 80.95 17.05 93.1 18.15 99.55 19.2 106.0 18.65 112.15 L17.55 123.6 Q24.3 134.95 25.3 147.9 25.8 153.9 24.65 159.85 27.45 163.85 26.6 168.85 24.85 179.4 20.7 189.05 L19.5 191.5 21.55 219.6 28.25 226.7 Q29.3 240.6 33.25 253.5 31.9 257.65 32.55 261.8 27.75 286.85 33.1 320.6 L33.2 320.65 32.8 321.55 Q30.85 326.25 29.5 331.2 31.45 335.5 0.0 326.9 L0.0 0.0 4.3 1.7" fill="#000000" fill-rule="evenodd" stroke="none"/>
    </g>
    <g id="shape5" transform="matrix(1.0, 0.0, 0.0, 1.0, 0.75, 0.75)">
      <path d="M0.0 0.0 L4.3 1.7 Q26.3 18.75 21.45 40.75 16.15 68.8 16.6 80.95 17.05 93.1 18.15 99.55 19.2 106.0 18.65 112.15 L17.55 123.6 Q24.3 134.95 25.3 147.9 25.8 153.9 24.65 159.85 27.45 163.85 26.6 168.85 24.85 179.4 20.7 189.05 L19.5 191.5 21.55 219.6 28.25 226.7 Q29.3 240.6 33.25 253.5 31.9 257.65 32.55 261.8 27.75 286.85 33.1 320.6 L33.2 320.65 32.8 321.55 Q30.85 326.25 29.5 331.2 31.45 335.5 0.0 326.9 L0.0 0.0" fill="#ffffff" fill-rule="evenodd" stroke="none"/>
      <path d="M0.0 0.0 L4.3 1.7 Q26.3 18.75 21.45 40.75 16.15 68.8 16.6 80.95 17.05 93.1 18.15 99.55 19.2 106.0 18.65 112.15 L17.55 123.6 Q24.3 134.95 25.3 147.9 25.8 153.9 24.65 159.85 27.45 163.85 26.6 168.85 24.85 179.4 20.7 189.05 L19.5 191.5 21.55 219.6 28.25 226.7 Q29.3 240.6 33.25 253.5 31.9 257.65 32.55 261.8 27.75 286.85 33.1 320.6 L33.2 320.65 32.8 321.55 Q30.85 326.25 29.5 331.2" fill="none" stroke="#000000" stroke-linecap="round" stroke-linejoin="round" stroke-width="1.5"/>
      <path d="M12.2 23.7 Q11.05 23.25 9.6 23.15 L9.35 23.1 7.4 23.1 6.45 23.1 4.4 25.55 Q2.0 28.15 -0.75 30.35 L-0.75 21.0 1.2 20.6 8.25 20.3 Q14.8 20.15 16.3 24.65 17.0 26.65 17.0 28.3 17.05 33.05 11.6 34.6 L8.0 34.6 6.45 33.65 Q5.25 31.75 4.85 29.45 L4.65 28.25 5.15 27.4 Q6.35 25.6 8.25 25.05 L8.3 24.9 10.7 24.9 8.9 25.5 8.0 27.0 8.0 30.05 8.6 30.95 8.85 31.2 Q9.65 31.85 10.7 32.15 L11.3 32.15 12.9 31.65 14.35 30.65 14.65 30.35 14.95 26.4 14.05 24.9 Q13.3 24.15 12.2 23.7" fill="#def2fe" fill-rule="evenodd" stroke="none"/>
      <path d="M32.5 253.8 Q31.15 257.95 31.8 262.1 29.85 272.2 29.6 283.75 L28.8 282.15 Q27.65 274.95 29.65 269.15 30.9 265.5 30.6 260.65 L28.8 258.4 28.8 255.3 Q31.0 249.35 27.95 245.0 L26.6 242.75 Q22.85 239.55 18.1 237.25 16.9 236.65 16.75 235.6 19.8 232.1 23.5 229.85 24.65 229.2 25.25 227.95 L26.6 227.5 27.15 226.65 27.5 227.0 Q28.55 240.9 32.5 253.8 M28.75 331.5 Q29.3 332.7 27.15 332.9 25.75 330.0 25.7 326.05 L25.7 325.6 27.95 322.0 Q30.05 320.8 32.2 319.75 L32.35 320.9 32.45 320.95 32.05 321.85 Q30.1 326.55 28.75 331.5 M16.4 69.3 Q15.65 76.5 15.85 81.25 16.3 93.4 17.4 99.85 18.45 106.3 17.9 112.45 L16.85 123.45 Q14.65 121.3 12.2 119.65 L11.8 119.6 10.9 117.8 10.9 112.4 13.6 107.05 Q11.5 89.6 15.1 73.6 15.55 71.45 16.4 69.3 M23.95 163.05 L23.5 159.45 24.25 158.05 23.9 160.15 Q26.7 164.15 25.85 169.15 L24.2 176.95 Q22.75 182.45 20.7 187.65 L19.95 189.35 19.1 191.15 18.75 191.8 18.9 193.5 18.55 193.05 18.5 192.3 18.25 192.3 17.95 191.65 14.0 190.0 12.85 189.85 11.05 189.0 10.7 188.95 13.45 187.75 14.65 186.55 17.05 185.05 17.35 184.4 20.75 181.15 Q24.85 174.8 25.25 165.25 L23.95 163.05" fill="#caeafe" fill-rule="evenodd" stroke="none"/>
    </g>
  </defs>
</svg>
