<?xml version="1.0" encoding="UTF-8" standalone="no"?>
<svg xmlns:ffdec="https://www.free-decompiler.com/flash" xmlns:xlink="http://www.w3.org/1999/xlink" ffdec:objectType="frame" height="756.85px" width="83.35px" xmlns="http://www.w3.org/2000/svg">
  <g transform="matrix(1.0, 0.0, 0.0, 1.0, 25.9, 99.2)">
    <use ffdec:characterId="508" height="13.3" transform="matrix(1.6504, 0.0, 0.0, 1.6504, -1.5248, 30.7248)" width="11.35" xlink:href="#shape0"/>
    <use ffdec:characterId="511" height="16.85" transform="matrix(0.9897, -0.1398, 0.1398, 0.9897, -4.2386, -60.7036)" width="16.6" xlink:href="#shape1"/>
    <use ffdec:characterId="510" height="13.45" transform="matrix(0.9914, -0.1227, 0.1227, 0.9914, -6.8694, 93.3056)" width="12.2" xlink:href="#shape2"/>
    <use ffdec:characterId="510" height="13.45" transform="matrix(0.633, 0.7721, -0.7721, 0.633, 1.3119, 318.7493)" width="12.2" xlink:href="#shape3"/>
    <use ffdec:characterId="508" height="13.3" transform="matrix(0.9225, -2.5603, 2.5603, 0.9225, -22.8882, 180.0808)" width="11.35" xlink:href="#shape0"/>
    <clipPath id="clipPath0">
      <path d="M 1.12 17.27 L 0.55 17.28 L -0.01 17.3 L -0.57 17.33 L -1.11 17.37 L -1.65 17.42 L -2.17 17.49 L -2.69 17.57 L -3.2 17.66 L -3.7 17.76 L -4.18 17.87 L -4.66 18 L -5.13 18.13 L -5.59 18.28 L -6.04 18.44 L -6.49 18.62 L -6.92 18.8 L -7.34 19 L -7.75 19.21 L -8.16 19.43 L -8.55 19.66 L -8.93 19.9 L -9.31 20.16 L -9.68 20.43 L -10.03 20.71 L -10.38 21 L -10.72 21.31 L -11.04 21.62 L -11.36 21.95 L -11.67 22.29 L -11.97 22.64 L -12.26 23.01 L -12.54 23.38 L -12.82 23.77 L -13.08 24.17 L -13.33 24.58 L -13.57 25 L -13.81 25.44 L -14.03 25.89 L -14.25 26.34 L -14.45 26.82 L -14.65 27.3 L -14.83 27.79 L -15.01 28.3 L -15.18 28.82 L -15.34 29.35 L -15.49 29.89 L -15.62 30.45 L -15.75 31.01 L -15.88 31.59 L -15.99 32.18 L -16.09 32.79 L -16.18 33.4 L -16.26 34.03 L -16.34 34.66 L -16.4 35.31 L -16.45 35.98 L -16.5 36.65 L -16.53 37.33 L -16.58 38.74 L -16.58 40.2 L -16.55 41.7 L -16.55 349.9 L 57.45 349.9 L 57.45 41.7 L 55.1 40.2 L 52.8 38.74 L 50.53 37.33 L 48.3 35.98 L 46.1 34.66 L 43.95 33.4 L 41.83 32.18 L 39.75 31.01 L 37.7 29.89 L 35.7 28.82 L 33.73 27.79 L 31.8 26.82 L 29.91 25.89 L 28.05 25 L 26.24 24.17 L 24.46 23.38 L 22.71 22.64 L 21.01 21.95 L 19.35 21.31 L 17.72 20.71 L 16.13 20.16 L 14.57 19.66 L 13.06 19.21 L 11.58 18.8 L 10.14 18.44 L 8.74 18.13 L 7.38 17.87 L 6.71 17.76 L 6.05 17.66 L 5.4 17.57 L 4.76 17.49 L 4.13 17.42 L 3.51 17.37 L 2.9 17.33 L 2.3 17.3 L 1.71 17.28 L 1.12 17.27 Z"/>
    </clipPath>
    <g clip-path="url(#clipPath0)">
      <use ffdec:characterId="513" height="332.65" transform="matrix(1.0, 0.0, 0.0, 1.0, 0.0, 0.0)" width="33.25" xlink:href="#shape4"/>
    </g>
    <clipPath id="clipPath1">
      <path d="M 0.73 18.52 L 0.15 18.53 L -0.41 18.55 L -0.97 18.58 L -1.51 18.62 L -2.05 18.67 L -2.57 18.73 L -3.09 18.8 L -3.59 18.89 L -4.09 18.98 L -4.57 19.09 L -5.05 19.21 L -5.52 19.34 L -5.98 19.48 L -6.42 19.63 L -6.86 19.8 L -7.29 19.97 L -7.71 20.16 L -8.12 20.36 L -8.52 20.57 L -8.91 20.79 L -9.29 21.02 L -9.66 21.26 L -10.02 21.52 L -10.38 21.78 L -10.72 22.06 L -11.05 22.35 L -11.37 22.65 L -11.69 22.96 L -11.99 23.28 L -12.28 23.62 L -12.57 23.96 L -12.84 24.32 L -13.11 24.69 L -13.36 25.07 L -13.61 25.46 L -13.85 25.86 L -14.07 26.27 L -14.29 26.7 L -14.5 27.13 L -14.69 27.58 L -14.88 28.04 L -15.06 28.51 L -15.23 28.99 L -15.39 29.48 L -15.54 29.98 L -15.68 30.5 L -15.81 31.02 L -15.93 31.56 L -16.04 32.11 L -16.14 32.67 L -16.23 33.24 L -16.32 33.82 L -16.39 34.42 L -16.45 35.02 L -16.5 35.64 L -16.55 36.27 L -16.58 36.91 L -16.61 37.56 L -16.63 38.89 L -16.61 40.27 L -16.55 41.7 L -16.55 349.9 L 57.45 349.9 L 57.45 41.7 L 55.08 40.27 L 52.75 38.89 L 50.46 37.56 L 48.2 36.27 L 45.99 35.02 L 43.81 33.82 L 41.67 32.67 L 39.57 31.56 L 37.51 30.5 L 35.49 29.48 L 33.5 28.51 L 31.56 27.58 L 29.65 26.7 L 27.78 25.86 L 25.95 25.07 L 24.16 24.32 L 22.4 23.62 L 20.69 22.96 L 19.01 22.35 L 17.37 21.78 L 15.77 21.26 L 14.21 20.79 L 12.69 20.36 L 11.21 19.97 L 9.76 19.63 L 8.36 19.34 L 6.99 19.09 L 5.66 18.89 L 5.01 18.8 L 4.37 18.73 L 3.74 18.67 L 3.11 18.62 L 2.5 18.58 L 1.9 18.55 L 1.31 18.53 L 0.73 18.52 Z"/>
    </clipPath>
    <g clip-path="url(#clipPath1)">
      <use ffdec:characterId="515" height="333.65" transform="matrix(1.0, 0.0, 0.0, 1.0, -0.75, -0.75)" width="34.75" xlink:href="#shape5"/>
    </g>
  </g>
  <defs>
    <g id="shape0" transform="matrix(1.0, 0.0, 0.0, 1.0, 5.65, 6.65)">
      <path d="M4.25 -3.85 Q5.5 -1.95 5.1 0.9 4.75 3.7 2.4 5.25 0.1 6.7 -1.65 5.8 -3.4 4.85 -4.35 2.75 -5.25 0.9 -5.15 -1.35 -5.05 -3.4 -3.35 -4.8 -1.35 -6.5 0.7 -6.05 2.55 -5.65 4.0 -4.45 L4.25 -3.85" fill="#ffffff" fill-rule="evenodd" stroke="none"/>
      <path d="M4.25 -3.85 Q5.5 -1.95 5.1 0.9 4.75 3.7 2.4 5.25 0.1 6.7 -1.65 5.8 -3.4 4.85 -4.35 2.75 -5.25 0.9 -5.15 -1.35 -5.05 -3.4 -3.35 -4.8 -1.35 -6.5 0.7 -6.05 2.55 -5.65 4.0 -4.45 L4.25 -3.85 Z" fill="none" stroke="#000000" stroke-linecap="round" stroke-linejoin="round" stroke-width="1.0"/>
    </g>
    <g id="shape1" transform="matrix(1.0, 0.0, 0.0, 1.0, 8.3, 8.4)">
      <path d="M7.65 0.45 Q7.0 4.45 4.4 6.2 1.8 7.95 -1.25 7.95 -3.9 7.95 -6.05 6.35 -7.95 4.9 -7.8 1.75 -7.6 -2.0 -5.25 -4.5 -3.1 -6.7 -0.5 -7.85 L0.35 -7.8 Q3.4 -8.25 5.9 -5.95 8.35 -3.7 7.65 0.45" fill="#ffffff" fill-rule="evenodd" stroke="none"/>
      <path d="M7.65 0.45 Q7.0 4.45 4.4 6.2 1.8 7.95 -1.25 7.95 -3.9 7.95 -6.05 6.35 -7.95 4.9 -7.8 1.75 -7.6 -2.0 -5.25 -4.5 -3.1 -6.7 -0.5 -7.85 L0.35 -7.8 Q3.4 -8.25 5.9 -5.95 8.35 -3.7 7.65 0.45 Z" ffdec:has-small-stroke="true" ffdec:original-stroke-width="1.0" fill="none" stroke="#000000" stroke-linecap="round" stroke-linejoin="round" stroke-width="1.0004660999979957"/>
    </g>
    <g id="shape2" transform="matrix(1.0, 0.0, 0.0, 1.0, 6.1, 6.7)">
      <path d="M0.55 -5.95 Q2.45 -6.1 3.95 -4.25 5.45 -2.35 5.6 0.6 5.75 3.5 3.7 4.9 1.7 6.25 -0.65 6.25 -2.7 6.25 -4.25 4.75 -5.8 3.25 -5.6 -0.25 -5.4 -3.8 -3.75 -5.1 -2.05 -6.35 -0.9 -6.2 L0.55 -5.95" fill="#ffffff" fill-rule="evenodd" stroke="none"/>
      <path d="M0.55 -5.95 Q2.45 -6.1 3.95 -4.25 5.45 -2.35 5.6 0.6 5.75 3.5 3.7 4.9 1.7 6.25 -0.65 6.25 -2.7 6.25 -4.25 4.75 -5.8 3.25 -5.6 -0.25 -5.4 -3.8 -3.75 -5.1 -2.05 -6.35 -0.9 -6.2 L0.55 -5.95 Z" ffdec:has-small-stroke="true" ffdec:original-stroke-width="1.0" fill="none" stroke="#000000" stroke-linecap="round" stroke-linejoin="round" stroke-width="1.0010186956555616"/>
    </g>
    <g id="shape3" transform="matrix(1.0, 0.0, 0.0, 1.0, 6.1, 6.7)">
      <path d="M0.55 -5.95 Q2.45 -6.1 3.95 -4.25 5.45 -2.35 5.6 0.6 5.75 3.5 3.7 4.9 1.7 6.25 -0.65 6.25 -2.7 6.25 -4.25 4.75 -5.8 3.25 -5.6 -0.25 -5.4 -3.8 -3.75 -5.1 -2.05 -6.35 -0.9 -6.2 L0.55 -5.95" fill="#ffffff" fill-rule="evenodd" stroke="none"/>
      <path d="M0.55 -5.95 Q2.45 -6.1 3.95 -4.25 5.45 -2.35 5.6 0.6 5.75 3.5 3.7 4.9 1.7 6.25 -0.65 6.25 -2.7 6.25 -4.25 4.75 -5.8 3.25 -5.6 -0.25 -5.4 -3.8 -3.75 -5.1 -2.05 -6.35 -0.9 -6.2 L0.55 -5.95 Z" ffdec:has-small-stroke="true" ffdec:original-stroke-width="1.0" fill="none" stroke="#000000" stroke-linecap="round" stroke-linejoin="round" stroke-width="1.0016066707740208"/>
    </g>
    <g id="shape4" transform="matrix(1.0, 0.0, 0.0, 1.0, 0.0, 0.0)">
      <path d="M4.3 1.7 Q26.3 18.75 21.45 40.75 16.15 68.8 16.6 80.95 17.05 93.1 18.15 99.55 19.2 106.0 18.65 112.15 L17.55 123.6 Q24.3 134.95 25.3 147.9 25.8 153.9 24.65 159.85 27.45 163.85 26.6 168.85 24.85 179.4 20.7 189.05 L19.5 191.5 21.55 219.6 28.25 226.7 Q29.3 240.6 33.25 253.5 31.9 257.65 32.55 261.8 27.75 286.85 33.1 320.6 L33.2 320.65 32.8 321.55 Q30.85 326.25 29.5 331.2 31.45 335.5 0.0 326.9 L0.0 0.0 4.3 1.7" fill="#000000" fill-rule="evenodd" stroke="none"/>
    </g>
    <g id="shape5" transform="matrix(1.0, 0.0, 0.0, 1.0, 0.75, 0.75)">
      <path d="M0.0 0.0 L4.3 1.7 Q26.3 18.75 21.45 40.75 16.15 68.8 16.6 80.95 17.05 93.1 18.15 99.55 19.2 106.0 18.65 112.15 L17.55 123.6 Q24.3 134.95 25.3 147.9 25.8 153.9 24.65 159.85 27.45 163.85 26.6 168.85 24.85 179.4 20.7 189.05 L19.5 191.5 21.55 219.6 28.25 226.7 Q29.3 240.6 33.25 253.5 31.9 257.65 32.55 261.8 27.75 286.85 33.1 320.6 L33.2 320.65 32.8 321.55 Q30.85 326.25 29.5 331.2 31.45 335.5 0.0 326.9 L0.0 0.0" fill="#ffffff" fill-rule="evenodd" stroke="none"/>
      <path d="M0.0 0.0 L4.3 1.7 Q26.3 18.75 21.45 40.75 16.15 68.8 16.6 80.95 17.05 93.1 18.15 99.55 19.2 106.0 18.65 112.15 L17.55 123.6 Q24.3 134.95 25.3 147.9 25.8 153.9 24.65 159.85 27.45 163.85 26.6 168.85 24.85 179.4 20.7 189.05 L19.5 191.5 21.55 219.6 28.25 226.7 Q29.3 240.6 33.25 253.5 31.9 257.65 32.55 261.8 27.75 286.85 33.1 320.6 L33.2 320.65 32.8 321.55 Q30.85 326.25 29.5 331.2" fill="none" stroke="#000000" stroke-linecap="round" stroke-linejoin="round" stroke-width="1.5"/>
      <path d="M12.2 23.7 Q11.05 23.25 9.6 23.15 L9.35 23.1 7.4 23.1 6.45 23.1 4.4 25.55 Q2.0 28.15 -0.75 30.35 L-0.75 21.0 1.2 20.6 8.25 20.3 Q14.8 20.15 16.3 24.65 17.0 26.65 17.0 28.3 17.05 33.05 11.6 34.6 L8.0 34.6 6.45 33.65 Q5.25 31.75 4.85 29.45 L4.65 28.25 5.15 27.4 Q6.35 25.6 8.25 25.05 L8.3 24.9 10.7 24.9 8.9 25.5 8.0 27.0 8.0 30.05 8.6 30.95 8.85 31.2 Q9.65 31.85 10.7 32.15 L11.3 32.15 12.9 31.65 14.35 30.65 14.65 30.35 14.95 26.4 14.05 24.9 Q13.3 24.15 12.2 23.7" fill="#def2fe" fill-rule="evenodd" stroke="none"/>
      <path d="M32.5 253.8 Q31.15 257.95 31.8 262.1 29.85 272.2 29.6 283.75 L28.8 282.15 Q27.65 274.95 29.65 269.15 30.9 265.5 30.6 260.65 L28.8 258.4 28.8 255.3 Q31.0 249.35 27.95 245.0 L26.6 242.75 Q22.85 239.55 18.1 237.25 16.9 236.65 16.75 235.6 19.8 232.1 23.5 229.85 24.65 229.2 25.25 227.95 L26.6 227.5 27.15 226.65 27.5 227.0 Q28.55 240.9 32.5 253.8 M28.75 331.5 Q29.3 332.7 27.15 332.9 25.75 330.0 25.7 326.05 L25.7 325.6 27.95 322.0 Q30.05 320.8 32.2 319.75 L32.35 320.9 32.45 320.95 32.05 321.85 Q30.1 326.55 28.75 331.5 M16.4 69.3 Q15.65 76.5 15.85 81.25 16.3 93.4 17.4 99.85 18.45 106.3 17.9 112.45 L16.85 123.45 Q14.65 121.3 12.2 119.65 L11.8 119.6 10.9 117.8 10.9 112.4 13.6 107.05 Q11.5 89.6 15.1 73.6 15.55 71.45 16.4 69.3 M23.95 163.05 L23.5 159.45 24.25 158.05 23.9 160.15 Q26.7 164.15 25.85 169.15 L24.2 176.95 Q22.75 182.45 20.7 187.65 L19.95 189.35 19.1 191.15 18.75 191.8 18.9 193.5 18.55 193.05 18.5 192.3 18.25 192.3 17.95 191.65 14.0 190.0 12.85 189.85 11.05 189.0 10.7 188.95 13.45 187.75 14.65 186.55 17.05 185.05 17.35 184.4 20.75 181.15 Q24.85 174.8 25.25 165.25 L23.95 163.05" fill="#caeafe" fill-rule="evenodd" stroke="none"/>
    </g>
  </defs>
</svg>
