<?xml version="1.0" encoding="UTF-8" standalone="no"?>
<svg xmlns:ffdec="https://www.free-decompiler.com/flash" xmlns:xlink="http://www.w3.org/1999/xlink" ffdec:objectType="frame" height="756.85px" width="83.35px" xmlns="http://www.w3.org/2000/svg">
  <g transform="matrix(1.0, 0.0, 0.0, 1.0, 25.9, 99.2)">
    <use ffdec:characterId="508" height="13.3" transform="matrix(1.6504, 0.0, 0.0, 1.6504, -1.5248, 56.7248)" width="11.35" xlink:href="#shape0"/>
    <use ffdec:characterId="511" height="16.85" transform="matrix(0.9591, -0.2799, 0.2799, 0.9591, -5.1618, -21.9833)" width="16.6" xlink:href="#shape1"/>
    <use ffdec:characterId="510" height="13.45" transform="matrix(0.9884, -0.144, 0.144, 0.9884, -6.994, 121.9564)" width="12.2" xlink:href="#shape2"/>
    <use ffdec:characterId="508" height="13.3" transform="matrix(0.5702, -2.6728, 2.6728, 0.5702, -21.8457, 209.0096)" width="11.35" xlink:href="#shape0"/>
    <clipPath id="clipPath0">
      <path d="M 0.77 10 L 0.2 10.01 L -0.36 10.02 L -0.92 10.05 L -1.46 10.1 L -2 10.15 L -2.52 10.22 L -3.04 10.3 L -3.54 10.39 L -4.04 10.49 L -4.53 10.6 L -5 10.73 L -5.47 10.87 L -5.93 11.02 L -6.38 11.18 L -6.82 11.36 L -7.25 11.54 L -7.66 11.74 L -8.07 11.95 L -8.48 12.18 L -8.87 12.41 L -9.25 12.66 L -9.62 12.92 L -9.98 13.19 L -10.33 13.47 L -10.68 13.77 L -11.01 14.08 L -11.33 14.4 L -11.65 14.73 L -11.95 15.07 L -12.25 15.43 L -12.53 15.8 L -12.81 16.17 L -13.07 16.57 L -13.33 16.97 L -13.58 17.39 L -13.81 17.82 L -14.04 18.26 L -14.26 18.71 L -14.47 19.17 L -14.66 19.65 L -14.85 20.14 L -15.03 20.64 L -15.2 21.15 L -15.36 21.67 L -15.51 22.21 L -15.65 22.76 L -15.79 23.32 L -15.91 23.89 L -16.02 24.48 L -16.12 25.08 L -16.22 25.68 L -16.3 26.31 L -16.37 26.94 L -16.44 27.58 L -16.49 28.24 L -16.54 28.91 L -16.57 29.59 L -16.6 30.29 L -16.62 31.71 L -16.6 33.18 L -16.55 34.7 L -16.55 349.9 L 57.45 349.9 L 57.45 34.7 L 55.08 33.18 L 52.75 31.71 L 50.47 30.29 L 48.21 28.91 L 46 27.58 L 43.83 26.31 L 41.69 25.08 L 39.59 23.89 L 37.53 22.76 L 35.51 21.67 L 33.53 20.64 L 31.59 19.65 L 29.68 18.71 L 27.81 17.82 L 25.98 16.97 L 24.19 16.17 L 22.44 15.43 L 20.73 14.73 L 19.05 14.08 L 17.42 13.47 L 15.82 12.92 L 14.26 12.41 L 12.74 11.95 L 11.25 11.54 L 9.81 11.18 L 8.4 10.87 L 7.72 10.73 L 7.04 10.6 L 6.37 10.49 L 5.71 10.39 L 5.06 10.3 L 4.42 10.22 L 3.79 10.15 L 3.16 10.1 L 2.55 10.05 L 1.95 10.02 L 1.36 10.01 L 0.77 10 Z"/>
    </clipPath>
    <g clip-path="url(#clipPath0)">
      <use ffdec:characterId="513" height="332.65" transform="matrix(1.0, 0.0, 0.0, 1.0, 0.0, 0.0)" width="33.25" xlink:href="#shape3"/>
    </g>
    <clipPath id="clipPath1">
      <path d="M 0.38 11.25 L -0.2 11.26 L -0.76 11.27 L -1.32 11.3 L -1.86 11.34 L -2.39 11.39 L -2.92 11.46 L -3.43 11.53 L -3.94 11.62 L -4.43 11.71 L -4.92 11.82 L -5.39 11.94 L -5.86 12.07 L -6.31 12.22 L -6.76 12.37 L -7.19 12.54 L -7.62 12.72 L -8.04 12.9 L -8.44 13.1 L -8.84 13.32 L -9.23 13.54 L -9.6 13.77 L -9.97 14.02 L -10.33 14.28 L -10.68 14.55 L -11.01 14.83 L -11.34 15.12 L -11.66 15.42 L -11.97 15.74 L -12.27 16.06 L -12.56 16.4 L -12.84 16.75 L -13.11 17.11 L -13.37 17.48 L -13.62 17.87 L -13.86 18.26 L -14.09 18.67 L -14.31 19.09 L -14.52 19.52 L -14.72 19.96 L -14.91 20.41 L -15.09 20.87 L -15.26 21.35 L -15.42 21.84 L -15.57 22.33 L -15.72 22.84 L -15.85 23.36 L -15.97 23.9 L -16.08 24.44 L -16.19 25 L -16.28 25.56 L -16.36 26.14 L -16.43 26.73 L -16.5 27.33 L -16.55 27.94 L -16.6 28.57 L -16.63 29.2 L -16.65 29.85 L -16.67 30.51 L -16.67 31.86 L -16.63 33.26 L -16.55 34.7 L -16.55 349.9 L 57.45 349.9 L 57.45 34.7 L 55.06 33.26 L 52.71 31.86 L 50.39 30.51 L 48.12 29.2 L 45.89 27.94 L 43.69 26.73 L 41.53 25.56 L 39.42 24.44 L 37.34 23.36 L 35.3 22.33 L 33.3 21.35 L 31.34 20.41 L 29.42 19.52 L 27.54 18.67 L 25.7 17.87 L 23.89 17.11 L 22.13 16.4 L 20.4 15.74 L 18.72 15.12 L 17.07 14.55 L 15.47 14.02 L 13.9 13.54 L 12.37 13.1 L 10.88 12.72 L 9.43 12.37 L 8.02 12.07 L 6.65 11.82 L 5.31 11.62 L 4.66 11.53 L 4.02 11.46 L 3.39 11.39 L 2.77 11.34 L 2.15 11.3 L 1.55 11.27 L 0.96 11.26 L 0.38 11.25 Z"/>
    </clipPath>
    <g clip-path="url(#clipPath1)">
      <use ffdec:characterId="515" height="333.65" transform="matrix(1.0, 0.0, 0.0, 1.0, -0.75, -0.75)" width="34.75" xlink:href="#shape4"/>
    </g>
  </g>
  <defs>
    <g id="shape0" transform="matrix(1.0, 0.0, 0.0, 1.0, 5.65, 6.65)">
      <path d="M4.25 -3.85 Q5.5 -1.95 5.1 0.9 4.75 3.7 2.4 5.25 0.1 6.7 -1.65 5.8 -3.4 4.85 -4.35 2.75 -5.25 0.9 -5.15 -1.35 -5.05 -3.4 -3.35 -4.8 -1.35 -6.5 0.7 -6.05 2.55 -5.65 4.0 -4.45 L4.25 -3.85" fill="#ffffff" fill-rule="evenodd" stroke="none"/>
      <path d="M4.25 -3.85 Q5.5 -1.95 5.1 0.9 4.75 3.7 2.4 5.25 0.1 6.7 -1.65 5.8 -3.4 4.85 -4.35 2.75 -5.25 0.9 -5.15 -1.35 -5.05 -3.4 -3.35 -4.8 -1.35 -6.5 0.7 -6.05 2.55 -5.65 4.0 -4.45 L4.25 -3.85 Z" fill="none" stroke="#000000" stroke-linecap="round" stroke-linejoin="round" stroke-width="1.0"/>
    </g>
    <g id="shape1" transform="matrix(1.0, 0.0, 0.0, 1.0, 8.3, 8.4)">
      <path d="M7.65 0.45 Q7.0 4.45 4.4 6.2 1.8 7.95 -1.25 7.95 -3.9 7.95 -6.05 6.35 -7.95 4.9 -7.8 1.75 -7.6 -2.0 -5.25 -4.5 -3.1 -6.7 -0.5 -7.85 L0.35 -7.8 Q3.4 -8.25 5.9 -5.95 8.35 -3.7 7.65 0.45" fill="#ffffff" fill-rule="evenodd" stroke="none"/>
      <path d="M7.65 0.45 Q7.0 4.45 4.4 6.2 1.8 7.95 -1.25 7.95 -3.9 7.95 -6.05 6.35 -7.95 4.9 -7.8 1.75 -7.6 -2.0 -5.25 -4.5 -3.1 -6.7 -0.5 -7.85 L0.35 -7.8 Q3.4 -8.25 5.9 -5.95 8.35 -3.7 7.65 0.45 Z" ffdec:has-small-stroke="true" ffdec:original-stroke-width="1.0" fill="none" stroke="#000000" stroke-linecap="round" stroke-linejoin="round" stroke-width="1.0008845578201584"/>
    </g>
    <g id="shape2" transform="matrix(1.0, 0.0, 0.0, 1.0, 6.1, 6.7)">
      <path d="M0.55 -5.95 Q2.45 -6.1 3.95 -4.25 5.45 -2.35 5.6 0.6 5.75 3.5 3.7 4.9 1.7 6.25 -0.65 6.25 -2.7 6.25 -4.25 4.75 -5.8 3.25 -5.6 -0.25 -5.4 -3.8 -3.75 -5.1 -2.05 -6.35 -0.9 -6.2 L0.55 -5.95" fill="#ffffff" fill-rule="evenodd" stroke="none"/>
      <path d="M0.55 -5.95 Q2.45 -6.1 3.95 -4.25 5.45 -2.35 5.6 0.6 5.75 3.5 3.7 4.9 1.7 6.25 -0.65 6.25 -2.7 6.25 -4.25 4.75 -5.8 3.25 -5.6 -0.25 -5.4 -3.8 -3.75 -5.1 -2.05 -6.35 -0.9 -6.2 L0.55 -5.95 Z" ffdec:has-small-stroke="true" ffdec:original-stroke-width="1.0" fill="none" stroke="#000000" stroke-linecap="round" stroke-linejoin="round" stroke-width="1.001191936046786"/>
    </g>
    <g id="shape3" transform="matrix(1.0, 0.0, 0.0, 1.0, 0.0, 0.0)">
      <path d="M4.3 1.7 Q26.3 18.75 21.45 40.75 16.15 68.8 16.6 80.95 17.05 93.1 18.15 99.55 19.2 106.0 18.65 112.15 L17.55 123.6 Q24.3 134.95 25.3 147.9 25.8 153.9 24.65 159.85 27.45 163.85 26.6 168.85 24.85 179.4 20.7 189.05 L19.5 191.5 21.55 219.6 28.25 226.7 Q29.3 240.6 33.25 253.5 31.9 257.65 32.55 261.8 27.75 286.85 33.1 320.6 L33.2 320.65 32.8 321.55 Q30.85 326.25 29.5 331.2 31.45 335.5 0.0 326.9 L0.0 0.0 4.3 1.7" fill="#000000" fill-rule="evenodd" stroke="none"/>
    </g>
    <g id="shape4" transform="matrix(1.0, 0.0, 0.0, 1.0, 0.75, 0.75)">
      <path d="M0.0 0.0 L4.3 1.7 Q26.3 18.75 21.45 40.75 16.15 68.8 16.6 80.95 17.05 93.1 18.15 99.55 19.2 106.0 18.65 112.15 L17.55 123.6 Q24.3 134.95 25.3 147.9 25.8 153.9 24.65 159.85 27.45 163.85 26.6 168.85 24.85 179.4 20.7 189.05 L19.5 191.5 21.55 219.6 28.25 226.7 Q29.3 240.6 33.25 253.5 31.9 257.65 32.55 261.8 27.75 286.85 33.1 320.6 L33.2 320.65 32.8 321.55 Q30.85 326.25 29.5 331.2 31.45 335.5 0.0 326.9 L0.0 0.0" fill="#ffffff" fill-rule="evenodd" stroke="none"/>
      <path d="M0.0 0.0 L4.3 1.7 Q26.3 18.75 21.45 40.75 16.15 68.8 16.6 80.95 17.05 93.1 18.15 99.55 19.2 106.0 18.65 112.15 L17.55 123.6 Q24.3 134.95 25.3 147.9 25.8 153.9 24.65 159.85 27.45 163.85 26.6 168.85 24.85 179.4 20.7 189.05 L19.5 191.5 21.55 219.6 28.25 226.7 Q29.3 240.6 33.25 253.5 31.9 257.65 32.55 261.8 27.75 286.85 33.1 320.6 L33.2 320.65 32.8 321.55 Q30.85 326.25 29.5 331.2" fill="none" stroke="#000000" stroke-linecap="round" stroke-linejoin="round" stroke-width="1.5"/>
      <path d="M12.2 23.7 Q11.05 23.25 9.6 23.15 L9.35 23.1 7.4 23.1 6.45 23.1 4.4 25.55 Q2.0 28.15 -0.75 30.35 L-0.75 21.0 1.2 20.6 8.25 20.3 Q14.8 20.15 16.3 24.65 17.0 26.65 17.0 28.3 17.05 33.05 11.6 34.6 L8.0 34.6 6.45 33.65 Q5.25 31.75 4.85 29.45 L4.65 28.25 5.15 27.4 Q6.35 25.6 8.25 25.05 L8.3 24.9 10.7 24.9 8.9 25.5 8.0 27.0 8.0 30.05 8.6 30.95 8.85 31.2 Q9.65 31.85 10.7 32.15 L11.3 32.15 12.9 31.65 14.35 30.65 14.65 30.35 14.95 26.4 14.05 24.9 Q13.3 24.15 12.2 23.7" fill="#def2fe" fill-rule="evenodd" stroke="none"/>
      <path d="M32.5 253.8 Q31.15 257.95 31.8 262.1 29.85 272.2 29.6 283.75 L28.8 282.15 Q27.65 274.95 29.65 269.15 30.9 265.5 30.6 260.65 L28.8 258.4 28.8 255.3 Q31.0 249.35 27.95 245.0 L26.6 242.75 Q22.85 239.55 18.1 237.25 16.9 236.65 16.75 235.6 19.8 232.1 23.5 229.85 24.65 229.2 25.25 227.95 L26.6 227.5 27.15 226.65 27.5 227.0 Q28.55 240.9 32.5 253.8 M28.75 331.5 Q29.3 332.7 27.15 332.9 25.75 330.0 25.7 326.05 L25.7 325.6 27.95 322.0 Q30.05 320.8 32.2 319.75 L32.35 320.9 32.45 320.95 32.05 321.85 Q30.1 326.55 28.75 331.5 M16.4 69.3 Q15.65 76.5 15.85 81.25 16.3 93.4 17.4 99.85 18.45 106.3 17.9 112.45 L16.85 123.45 Q14.65 121.3 12.2 119.65 L11.8 119.6 10.9 117.8 10.9 112.4 13.6 107.05 Q11.5 89.6 15.1 73.6 15.55 71.45 16.4 69.3 M23.95 163.05 L23.5 159.45 24.25 158.05 23.9 160.15 Q26.7 164.15 25.85 169.15 L24.2 176.95 Q22.75 182.45 20.7 187.65 L19.95 189.35 19.1 191.15 18.75 191.8 18.9 193.5 18.55 193.05 18.5 192.3 18.25 192.3 17.95 191.65 14.0 190.0 12.85 189.85 11.05 189.0 10.7 188.95 13.45 187.75 14.65 186.55 17.05 185.05 17.35 184.4 20.75 181.15 Q24.85 174.8 25.25 165.25 L23.95 163.05" fill="#caeafe" fill-rule="evenodd" stroke="none"/>
    </g>
  </defs>
</svg>
