<?xml version="1.0" encoding="UTF-8" standalone="no"?>
<svg xmlns:ffdec="https://www.free-decompiler.com/flash" xmlns:xlink="http://www.w3.org/1999/xlink" ffdec:objectType="frame" height="756.85px" width="83.35px" xmlns="http://www.w3.org/2000/svg">
  <g transform="matrix(1.0, 0.0, 0.0, 1.0, 25.9, 99.2)">
    <use ffdec:characterId="508" height="13.3" transform="matrix(1.6504, 0.0, 0.0, 1.6504, -1.5248, 82.7248)" width="11.35" xlink:href="#shape0"/>
    <use ffdec:characterId="511" height="16.85" transform="matrix(0.9101, -0.4113, 0.4113, 0.9101, -5.8594, 16.7689)" width="16.6" xlink:href="#shape1"/>
    <use ffdec:characterId="510" height="13.45" transform="matrix(0.9849, -0.1653, 0.1653, 0.9849, -7.1154, 150.6599)" width="12.2" xlink:href="#shape2"/>
    <use ffdec:characterId="508" height="13.3" transform="matrix(0.2047, -2.7369, 2.7369, 0.2047, -20.557, 237.8027)" width="11.35" xlink:href="#shape0"/>
    <clipPath id="clipPath0">
      <path d="M 0.45 3.4 L -0.12 3.41 L -0.69 3.42 L -1.24 3.45 L -1.78 3.5 L -2.32 3.55 L -2.84 3.62 L -3.36 3.7 L -3.86 3.79 L -4.36 3.89 L -4.84 4.01 L -5.32 4.14 L -5.78 4.28 L -6.24 4.43 L -6.69 4.59 L -7.12 4.77 L -7.55 4.96 L -7.97 5.16 L -8.37 5.37 L -8.77 5.6 L -9.16 5.84 L -9.54 6.09 L -9.91 6.35 L -10.26 6.62 L -10.61 6.91 L -10.95 7.21 L -11.28 7.52 L -11.6 7.84 L -11.91 8.18 L -12.21 8.52 L -12.5 8.88 L -12.78 9.25 L -13.05 9.64 L -13.31 10.03 L -13.56 10.44 L -13.8 10.86 L -14.03 11.29 L -14.26 11.74 L -14.47 12.2 L -14.67 12.66 L -14.86 13.15 L -15.05 13.64 L -15.22 14.15 L -15.38 14.66 L -15.53 15.19 L -15.68 15.73 L -15.81 16.29 L -15.94 16.86 L -16.05 17.43 L -16.15 18.03 L -16.25 18.63 L -16.33 19.24 L -16.41 19.87 L -16.47 20.51 L -16.53 21.16 L -16.58 21.83 L -16.61 22.5 L -16.64 23.19 L -16.66 23.89 L -16.66 25.33 L -16.62 26.81 L -16.55 28.35 L -16.55 349.9 L 57.45 349.9 L 57.45 28.35 L 55.06 26.81 L 52.72 25.33 L 50.41 23.89 L 48.14 22.5 L 45.91 21.16 L 43.72 19.87 L 41.56 18.63 L 39.45 17.43 L 37.38 16.29 L 35.34 15.19 L 33.34 14.15 L 31.39 13.15 L 29.47 12.2 L 27.59 11.29 L 25.75 10.44 L 23.95 9.64 L 22.19 8.88 L 20.47 8.18 L 18.78 7.52 L 17.14 6.91 L 15.53 6.35 L 13.97 5.84 L 12.44 5.37 L 10.95 4.96 L 9.5 4.59 L 8.09 4.28 L 7.4 4.14 L 6.72 4.01 L 6.05 3.89 L 5.39 3.79 L 4.74 3.7 L 4.09 3.62 L 3.46 3.55 L 2.84 3.5 L 2.23 3.45 L 1.63 3.42 L 1.03 3.41 L 0.45 3.4 Z"/>
    </clipPath>
    <g clip-path="url(#clipPath0)">
      <use ffdec:characterId="513" height="332.65" transform="matrix(1.0, 0.0, 0.0, 1.0, 0.0, 0.0)" width="33.25" xlink:href="#shape3"/>
    </g>
    <clipPath id="clipPath1">
      <path d="M 0.05 4.65 L -0.52 4.66 L -1.09 4.67 L -1.64 4.7 L -2.18 4.74 L -2.72 4.79 L -3.24 4.86 L -3.75 4.93 L -4.26 5.02 L -4.75 5.12 L -5.23 5.23 L -5.71 5.35 L -6.17 5.48 L -6.62 5.63 L -7.07 5.78 L -7.5 5.95 L -7.93 6.13 L -8.34 6.32 L -8.74 6.52 L -9.14 6.74 L -9.52 6.96 L -9.89 7.2 L -10.26 7.45 L -10.61 7.71 L -10.96 7.98 L -11.29 8.27 L -11.61 8.56 L -11.93 8.87 L -12.23 9.19 L -12.53 9.52 L -12.81 9.86 L -13.09 10.21 L -13.35 10.57 L -13.6 10.95 L -13.85 11.34 L -14.08 11.74 L -14.31 12.15 L -14.52 12.57 L -14.73 13.01 L -14.92 13.45 L -15.11 13.91 L -15.28 14.38 L -15.45 14.86 L -15.6 15.35 L -15.75 15.85 L -15.88 16.37 L -16.01 16.89 L -16.12 17.43 L -16.23 17.98 L -16.32 18.54 L -16.41 19.12 L -16.48 19.7 L -16.55 20.3 L -16.6 20.9 L -16.65 21.52 L -16.68 22.15 L -16.71 22.8 L -16.72 23.45 L -16.73 24.11 L -16.71 25.48 L -16.65 26.89 L -16.55 28.35 L -16.55 349.9 L 57.45 349.9 L 57.45 28.35 L 55.04 26.89 L 52.67 25.48 L 50.34 24.11 L 48.04 22.8 L 45.79 21.52 L 43.58 20.3 L 41.41 19.12 L 39.28 17.98 L 37.18 16.89 L 35.13 15.85 L 33.12 14.86 L 31.14 13.91 L 29.21 13.01 L 27.32 12.15 L 25.46 11.34 L 23.65 10.57 L 21.88 9.86 L 20.14 9.19 L 18.45 8.56 L 16.79 7.98 L 15.18 7.45 L 13.6 6.96 L 12.07 6.52 L 10.57 6.13 L 9.12 5.78 L 7.7 5.48 L 6.33 5.23 L 4.99 5.02 L 4.34 4.93 L 3.7 4.86 L 3.07 4.79 L 2.44 4.74 L 1.83 4.7 L 1.23 4.67 L 0.63 4.66 L 0.05 4.65 Z"/>
    </clipPath>
    <g clip-path="url(#clipPath1)">
      <use ffdec:characterId="515" height="333.65" transform="matrix(1.0, 0.0, 0.0, 1.0, -0.75, -0.75)" width="34.75" xlink:href="#shape4"/>
    </g>
  </g>
  <defs>
    <g id="shape0" transform="matrix(1.0, 0.0, 0.0, 1.0, 5.65, 6.65)">
      <path d="M4.25 -3.85 Q5.5 -1.95 5.1 0.9 4.75 3.7 2.4 5.25 0.1 6.7 -1.65 5.8 -3.4 4.85 -4.35 2.75 -5.25 0.9 -5.15 -1.35 -5.05 -3.4 -3.35 -4.8 -1.35 -6.5 0.7 -6.05 2.55 -5.65 4.0 -4.45 L4.25 -3.85" fill="#ffffff" fill-rule="evenodd" stroke="none"/>
      <path d="M4.25 -3.85 Q5.5 -1.95 5.1 0.9 4.75 3.7 2.4 5.25 0.1 6.7 -1.65 5.8 -3.4 4.85 -4.35 2.75 -5.25 0.9 -5.15 -1.35 -5.05 -3.4 -3.35 -4.8 -1.35 -6.5 0.7 -6.05 2.55 -5.65 4.0 -4.45 L4.25 -3.85 Z" fill="none" stroke="#000000" stroke-linecap="round" stroke-linejoin="round" stroke-width="1.0"/>
    </g>
    <g id="shape1" transform="matrix(1.0, 0.0, 0.0, 1.0, 8.3, 8.4)">
      <path d="M7.65 0.45 Q7.0 4.45 4.4 6.2 1.8 7.95 -1.25 7.95 -3.9 7.95 -6.05 6.35 -7.95 4.9 -7.8 1.75 -7.6 -2.0 -5.25 -4.5 -3.1 -6.7 -0.5 -7.85 L0.35 -7.8 Q3.4 -8.25 5.9 -5.95 8.35 -3.7 7.65 0.45" fill="#ffffff" fill-rule="evenodd" stroke="none"/>
      <path d="M7.65 0.45 Q7.0 4.45 4.4 6.2 1.8 7.95 -1.25 7.95 -3.9 7.95 -6.05 6.35 -7.95 4.9 -7.8 1.75 -7.6 -2.0 -5.25 -4.5 -3.1 -6.7 -0.5 -7.85 L0.35 -7.8 Q3.4 -8.25 5.9 -5.95 8.35 -3.7 7.65 0.45 Z" ffdec:has-small-stroke="true" ffdec:original-stroke-width="1.0" fill="none" stroke="#000000" stroke-linecap="round" stroke-linejoin="round" stroke-width="1.0012272751874904"/>
    </g>
    <g id="shape2" transform="matrix(1.0, 0.0, 0.0, 1.0, 6.1, 6.7)">
      <path d="M0.55 -5.95 Q2.45 -6.1 3.95 -4.25 5.45 -2.35 5.6 0.6 5.75 3.5 3.7 4.9 1.7 6.25 -0.65 6.25 -2.7 6.25 -4.25 4.75 -5.8 3.25 -5.6 -0.25 -5.4 -3.8 -3.75 -5.1 -2.05 -6.35 -0.9 -6.2 L0.55 -5.95" fill="#ffffff" fill-rule="evenodd" stroke="none"/>
      <path d="M0.55 -5.95 Q2.45 -6.1 3.95 -4.25 5.45 -2.35 5.6 0.6 5.75 3.5 3.7 4.9 1.7 6.25 -0.65 6.25 -2.7 6.25 -4.25 4.75 -5.8 3.25 -5.6 -0.25 -5.4 -3.8 -3.75 -5.1 -2.05 -6.35 -0.9 -6.2 L0.55 -5.95 Z" ffdec:has-small-stroke="true" ffdec:original-stroke-width="1.0" fill="none" stroke="#000000" stroke-linecap="round" stroke-linejoin="round" stroke-width="1.0013580844817735"/>
    </g>
    <g id="shape3" transform="matrix(1.0, 0.0, 0.0, 1.0, 0.0, 0.0)">
      <path d="M4.3 1.7 Q26.3 18.75 21.45 40.75 16.15 68.8 16.6 80.95 17.05 93.1 18.15 99.55 19.2 106.0 18.65 112.15 L17.55 123.6 Q24.3 134.95 25.3 147.9 25.8 153.9 24.65 159.85 27.45 163.85 26.6 168.85 24.85 179.4 20.7 189.05 L19.5 191.5 21.55 219.6 28.25 226.7 Q29.3 240.6 33.25 253.5 31.9 257.65 32.55 261.8 27.75 286.85 33.1 320.6 L33.2 320.65 32.8 321.55 Q30.85 326.25 29.5 331.2 31.45 335.5 0.0 326.9 L0.0 0.0 4.3 1.7" fill="#000000" fill-rule="evenodd" stroke="none"/>
    </g>
    <g id="shape4" transform="matrix(1.0, 0.0, 0.0, 1.0, 0.75, 0.75)">
      <path d="M0.0 0.0 L4.3 1.7 Q26.3 18.75 21.45 40.75 16.15 68.8 16.6 80.95 17.05 93.1 18.15 99.55 19.2 106.0 18.65 112.15 L17.55 123.6 Q24.3 134.95 25.3 147.9 25.8 153.9 24.65 159.85 27.45 163.85 26.6 168.85 24.85 179.4 20.7 189.05 L19.5 191.5 21.55 219.6 28.25 226.7 Q29.3 240.6 33.25 253.5 31.9 257.65 32.55 261.8 27.75 286.85 33.1 320.6 L33.2 320.65 32.8 321.55 Q30.85 326.25 29.5 331.2 31.45 335.5 0.0 326.9 L0.0 0.0" fill="#ffffff" fill-rule="evenodd" stroke="none"/>
      <path d="M0.0 0.0 L4.3 1.7 Q26.3 18.75 21.45 40.75 16.15 68.8 16.6 80.95 17.05 93.1 18.15 99.55 19.2 106.0 18.65 112.15 L17.55 123.6 Q24.3 134.95 25.3 147.9 25.8 153.9 24.65 159.85 27.45 163.85 26.6 168.85 24.85 179.4 20.7 189.05 L19.5 191.5 21.55 219.6 28.25 226.7 Q29.3 240.6 33.25 253.5 31.9 257.65 32.55 261.8 27.75 286.85 33.1 320.6 L33.2 320.65 32.8 321.55 Q30.85 326.25 29.5 331.2" fill="none" stroke="#000000" stroke-linecap="round" stroke-linejoin="round" stroke-width="1.5"/>
      <path d="M12.2 23.7 Q11.05 23.25 9.6 23.15 L9.35 23.1 7.4 23.1 6.45 23.1 4.4 25.55 Q2.0 28.15 -0.75 30.35 L-0.75 21.0 1.2 20.6 8.25 20.3 Q14.8 20.15 16.3 24.65 17.0 26.65 17.0 28.3 17.05 33.05 11.6 34.6 L8.0 34.6 6.45 33.65 Q5.25 31.75 4.85 29.45 L4.65 28.25 5.15 27.4 Q6.35 25.6 8.25 25.05 L8.3 24.9 10.7 24.9 8.9 25.5 8.0 27.0 8.0 30.05 8.6 30.95 8.85 31.2 Q9.65 31.85 10.7 32.15 L11.3 32.15 12.9 31.65 14.35 30.65 14.65 30.35 14.95 26.4 14.05 24.9 Q13.3 24.15 12.2 23.7" fill="#def2fe" fill-rule="evenodd" stroke="none"/>
      <path d="M32.5 253.8 Q31.15 257.95 31.8 262.1 29.85 272.2 29.6 283.75 L28.8 282.15 Q27.65 274.95 29.65 269.15 30.9 265.5 30.6 260.65 L28.8 258.4 28.8 255.3 Q31.0 249.35 27.95 245.0 L26.6 242.75 Q22.85 239.55 18.1 237.25 16.9 236.65 16.75 235.6 19.8 232.1 23.5 229.85 24.65 229.2 25.25 227.95 L26.6 227.5 27.15 226.65 27.5 227.0 Q28.55 240.9 32.5 253.8 M28.75 331.5 Q29.3 332.7 27.15 332.9 25.75 330.0 25.7 326.05 L25.7 325.6 27.95 322.0 Q30.05 320.8 32.2 319.75 L32.35 320.9 32.45 320.95 32.05 321.85 Q30.1 326.55 28.75 331.5 M16.4 69.3 Q15.65 76.5 15.85 81.25 16.3 93.4 17.4 99.85 18.45 106.3 17.9 112.45 L16.85 123.45 Q14.65 121.3 12.2 119.65 L11.8 119.6 10.9 117.8 10.9 112.4 13.6 107.05 Q11.5 89.6 15.1 73.6 15.55 71.45 16.4 69.3 M23.95 163.05 L23.5 159.45 24.25 158.05 23.9 160.15 Q26.7 164.15 25.85 169.15 L24.2 176.95 Q22.75 182.45 20.7 187.65 L19.95 189.35 19.1 191.15 18.75 191.8 18.9 193.5 18.55 193.05 18.5 192.3 18.25 192.3 17.95 191.65 14.0 190.0 12.85 189.85 11.05 189.0 10.7 188.95 13.45 187.75 14.65 186.55 17.05 185.05 17.35 184.4 20.75 181.15 Q24.85 174.8 25.25 165.25 L23.95 163.05" fill="#caeafe" fill-rule="evenodd" stroke="none"/>
    </g>
  </defs>
</svg>
