<?xml version="1.0" encoding="UTF-8" standalone="no"?>
<svg xmlns:ffdec="https://www.free-decompiler.com/flash" xmlns:xlink="http://www.w3.org/1999/xlink" ffdec:objectType="frame" height="756.85px" width="83.35px" xmlns="http://www.w3.org/2000/svg">
  <g transform="matrix(1.0, 0.0, 0.0, 1.0, 25.9, 99.2)">
    <use ffdec:characterId="508" height="13.3" transform="matrix(1.6504, 0.0, 0.0, 1.6504, -1.5248, 108.7248)" width="11.35" xlink:href="#shape0"/>
    <use ffdec:characterId="511" height="16.85" transform="matrix(0.8415, -0.5374, 0.5374, 0.8415, -6.3493, 55.6919)" width="16.6" xlink:href="#shape1"/>
    <use ffdec:characterId="510" height="13.45" transform="matrix(0.9809, -0.1866, 0.1866, 0.9809, -7.2334, 179.416)" width="12.2" xlink:href="#shape2"/>
    <use ffdec:characterId="508" height="13.3" transform="matrix(-0.1584, -2.7507, 2.7507, -0.1584, -18.7967, 266.2948)" width="11.35" xlink:href="#shape0"/>
    <clipPath id="clipPath0">
      <path d="M 0.17 -2.62 L -0.4 -2.62 L -0.96 -2.6 L -1.51 -2.57 L -2.06 -2.53 L -2.59 -2.47 L -3.12 -2.4 L -3.63 -2.32 L -4.13 -2.23 L -4.63 -2.13 L -5.11 -2.01 L -5.59 -1.88 L -6.05 -1.74 L -6.5 -1.59 L -6.95 -1.42 L -7.38 -1.24 L -7.81 -1.05 L -8.22 -0.85 L -8.63 -0.63 L -9.02 -0.41 L -9.41 -0.17 L -9.78 0.09 L -10.15 0.35 L -10.5 0.63 L -10.85 0.92 L -11.18 1.22 L -11.51 1.53 L -11.83 1.86 L -12.13 2.19 L -12.43 2.54 L -12.71 2.91 L -12.99 3.28 L -13.26 3.67 L -13.51 4.07 L -13.76 4.48 L -14 4.9 L -14.22 5.34 L -14.44 5.79 L -14.65 6.25 L -14.84 6.72 L -15.03 7.21 L -15.21 7.71 L -15.37 8.22 L -15.53 8.74 L -15.68 9.27 L -15.82 9.82 L -15.94 10.38 L -16.06 10.95 L -16.17 11.54 L -16.27 12.13 L -16.36 12.74 L -16.43 13.36 L -16.5 13.99 L -16.56 14.64 L -16.61 15.3 L -16.65 15.97 L -16.68 16.65 L -16.7 17.34 L -16.7 18.05 L -16.69 19.5 L -16.64 21 L -16.55 22.55 L -16.55 349.9 L 57.45 349.9 L 57.45 22.55 L 55.05 21 L 52.68 19.5 L 50.36 18.05 L 48.07 16.65 L 45.83 15.3 L 43.62 13.99 L 41.46 12.74 L 39.33 11.54 L 37.24 10.38 L 35.2 9.27 L 33.19 8.22 L 31.22 7.21 L 29.29 6.25 L 27.4 5.34 L 25.55 4.48 L 23.74 3.67 L 21.97 2.91 L 20.24 2.19 L 18.55 1.53 L 16.9 0.92 L 15.29 0.35 L 13.72 -0.17 L 12.19 -0.63 L 10.69 -1.05 L 9.24 -1.42 L 7.83 -1.74 L 7.13 -1.88 L 6.45 -2.01 L 5.78 -2.13 L 5.12 -2.23 L 4.46 -2.32 L 3.82 -2.4 L 3.19 -2.47 L 2.57 -2.53 L 1.95 -2.57 L 1.35 -2.6 L 0.76 -2.62 L 0.17 -2.62 Z"/>
    </clipPath>
    <g clip-path="url(#clipPath0)">
      <use ffdec:characterId="513" height="332.65" transform="matrix(1.0, 0.0, 0.0, 1.0, 0.0, 0.0)" width="33.25" xlink:href="#shape3"/>
    </g>
    <clipPath id="clipPath1">
      <path d="M -0.25 -1.38 L -0.82 -1.37 L -1.39 -1.35 L -1.94 -1.32 L -2.48 -1.28 L -3.01 -1.23 L -3.54 -1.16 L -4.05 -1.09 L -4.55 -1 L -5.04 -0.9 L -5.53 -0.79 L -6 -0.67 L -6.46 -0.53 L -6.91 -0.39 L -7.35 -0.23 L -7.78 -0.06 L -8.21 0.12 L -8.62 0.31 L -9.02 0.52 L -9.41 0.73 L -9.79 0.96 L -10.16 1.2 L -10.52 1.45 L -10.87 1.71 L -11.21 1.99 L -11.54 2.28 L -11.86 2.57 L -12.18 2.88 L -12.48 3.2 L -12.77 3.54 L -13.05 3.88 L -13.32 4.24 L -13.57 4.61 L -13.82 4.99 L -14.06 5.38 L -14.29 5.78 L -14.51 6.2 L -14.72 6.62 L -14.92 7.06 L -15.11 7.51 L -15.29 7.97 L -15.46 8.44 L -15.62 8.93 L -15.77 9.43 L -15.9 9.93 L -16.03 10.45 L -16.15 10.98 L -16.26 11.53 L -16.36 12.08 L -16.44 12.65 L -16.52 13.23 L -16.59 13.82 L -16.65 14.42 L -16.69 15.03 L -16.73 15.66 L -16.76 16.29 L -16.78 16.94 L -16.78 17.6 L -16.78 18.27 L -16.74 19.65 L -16.67 21.08 L -16.55 22.55 L -16.55 349.9 L 57.45 349.9 L 57.45 22.55 L 55.02 21.08 L 52.63 19.65 L 50.28 18.27 L 47.97 16.94 L 45.71 15.66 L 43.48 14.42 L 41.29 13.23 L 39.14 12.08 L 37.04 10.98 L 34.97 9.93 L 32.95 8.93 L 30.96 7.97 L 29.02 7.06 L 27.11 6.2 L 25.25 5.38 L 23.42 4.61 L 21.64 3.88 L 19.9 3.2 L 18.2 2.57 L 16.54 1.99 L 14.91 1.45 L 13.33 0.96 L 11.79 0.52 L 10.29 0.12 L 8.83 -0.23 L 7.42 -0.53 L 6.04 -0.79 L 4.7 -1 L 4.04 -1.09 L 3.4 -1.16 L 2.77 -1.23 L 2.14 -1.28 L 1.53 -1.32 L 0.93 -1.35 L 0.33 -1.37 L -0.25 -1.38 Z"/>
    </clipPath>
    <g clip-path="url(#clipPath1)">
      <use ffdec:characterId="515" height="333.65" transform="matrix(1.0, 0.0, 0.0, 1.0, -0.75, -0.75)" width="34.75" xlink:href="#shape4"/>
    </g>
  </g>
  <defs>
    <g id="shape0" transform="matrix(1.0, 0.0, 0.0, 1.0, 5.65, 6.65)">
      <path d="M4.25 -3.85 Q5.5 -1.95 5.1 0.9 4.75 3.7 2.4 5.25 0.1 6.7 -1.65 5.8 -3.4 4.85 -4.35 2.75 -5.25 0.9 -5.15 -1.35 -5.05 -3.4 -3.35 -4.8 -1.35 -6.5 0.7 -6.05 2.55 -5.65 4.0 -4.45 L4.25 -3.85" fill="#ffffff" fill-rule="evenodd" stroke="none"/>
      <path d="M4.25 -3.85 Q5.5 -1.95 5.1 0.9 4.75 3.7 2.4 5.25 0.1 6.7 -1.65 5.8 -3.4 4.85 -4.35 2.75 -5.25 0.9 -5.15 -1.35 -5.05 -3.4 -3.35 -4.8 -1.35 -6.5 0.7 -6.05 2.55 -5.65 4.0 -4.45 L4.25 -3.85 Z" fill="none" stroke="#000000" stroke-linecap="round" stroke-linejoin="round" stroke-width="1.0"/>
    </g>
    <g id="shape1" transform="matrix(1.0, 0.0, 0.0, 1.0, 8.3, 8.4)">
      <path d="M7.65 0.45 Q7.0 4.45 4.4 6.2 1.8 7.95 -1.25 7.95 -3.9 7.95 -6.05 6.35 -7.95 4.9 -7.8 1.75 -7.6 -2.0 -5.25 -4.5 -3.1 -6.7 -0.5 -7.85 L0.35 -7.8 Q3.4 -8.25 5.9 -5.95 8.35 -3.7 7.65 0.45" fill="#ffffff" fill-rule="evenodd" stroke="none"/>
      <path d="M7.65 0.45 Q7.0 4.45 4.4 6.2 1.8 7.95 -1.25 7.95 -3.9 7.95 -6.05 6.35 -7.95 4.9 -7.8 1.75 -7.6 -2.0 -5.25 -4.5 -3.1 -6.7 -0.5 -7.85 L0.35 -7.8 Q3.4 -8.25 5.9 -5.95 8.35 -3.7 7.65 0.45 Z" ffdec:has-small-stroke="true" ffdec:original-stroke-width="1.0" fill="none" stroke="#000000" stroke-linecap="round" stroke-linejoin="round" stroke-width="1.0014870482445861"/>
    </g>
    <g id="shape2" transform="matrix(1.0, 0.0, 0.0, 1.0, 6.1, 6.7)">
      <path d="M0.55 -5.95 Q2.45 -6.1 3.95 -4.25 5.45 -2.35 5.6 0.6 5.75 3.5 3.7 4.9 1.7 6.25 -0.65 6.25 -2.7 6.25 -4.25 4.75 -5.8 3.25 -5.6 -0.25 -5.4 -3.8 -3.75 -5.1 -2.05 -6.35 -0.9 -6.2 L0.55 -5.95" fill="#ffffff" fill-rule="evenodd" stroke="none"/>
      <path d="M0.55 -5.95 Q2.45 -6.1 3.95 -4.25 5.45 -2.35 5.6 0.6 5.75 3.5 3.7 4.9 1.7 6.25 -0.65 6.25 -2.7 6.25 -4.25 4.75 -5.8 3.25 -5.6 -0.25 -5.4 -3.8 -3.75 -5.1 -2.05 -6.35 -0.9 -6.2 L0.55 -5.95 Z" ffdec:has-small-stroke="true" ffdec:original-stroke-width="1.0" fill="none" stroke="#000000" stroke-linecap="round" stroke-linejoin="round" stroke-width="1.0015238092749394"/>
    </g>
    <g id="shape3" transform="matrix(1.0, 0.0, 0.0, 1.0, 0.0, 0.0)">
      <path d="M4.3 1.7 Q26.3 18.75 21.45 40.75 16.15 68.8 16.6 80.95 17.05 93.1 18.15 99.55 19.2 106.0 18.65 112.15 L17.55 123.6 Q24.3 134.95 25.3 147.9 25.8 153.9 24.65 159.85 27.45 163.85 26.6 168.85 24.85 179.4 20.7 189.05 L19.5 191.5 21.55 219.6 28.25 226.7 Q29.3 240.6 33.25 253.5 31.9 257.65 32.55 261.8 27.75 286.85 33.1 320.6 L33.2 320.65 32.8 321.55 Q30.85 326.25 29.5 331.2 31.45 335.5 0.0 326.9 L0.0 0.0 4.3 1.7" fill="#000000" fill-rule="evenodd" stroke="none"/>
    </g>
    <g id="shape4" transform="matrix(1.0, 0.0, 0.0, 1.0, 0.75, 0.75)">
      <path d="M0.0 0.0 L4.3 1.7 Q26.3 18.75 21.45 40.75 16.15 68.8 16.6 80.95 17.05 93.1 18.15 99.55 19.2 106.0 18.65 112.15 L17.55 123.6 Q24.3 134.95 25.3 147.9 25.8 153.9 24.65 159.85 27.45 163.85 26.6 168.85 24.85 179.4 20.7 189.05 L19.5 191.5 21.55 219.6 28.25 226.7 Q29.3 240.6 33.25 253.5 31.9 257.65 32.55 261.8 27.75 286.85 33.1 320.6 L33.2 320.65 32.8 321.55 Q30.85 326.25 29.5 331.2 31.45 335.5 0.0 326.9 L0.0 0.0" fill="#ffffff" fill-rule="evenodd" stroke="none"/>
      <path d="M0.0 0.0 L4.3 1.7 Q26.3 18.75 21.45 40.75 16.15 68.8 16.6 80.95 17.05 93.1 18.15 99.55 19.2 106.0 18.65 112.15 L17.55 123.6 Q24.3 134.95 25.3 147.9 25.8 153.9 24.65 159.85 27.45 163.85 26.6 168.85 24.85 179.4 20.7 189.05 L19.5 191.5 21.55 219.6 28.25 226.7 Q29.3 240.6 33.25 253.5 31.9 257.65 32.55 261.8 27.75 286.85 33.1 320.6 L33.2 320.65 32.8 321.55 Q30.85 326.25 29.5 331.2" fill="none" stroke="#000000" stroke-linecap="round" stroke-linejoin="round" stroke-width="1.5"/>
      <path d="M12.2 23.7 Q11.05 23.25 9.6 23.15 L9.35 23.1 7.4 23.1 6.45 23.1 4.4 25.55 Q2.0 28.15 -0.75 30.35 L-0.75 21.0 1.2 20.6 8.25 20.3 Q14.8 20.15 16.3 24.65 17.0 26.65 17.0 28.3 17.05 33.05 11.6 34.6 L8.0 34.6 6.45 33.65 Q5.25 31.75 4.85 29.45 L4.65 28.25 5.15 27.4 Q6.35 25.6 8.25 25.05 L8.3 24.9 10.7 24.9 8.9 25.5 8.0 27.0 8.0 30.05 8.6 30.95 8.85 31.2 Q9.65 31.85 10.7 32.15 L11.3 32.15 12.9 31.65 14.35 30.65 14.65 30.35 14.95 26.4 14.05 24.9 Q13.3 24.15 12.2 23.7" fill="#def2fe" fill-rule="evenodd" stroke="none"/>
      <path d="M32.5 253.8 Q31.15 257.95 31.8 262.1 29.85 272.2 29.6 283.75 L28.8 282.15 Q27.65 274.95 29.65 269.15 30.9 265.5 30.6 260.65 L28.8 258.4 28.8 255.3 Q31.0 249.35 27.95 245.0 L26.6 242.75 Q22.85 239.55 18.1 237.25 16.9 236.65 16.75 235.6 19.8 232.1 23.5 229.85 24.65 229.2 25.25 227.95 L26.6 227.5 27.15 226.65 27.5 227.0 Q28.55 240.9 32.5 253.8 M28.75 331.5 Q29.3 332.7 27.15 332.9 25.75 330.0 25.7 326.05 L25.7 325.6 27.95 322.0 Q30.05 320.8 32.2 319.75 L32.35 320.9 32.45 320.95 32.05 321.85 Q30.1 326.55 28.75 331.5 M16.4 69.3 Q15.65 76.5 15.85 81.25 16.3 93.4 17.4 99.85 18.45 106.3 17.9 112.45 L16.85 123.45 Q14.65 121.3 12.2 119.65 L11.8 119.6 10.9 117.8 10.9 112.4 13.6 107.05 Q11.5 89.6 15.1 73.6 15.55 71.45 16.4 69.3 M23.95 163.05 L23.5 159.45 24.25 158.05 23.9 160.15 Q26.7 164.15 25.85 169.15 L24.2 176.95 Q22.75 182.45 20.7 187.65 L19.95 189.35 19.1 191.15 18.75 191.8 18.9 193.5 18.55 193.05 18.5 192.3 18.25 192.3 17.95 191.65 14.0 190.0 12.85 189.85 11.05 189.0 10.7 188.95 13.45 187.75 14.65 186.55 17.05 185.05 17.35 184.4 20.75 181.15 Q24.85 174.8 25.25 165.25 L23.95 163.05" fill="#caeafe" fill-rule="evenodd" stroke="none"/>
    </g>
  </defs>
</svg>
