<?xml version="1.0" encoding="UTF-8" standalone="no"?>
<svg xmlns:ffdec="https://www.free-decompiler.com/flash" xmlns:xlink="http://www.w3.org/1999/xlink" ffdec:objectType="frame" height="756.85px" width="83.35px" xmlns="http://www.w3.org/2000/svg">
  <g transform="matrix(1.0, 0.0, 0.0, 1.0, 25.9, 99.2)">
    <use ffdec:characterId="508" height="13.3" transform="matrix(1.6504, 0.0, 0.0, 1.6504, -1.5248, 160.7248)" width="11.35" xlink:href="#shape0"/>
    <use ffdec:characterId="511" height="16.85" transform="matrix(0.6567, -0.752, 0.752, 0.6567, -6.6172, 133.5755)" width="16.6" xlink:href="#shape1"/>
    <use ffdec:characterId="510" height="13.45" transform="matrix(0.9723, -0.2255, 0.2255, 0.9723, -7.4422, 236.861)" width="12.2" xlink:href="#shape2"/>
    <use ffdec:characterId="508" height="13.3" transform="matrix(-0.9041, -2.6225, 2.6225, -0.9041, -14.2815, 322.5291)" width="11.35" xlink:href="#shape0"/>
    <clipPath id="clipPath0">
      <path d="M -0.3 -12.68 L -0.87 -12.67 L -1.44 -12.65 L -1.99 -12.62 L -2.53 -12.58 L -3.06 -12.52 L -3.59 -12.45 L -4.1 -12.37 L -4.6 -12.28 L -5.09 -12.17 L -5.57 -12.05 L -6.05 -11.92 L -6.51 -11.78 L -6.96 -11.62 L -7.4 -11.45 L -7.83 -11.27 L -8.25 -11.08 L -8.66 -10.87 L -9.06 -10.66 L -9.46 -10.43 L -9.84 -10.18 L -10.21 -9.93 L -10.57 -9.66 L -10.92 -9.38 L -11.26 -9.09 L -11.59 -8.78 L -11.91 -8.46 L -12.22 -8.13 L -12.52 -7.79 L -12.81 -7.43 L -13.08 -7.07 L -13.35 -6.69 L -13.61 -6.29 L -13.86 -5.89 L -14.1 -5.47 L -14.33 -5.04 L -14.55 -4.6 L -14.76 -4.14 L -14.95 -3.68 L -15.14 -3.2 L -15.32 -2.7 L -15.49 -2.2 L -15.64 -1.68 L -15.79 -1.15 L -15.93 -0.61 L -16.06 -0.06 L -16.17 0.51 L -16.28 1.09 L -16.38 1.68 L -16.46 2.29 L -16.54 2.9 L -16.61 3.53 L -16.66 4.18 L -16.71 4.83 L -16.75 5.5 L -16.77 6.18 L -16.79 6.87 L -16.79 7.57 L -16.79 8.29 L -16.75 9.76 L -16.67 11.28 L -16.55 12.85 L -16.55 349.9 L 57.45 349.9 L 57.45 12.85 L 55.02 11.28 L 52.62 9.76 L 50.27 8.29 L 47.96 6.87 L 45.69 5.5 L 43.46 4.18 L 41.27 2.9 L 39.12 1.68 L 37.01 0.51 L 34.95 -0.61 L 32.92 -1.68 L 30.93 -2.7 L 28.98 -3.68 L 27.08 -4.6 L 25.21 -5.47 L 23.39 -6.29 L 21.6 -7.07 L 19.86 -7.79 L 18.16 -8.46 L 16.49 -9.09 L 14.87 -9.66 L 13.29 -10.18 L 11.75 -10.66 L 10.25 -11.08 L 8.79 -11.45 L 7.37 -11.78 L 6.67 -11.92 L 5.99 -12.05 L 5.31 -12.17 L 4.65 -12.28 L 4 -12.37 L 3.35 -12.45 L 2.72 -12.52 L 2.09 -12.58 L 1.48 -12.62 L 0.88 -12.65 L 0.28 -12.67 L -0.3 -12.68 Z"/>
    </clipPath>
    <g clip-path="url(#clipPath0)">
      <use ffdec:characterId="513" height="332.65" transform="matrix(1.0, 0.0, 0.0, 1.0, 0.0, 0.0)" width="33.25" xlink:href="#shape3"/>
    </g>
    <clipPath id="clipPath1">
      <path d="M -0.75 -11.45 L -1.32 -11.44 L -1.89 -11.43 L -2.44 -11.4 L -2.98 -11.36 L -3.51 -11.3 L -4.03 -11.24 L -4.54 -11.16 L -5.04 -11.07 L -5.53 -10.97 L -6.01 -10.86 L -6.48 -10.73 L -6.94 -10.6 L -7.39 -10.45 L -7.83 -10.29 L -8.26 -10.12 L -8.68 -9.93 L -9.08 -9.74 L -9.48 -9.53 L -9.87 -9.31 L -10.24 -9.08 L -10.61 -8.83 L -10.96 -8.58 L -11.31 -8.31 L -11.64 -8.03 L -11.97 -7.74 L -12.28 -7.44 L -12.59 -7.13 L -12.88 -6.8 L -13.16 -6.46 L -13.44 -6.11 L -13.7 -5.75 L -13.95 -5.38 L -14.19 -4.99 L -14.42 -4.59 L -14.64 -4.18 L -14.85 -3.76 L -15.05 -3.33 L -15.24 -2.88 L -15.42 -2.43 L -15.59 -1.96 L -15.75 -1.48 L -15.9 -0.98 L -16.04 -0.48 L -16.17 0.04 L -16.28 0.56 L -16.39 1.1 L -16.49 1.66 L -16.58 2.22 L -16.65 2.79 L -16.72 3.38 L -16.77 3.98 L -16.82 4.59 L -16.85 5.21 L -16.88 5.85 L -16.89 6.5 L -16.89 7.15 L -16.89 7.83 L -16.87 8.51 L -16.8 9.91 L -16.7 11.35 L -16.55 12.85 L -16.55 349.9 L 57.45 349.9 L 57.45 12.85 L 54.99 11.35 L 52.57 9.91 L 50.19 8.51 L 47.86 7.15 L 45.56 5.85 L 43.31 4.59 L 41.1 3.38 L 38.92 2.22 L 36.8 1.1 L 34.71 0.04 L 32.66 -0.98 L 30.66 -1.96 L 28.69 -2.88 L 26.77 -3.76 L 24.89 -4.59 L 23.05 -5.38 L 21.25 -6.11 L 19.5 -6.8 L 17.78 -7.44 L 16.11 -8.03 L 14.47 -8.58 L 12.88 -9.08 L 11.33 -9.53 L 9.82 -9.93 L 8.36 -10.29 L 6.93 -10.6 L 5.55 -10.86 L 4.87 -10.97 L 4.21 -11.07 L 3.55 -11.16 L 2.91 -11.24 L 2.27 -11.3 L 1.65 -11.36 L 1.03 -11.4 L 0.43 -11.43 L -0.17 -11.44 L -0.75 -11.45 Z"/>
    </clipPath>
    <g clip-path="url(#clipPath1)">
      <use ffdec:characterId="515" height="333.65" transform="matrix(1.0, 0.0, 0.0, 1.0, -0.75, -0.75)" width="34.75" xlink:href="#shape4"/>
    </g>
  </g>
  <defs>
    <g id="shape0" transform="matrix(1.0, 0.0, 0.0, 1.0, 5.65, 6.65)">
      <path d="M4.25 -3.85 Q5.5 -1.95 5.1 0.9 4.75 3.7 2.4 5.25 0.1 6.7 -1.65 5.8 -3.4 4.85 -4.35 2.75 -5.25 0.9 -5.15 -1.35 -5.05 -3.4 -3.35 -4.8 -1.35 -6.5 0.7 -6.05 2.55 -5.65 4.0 -4.45 L4.25 -3.85" fill="#ffffff" fill-rule="evenodd" stroke="none"/>
      <path d="M4.25 -3.85 Q5.5 -1.95 5.1 0.9 4.75 3.7 2.4 5.25 0.1 6.7 -1.65 5.8 -3.4 4.85 -4.35 2.75 -5.25 0.9 -5.15 -1.35 -5.05 -3.4 -3.35 -4.8 -1.35 -6.5 0.7 -6.05 2.55 -5.65 4.0 -4.45 L4.25 -3.85 Z" fill="none" stroke="#000000" stroke-linecap="round" stroke-linejoin="round" stroke-width="1.0"/>
    </g>
    <g id="shape1" transform="matrix(1.0, 0.0, 0.0, 1.0, 8.3, 8.4)">
      <path d="M7.65 0.45 Q7.0 4.45 4.4 6.2 1.8 7.95 -1.25 7.95 -3.9 7.95 -6.05 6.35 -7.95 4.9 -7.8 1.75 -7.6 -2.0 -5.25 -4.5 -3.1 -6.7 -0.5 -7.85 L0.35 -7.8 Q3.4 -8.25 5.9 -5.95 8.35 -3.7 7.65 0.45" fill="#ffffff" fill-rule="evenodd" stroke="none"/>
      <path d="M7.65 0.45 Q7.0 4.45 4.4 6.2 1.8 7.95 -1.25 7.95 -3.9 7.95 -6.05 6.35 -7.95 4.9 -7.8 1.75 -7.6 -2.0 -5.25 -4.5 -3.1 -6.7 -0.5 -7.85 L0.35 -7.8 Q3.4 -8.25 5.9 -5.95 8.35 -3.7 7.65 0.45 Z" ffdec:has-small-stroke="true" ffdec:original-stroke-width="1.0" fill="none" stroke="#000000" stroke-linecap="round" stroke-linejoin="round" stroke-width="1.0016403507188731"/>
    </g>
    <g id="shape2" transform="matrix(1.0, 0.0, 0.0, 1.0, 6.1, 6.7)">
      <path d="M0.55 -5.95 Q2.45 -6.1 3.95 -4.25 5.45 -2.35 5.6 0.6 5.75 3.5 3.7 4.9 1.7 6.25 -0.65 6.25 -2.7 6.25 -4.25 4.75 -5.8 3.25 -5.6 -0.25 -5.4 -3.8 -3.75 -5.1 -2.05 -6.35 -0.9 -6.2 L0.55 -5.95" fill="#ffffff" fill-rule="evenodd" stroke="none"/>
      <path d="M0.55 -5.95 Q2.45 -6.1 3.95 -4.25 5.45 -2.35 5.6 0.6 5.75 3.5 3.7 4.9 1.7 6.25 -0.65 6.25 -2.7 6.25 -4.25 4.75 -5.8 3.25 -5.6 -0.25 -5.4 -3.8 -3.75 -5.1 -2.05 -6.35 -0.9 -6.2 L0.55 -5.95 Z" ffdec:has-small-stroke="true" ffdec:original-stroke-width="1.0" fill="none" stroke="#000000" stroke-linecap="round" stroke-linejoin="round" stroke-width="1.0018594045989155"/>
    </g>
    <g id="shape3" transform="matrix(1.0, 0.0, 0.0, 1.0, 0.0, 0.0)">
      <path d="M4.3 1.7 Q26.3 18.75 21.45 40.75 16.15 68.8 16.6 80.95 17.05 93.1 18.15 99.55 19.2 106.0 18.65 112.15 L17.55 123.6 Q24.3 134.95 25.3 147.9 25.8 153.9 24.65 159.85 27.45 163.85 26.6 168.85 24.85 179.4 20.7 189.05 L19.5 191.5 21.55 219.6 28.25 226.7 Q29.3 240.6 33.25 253.5 31.9 257.65 32.55 261.8 27.75 286.85 33.1 320.6 L33.2 320.65 32.8 321.55 Q30.85 326.25 29.5 331.2 31.45 335.5 0.0 326.9 L0.0 0.0 4.3 1.7" fill="#000000" fill-rule="evenodd" stroke="none"/>
    </g>
    <g id="shape4" transform="matrix(1.0, 0.0, 0.0, 1.0, 0.75, 0.75)">
      <path d="M0.0 0.0 L4.3 1.7 Q26.3 18.75 21.45 40.75 16.15 68.8 16.6 80.95 17.05 93.1 18.15 99.55 19.2 106.0 18.65 112.15 L17.55 123.6 Q24.3 134.95 25.3 147.9 25.8 153.9 24.65 159.85 27.45 163.85 26.6 168.85 24.85 179.4 20.7 189.05 L19.5 191.5 21.55 219.6 28.25 226.7 Q29.3 240.6 33.25 253.5 31.9 257.65 32.55 261.8 27.75 286.85 33.1 320.6 L33.2 320.65 32.8 321.55 Q30.85 326.25 29.5 331.2 31.45 335.5 0.0 326.9 L0.0 0.0" fill="#ffffff" fill-rule="evenodd" stroke="none"/>
      <path d="M0.0 0.0 L4.3 1.7 Q26.3 18.75 21.45 40.75 16.15 68.8 16.6 80.95 17.05 93.1 18.15 99.55 19.2 106.0 18.65 112.15 L17.55 123.6 Q24.3 134.95 25.3 147.9 25.8 153.9 24.65 159.85 27.45 163.85 26.6 168.85 24.85 179.4 20.7 189.05 L19.5 191.5 21.55 219.6 28.25 226.7 Q29.3 240.6 33.25 253.5 31.9 257.65 32.55 261.8 27.75 286.85 33.1 320.6 L33.2 320.65 32.8 321.55 Q30.85 326.25 29.5 331.2" fill="none" stroke="#000000" stroke-linecap="round" stroke-linejoin="round" stroke-width="1.5"/>
      <path d="M12.2 23.7 Q11.05 23.25 9.6 23.15 L9.35 23.1 7.4 23.1 6.45 23.1 4.4 25.55 Q2.0 28.15 -0.75 30.35 L-0.75 21.0 1.2 20.6 8.25 20.3 Q14.8 20.15 16.3 24.65 17.0 26.65 17.0 28.3 17.05 33.05 11.6 34.6 L8.0 34.6 6.45 33.65 Q5.25 31.75 4.85 29.45 L4.65 28.25 5.15 27.4 Q6.35 25.6 8.25 25.05 L8.3 24.9 10.7 24.9 8.9 25.5 8.0 27.0 8.0 30.05 8.6 30.95 8.85 31.2 Q9.65 31.85 10.7 32.15 L11.3 32.15 12.9 31.65 14.35 30.65 14.65 30.35 14.95 26.4 14.05 24.9 Q13.3 24.15 12.2 23.7" fill="#def2fe" fill-rule="evenodd" stroke="none"/>
      <path d="M32.5 253.8 Q31.15 257.95 31.8 262.1 29.85 272.2 29.6 283.75 L28.8 282.15 Q27.65 274.95 29.65 269.15 30.9 265.5 30.6 260.65 L28.8 258.4 28.8 255.3 Q31.0 249.35 27.95 245.0 L26.6 242.75 Q22.85 239.55 18.1 237.25 16.9 236.65 16.75 235.6 19.8 232.1 23.5 229.85 24.65 229.2 25.25 227.95 L26.6 227.5 27.15 226.65 27.5 227.0 Q28.55 240.9 32.5 253.8 M28.75 331.5 Q29.3 332.7 27.15 332.9 25.75 330.0 25.7 326.05 L25.7 325.6 27.95 322.0 Q30.05 320.8 32.2 319.75 L32.35 320.9 32.45 320.95 32.05 321.85 Q30.1 326.55 28.75 331.5 M16.4 69.3 Q15.65 76.5 15.85 81.25 16.3 93.4 17.4 99.85 18.45 106.3 17.9 112.45 L16.85 123.45 Q14.65 121.3 12.2 119.65 L11.8 119.6 10.9 117.8 10.9 112.4 13.6 107.05 Q11.5 89.6 15.1 73.6 15.55 71.45 16.4 69.3 M23.95 163.05 L23.5 159.45 24.25 158.05 23.9 160.15 Q26.7 164.15 25.85 169.15 L24.2 176.95 Q22.75 182.45 20.7 187.65 L19.95 189.35 19.1 191.15 18.75 191.8 18.9 193.5 18.55 193.05 18.5 192.3 18.25 192.3 17.95 191.65 14.0 190.0 12.85 189.85 11.05 189.0 10.7 188.95 13.45 187.75 14.65 186.55 17.05 185.05 17.35 184.4 20.75 181.15 Q24.85 174.8 25.25 165.25 L23.95 163.05" fill="#caeafe" fill-rule="evenodd" stroke="none"/>
    </g>
  </defs>
</svg>
