<?xml version="1.0" encoding="UTF-8" standalone="no"?>
<svg xmlns:ffdec="https://www.free-decompiler.com/flash" xmlns:xlink="http://www.w3.org/1999/xlink" ffdec:objectType="frame" height="756.85px" width="83.35px" xmlns="http://www.w3.org/2000/svg">
  <g transform="matrix(1.0, 0.0, 0.0, 1.0, 25.9, 99.2)">
    <use ffdec:characterId="508" height="13.3" transform="matrix(1.6504, 0.0, 0.0, 1.6504, -1.5248, 186.7248)" width="11.35" xlink:href="#shape0"/>
    <use ffdec:characterId="511" height="16.85" transform="matrix(0.5448, -0.8367, 0.8367, 0.5448, -6.4006, 172.4683)" width="16.6" xlink:href="#shape1"/>
    <use ffdec:characterId="510" height="13.45" transform="matrix(0.9671, -0.2465, 0.2465, 0.9671, -7.5504, 265.574)" width="12.2" xlink:href="#shape2"/>
    <use ffdec:characterId="508" height="13.3" transform="matrix(-1.2563, -2.4881, 2.4881, -1.2563, -11.6473, 350.1121)" width="11.35" xlink:href="#shape0"/>
    <clipPath id="clipPath0">
      <path d="M -0.5 -16.77 L -1.07 -16.77 L -1.64 -16.75 L -2.19 -16.72 L -2.73 -16.67 L -3.26 -16.62 L -3.78 -16.55 L -4.3 -16.47 L -4.8 -16.37 L -5.29 -16.27 L -5.77 -16.15 L -6.24 -16.02 L -6.7 -15.87 L -7.15 -15.72 L -7.59 -15.55 L -8.02 -15.36 L -8.44 -15.17 L -8.85 -14.96 L -9.25 -14.74 L -9.64 -14.51 L -10.02 -14.27 L -10.39 -14.01 L -10.74 -13.74 L -11.09 -13.46 L -11.43 -13.16 L -11.76 -12.86 L -12.07 -12.54 L -12.38 -12.21 L -12.68 -11.86 L -12.96 -11.5 L -13.24 -11.13 L -13.51 -10.75 L -13.76 -10.36 L -14.01 -9.95 L -14.24 -9.53 L -14.47 -9.1 L -14.68 -8.65 L -14.89 -8.19 L -15.08 -7.72 L -15.27 -7.24 L -15.44 -6.75 L -15.61 -6.24 L -15.76 -5.72 L -15.9 -5.18 L -16.04 -4.64 L -16.16 -4.08 L -16.27 -3.51 L -16.37 -2.93 L -16.47 -2.33 L -16.55 -1.72 L -16.62 -1.1 L -16.68 -0.47 L -16.73 0.17 L -16.77 0.83 L -16.8 1.5 L -16.82 2.19 L -16.84 2.88 L -16.84 3.59 L -16.83 4.31 L -16.77 5.79 L -16.68 7.32 L -16.55 8.9 L -16.55 349.9 L 57.45 349.9 L 57.45 8.9 L 55 7.32 L 52.6 5.79 L 50.24 4.31 L 47.91 2.88 L 45.63 1.5 L 43.39 0.17 L 41.19 -1.1 L 39.03 -2.33 L 36.92 -3.51 L 34.84 -4.64 L 32.8 -5.72 L 30.81 -6.75 L 28.85 -7.72 L 26.94 -8.65 L 25.07 -9.53 L 23.24 -10.36 L 21.45 -11.13 L 19.7 -11.86 L 17.99 -12.54 L 16.32 -13.16 L 14.69 -13.74 L 13.11 -14.27 L 11.56 -14.74 L 10.06 -15.17 L 8.6 -15.55 L 7.17 -15.87 L 6.48 -16.02 L 5.79 -16.15 L 5.12 -16.27 L 4.45 -16.37 L 3.8 -16.47 L 3.15 -16.55 L 2.52 -16.62 L 1.89 -16.67 L 1.28 -16.72 L 0.68 -16.75 L 0.08 -16.77 L -0.5 -16.77 Z"/>
    </clipPath>
    <g clip-path="url(#clipPath0)">
      <use ffdec:characterId="513" height="332.65" transform="matrix(1.0, 0.0, 0.0, 1.0, 0.0, 0.0)" width="33.25" xlink:href="#shape3"/>
    </g>
    <clipPath id="clipPath1">
      <path d="M -0.95 -15.55 L -1.52 -15.54 L -2.09 -15.53 L -2.64 -15.5 L -3.18 -15.45 L -3.71 -15.4 L -4.23 -15.34 L -4.74 -15.26 L -5.24 -15.17 L -5.73 -15.07 L -6.21 -14.95 L -6.68 -14.83 L -7.14 -14.69 L -7.58 -14.54 L -8.02 -14.38 L -8.45 -14.21 L -8.86 -14.02 L -9.27 -13.82 L -9.66 -13.62 L -10.05 -13.4 L -10.42 -13.16 L -10.79 -12.92 L -11.14 -12.66 L -11.48 -12.39 L -11.82 -12.11 L -12.14 -11.82 L -12.45 -11.51 L -12.75 -11.2 L -13.04 -10.87 L -13.32 -10.53 L -13.59 -10.18 L -13.85 -9.81 L -14.1 -9.44 L -14.34 -9.05 L -14.57 -8.65 L -14.78 -8.24 L -14.99 -7.81 L -15.19 -7.38 L -15.37 -6.93 L -15.55 -6.47 L -15.72 -6 L -15.87 -5.52 L -16.02 -5.02 L -16.15 -4.51 L -16.27 -3.99 L -16.39 -3.46 L -16.49 -2.92 L -16.58 -2.36 L -16.66 -1.8 L -16.73 -1.22 L -16.79 -0.63 L -16.85 -0.02 L -16.89 0.59 L -16.91 1.22 L -16.93 1.86 L -16.94 2.51 L -16.94 3.17 L -16.93 3.84 L -16.91 4.53 L -16.83 5.94 L -16.71 7.4 L -16.55 8.9 L -16.55 349.9 L 57.45 349.9 L 57.45 8.9 L 54.98 7.4 L 52.55 5.94 L 50.16 4.53 L 47.81 3.17 L 45.5 1.86 L 43.24 0.59 L 41.02 -0.63 L 38.84 -1.8 L 36.7 -2.92 L 34.6 -3.99 L 32.55 -5.02 L 30.53 -6 L 28.56 -6.93 L 26.63 -7.81 L 24.75 -8.65 L 22.9 -9.44 L 21.1 -10.18 L 19.33 -10.87 L 17.61 -11.51 L 15.93 -12.11 L 14.3 -12.66 L 12.7 -13.16 L 11.15 -13.62 L 9.64 -14.02 L 8.17 -14.38 L 6.74 -14.69 L 5.35 -14.95 L 4.68 -15.07 L 4.01 -15.17 L 3.35 -15.26 L 2.71 -15.34 L 2.07 -15.4 L 1.45 -15.45 L 0.83 -15.5 L 0.23 -15.53 L -0.37 -15.54 L -0.95 -15.55 Z"/>
    </clipPath>
    <g clip-path="url(#clipPath1)">
      <use ffdec:characterId="515" height="333.65" transform="matrix(1.0, 0.0, 0.0, 1.0, -0.75, -0.75)" width="34.75" xlink:href="#shape4"/>
    </g>
  </g>
  <defs>
    <g id="shape0" transform="matrix(1.0, 0.0, 0.0, 1.0, 5.65, 6.65)">
      <path d="M4.25 -3.85 Q5.5 -1.95 5.1 0.9 4.75 3.7 2.4 5.25 0.1 6.7 -1.65 5.8 -3.4 4.85 -4.35 2.75 -5.25 0.9 -5.15 -1.35 -5.05 -3.4 -3.35 -4.8 -1.35 -6.5 0.7 -6.05 2.55 -5.65 4.0 -4.45 L4.25 -3.85" fill="#ffffff" fill-rule="evenodd" stroke="none"/>
      <path d="M4.25 -3.85 Q5.5 -1.95 5.1 0.9 4.75 3.7 2.4 5.25 0.1 6.7 -1.65 5.8 -3.4 4.85 -4.35 2.75 -5.25 0.9 -5.15 -1.35 -5.05 -3.4 -3.35 -4.8 -1.35 -6.5 0.7 -6.05 2.55 -5.65 4.0 -4.45 L4.25 -3.85 Z" fill="none" stroke="#000000" stroke-linecap="round" stroke-linejoin="round" stroke-width="1.0"/>
    </g>
    <g id="shape1" transform="matrix(1.0, 0.0, 0.0, 1.0, 8.3, 8.4)">
      <path d="M7.65 0.45 Q7.0 4.45 4.4 6.2 1.8 7.95 -1.25 7.95 -3.9 7.95 -6.05 6.35 -7.95 4.9 -7.8 1.75 -7.6 -2.0 -5.25 -4.5 -3.1 -6.7 -0.5 -7.85 L0.35 -7.8 Q3.4 -8.25 5.9 -5.95 8.35 -3.7 7.65 0.45" fill="#ffffff" fill-rule="evenodd" stroke="none"/>
      <path d="M7.65 0.45 Q7.0 4.45 4.4 6.2 1.8 7.95 -1.25 7.95 -3.9 7.95 -6.05 6.35 -7.95 4.9 -7.8 1.75 -7.6 -2.0 -5.25 -4.5 -3.1 -6.7 -0.5 -7.85 L0.35 -7.8 Q3.4 -8.25 5.9 -5.95 8.35 -3.7 7.65 0.45 Z" ffdec:has-small-stroke="true" ffdec:original-stroke-width="1.0" fill="none" stroke="#000000" stroke-linecap="round" stroke-linejoin="round" stroke-width="1.0015240899510196"/>
    </g>
    <g id="shape2" transform="matrix(1.0, 0.0, 0.0, 1.0, 6.1, 6.7)">
      <path d="M0.55 -5.95 Q2.45 -6.1 3.95 -4.25 5.45 -2.35 5.6 0.6 5.75 3.5 3.7 4.9 1.7 6.25 -0.65 6.25 -2.7 6.25 -4.25 4.75 -5.8 3.25 -5.6 -0.25 -5.4 -3.8 -3.75 -5.1 -2.05 -6.35 -0.9 -6.2 L0.55 -5.95" fill="#ffffff" fill-rule="evenodd" stroke="none"/>
      <path d="M0.55 -5.95 Q2.45 -6.1 3.95 -4.25 5.45 -2.35 5.6 0.6 5.75 3.5 3.7 4.9 1.7 6.25 -0.65 6.25 -2.7 6.25 -4.25 4.75 -5.8 3.25 -5.6 -0.25 -5.4 -3.8 -3.75 -5.1 -2.05 -6.35 -0.9 -6.2 L0.55 -5.95 Z" ffdec:has-small-stroke="true" ffdec:original-stroke-width="1.0" fill="none" stroke="#000000" stroke-linecap="round" stroke-linejoin="round" stroke-width="1.0020211799418575"/>
    </g>
    <g id="shape3" transform="matrix(1.0, 0.0, 0.0, 1.0, 0.0, 0.0)">
      <path d="M4.3 1.7 Q26.3 18.75 21.45 40.75 16.15 68.8 16.6 80.95 17.05 93.1 18.15 99.55 19.2 106.0 18.65 112.15 L17.55 123.6 Q24.3 134.95 25.3 147.9 25.8 153.9 24.65 159.85 27.45 163.85 26.6 168.85 24.85 179.4 20.7 189.05 L19.5 191.5 21.55 219.6 28.25 226.7 Q29.3 240.6 33.25 253.5 31.9 257.65 32.55 261.8 27.75 286.85 33.1 320.6 L33.2 320.65 32.8 321.55 Q30.85 326.25 29.5 331.2 31.45 335.5 0.0 326.9 L0.0 0.0 4.3 1.7" fill="#000000" fill-rule="evenodd" stroke="none"/>
    </g>
    <g id="shape4" transform="matrix(1.0, 0.0, 0.0, 1.0, 0.75, 0.75)">
      <path d="M0.0 0.0 L4.3 1.7 Q26.3 18.75 21.45 40.75 16.15 68.8 16.6 80.95 17.05 93.1 18.15 99.55 19.2 106.0 18.65 112.15 L17.55 123.6 Q24.3 134.95 25.3 147.9 25.8 153.9 24.65 159.85 27.45 163.85 26.6 168.85 24.85 179.4 20.7 189.05 L19.5 191.5 21.55 219.6 28.25 226.7 Q29.3 240.6 33.25 253.5 31.9 257.65 32.55 261.8 27.75 286.85 33.1 320.6 L33.2 320.65 32.8 321.55 Q30.85 326.25 29.5 331.2 31.45 335.5 0.0 326.9 L0.0 0.0" fill="#ffffff" fill-rule="evenodd" stroke="none"/>
      <path d="M0.0 0.0 L4.3 1.7 Q26.3 18.75 21.45 40.75 16.15 68.8 16.6 80.95 17.05 93.1 18.15 99.55 19.2 106.0 18.65 112.15 L17.55 123.6 Q24.3 134.95 25.3 147.9 25.8 153.9 24.65 159.85 27.45 163.85 26.6 168.85 24.85 179.4 20.7 189.05 L19.5 191.5 21.55 219.6 28.25 226.7 Q29.3 240.6 33.25 253.5 31.9 257.65 32.55 261.8 27.75 286.85 33.1 320.6 L33.2 320.65 32.8 321.55 Q30.85 326.25 29.5 331.2" fill="none" stroke="#000000" stroke-linecap="round" stroke-linejoin="round" stroke-width="1.5"/>
      <path d="M12.2 23.7 Q11.05 23.25 9.6 23.15 L9.35 23.1 7.4 23.1 6.45 23.1 4.4 25.55 Q2.0 28.15 -0.75 30.35 L-0.75 21.0 1.2 20.6 8.25 20.3 Q14.8 20.15 16.3 24.65 17.0 26.65 17.0 28.3 17.05 33.05 11.6 34.6 L8.0 34.6 6.45 33.65 Q5.25 31.75 4.85 29.45 L4.65 28.25 5.15 27.4 Q6.35 25.6 8.25 25.05 L8.3 24.9 10.7 24.9 8.9 25.5 8.0 27.0 8.0 30.05 8.6 30.95 8.85 31.2 Q9.65 31.85 10.7 32.15 L11.3 32.15 12.9 31.65 14.35 30.65 14.65 30.35 14.95 26.4 14.05 24.9 Q13.3 24.15 12.2 23.7" fill="#def2fe" fill-rule="evenodd" stroke="none"/>
      <path d="M32.5 253.8 Q31.15 257.95 31.8 262.1 29.85 272.2 29.6 283.75 L28.8 282.15 Q27.65 274.95 29.65 269.15 30.9 265.5 30.6 260.65 L28.8 258.4 28.8 255.3 Q31.0 249.35 27.95 245.0 L26.6 242.75 Q22.85 239.55 18.1 237.25 16.9 236.65 16.75 235.6 19.8 232.1 23.5 229.85 24.65 229.2 25.25 227.95 L26.6 227.5 27.15 226.65 27.5 227.0 Q28.55 240.9 32.5 253.8 M28.75 331.5 Q29.3 332.7 27.15 332.9 25.75 330.0 25.7 326.05 L25.7 325.6 27.95 322.0 Q30.05 320.8 32.2 319.75 L32.35 320.9 32.45 320.95 32.05 321.85 Q30.1 326.55 28.75 331.5 M16.4 69.3 Q15.65 76.5 15.85 81.25 16.3 93.4 17.4 99.85 18.45 106.3 17.9 112.45 L16.85 123.45 Q14.65 121.3 12.2 119.65 L11.8 119.6 10.9 117.8 10.9 112.4 13.6 107.05 Q11.5 89.6 15.1 73.6 15.55 71.45 16.4 69.3 M23.95 163.05 L23.5 159.45 24.25 158.05 23.9 160.15 Q26.7 164.15 25.85 169.15 L24.2 176.95 Q22.75 182.45 20.7 187.65 L19.95 189.35 19.1 191.15 18.75 191.8 18.9 193.5 18.55 193.05 18.5 192.3 18.25 192.3 17.95 191.65 14.0 190.0 12.85 189.85 11.05 189.0 10.7 188.95 13.45 187.75 14.65 186.55 17.05 185.05 17.35 184.4 20.75 181.15 Q24.85 174.8 25.25 165.25 L23.95 163.05" fill="#caeafe" fill-rule="evenodd" stroke="none"/>
    </g>
  </defs>
</svg>
