<?xml version="1.0" encoding="UTF-8" standalone="no"?>
<svg xmlns:ffdec="https://www.free-decompiler.com/flash" xmlns:xlink="http://www.w3.org/1999/xlink" ffdec:objectType="frame" height="756.85px" width="83.35px" xmlns="http://www.w3.org/2000/svg">
  <g transform="matrix(1.0, 0.0, 0.0, 1.0, 25.9, 99.2)">
    <use ffdec:characterId="508" height="13.3" transform="matrix(1.6504, 0.0, 0.0, 1.6504, -1.5248, 212.7248)" width="11.35" xlink:href="#shape0"/>
    <use ffdec:characterId="511" height="16.85" transform="matrix(0.4193, -0.9064, 0.9064, 0.4193, -5.9446, 211.4009)" width="16.6" xlink:href="#shape1"/>
    <use ffdec:characterId="510" height="13.45" transform="matrix(0.9614, -0.2673, 0.2673, 0.9614, -7.7051, 294.3392)" width="12.2" xlink:href="#shape2"/>
    <clipPath id="clipPath0">
      <path d="M -0.68 -20.25 L -1.25 -20.24 L -1.81 -20.22 L -2.36 -20.19 L -2.9 -20.15 L -3.44 -20.09 L -3.96 -20.02 L -4.47 -19.94 L -4.97 -19.85 L -5.46 -19.74 L -5.94 -19.62 L -6.41 -19.49 L -6.87 -19.34 L -7.32 -19.19 L -7.76 -19.02 L -8.19 -18.83 L -8.6 -18.64 L -9.01 -18.43 L -9.41 -18.21 L -9.8 -17.98 L -10.17 -17.73 L -10.54 -17.47 L -10.9 -17.2 L -11.24 -16.92 L -11.58 -16.62 L -11.9 -16.31 L -12.22 -15.99 L -12.52 -15.66 L -12.82 -15.31 L -13.1 -14.95 L -13.38 -14.58 L -13.64 -14.2 L -13.89 -13.8 L -14.14 -13.39 L -14.37 -12.97 L -14.59 -12.53 L -14.8 -12.09 L -15.01 -11.63 L -15.2 -11.15 L -15.38 -10.67 L -15.55 -10.17 L -15.71 -9.66 L -15.86 -9.14 L -16 -8.6 L -16.13 -8.06 L -16.25 -7.49 L -16.36 -6.92 L -16.45 -6.34 L -16.54 -5.74 L -16.62 -5.13 L -16.69 -4.5 L -16.74 -3.87 L -16.79 -3.22 L -16.83 -2.56 L -16.85 -1.88 L -16.87 -1.2 L -16.88 -0.5 L -16.87 0.21 L -16.86 0.94 L -16.8 2.43 L -16.69 3.96 L -16.55 5.55 L -16.55 349.9 L 57.45 349.9 L 57.45 5.55 L 54.99 3.96 L 52.58 2.43 L 50.21 0.94 L 47.87 -0.5 L 45.58 -1.88 L 43.33 -3.22 L 41.12 -4.5 L 38.96 -5.74 L 36.83 -6.92 L 34.75 -8.06 L 32.7 -9.14 L 30.7 -10.17 L 28.74 -11.15 L 26.82 -12.09 L 24.94 -12.97 L 23.11 -13.8 L 21.31 -14.58 L 19.56 -15.31 L 17.84 -15.99 L 16.17 -16.62 L 14.54 -17.2 L 12.95 -17.73 L 11.4 -18.21 L 9.9 -18.64 L 8.43 -19.02 L 7.01 -19.34 L 6.31 -19.49 L 5.62 -19.62 L 4.95 -19.74 L 4.28 -19.85 L 3.62 -19.94 L 2.98 -20.02 L 2.34 -20.09 L 1.72 -20.15 L 1.11 -20.19 L 0.5 -20.22 L -0.09 -20.24 L -0.68 -20.25 Z"/>
    </clipPath>
    <g clip-path="url(#clipPath0)">
      <use ffdec:characterId="513" height="332.65" transform="matrix(1.0, 0.0, 0.0, 1.0, 0.0, 0.0)" width="33.25" xlink:href="#shape3"/>
    </g>
    <clipPath id="clipPath1">
      <path d="M -1.12 -19.02 L -1.7 -19.02 L -2.26 -19 L -2.81 -18.97 L -3.35 -18.93 L -3.88 -18.88 L -4.4 -18.81 L -4.91 -18.73 L -5.41 -18.64 L -5.9 -18.54 L -6.38 -18.43 L -6.85 -18.3 L -7.3 -18.16 L -7.75 -18.01 L -8.19 -17.85 L -8.61 -17.68 L -9.03 -17.49 L -9.43 -17.29 L -9.82 -17.08 L -10.21 -16.86 L -10.58 -16.63 L -10.94 -16.38 L -11.29 -16.12 L -11.64 -15.85 L -11.97 -15.57 L -12.29 -15.28 L -12.6 -14.97 L -12.89 -14.65 L -13.18 -14.32 L -13.46 -13.98 L -13.73 -13.63 L -13.98 -13.26 L -14.23 -12.88 L -14.47 -12.49 L -14.69 -12.09 L -14.91 -11.68 L -15.11 -11.25 L -15.3 -10.81 L -15.49 -10.36 L -15.66 -9.9 L -15.82 -9.43 L -15.97 -8.94 L -16.11 -8.44 L -16.25 -7.93 L -16.36 -7.41 L -16.47 -6.88 L -16.57 -6.33 L -16.66 -5.77 L -16.74 -5.2 L -16.81 -4.62 L -16.86 -4.03 L -16.91 -3.42 L -16.94 -2.8 L -16.97 -2.17 L -16.98 -1.53 L -16.99 -0.88 L -16.98 -0.21 L -16.96 0.47 L -16.94 1.16 L -16.85 2.57 L -16.72 4.04 L -16.55 5.55 L -16.55 349.9 L 57.45 349.9 L 57.45 5.55 L 54.97 4.04 L 52.52 2.57 L 50.13 1.16 L 47.77 -0.21 L 45.45 -1.53 L 43.18 -2.8 L 40.95 -4.03 L 38.76 -5.2 L 36.61 -6.33 L 34.51 -7.41 L 32.45 -8.44 L 30.43 -9.43 L 28.45 -10.36 L 26.51 -11.25 L 24.62 -12.09 L 22.77 -12.88 L 20.96 -13.63 L 19.19 -14.32 L 17.47 -14.97 L 15.78 -15.57 L 14.14 -16.12 L 12.54 -16.63 L 10.99 -17.08 L 9.47 -17.49 L 8 -17.85 L 6.57 -18.16 L 5.18 -18.43 L 4.5 -18.54 L 3.84 -18.64 L 3.18 -18.73 L 2.53 -18.81 L 1.9 -18.88 L 1.27 -18.93 L 0.66 -18.97 L 0.05 -19 L -0.54 -19.02 L -1.12 -19.02 Z"/>
    </clipPath>
    <g clip-path="url(#clipPath1)">
      <use ffdec:characterId="515" height="333.65" transform="matrix(1.0, 0.0, 0.0, 1.0, -0.75, -0.75)" width="34.75" xlink:href="#shape4"/>
    </g>
  </g>
  <defs>
    <g id="shape0" transform="matrix(1.0, 0.0, 0.0, 1.0, 5.65, 6.65)">
      <path d="M4.25 -3.85 Q5.5 -1.95 5.1 0.9 4.75 3.7 2.4 5.25 0.1 6.7 -1.65 5.8 -3.4 4.85 -4.35 2.75 -5.25 0.9 -5.15 -1.35 -5.05 -3.4 -3.35 -4.8 -1.35 -6.5 0.7 -6.05 2.55 -5.65 4.0 -4.45 L4.25 -3.85" fill="#ffffff" fill-rule="evenodd" stroke="none"/>
      <path d="M4.25 -3.85 Q5.5 -1.95 5.1 0.9 4.75 3.7 2.4 5.25 0.1 6.7 -1.65 5.8 -3.4 4.85 -4.35 2.75 -5.25 0.9 -5.15 -1.35 -5.05 -3.4 -3.35 -4.8 -1.35 -6.5 0.7 -6.05 2.55 -5.65 4.0 -4.45 L4.25 -3.85 Z" fill="none" stroke="#000000" stroke-linecap="round" stroke-linejoin="round" stroke-width="1.0"/>
    </g>
    <g id="shape1" transform="matrix(1.0, 0.0, 0.0, 1.0, 8.3, 8.4)">
      <path d="M7.65 0.45 Q7.0 4.45 4.4 6.2 1.8 7.95 -1.25 7.95 -3.9 7.95 -6.05 6.35 -7.95 4.9 -7.8 1.75 -7.6 -2.0 -5.25 -4.5 -3.1 -6.7 -0.5 -7.85 L0.35 -7.8 Q3.4 -8.25 5.9 -5.95 8.35 -3.7 7.65 0.45" fill="#ffffff" fill-rule="evenodd" stroke="none"/>
      <path d="M7.65 0.45 Q7.0 4.45 4.4 6.2 1.8 7.95 -1.25 7.95 -3.9 7.95 -6.05 6.35 -7.95 4.9 -7.8 1.75 -7.6 -2.0 -5.25 -4.5 -3.1 -6.7 -0.5 -7.85 L0.35 -7.8 Q3.4 -8.25 5.9 -5.95 8.35 -3.7 7.65 0.45 Z" ffdec:has-small-stroke="true" ffdec:original-stroke-width="1.0" fill="none" stroke="#000000" stroke-linecap="round" stroke-linejoin="round" stroke-width="1.0012680468162167"/>
    </g>
    <g id="shape2" transform="matrix(1.0, 0.0, 0.0, 1.0, 6.1, 6.7)">
      <path d="M0.55 -5.95 Q2.45 -6.1 3.95 -4.25 5.45 -2.35 5.6 0.6 5.75 3.5 3.7 4.9 1.7 6.25 -0.65 6.25 -2.7 6.25 -4.25 4.75 -5.8 3.25 -5.6 -0.25 -5.4 -3.8 -3.75 -5.1 -2.05 -6.35 -0.9 -6.2 L0.55 -5.95" fill="#ffffff" fill-rule="evenodd" stroke="none"/>
      <path d="M0.55 -5.95 Q2.45 -6.1 3.95 -4.25 5.45 -2.35 5.6 0.6 5.75 3.5 3.7 4.9 1.7 6.25 -0.65 6.25 -2.7 6.25 -4.25 4.75 -5.8 3.25 -5.6 -0.25 -5.4 -3.8 -3.75 -5.1 -2.05 -6.35 -0.9 -6.2 L0.55 -5.95 Z" ffdec:has-small-stroke="true" ffdec:original-stroke-width="1.0" fill="none" stroke="#000000" stroke-linecap="round" stroke-linejoin="round" stroke-width="1.0021785965923729"/>
    </g>
    <g id="shape3" transform="matrix(1.0, 0.0, 0.0, 1.0, 0.0, 0.0)">
      <path d="M4.3 1.7 Q26.3 18.75 21.45 40.75 16.15 68.8 16.6 80.95 17.05 93.1 18.15 99.55 19.2 106.0 18.65 112.15 L17.55 123.6 Q24.3 134.95 25.3 147.9 25.8 153.9 24.65 159.85 27.45 163.85 26.6 168.85 24.85 179.4 20.7 189.05 L19.5 191.5 21.55 219.6 28.25 226.7 Q29.3 240.6 33.25 253.5 31.9 257.65 32.55 261.8 27.75 286.85 33.1 320.6 L33.2 320.65 32.8 321.55 Q30.85 326.25 29.5 331.2 31.45 335.5 0.0 326.9 L0.0 0.0 4.3 1.7" fill="#000000" fill-rule="evenodd" stroke="none"/>
    </g>
    <g id="shape4" transform="matrix(1.0, 0.0, 0.0, 1.0, 0.75, 0.75)">
      <path d="M0.0 0.0 L4.3 1.7 Q26.3 18.75 21.45 40.75 16.15 68.8 16.6 80.95 17.05 93.1 18.15 99.55 19.2 106.0 18.65 112.15 L17.55 123.6 Q24.3 134.95 25.3 147.9 25.8 153.9 24.65 159.85 27.45 163.85 26.6 168.85 24.85 179.4 20.7 189.05 L19.5 191.5 21.55 219.6 28.25 226.7 Q29.3 240.6 33.25 253.5 31.9 257.65 32.55 261.8 27.75 286.85 33.1 320.6 L33.2 320.65 32.8 321.55 Q30.85 326.25 29.5 331.2 31.45 335.5 0.0 326.9 L0.0 0.0" fill="#ffffff" fill-rule="evenodd" stroke="none"/>
      <path d="M0.0 0.0 L4.3 1.7 Q26.3 18.75 21.45 40.75 16.15 68.8 16.6 80.95 17.05 93.1 18.15 99.55 19.2 106.0 18.65 112.15 L17.55 123.6 Q24.3 134.95 25.3 147.9 25.8 153.9 24.65 159.85 27.45 163.85 26.6 168.85 24.85 179.4 20.7 189.05 L19.5 191.5 21.55 219.6 28.25 226.7 Q29.3 240.6 33.25 253.5 31.9 257.65 32.55 261.8 27.75 286.85 33.1 320.6 L33.2 320.65 32.8 321.55 Q30.85 326.25 29.5 331.2" fill="none" stroke="#000000" stroke-linecap="round" stroke-linejoin="round" stroke-width="1.5"/>
      <path d="M12.2 23.7 Q11.05 23.25 9.6 23.15 L9.35 23.1 7.4 23.1 6.45 23.1 4.4 25.55 Q2.0 28.15 -0.75 30.35 L-0.75 21.0 1.2 20.6 8.25 20.3 Q14.8 20.15 16.3 24.65 17.0 26.65 17.0 28.3 17.05 33.05 11.6 34.6 L8.0 34.6 6.45 33.65 Q5.25 31.75 4.85 29.45 L4.65 28.25 5.15 27.4 Q6.35 25.6 8.25 25.05 L8.3 24.9 10.7 24.9 8.9 25.5 8.0 27.0 8.0 30.05 8.6 30.95 8.85 31.2 Q9.65 31.85 10.7 32.15 L11.3 32.15 12.9 31.65 14.35 30.65 14.65 30.35 14.95 26.4 14.05 24.9 Q13.3 24.15 12.2 23.7" fill="#def2fe" fill-rule="evenodd" stroke="none"/>
      <path d="M32.5 253.8 Q31.15 257.95 31.8 262.1 29.85 272.2 29.6 283.75 L28.8 282.15 Q27.65 274.95 29.65 269.15 30.9 265.5 30.6 260.65 L28.8 258.4 28.8 255.3 Q31.0 249.35 27.95 245.0 L26.6 242.75 Q22.85 239.55 18.1 237.25 16.9 236.65 16.75 235.6 19.8 232.1 23.5 229.85 24.65 229.2 25.25 227.95 L26.6 227.5 27.15 226.65 27.5 227.0 Q28.55 240.9 32.5 253.8 M28.75 331.5 Q29.3 332.7 27.15 332.9 25.75 330.0 25.7 326.05 L25.7 325.6 27.95 322.0 Q30.05 320.8 32.2 319.75 L32.35 320.9 32.45 320.95 32.05 321.85 Q30.1 326.55 28.75 331.5 M16.4 69.3 Q15.65 76.5 15.85 81.25 16.3 93.4 17.4 99.85 18.45 106.3 17.9 112.45 L16.85 123.45 Q14.65 121.3 12.2 119.65 L11.8 119.6 10.9 117.8 10.9 112.4 13.6 107.05 Q11.5 89.6 15.1 73.6 15.55 71.45 16.4 69.3 M23.95 163.05 L23.5 159.45 24.25 158.05 23.9 160.15 Q26.7 164.15 25.85 169.15 L24.2 176.95 Q22.75 182.45 20.7 187.65 L19.95 189.35 19.1 191.15 18.75 191.8 18.9 193.5 18.55 193.05 18.5 192.3 18.25 192.3 17.95 191.65 14.0 190.0 12.85 189.85 11.05 189.0 10.7 188.95 13.45 187.75 14.65 186.55 17.05 185.05 17.35 184.4 20.75 181.15 Q24.85 174.8 25.25 165.25 L23.95 163.05" fill="#caeafe" fill-rule="evenodd" stroke="none"/>
    </g>
  </defs>
</svg>
