<?xml version="1.0" encoding="UTF-8" standalone="no"?>
<svg xmlns:ffdec="https://www.free-decompiler.com/flash" xmlns:xlink="http://www.w3.org/1999/xlink" ffdec:objectType="frame" height="756.85px" width="83.35px" xmlns="http://www.w3.org/2000/svg">
  <g transform="matrix(1.0, 0.0, 0.0, 1.0, 25.9, 99.2)">
    <use ffdec:characterId="508" height="13.3" transform="matrix(1.6504, 0.0, 0.0, 1.6504, -1.5248, 238.7248)" width="11.35" xlink:href="#shape0"/>
    <use ffdec:characterId="511" height="16.85" transform="matrix(0.2884, -0.9566, 0.9566, 0.2884, -5.2785, 250.1672)" width="16.6" xlink:href="#shape1"/>
    <use ffdec:characterId="510" height="13.45" transform="matrix(0.956, -0.2885, 0.2885, 0.956, -7.7643, 323.0547)" width="12.2" xlink:href="#shape2"/>
    <clipPath id="clipPath0">
      <path d="M -0.8 -23.12 L -1.37 -23.12 L -1.94 -23.1 L -2.49 -23.07 L -3.03 -23.02 L -3.56 -22.97 L -4.08 -22.9 L -4.59 -22.81 L -5.09 -22.72 L -5.58 -22.61 L -6.06 -22.49 L -6.53 -22.36 L -6.99 -22.21 L -7.44 -22.06 L -7.88 -21.88 L -8.3 -21.7 L -8.72 -21.5 L -9.13 -21.3 L -9.53 -21.07 L -9.91 -20.84 L -10.29 -20.59 L -10.65 -20.33 L -11.01 -20.06 L -11.35 -19.78 L -11.69 -19.48 L -12.01 -19.17 L -12.32 -18.85 L -12.63 -18.51 L -12.92 -18.16 L -13.2 -17.8 L -13.47 -17.43 L -13.74 -17.04 L -13.99 -16.64 L -14.23 -16.23 L -14.46 -15.81 L -14.68 -15.37 L -14.89 -14.92 L -15.09 -14.46 L -15.28 -13.99 L -15.46 -13.5 L -15.62 -13 L -15.78 -12.49 L -15.93 -11.96 L -16.07 -11.42 L -16.19 -10.87 L -16.31 -10.31 L -16.42 -9.73 L -16.51 -9.14 L -16.6 -8.54 L -16.67 -7.93 L -16.74 -7.3 L -16.79 -6.66 L -16.83 -6.01 L -16.87 -5.35 L -16.89 -4.67 L -16.9 -3.98 L -16.91 -3.28 L -16.9 -2.56 L -16.88 -1.83 L -16.81 -0.34 L -16.7 1.21 L -16.55 2.8 L -16.55 349.9 L 57.45 349.9 L 57.45 2.8 L 54.99 1.21 L 52.56 -0.34 L 50.18 -1.83 L 47.84 -3.28 L 45.55 -4.67 L 43.29 -6.01 L 41.08 -7.3 L 38.9 -8.54 L 36.77 -9.73 L 34.68 -10.87 L 32.63 -11.96 L 30.63 -13 L 28.66 -13.99 L 26.74 -14.92 L 24.85 -15.81 L 23.01 -16.64 L 21.21 -17.43 L 19.45 -18.16 L 17.74 -18.85 L 16.06 -19.48 L 14.43 -20.06 L 12.84 -20.59 L 11.29 -21.07 L 9.78 -21.5 L 8.31 -21.88 L 7.59 -22.06 L 6.88 -22.21 L 6.19 -22.36 L 5.5 -22.49 L 4.82 -22.61 L 4.16 -22.72 L 3.5 -22.81 L 2.86 -22.9 L 2.22 -22.97 L 1.6 -23.02 L 0.98 -23.07 L 0.38 -23.1 L -0.22 -23.12 L -0.8 -23.12 Z"/>
    </clipPath>
    <g clip-path="url(#clipPath0)">
      <use ffdec:characterId="513" height="332.65" transform="matrix(1.0, 0.0, 0.0, 1.0, 0.0, 0.0)" width="33.25" xlink:href="#shape3"/>
    </g>
    <clipPath id="clipPath1">
      <path d="M -1.25 -21.88 L -1.82 -21.87 L -2.39 -21.85 L -2.94 -21.82 L -3.48 -21.78 L -4.01 -21.72 L -4.53 -21.66 L -5.04 -21.58 L -5.54 -21.49 L -6.02 -21.39 L -6.5 -21.27 L -6.97 -21.15 L -7.42 -21.01 L -7.87 -20.86 L -8.31 -20.69 L -8.73 -20.52 L -9.14 -20.33 L -9.55 -20.13 L -9.94 -19.92 L -10.32 -19.7 L -10.69 -19.47 L -11.05 -19.22 L -11.4 -18.96 L -11.74 -18.69 L -12.07 -18.41 L -12.39 -18.11 L -12.7 -17.8 L -13 -17.48 L -13.28 -17.15 L -13.56 -16.81 L -13.83 -16.45 L -14.08 -16.09 L -14.32 -15.71 L -14.56 -15.31 L -14.78 -14.91 L -14.99 -14.5 L -15.2 -14.07 L -15.39 -13.63 L -15.57 -13.18 L -15.74 -12.71 L -15.9 -12.24 L -16.05 -11.75 L -16.19 -11.25 L -16.31 -10.74 L -16.43 -10.21 L -16.54 -9.68 L -16.63 -9.13 L -16.72 -8.57 L -16.79 -8 L -16.86 -7.41 L -16.91 -6.81 L -16.95 -6.21 L -16.99 -5.59 L -17.01 -4.95 L -17.02 -4.31 L -17.02 -3.65 L -17.01 -2.98 L -16.99 -2.3 L -16.96 -1.61 L -16.87 -0.19 L -16.73 1.28 L -16.55 2.8 L -16.55 349.9 L 57.45 349.9 L 57.45 2.8 L 54.96 1.28 L 52.51 -0.19 L 50.1 -1.61 L 47.74 -2.98 L 45.42 -4.31 L 43.14 -5.59 L 40.9 -6.81 L 38.71 -8 L 36.55 -9.13 L 34.44 -10.21 L 32.38 -11.25 L 30.35 -12.24 L 28.37 -13.18 L 26.43 -14.07 L 24.53 -14.91 L 22.67 -15.71 L 20.86 -16.45 L 19.09 -17.15 L 17.36 -17.8 L 15.68 -18.41 L 14.03 -18.96 L 12.43 -19.47 L 10.87 -19.92 L 9.36 -20.33 L 7.88 -20.69 L 6.45 -21.01 L 5.06 -21.27 L 4.38 -21.39 L 3.71 -21.49 L 3.06 -21.58 L 2.41 -21.66 L 1.77 -21.72 L 1.15 -21.78 L 0.53 -21.82 L -0.07 -21.85 L -0.67 -21.87 L -1.25 -21.88 Z"/>
    </clipPath>
    <g clip-path="url(#clipPath1)">
      <use ffdec:characterId="515" height="333.65" transform="matrix(1.0, 0.0, 0.0, 1.0, -0.75, -0.75)" width="34.75" xlink:href="#shape4"/>
    </g>
  </g>
  <defs>
    <g id="shape0" transform="matrix(1.0, 0.0, 0.0, 1.0, 5.65, 6.65)">
      <path d="M4.25 -3.85 Q5.5 -1.95 5.1 0.9 4.75 3.7 2.4 5.25 0.1 6.7 -1.65 5.8 -3.4 4.85 -4.35 2.75 -5.25 0.9 -5.15 -1.35 -5.05 -3.4 -3.35 -4.8 -1.35 -6.5 0.7 -6.05 2.55 -5.65 4.0 -4.45 L4.25 -3.85" fill="#ffffff" fill-rule="evenodd" stroke="none"/>
      <path d="M4.25 -3.85 Q5.5 -1.95 5.1 0.9 4.75 3.7 2.4 5.25 0.1 6.7 -1.65 5.8 -3.4 4.85 -4.35 2.75 -5.25 0.9 -5.15 -1.35 -5.05 -3.4 -3.35 -4.8 -1.35 -6.5 0.7 -6.05 2.55 -5.65 4.0 -4.45 L4.25 -3.85 Z" fill="none" stroke="#000000" stroke-linecap="round" stroke-linejoin="round" stroke-width="1.0"/>
    </g>
    <g id="shape1" transform="matrix(1.0, 0.0, 0.0, 1.0, 8.3, 8.4)">
      <path d="M7.65 0.45 Q7.0 4.45 4.4 6.2 1.8 7.95 -1.25 7.95 -3.9 7.95 -6.05 6.35 -7.95 4.9 -7.8 1.75 -7.6 -2.0 -5.25 -4.5 -3.1 -6.7 -0.5 -7.85 L0.35 -7.8 Q3.4 -8.25 5.9 -5.95 8.35 -3.7 7.65 0.45" fill="#ffffff" fill-rule="evenodd" stroke="none"/>
      <path d="M7.65 0.45 Q7.0 4.45 4.4 6.2 1.8 7.95 -1.25 7.95 -3.9 7.95 -6.05 6.35 -7.95 4.9 -7.8 1.75 -7.6 -2.0 -5.25 -4.5 -3.1 -6.7 -0.5 -7.85 L0.35 -7.8 Q3.4 -8.25 5.9 -5.95 8.35 -3.7 7.65 0.45 Z" ffdec:has-small-stroke="true" ffdec:original-stroke-width="1.0" fill="none" stroke="#000000" stroke-linecap="round" stroke-linejoin="round" stroke-width="1.000923539901853"/>
    </g>
    <g id="shape2" transform="matrix(1.0, 0.0, 0.0, 1.0, 6.1, 6.7)">
      <path d="M0.55 -5.95 Q2.45 -6.1 3.95 -4.25 5.45 -2.35 5.6 0.6 5.75 3.5 3.7 4.9 1.7 6.25 -0.65 6.25 -2.7 6.25 -4.25 4.75 -5.8 3.25 -5.6 -0.25 -5.4 -3.8 -3.75 -5.1 -2.05 -6.35 -0.9 -6.2 L0.55 -5.95" fill="#ffffff" fill-rule="evenodd" stroke="none"/>
      <path d="M0.55 -5.95 Q2.45 -6.1 3.95 -4.25 5.45 -2.35 5.6 0.6 5.75 3.5 3.7 4.9 1.7 6.25 -0.65 6.25 -2.7 6.25 -4.25 4.75 -5.8 3.25 -5.6 -0.25 -5.4 -3.8 -3.75 -5.1 -2.05 -6.35 -0.9 -6.2 L0.55 -5.95 Z" ffdec:has-small-stroke="true" ffdec:original-stroke-width="1.0" fill="none" stroke="#000000" stroke-linecap="round" stroke-linejoin="round" stroke-width="1.00144465575874"/>
    </g>
    <g id="shape3" transform="matrix(1.0, 0.0, 0.0, 1.0, 0.0, 0.0)">
      <path d="M4.3 1.7 Q26.3 18.75 21.45 40.75 16.15 68.8 16.6 80.95 17.05 93.1 18.15 99.55 19.2 106.0 18.65 112.15 L17.55 123.6 Q24.3 134.95 25.3 147.9 25.8 153.9 24.65 159.85 27.45 163.85 26.6 168.85 24.85 179.4 20.7 189.05 L19.5 191.5 21.55 219.6 28.25 226.7 Q29.3 240.6 33.25 253.5 31.9 257.65 32.55 261.8 27.75 286.85 33.1 320.6 L33.2 320.65 32.8 321.55 Q30.85 326.25 29.5 331.2 31.45 335.5 0.0 326.9 L0.0 0.0 4.3 1.7" fill="#000000" fill-rule="evenodd" stroke="none"/>
    </g>
    <g id="shape4" transform="matrix(1.0, 0.0, 0.0, 1.0, 0.75, 0.75)">
      <path d="M0.0 0.0 L4.3 1.7 Q26.3 18.75 21.45 40.75 16.15 68.8 16.6 80.95 17.05 93.1 18.15 99.55 19.2 106.0 18.65 112.15 L17.55 123.6 Q24.3 134.95 25.3 147.9 25.8 153.9 24.65 159.85 27.45 163.85 26.6 168.85 24.85 179.4 20.7 189.05 L19.5 191.5 21.55 219.6 28.25 226.7 Q29.3 240.6 33.25 253.5 31.9 257.65 32.55 261.8 27.75 286.85 33.1 320.6 L33.2 320.65 32.8 321.55 Q30.85 326.25 29.5 331.2 31.45 335.5 0.0 326.9 L0.0 0.0" fill="#ffffff" fill-rule="evenodd" stroke="none"/>
      <path d="M0.0 0.0 L4.3 1.7 Q26.3 18.75 21.45 40.75 16.15 68.8 16.6 80.95 17.05 93.1 18.15 99.55 19.2 106.0 18.65 112.15 L17.55 123.6 Q24.3 134.95 25.3 147.9 25.8 153.9 24.65 159.85 27.45 163.85 26.6 168.85 24.85 179.4 20.7 189.05 L19.5 191.5 21.55 219.6 28.25 226.7 Q29.3 240.6 33.25 253.5 31.9 257.65 32.55 261.8 27.75 286.85 33.1 320.6 L33.2 320.65 32.8 321.55 Q30.85 326.25 29.5 331.2" fill="none" stroke="#000000" stroke-linecap="round" stroke-linejoin="round" stroke-width="1.5"/>
      <path d="M12.2 23.7 Q11.05 23.25 9.6 23.15 L9.35 23.1 7.4 23.1 6.45 23.1 4.4 25.55 Q2.0 28.15 -0.75 30.35 L-0.75 21.0 1.2 20.6 8.25 20.3 Q14.8 20.15 16.3 24.65 17.0 26.65 17.0 28.3 17.05 33.05 11.6 34.6 L8.0 34.6 6.45 33.65 Q5.25 31.75 4.85 29.45 L4.65 28.25 5.15 27.4 Q6.35 25.6 8.25 25.05 L8.3 24.9 10.7 24.9 8.9 25.5 8.0 27.0 8.0 30.05 8.6 30.95 8.85 31.2 Q9.65 31.85 10.7 32.15 L11.3 32.15 12.9 31.65 14.35 30.65 14.65 30.35 14.95 26.4 14.05 24.9 Q13.3 24.15 12.2 23.7" fill="#def2fe" fill-rule="evenodd" stroke="none"/>
      <path d="M32.5 253.8 Q31.15 257.95 31.8 262.1 29.85 272.2 29.6 283.75 L28.8 282.15 Q27.65 274.95 29.65 269.15 30.9 265.5 30.6 260.65 L28.8 258.4 28.8 255.3 Q31.0 249.35 27.95 245.0 L26.6 242.75 Q22.85 239.55 18.1 237.25 16.9 236.65 16.75 235.6 19.8 232.1 23.5 229.85 24.65 229.2 25.25 227.95 L26.6 227.5 27.15 226.65 27.5 227.0 Q28.55 240.9 32.5 253.8 M28.75 331.5 Q29.3 332.7 27.15 332.9 25.75 330.0 25.7 326.05 L25.7 325.6 27.95 322.0 Q30.05 320.8 32.2 319.75 L32.35 320.9 32.45 320.95 32.05 321.85 Q30.1 326.55 28.75 331.5 M16.4 69.3 Q15.65 76.5 15.85 81.25 16.3 93.4 17.4 99.85 18.45 106.3 17.9 112.45 L16.85 123.45 Q14.65 121.3 12.2 119.65 L11.8 119.6 10.9 117.8 10.9 112.4 13.6 107.05 Q11.5 89.6 15.1 73.6 15.55 71.45 16.4 69.3 M23.95 163.05 L23.5 159.45 24.25 158.05 23.9 160.15 Q26.7 164.15 25.85 169.15 L24.2 176.95 Q22.75 182.45 20.7 187.65 L19.95 189.35 19.1 191.15 18.75 191.8 18.9 193.5 18.55 193.05 18.5 192.3 18.25 192.3 17.95 191.65 14.0 190.0 12.85 189.85 11.05 189.0 10.7 188.95 13.45 187.75 14.65 186.55 17.05 185.05 17.35 184.4 20.75 181.15 Q24.85 174.8 25.25 165.25 L23.95 163.05" fill="#caeafe" fill-rule="evenodd" stroke="none"/>
    </g>
  </defs>
</svg>
