<?xml version="1.0" encoding="UTF-8" standalone="no"?>
<svg xmlns:ffdec="https://www.free-decompiler.com/flash" xmlns:xlink="http://www.w3.org/1999/xlink" ffdec:objectType="frame" height="756.85px" width="83.35px" xmlns="http://www.w3.org/2000/svg">
  <g transform="matrix(1.0, 0.0, 0.0, 1.0, 25.9, 99.2)">
    <use ffdec:characterId="508" height="13.3" transform="matrix(1.6504, 0.0, 0.0, 1.6504, -1.5248, 264.7248)" width="11.35" xlink:href="#shape0"/>
    <use ffdec:characterId="511" height="16.85" transform="matrix(0.1485, -0.9884, 0.9884, 0.1485, -4.3849, 288.9066)" width="16.6" xlink:href="#shape1"/>
    <clipPath id="clipPath0">
      <path d="M -0.93 -25.3 L -1.5 -25.29 L -2.06 -25.27 L -2.61 -25.24 L -3.15 -25.2 L -3.69 -25.14 L -4.21 -25.07 L -4.72 -24.99 L -5.22 -24.89 L -5.71 -24.79 L -6.18 -24.67 L -6.65 -24.53 L -7.11 -24.39 L -7.56 -24.23 L -8 -24.06 L -8.42 -23.87 L -8.84 -23.67 L -9.24 -23.47 L -9.64 -23.24 L -10.03 -23.01 L -10.4 -22.76 L -10.76 -22.5 L -11.12 -22.23 L -11.46 -21.94 L -11.79 -21.64 L -12.12 -21.33 L -12.43 -21.01 L -12.73 -20.67 L -13.02 -20.32 L -13.3 -19.96 L -13.57 -19.59 L -13.83 -19.2 L -14.08 -18.8 L -14.32 -18.39 L -14.55 -17.96 L -14.77 -17.52 L -14.97 -17.07 L -15.17 -16.61 L -15.36 -16.13 L -15.53 -15.65 L -15.7 -15.14 L -15.86 -14.63 L -16 -14.1 L -16.14 -13.56 L -16.26 -13.01 L -16.37 -12.45 L -16.48 -11.87 L -16.57 -11.28 L -16.65 -10.68 L -16.72 -10.06 L -16.78 -9.43 L -16.84 -8.79 L -16.88 -8.14 L -16.91 -7.47 L -16.93 -6.79 L -16.94 -6.1 L -16.93 -5.39 L -16.92 -4.68 L -16.9 -3.95 L -16.83 -2.45 L -16.71 -0.9 L -16.55 0.7 L -16.55 349.9 L 57.45 349.9 L 57.45 0.7 L 54.98 -0.9 L 52.55 -2.45 L 50.16 -3.95 L 47.82 -5.39 L 45.51 -6.79 L 43.25 -8.14 L 41.03 -9.43 L 38.85 -10.68 L 36.71 -11.87 L 34.62 -13.01 L 32.56 -14.1 L 30.55 -15.14 L 28.58 -16.13 L 26.65 -17.07 L 24.76 -17.96 L 22.92 -18.8 L 21.12 -19.59 L 19.35 -20.32 L 17.63 -21.01 L 15.96 -21.64 L 14.32 -22.23 L 12.72 -22.76 L 11.17 -23.24 L 9.66 -23.67 L 8.19 -24.06 L 7.47 -24.23 L 6.76 -24.39 L 6.07 -24.53 L 5.38 -24.67 L 4.7 -24.79 L 4.03 -24.89 L 3.38 -24.99 L 2.73 -25.07 L 2.1 -25.14 L 1.47 -25.2 L 0.86 -25.24 L 0.25 -25.27 L -0.34 -25.29 L -0.93 -25.3 Z"/>
    </clipPath>
    <g clip-path="url(#clipPath0)">
      <use ffdec:characterId="513" height="332.65" transform="matrix(1.0, 0.0, 0.0, 1.0, 0.0, 0.0)" width="33.25" xlink:href="#shape2"/>
    </g>
    <clipPath id="clipPath1">
      <path d="M -1.35 -24.08 L -1.92 -24.07 L -2.48 -24.05 L -3.04 -24.02 L -3.58 -23.98 L -4.11 -23.92 L -4.63 -23.86 L -5.14 -23.78 L -5.63 -23.69 L -6.12 -23.59 L -6.6 -23.47 L -7.07 -23.34 L -7.52 -23.2 L -7.97 -23.05 L -8.4 -22.89 L -8.82 -22.71 L -9.24 -22.53 L -9.64 -22.33 L -10.03 -22.12 L -10.41 -21.89 L -10.78 -21.66 L -11.14 -21.41 L -11.49 -21.15 L -11.83 -20.88 L -12.16 -20.59 L -12.48 -20.29 L -12.78 -19.99 L -13.08 -19.67 L -13.36 -19.33 L -13.64 -18.99 L -13.9 -18.63 L -14.16 -18.26 L -14.4 -17.88 L -14.63 -17.49 L -14.85 -17.08 L -15.06 -16.67 L -15.26 -16.24 L -15.45 -15.79 L -15.63 -15.34 L -15.8 -14.88 L -15.96 -14.4 L -16.11 -13.91 L -16.24 -13.41 L -16.37 -12.89 L -16.48 -12.36 L -16.59 -11.83 L -16.68 -11.28 L -16.76 -10.71 L -16.84 -10.14 L -16.9 -9.55 L -16.95 -8.95 L -16.99 -8.34 L -17.02 -7.72 L -17.04 -7.08 L -17.05 -6.44 L -17.05 -5.78 L -17.03 -5.11 L -17.01 -4.42 L -16.98 -3.73 L -16.88 -2.3 L -16.73 -0.82 L -16.55 0.7 L -16.55 349.9 L 57.45 349.9 L 57.45 0.7 L 54.95 -0.82 L 52.5 -2.3 L 50.09 -3.73 L 47.72 -5.11 L 45.39 -6.44 L 43.1 -7.72 L 40.86 -8.95 L 38.66 -10.14 L 36.51 -11.28 L 34.39 -12.36 L 32.32 -13.41 L 30.29 -14.4 L 28.3 -15.34 L 26.36 -16.24 L 24.46 -17.08 L 22.6 -17.88 L 20.78 -18.63 L 19.01 -19.33 L 17.28 -19.99 L 15.59 -20.59 L 13.94 -21.15 L 12.34 -21.66 L 10.78 -22.12 L 9.26 -22.53 L 7.79 -22.89 L 6.35 -23.2 L 4.96 -23.47 L 4.28 -23.59 L 3.62 -23.69 L 2.96 -23.78 L 2.31 -23.86 L 1.67 -23.92 L 1.05 -23.98 L 0.43 -24.02 L -0.17 -24.05 L -0.77 -24.07 L -1.35 -24.08 Z"/>
    </clipPath>
    <g clip-path="url(#clipPath1)">
      <use ffdec:characterId="515" height="333.65" transform="matrix(1.0, 0.0, 0.0, 1.0, -0.75, -0.75)" width="34.75" xlink:href="#shape3"/>
    </g>
  </g>
  <defs>
    <g id="shape0" transform="matrix(1.0, 0.0, 0.0, 1.0, 5.65, 6.65)">
      <path d="M4.25 -3.85 Q5.5 -1.95 5.1 0.9 4.75 3.7 2.4 5.25 0.1 6.7 -1.65 5.8 -3.4 4.85 -4.35 2.75 -5.25 0.9 -5.15 -1.35 -5.05 -3.4 -3.35 -4.8 -1.35 -6.5 0.7 -6.05 2.55 -5.65 4.0 -4.45 L4.25 -3.85" fill="#ffffff" fill-rule="evenodd" stroke="none"/>
      <path d="M4.25 -3.85 Q5.5 -1.95 5.1 0.9 4.75 3.7 2.4 5.25 0.1 6.7 -1.65 5.8 -3.4 4.85 -4.35 2.75 -5.25 0.9 -5.15 -1.35 -5.05 -3.4 -3.35 -4.8 -1.35 -6.5 0.7 -6.05 2.55 -5.65 4.0 -4.45 L4.25 -3.85 Z" fill="none" stroke="#000000" stroke-linecap="round" stroke-linejoin="round" stroke-width="1.0"/>
    </g>
    <g id="shape1" transform="matrix(1.0, 0.0, 0.0, 1.0, 8.3, 8.4)">
      <path d="M7.65 0.45 Q7.0 4.45 4.4 6.2 1.8 7.95 -1.25 7.95 -3.9 7.95 -6.05 6.35 -7.95 4.9 -7.8 1.75 -7.6 -2.0 -5.25 -4.5 -3.1 -6.7 -0.5 -7.85 L0.35 -7.8 Q3.4 -8.25 5.9 -5.95 8.35 -3.7 7.65 0.45" fill="#ffffff" fill-rule="evenodd" stroke="none"/>
      <path d="M7.65 0.45 Q7.0 4.45 4.4 6.2 1.8 7.95 -1.25 7.95 -3.9 7.95 -6.05 6.35 -7.95 4.9 -7.8 1.75 -7.6 -2.0 -5.25 -4.5 -3.1 -6.7 -0.5 -7.85 L0.35 -7.8 Q3.4 -8.25 5.9 -5.95 8.35 -3.7 7.65 0.45 Z" ffdec:has-small-stroke="true" ffdec:original-stroke-width="1.0" fill="none" stroke="#000000" stroke-linecap="round" stroke-linejoin="round" stroke-width="1.0005084495945862"/>
    </g>
    <g id="shape2" transform="matrix(1.0, 0.0, 0.0, 1.0, 0.0, 0.0)">
      <path d="M4.3 1.7 Q26.3 18.75 21.45 40.75 16.15 68.8 16.6 80.95 17.05 93.1 18.15 99.55 19.2 106.0 18.65 112.15 L17.55 123.6 Q24.3 134.95 25.3 147.9 25.8 153.9 24.65 159.85 27.45 163.85 26.6 168.85 24.85 179.4 20.7 189.05 L19.5 191.5 21.55 219.6 28.25 226.7 Q29.3 240.6 33.25 253.5 31.9 257.65 32.55 261.8 27.75 286.85 33.1 320.6 L33.2 320.65 32.8 321.55 Q30.85 326.25 29.5 331.2 31.45 335.5 0.0 326.9 L0.0 0.0 4.3 1.7" fill="#000000" fill-rule="evenodd" stroke="none"/>
    </g>
    <g id="shape3" transform="matrix(1.0, 0.0, 0.0, 1.0, 0.75, 0.75)">
      <path d="M0.0 0.0 L4.3 1.7 Q26.3 18.75 21.45 40.75 16.15 68.8 16.6 80.95 17.05 93.1 18.15 99.55 19.2 106.0 18.65 112.15 L17.55 123.6 Q24.3 134.95 25.3 147.9 25.8 153.9 24.65 159.85 27.45 163.85 26.6 168.85 24.85 179.4 20.7 189.05 L19.5 191.5 21.55 219.6 28.25 226.7 Q29.3 240.6 33.25 253.5 31.9 257.65 32.55 261.8 27.75 286.85 33.1 320.6 L33.2 320.65 32.8 321.55 Q30.85 326.25 29.5 331.2 31.45 335.5 0.0 326.9 L0.0 0.0" fill="#ffffff" fill-rule="evenodd" stroke="none"/>
      <path d="M0.0 0.0 L4.3 1.7 Q26.3 18.75 21.45 40.75 16.15 68.8 16.6 80.95 17.05 93.1 18.15 99.55 19.2 106.0 18.65 112.15 L17.55 123.6 Q24.3 134.95 25.3 147.9 25.8 153.9 24.65 159.85 27.45 163.85 26.6 168.85 24.85 179.4 20.7 189.05 L19.5 191.5 21.55 219.6 28.25 226.7 Q29.3 240.6 33.25 253.5 31.9 257.65 32.55 261.8 27.75 286.85 33.1 320.6 L33.2 320.65 32.8 321.55 Q30.85 326.25 29.5 331.2" fill="none" stroke="#000000" stroke-linecap="round" stroke-linejoin="round" stroke-width="1.5"/>
      <path d="M12.2 23.7 Q11.05 23.25 9.6 23.15 L9.35 23.1 7.4 23.1 6.45 23.1 4.4 25.55 Q2.0 28.15 -0.75 30.35 L-0.75 21.0 1.2 20.6 8.25 20.3 Q14.8 20.15 16.3 24.65 17.0 26.65 17.0 28.3 17.05 33.05 11.6 34.6 L8.0 34.6 6.45 33.65 Q5.25 31.75 4.85 29.45 L4.65 28.25 5.15 27.4 Q6.35 25.6 8.25 25.05 L8.3 24.9 10.7 24.9 8.9 25.5 8.0 27.0 8.0 30.05 8.6 30.95 8.85 31.2 Q9.65 31.85 10.7 32.15 L11.3 32.15 12.9 31.65 14.35 30.65 14.65 30.35 14.95 26.4 14.05 24.9 Q13.3 24.15 12.2 23.7" fill="#def2fe" fill-rule="evenodd" stroke="none"/>
      <path d="M32.5 253.8 Q31.15 257.95 31.8 262.1 29.85 272.2 29.6 283.75 L28.8 282.15 Q27.65 274.95 29.65 269.15 30.9 265.5 30.6 260.65 L28.8 258.4 28.8 255.3 Q31.0 249.35 27.95 245.0 L26.6 242.75 Q22.85 239.55 18.1 237.25 16.9 236.65 16.75 235.6 19.8 232.1 23.5 229.85 24.65 229.2 25.25 227.95 L26.6 227.5 27.15 226.65 27.5 227.0 Q28.55 240.9 32.5 253.8 M28.75 331.5 Q29.3 332.7 27.15 332.9 25.75 330.0 25.7 326.05 L25.7 325.6 27.95 322.0 Q30.05 320.8 32.2 319.75 L32.35 320.9 32.45 320.95 32.05 321.85 Q30.1 326.55 28.75 331.5 M16.4 69.3 Q15.65 76.5 15.85 81.25 16.3 93.4 17.4 99.85 18.45 106.3 17.9 112.45 L16.85 123.45 Q14.65 121.3 12.2 119.65 L11.8 119.6 10.9 117.8 10.9 112.4 13.6 107.05 Q11.5 89.6 15.1 73.6 15.55 71.45 16.4 69.3 M23.95 163.05 L23.5 159.45 24.25 158.05 23.9 160.15 Q26.7 164.15 25.85 169.15 L24.2 176.95 Q22.75 182.45 20.7 187.65 L19.95 189.35 19.1 191.15 18.75 191.8 18.9 193.5 18.55 193.05 18.5 192.3 18.25 192.3 17.95 191.65 14.0 190.0 12.85 189.85 11.05 189.0 10.7 188.95 13.45 187.75 14.65 186.55 17.05 185.05 17.35 184.4 20.75 181.15 Q24.85 174.8 25.25 165.25 L23.95 163.05" fill="#caeafe" fill-rule="evenodd" stroke="none"/>
    </g>
  </defs>
</svg>
