<?xml version="1.0" encoding="UTF-8" standalone="no"?>
<svg xmlns:ffdec="https://www.free-decompiler.com/flash" xmlns:xlink="http://www.w3.org/1999/xlink" ffdec:objectType="frame" height="756.85px" width="83.35px" xmlns="http://www.w3.org/2000/svg">
  <g transform="matrix(1.0, 0.0, 0.0, 1.0, 25.9, 99.2)">
    <use ffdec:characterId="508" height="13.3" transform="matrix(1.6504, 0.0, 0.0, 1.6504, -1.5248, 290.7248)" width="11.35" xlink:href="#shape0"/>
    <use ffdec:characterId="511" height="16.85" transform="matrix(0.009, -0.9999, 0.9999, 0.009, -3.3243, 327.4235)" width="16.6" xlink:href="#shape1"/>
    <clipPath id="clipPath0">
      <path d="M -1 -26.9 L -1.57 -26.89 L -2.14 -26.87 L -2.69 -26.84 L -3.23 -26.8 L -3.76 -26.74 L -4.28 -26.67 L -4.79 -26.59 L -5.29 -26.49 L -5.78 -26.38 L -6.26 -26.26 L -6.73 -26.13 L -7.18 -25.98 L -7.63 -25.83 L -8.07 -25.65 L -8.49 -25.47 L -8.91 -25.27 L -9.31 -25.06 L -9.71 -24.84 L -10.09 -24.6 L -10.47 -24.36 L -10.83 -24.1 L -11.18 -23.82 L -11.53 -23.54 L -11.86 -23.24 L -12.18 -22.93 L -12.49 -22.6 L -12.79 -22.26 L -13.08 -21.91 L -13.36 -21.55 L -13.63 -21.18 L -13.89 -20.79 L -14.14 -20.39 L -14.38 -19.97 L -14.6 -19.55 L -14.82 -19.11 L -15.03 -18.66 L -15.22 -18.19 L -15.41 -17.72 L -15.58 -17.23 L -15.75 -16.72 L -15.9 -16.21 L -16.04 -15.68 L -16.18 -15.14 L -16.3 -14.59 L -16.41 -14.02 L -16.51 -13.44 L -16.6 -12.85 L -16.68 -12.25 L -16.75 -11.63 L -16.81 -11 L -16.86 -10.36 L -16.9 -9.7 L -16.93 -9.04 L -16.95 -8.35 L -16.96 -7.66 L -16.95 -6.96 L -16.94 -6.24 L -16.91 -5.51 L -16.83 -4 L -16.71 -2.45 L -16.55 -0.85 L -16.55 349.9 L 57.45 349.9 L 57.45 -0.85 L 54.97 -2.45 L 52.54 -4 L 50.15 -5.51 L 47.8 -6.96 L 45.49 -8.35 L 43.22 -9.7 L 41 -11 L 38.82 -12.25 L 36.67 -13.44 L 34.58 -14.59 L 32.52 -15.68 L 30.5 -16.72 L 28.53 -17.72 L 26.6 -18.66 L 24.71 -19.55 L 22.86 -20.39 L 21.06 -21.18 L 19.29 -21.91 L 17.57 -22.6 L 15.89 -23.24 L 14.25 -23.82 L 12.66 -24.36 L 11.1 -24.84 L 9.59 -25.27 L 8.12 -25.65 L 7.4 -25.83 L 6.69 -25.98 L 5.99 -26.13 L 5.3 -26.26 L 4.63 -26.38 L 3.96 -26.49 L 3.3 -26.59 L 2.66 -26.67 L 2.02 -26.74 L 1.4 -26.8 L 0.78 -26.84 L 0.18 -26.87 L -0.42 -26.89 L -1 -26.9 Z"/>
    </clipPath>
    <g clip-path="url(#clipPath0)">
      <use ffdec:characterId="513" height="332.65" transform="matrix(1.0, 0.0, 0.0, 1.0, 0.0, 0.0)" width="33.25" xlink:href="#shape2"/>
    </g>
    <clipPath id="clipPath1">
      <path d="M -1.45 -25.67 L -2.02 -25.67 L -2.58 -25.65 L -3.14 -25.62 L -3.68 -25.58 L -4.21 -25.52 L -4.73 -25.46 L -5.23 -25.38 L -5.73 -25.29 L -6.22 -25.18 L -6.7 -25.07 L -7.16 -24.94 L -7.62 -24.8 L -8.06 -24.65 L -8.5 -24.49 L -8.92 -24.31 L -9.33 -24.12 L -9.73 -23.92 L -10.12 -23.71 L -10.5 -23.49 L -10.87 -23.25 L -11.23 -23 L -11.58 -22.74 L -11.92 -22.47 L -12.25 -22.18 L -12.56 -21.89 L -12.87 -21.58 L -13.16 -21.26 L -13.45 -20.92 L -13.72 -20.58 L -13.98 -20.22 L -14.23 -19.85 L -14.48 -19.47 L -14.71 -19.07 L -14.93 -18.67 L -15.13 -18.25 L -15.33 -17.82 L -15.52 -17.38 L -15.7 -16.92 L -15.86 -16.46 L -16.02 -15.98 L -16.17 -15.49 L -16.3 -14.98 L -16.42 -14.47 L -16.54 -13.94 L -16.64 -13.4 L -16.73 -12.85 L -16.81 -12.29 L -16.88 -11.71 L -16.94 -11.12 L -16.99 -10.52 L -17.03 -9.91 L -17.06 -9.29 L -17.07 -8.65 L -17.08 -8 L -17.07 -7.34 L -17.06 -6.67 L -17.03 -5.98 L -17 -5.29 L -16.89 -3.86 L -16.74 -2.38 L -16.55 -0.85 L -16.55 349.9 L 57.45 349.9 L 57.45 -0.85 L 54.95 -2.38 L 52.49 -3.86 L 50.07 -5.29 L 47.69 -6.67 L 45.36 -8 L 43.07 -9.29 L 40.82 -10.52 L 38.62 -11.71 L 36.46 -12.85 L 34.34 -13.94 L 32.26 -14.98 L 30.23 -15.98 L 28.24 -16.92 L 26.29 -17.82 L 24.39 -18.67 L 22.52 -19.47 L 20.71 -20.22 L 18.93 -20.92 L 17.2 -21.58 L 15.5 -22.18 L 13.86 -22.74 L 12.25 -23.25 L 10.69 -23.71 L 9.17 -24.12 L 7.69 -24.49 L 6.26 -24.8 L 4.87 -25.07 L 4.19 -25.18 L 3.52 -25.29 L 2.86 -25.38 L 2.21 -25.46 L 1.57 -25.52 L 0.95 -25.58 L 0.33 -25.62 L -0.27 -25.65 L -0.87 -25.67 L -1.45 -25.67 Z"/>
    </clipPath>
    <g clip-path="url(#clipPath1)">
      <use ffdec:characterId="515" height="333.65" transform="matrix(1.0, 0.0, 0.0, 1.0, -0.75, -0.75)" width="34.75" xlink:href="#shape3"/>
    </g>
  </g>
  <defs>
    <g id="shape0" transform="matrix(1.0, 0.0, 0.0, 1.0, 5.65, 6.65)">
      <path d="M4.25 -3.85 Q5.5 -1.95 5.1 0.9 4.75 3.7 2.4 5.25 0.1 6.7 -1.65 5.8 -3.4 4.85 -4.35 2.75 -5.25 0.9 -5.15 -1.35 -5.05 -3.4 -3.35 -4.8 -1.35 -6.5 0.7 -6.05 2.55 -5.65 4.0 -4.45 L4.25 -3.85" fill="#ffffff" fill-rule="evenodd" stroke="none"/>
      <path d="M4.25 -3.85 Q5.5 -1.95 5.1 0.9 4.75 3.7 2.4 5.25 0.1 6.7 -1.65 5.8 -3.4 4.85 -4.35 2.75 -5.25 0.9 -5.15 -1.35 -5.05 -3.4 -3.35 -4.8 -1.35 -6.5 0.7 -6.05 2.55 -5.65 4.0 -4.45 L4.25 -3.85 Z" fill="none" stroke="#000000" stroke-linecap="round" stroke-linejoin="round" stroke-width="1.0"/>
    </g>
    <g id="shape1" transform="matrix(1.0, 0.0, 0.0, 1.0, 8.3, 8.4)">
      <path d="M7.65 0.45 Q7.0 4.45 4.4 6.2 1.8 7.95 -1.25 7.95 -3.9 7.95 -6.05 6.35 -7.95 4.9 -7.8 1.75 -7.6 -2.0 -5.25 -4.5 -3.1 -6.7 -0.5 -7.85 L0.35 -7.8 Q3.4 -8.25 5.9 -5.95 8.35 -3.7 7.65 0.45" fill="#ffffff" fill-rule="evenodd" stroke="none"/>
      <path d="M7.65 0.45 Q7.0 4.45 4.4 6.2 1.8 7.95 -1.25 7.95 -3.9 7.95 -6.05 6.35 -7.95 4.9 -7.8 1.75 -7.6 -2.0 -5.25 -4.5 -3.1 -6.7 -0.5 -7.85 L0.35 -7.8 Q3.4 -8.25 5.9 -5.95 8.35 -3.7 7.65 0.45 Z" ffdec:has-small-stroke="true" ffdec:original-stroke-width="1.0" fill="none" stroke="#000000" stroke-linecap="round" stroke-linejoin="round" stroke-width="1.0000354935451792"/>
    </g>
    <g id="shape2" transform="matrix(1.0, 0.0, 0.0, 1.0, 0.0, 0.0)">
      <path d="M4.3 1.7 Q26.3 18.75 21.45 40.75 16.15 68.8 16.6 80.95 17.05 93.1 18.15 99.55 19.2 106.0 18.65 112.15 L17.55 123.6 Q24.3 134.95 25.3 147.9 25.8 153.9 24.65 159.85 27.45 163.85 26.6 168.85 24.85 179.4 20.7 189.05 L19.5 191.5 21.55 219.6 28.25 226.7 Q29.3 240.6 33.25 253.5 31.9 257.65 32.55 261.8 27.75 286.85 33.1 320.6 L33.2 320.65 32.8 321.55 Q30.85 326.25 29.5 331.2 31.45 335.5 0.0 326.9 L0.0 0.0 4.3 1.7" fill="#000000" fill-rule="evenodd" stroke="none"/>
    </g>
    <g id="shape3" transform="matrix(1.0, 0.0, 0.0, 1.0, 0.75, 0.75)">
      <path d="M0.0 0.0 L4.3 1.7 Q26.3 18.75 21.45 40.75 16.15 68.8 16.6 80.95 17.05 93.1 18.15 99.55 19.2 106.0 18.65 112.15 L17.55 123.6 Q24.3 134.95 25.3 147.9 25.8 153.9 24.65 159.85 27.45 163.85 26.6 168.85 24.85 179.4 20.7 189.05 L19.5 191.5 21.55 219.6 28.25 226.7 Q29.3 240.6 33.25 253.5 31.9 257.65 32.55 261.8 27.75 286.85 33.1 320.6 L33.2 320.65 32.8 321.55 Q30.85 326.25 29.5 331.2 31.45 335.5 0.0 326.9 L0.0 0.0" fill="#ffffff" fill-rule="evenodd" stroke="none"/>
      <path d="M0.0 0.0 L4.3 1.7 Q26.3 18.75 21.45 40.75 16.15 68.8 16.6 80.95 17.05 93.1 18.15 99.55 19.2 106.0 18.65 112.15 L17.55 123.6 Q24.3 134.95 25.3 147.9 25.8 153.9 24.65 159.85 27.45 163.85 26.6 168.85 24.85 179.4 20.7 189.05 L19.5 191.5 21.55 219.6 28.25 226.7 Q29.3 240.6 33.25 253.5 31.9 257.65 32.55 261.8 27.75 286.85 33.1 320.6 L33.2 320.65 32.8 321.55 Q30.85 326.25 29.5 331.2" fill="none" stroke="#000000" stroke-linecap="round" stroke-linejoin="round" stroke-width="1.5"/>
      <path d="M12.2 23.7 Q11.05 23.25 9.6 23.15 L9.35 23.1 7.4 23.1 6.45 23.1 4.4 25.55 Q2.0 28.15 -0.75 30.35 L-0.75 21.0 1.2 20.6 8.25 20.3 Q14.8 20.15 16.3 24.65 17.0 26.65 17.0 28.3 17.05 33.05 11.6 34.6 L8.0 34.6 6.45 33.65 Q5.25 31.75 4.85 29.45 L4.65 28.25 5.15 27.4 Q6.35 25.6 8.25 25.05 L8.3 24.9 10.7 24.9 8.9 25.5 8.0 27.0 8.0 30.05 8.6 30.95 8.85 31.2 Q9.65 31.85 10.7 32.15 L11.3 32.15 12.9 31.65 14.35 30.65 14.65 30.35 14.95 26.4 14.05 24.9 Q13.3 24.15 12.2 23.7" fill="#def2fe" fill-rule="evenodd" stroke="none"/>
      <path d="M32.5 253.8 Q31.15 257.95 31.8 262.1 29.85 272.2 29.6 283.75 L28.8 282.15 Q27.65 274.95 29.65 269.15 30.9 265.5 30.6 260.65 L28.8 258.4 28.8 255.3 Q31.0 249.35 27.95 245.0 L26.6 242.75 Q22.85 239.55 18.1 237.25 16.9 236.65 16.75 235.6 19.8 232.1 23.5 229.85 24.65 229.2 25.25 227.95 L26.6 227.5 27.15 226.65 27.5 227.0 Q28.55 240.9 32.5 253.8 M28.75 331.5 Q29.3 332.7 27.15 332.9 25.75 330.0 25.7 326.05 L25.7 325.6 27.95 322.0 Q30.05 320.8 32.2 319.75 L32.35 320.9 32.45 320.95 32.05 321.85 Q30.1 326.55 28.75 331.5 M16.4 69.3 Q15.65 76.5 15.85 81.25 16.3 93.4 17.4 99.85 18.45 106.3 17.9 112.45 L16.85 123.45 Q14.65 121.3 12.2 119.65 L11.8 119.6 10.9 117.8 10.9 112.4 13.6 107.05 Q11.5 89.6 15.1 73.6 15.55 71.45 16.4 69.3 M23.95 163.05 L23.5 159.45 24.25 158.05 23.9 160.15 Q26.7 164.15 25.85 169.15 L24.2 176.95 Q22.75 182.45 20.7 187.65 L19.95 189.35 19.1 191.15 18.75 191.8 18.9 193.5 18.55 193.05 18.5 192.3 18.25 192.3 17.95 191.65 14.0 190.0 12.85 189.85 11.05 189.0 10.7 188.95 13.45 187.75 14.65 186.55 17.05 185.05 17.35 184.4 20.75 181.15 Q24.85 174.8 25.25 165.25 L23.95 163.05" fill="#caeafe" fill-rule="evenodd" stroke="none"/>
    </g>
  </defs>
</svg>
