<?xml version="1.0" encoding="UTF-8" standalone="no"?>
<svg xmlns:ffdec="https://www.free-decompiler.com/flash" xmlns:xlink="http://www.w3.org/1999/xlink" ffdec:objectType="frame" height="756.85px" width="83.35px" xmlns="http://www.w3.org/2000/svg">
  <g transform="matrix(1.0, 0.0, 0.0, 1.0, 25.9, 99.2)">
    <clipPath id="clipPath0">
      <path d="M -1.02 -27.85 L -1.6 -27.84 L -2.16 -27.82 L -2.71 -27.79 L -3.25 -27.75 L -3.78 -27.69 L -4.31 -27.62 L -4.81 -27.54 L -5.31 -27.44 L -5.8 -27.33 L -6.28 -27.21 L -6.75 -27.08 L -7.21 -26.93 L -7.65 -26.77 L -8.09 -26.6 L -8.52 -26.42 L -8.93 -26.22 L -9.34 -26.01 L -9.73 -25.79 L -10.12 -25.55 L -10.49 -25.3 L -10.85 -25.04 L -11.21 -24.77 L -11.55 -24.48 L -11.88 -24.18 L -12.2 -23.87 L -12.51 -23.54 L -12.81 -23.2 L -13.1 -22.85 L -13.38 -22.49 L -13.65 -22.12 L -13.91 -21.73 L -14.16 -21.33 L -14.39 -20.91 L -14.62 -20.48 L -14.84 -20.04 L -15.04 -19.59 L -15.24 -19.13 L -15.42 -18.65 L -15.6 -18.16 L -15.76 -17.65 L -15.91 -17.14 L -16.06 -16.61 L -16.19 -16.07 L -16.31 -15.51 L -16.42 -14.95 L -16.52 -14.37 L -16.62 -13.77 L -16.7 -13.17 L -16.76 -12.55 L -16.82 -11.92 L -16.87 -11.28 L -16.91 -10.62 L -16.94 -9.95 L -16.96 -9.27 L -16.96 -8.57 L -16.96 -7.87 L -16.94 -7.15 L -16.92 -6.41 L -16.84 -4.91 L -16.71 -3.36 L -16.55 -1.75 L -16.55 349.9 L 57.45 349.9 L 57.45 -1.75 L 54.97 -3.36 L 52.54 -4.91 L 50.14 -6.41 L 47.79 -7.87 L 45.48 -9.27 L 43.21 -10.62 L 40.99 -11.92 L 38.8 -13.17 L 36.66 -14.37 L 34.56 -15.51 L 32.5 -16.61 L 30.49 -17.65 L 28.51 -18.65 L 26.58 -19.59 L 24.69 -20.48 L 22.84 -21.33 L 21.04 -22.12 L 19.27 -22.85 L 17.55 -23.54 L 15.87 -24.18 L 14.23 -24.77 L 12.63 -25.3 L 11.08 -25.79 L 9.57 -26.22 L 8.1 -26.6 L 7.38 -26.77 L 6.67 -26.93 L 5.97 -27.08 L 5.28 -27.21 L 4.6 -27.33 L 3.94 -27.44 L 3.28 -27.54 L 2.63 -27.62 L 2 -27.69 L 1.37 -27.75 L 0.76 -27.79 L 0.15 -27.82 L -0.44 -27.84 L -1.02 -27.85 Z"/>
    </clipPath>
    <g clip-path="url(#clipPath0)">
      <use ffdec:characterId="513" height="332.65" transform="matrix(1.0, 0.0, 0.0, 1.0, 0.0, 0.0)" width="33.25" xlink:href="#shape0"/>
    </g>
    <clipPath id="clipPath1">
      <path d="M -1.48 -26.62 L -2.05 -26.62 L -2.61 -26.6 L -3.16 -26.57 L -3.7 -26.53 L -4.23 -26.47 L -4.75 -26.41 L -5.26 -26.33 L -5.76 -26.24 L -6.24 -26.13 L -6.72 -26.02 L -7.19 -25.89 L -7.64 -25.75 L -8.09 -25.6 L -8.52 -25.43 L -8.94 -25.26 L -9.35 -25.07 L -9.76 -24.87 L -10.15 -24.66 L -10.53 -24.43 L -10.9 -24.2 L -11.26 -23.95 L -11.6 -23.69 L -11.94 -23.41 L -12.27 -23.13 L -12.58 -22.83 L -12.89 -22.52 L -13.18 -22.2 L -13.47 -21.86 L -13.74 -21.52 L -14 -21.16 L -14.25 -20.79 L -14.49 -20.41 L -14.72 -20.01 L -14.94 -19.6 L -15.15 -19.19 L -15.35 -18.75 L -15.54 -18.31 L -15.71 -17.86 L -15.88 -17.39 L -16.04 -16.91 L -16.18 -16.42 L -16.31 -15.91 L -16.44 -15.4 L -16.55 -14.87 L -16.65 -14.33 L -16.74 -13.77 L -16.82 -13.21 L -16.89 -12.63 L -16.95 -12.04 L -17 -11.44 L -17.04 -10.83 L -17.06 -10.2 L -17.08 -9.57 L -17.09 -8.92 L -17.08 -8.25 L -17.06 -7.58 L -17.04 -6.89 L -17 -6.2 L -16.89 -4.76 L -16.74 -3.28 L -16.55 -1.75 L -16.55 349.9 L 57.45 349.9 L 57.45 -1.75 L 54.94 -3.28 L 52.48 -4.76 L 50.06 -6.2 L 47.69 -7.58 L 45.35 -8.92 L 43.06 -10.2 L 40.81 -11.44 L 38.61 -12.63 L 36.45 -13.77 L 34.33 -14.87 L 32.25 -15.91 L 30.21 -16.91 L 28.22 -17.86 L 26.27 -18.75 L 24.37 -19.6 L 22.51 -20.41 L 20.69 -21.16 L 18.91 -21.86 L 17.17 -22.52 L 15.48 -23.13 L 13.83 -23.69 L 12.23 -24.2 L 10.67 -24.66 L 9.15 -25.07 L 7.67 -25.43 L 6.23 -25.75 L 4.84 -26.02 L 4.16 -26.13 L 3.49 -26.24 L 2.83 -26.33 L 2.19 -26.41 L 1.55 -26.47 L 0.92 -26.53 L 0.31 -26.57 L -0.3 -26.6 L -0.89 -26.62 L -1.48 -26.62 Z"/>
    </clipPath>
    <g clip-path="url(#clipPath1)">
      <use ffdec:characterId="515" height="333.65" transform="matrix(1.0, 0.0, 0.0, 1.0, -0.75, -0.75)" width="34.75" xlink:href="#shape1"/>
    </g>
  </g>
  <defs>
    <g id="shape0" transform="matrix(1.0, 0.0, 0.0, 1.0, 0.0, 0.0)">
      <path d="M4.3 1.7 Q26.3 18.75 21.45 40.75 16.15 68.8 16.6 80.95 17.05 93.1 18.15 99.55 19.2 106.0 18.65 112.15 L17.55 123.6 Q24.3 134.95 25.3 147.9 25.8 153.9 24.65 159.85 27.45 163.85 26.6 168.85 24.85 179.4 20.7 189.05 L19.5 191.5 21.55 219.6 28.25 226.7 Q29.3 240.6 33.25 253.5 31.9 257.65 32.55 261.8 27.75 286.85 33.1 320.6 L33.2 320.65 32.8 321.55 Q30.85 326.25 29.5 331.2 31.45 335.5 0.0 326.9 L0.0 0.0 4.3 1.7" fill="#000000" fill-rule="evenodd" stroke="none"/>
    </g>
    <g id="shape1" transform="matrix(1.0, 0.0, 0.0, 1.0, 0.75, 0.75)">
      <path d="M0.0 0.0 L4.3 1.7 Q26.3 18.75 21.45 40.75 16.15 68.8 16.6 80.95 17.05 93.1 18.15 99.55 19.2 106.0 18.65 112.15 L17.55 123.6 Q24.3 134.95 25.3 147.9 25.8 153.9 24.65 159.85 27.45 163.85 26.6 168.85 24.85 179.4 20.7 189.05 L19.5 191.5 21.55 219.6 28.25 226.7 Q29.3 240.6 33.25 253.5 31.9 257.65 32.55 261.8 27.75 286.85 33.1 320.6 L33.2 320.65 32.8 321.55 Q30.85 326.25 29.5 331.2 31.45 335.5 0.0 326.9 L0.0 0.0" fill="#ffffff" fill-rule="evenodd" stroke="none"/>
      <path d="M0.0 0.0 L4.3 1.7 Q26.3 18.75 21.45 40.75 16.15 68.8 16.6 80.95 17.05 93.1 18.15 99.55 19.2 106.0 18.65 112.15 L17.55 123.6 Q24.3 134.95 25.3 147.9 25.8 153.9 24.65 159.85 27.45 163.85 26.6 168.85 24.85 179.4 20.7 189.05 L19.5 191.5 21.55 219.6 28.25 226.7 Q29.3 240.6 33.25 253.5 31.9 257.65 32.55 261.8 27.75 286.85 33.1 320.6 L33.2 320.65 32.8 321.55 Q30.85 326.25 29.5 331.2" fill="none" stroke="#000000" stroke-linecap="round" stroke-linejoin="round" stroke-width="1.5"/>
      <path d="M12.2 23.7 Q11.05 23.25 9.6 23.15 L9.35 23.1 7.4 23.1 6.45 23.1 4.4 25.55 Q2.0 28.15 -0.75 30.35 L-0.75 21.0 1.2 20.6 8.25 20.3 Q14.8 20.15 16.3 24.65 17.0 26.65 17.0 28.3 17.05 33.05 11.6 34.6 L8.0 34.6 6.45 33.65 Q5.25 31.75 4.85 29.45 L4.65 28.25 5.15 27.4 Q6.35 25.6 8.25 25.05 L8.3 24.9 10.7 24.9 8.9 25.5 8.0 27.0 8.0 30.05 8.6 30.95 8.85 31.2 Q9.65 31.85 10.7 32.15 L11.3 32.15 12.9 31.65 14.35 30.65 14.65 30.35 14.95 26.4 14.05 24.9 Q13.3 24.15 12.2 23.7" fill="#def2fe" fill-rule="evenodd" stroke="none"/>
      <path d="M32.5 253.8 Q31.15 257.95 31.8 262.1 29.85 272.2 29.6 283.75 L28.8 282.15 Q27.65 274.95 29.65 269.15 30.9 265.5 30.6 260.65 L28.8 258.4 28.8 255.3 Q31.0 249.35 27.95 245.0 L26.6 242.75 Q22.85 239.55 18.1 237.25 16.9 236.65 16.75 235.6 19.8 232.1 23.5 229.85 24.65 229.2 25.25 227.95 L26.6 227.5 27.15 226.65 27.5 227.0 Q28.55 240.9 32.5 253.8 M28.75 331.5 Q29.3 332.7 27.15 332.9 25.75 330.0 25.7 326.05 L25.7 325.6 27.95 322.0 Q30.05 320.8 32.2 319.75 L32.35 320.9 32.45 320.95 32.05 321.85 Q30.1 326.55 28.75 331.5 M16.4 69.3 Q15.65 76.5 15.85 81.25 16.3 93.4 17.4 99.85 18.45 106.3 17.9 112.45 L16.85 123.45 Q14.65 121.3 12.2 119.65 L11.8 119.6 10.9 117.8 10.9 112.4 13.6 107.05 Q11.5 89.6 15.1 73.6 15.55 71.45 16.4 69.3 M23.95 163.05 L23.5 159.45 24.25 158.05 23.9 160.15 Q26.7 164.15 25.85 169.15 L24.2 176.95 Q22.75 182.45 20.7 187.65 L19.95 189.35 19.1 191.15 18.75 191.8 18.9 193.5 18.55 193.05 18.5 192.3 18.25 192.3 17.95 191.65 14.0 190.0 12.85 189.85 11.05 189.0 10.7 188.95 13.45 187.75 14.65 186.55 17.05 185.05 17.35 184.4 20.75 181.15 Q24.85 174.8 25.25 165.25 L23.95 163.05" fill="#caeafe" fill-rule="evenodd" stroke="none"/>
    </g>
  </defs>
</svg>
