<?xml version="1.0" encoding="UTF-8" standalone="no"?>
<svg xmlns:ffdec="https://www.free-decompiler.com/flash" xmlns:xlink="http://www.w3.org/1999/xlink" ffdec:objectType="frame" height="756.85px" width="83.35px" xmlns="http://www.w3.org/2000/svg">
  <g transform="matrix(1.0, 0.0, 0.0, 1.0, 25.9, 99.2)">
    <clipPath id="clipPath0">
      <path d="M -1.05 -28.15 L -1.62 -28.14 L -2.19 -28.12 L -2.74 -28.09 L -3.28 -28.05 L -3.81 -27.99 L -4.33 -27.92 L -4.84 -27.84 L -5.34 -27.74 L -5.83 -27.63 L -6.31 -27.51 L -6.77 -27.38 L -7.23 -27.23 L -7.68 -27.07 L -8.11 -26.9 L -8.54 -26.72 L -8.96 -26.52 L -9.36 -26.31 L -9.76 -26.09 L -10.14 -25.85 L -10.51 -25.6 L -10.88 -25.34 L -11.23 -25.07 L -11.57 -24.78 L -11.9 -24.48 L -12.22 -24.17 L -12.53 -23.84 L -12.83 -23.5 L -13.12 -23.15 L -13.4 -22.79 L -13.67 -22.42 L -13.93 -22.03 L -14.18 -21.62 L -14.41 -21.21 L -14.64 -20.78 L -14.85 -20.34 L -15.06 -19.89 L -15.25 -19.43 L -15.44 -18.95 L -15.61 -18.46 L -15.78 -17.95 L -15.93 -17.44 L -16.07 -16.91 L -16.2 -16.37 L -16.33 -15.81 L -16.44 -15.25 L -16.54 -14.67 L -16.63 -14.07 L -16.71 -13.47 L -16.78 -12.85 L -16.83 -12.22 L -16.88 -11.58 L -16.92 -10.92 L -16.95 -10.25 L -16.96 -9.57 L -16.97 -8.87 L -16.96 -8.17 L -16.95 -7.45 L -16.92 -6.71 L -16.84 -5.21 L -16.72 -3.66 L -16.55 -2.05 L -16.55 349.9 L 57.45 349.9 L 57.45 -2.05 L 54.97 -3.66 L 52.53 -5.21 L 50.14 -6.71 L 47.79 -8.17 L 45.47 -9.57 L 43.21 -10.92 L 40.98 -12.22 L 38.79 -13.47 L 36.65 -14.67 L 34.55 -15.81 L 32.49 -16.91 L 30.47 -17.95 L 28.5 -18.95 L 26.57 -19.89 L 24.67 -20.78 L 22.83 -21.62 L 21.02 -22.42 L 19.25 -23.15 L 17.53 -23.84 L 15.85 -24.48 L 14.21 -25.07 L 12.61 -25.6 L 11.06 -26.09 L 9.54 -26.52 L 8.07 -26.9 L 7.35 -27.07 L 6.64 -27.23 L 5.94 -27.38 L 5.26 -27.51 L 4.58 -27.63 L 3.91 -27.74 L 3.25 -27.84 L 2.61 -27.92 L 1.97 -27.99 L 1.35 -28.05 L 0.73 -28.09 L 0.13 -28.12 L -0.47 -28.14 L -1.05 -28.15 Z"/>
    </clipPath>
    <clipPath id="clipPath1">
      <path d="M -1.5 -26.92 L -2.07 -26.92 L -2.63 -26.9 L -3.19 -26.87 L -3.73 -26.83 L -4.26 -26.77 L -4.78 -26.71 L -5.28 -26.63 L -5.78 -26.54 L -6.27 -26.43 L -6.75 -26.32 L -7.21 -26.19 L -7.67 -26.05 L -8.11 -25.9 L -8.54 -25.73 L -8.97 -25.56 L -9.38 -25.37 L -9.78 -25.17 L -10.17 -24.96 L -10.55 -24.73 L -10.92 -24.5 L -11.28 -24.25 L -11.63 -23.99 L -11.96 -23.71 L -12.29 -23.43 L -12.6 -23.13 L -12.91 -22.82 L -13.2 -22.5 L -13.49 -22.16 L -13.76 -21.82 L -14.02 -21.46 L -14.27 -21.09 L -14.51 -20.71 L -14.74 -20.31 L -14.96 -19.9 L -15.17 -19.49 L -15.37 -19.05 L -15.55 -18.61 L -15.73 -18.16 L -15.9 -17.69 L -16.05 -17.21 L -16.19 -16.72 L -16.33 -16.21 L -16.45 -15.7 L -16.56 -15.17 L -16.66 -14.63 L -16.75 -14.07 L -16.83 -13.51 L -16.9 -12.93 L -16.96 -12.34 L -17.01 -11.74 L -17.05 -11.13 L -17.07 -10.5 L -17.09 -9.87 L -17.09 -9.22 L -17.09 -8.55 L -17.07 -7.88 L -17.04 -7.19 L -17 -6.5 L -16.9 -5.06 L -16.74 -3.58 L -16.55 -2.05 L -16.55 349.9 L 57.45 349.9 L 57.45 -2.05 L 54.94 -3.58 L 52.48 -5.06 L 50.06 -6.5 L 47.68 -7.88 L 45.35 -9.22 L 43.05 -10.5 L 40.8 -11.74 L 38.6 -12.93 L 36.43 -14.07 L 34.31 -15.17 L 32.23 -16.21 L 30.2 -17.21 L 28.21 -18.16 L 26.26 -19.05 L 24.35 -19.9 L 22.49 -20.71 L 20.67 -21.46 L 18.89 -22.16 L 17.15 -22.82 L 15.46 -23.43 L 13.81 -23.99 L 12.21 -24.5 L 10.64 -24.96 L 9.12 -25.37 L 7.64 -25.73 L 6.21 -26.05 L 4.82 -26.32 L 4.14 -26.43 L 3.47 -26.54 L 2.81 -26.63 L 2.16 -26.71 L 1.52 -26.77 L 0.9 -26.83 L 0.28 -26.87 L -0.32 -26.9 L -0.92 -26.92 L -1.5 -26.92 Z"/>
    </clipPath>
    <use ffdec:characterId="518" height="333.4" transform="matrix(1.0, 0.0, 0.0, 1.0, -0.75, -0.75)" width="34.75" xlink:href="#shape0"/>
  </g>
  <defs>
    <g id="shape0" transform="matrix(1.0, 0.0, 0.0, 1.0, 17.35, 167.05)">
      <path d="M1.15 -138.3 Q1.15 -139.95 0.45 -141.95 -1.05 -146.45 -7.6 -146.3 L-14.65 -146.0 -16.6 -145.6 -16.6 -166.3 -12.3 -164.6 Q9.7 -147.55 4.85 -125.55 1.6 -108.5 0.55 -97.3 -0.3 -95.15 -0.75 -93.0 -4.35 -77.0 -2.25 -59.55 L-4.95 -54.2 -4.95 -48.8 -4.05 -47.0 -3.65 -46.95 Q-1.2 -45.3 1.0 -43.15 L0.95 -42.7 Q7.7 -31.35 8.7 -18.4 9.1 -13.45 8.4 -8.55 L7.65 -7.15 8.1 -3.55 9.4 -1.35 Q9.0 8.2 4.9 14.55 L1.5 17.8 1.2 18.45 -1.2 19.95 -2.4 21.15 -5.15 22.35 -4.8 22.4 -3.0 23.25 -1.85 23.4 2.1 25.05 2.4 25.7 2.65 25.7 2.7 26.45 3.05 26.9 4.95 53.3 11.3 60.05 10.75 60.9 9.4 61.35 Q8.8 62.6 7.65 63.25 3.95 65.5 0.9 69.0 1.05 70.05 2.25 70.65 7.0 72.95 10.75 76.15 L12.1 78.4 Q15.15 82.75 12.95 88.7 L12.95 91.8 14.75 94.05 Q15.05 98.9 13.8 102.55 11.8 108.35 12.95 115.55 L13.75 117.15 Q13.3 133.7 16.35 153.15 L12.1 155.4 9.85 159.0 9.85 159.45 Q9.9 163.4 11.3 166.3 5.9 166.75 -16.6 160.6 L-16.6 -136.25 Q-13.85 -138.45 -11.45 -141.05 L-9.4 -143.5 -8.45 -143.5 -6.5 -143.5 -6.25 -143.45 -3.65 -142.9 Q-2.55 -142.45 -1.8 -141.7 L-0.9 -140.2 -1.2 -136.25 -1.5 -135.95 -2.95 -134.95 -4.55 -134.45 -5.15 -134.45 Q-6.2 -134.75 -7.0 -135.4 L-7.25 -135.65 -7.85 -136.55 -7.85 -139.6 -6.95 -141.1 -5.15 -141.7 -7.55 -141.7 -7.6 -141.55 Q-9.5 -141.0 -10.7 -139.2 L-11.2 -138.35 -11.0 -137.15 Q-10.6 -134.85 -9.4 -132.95 L-7.85 -132.0 -4.25 -132.0 Q1.2 -133.55 1.15 -138.3" fill="#ffffff" fill-rule="evenodd" stroke="none"/>
      <path d="M1.15 -138.3 Q1.2 -133.55 -4.25 -132.0 L-7.85 -132.0 -9.4 -132.95 Q-10.6 -134.85 -11.0 -137.15 L-11.2 -138.35 -10.7 -139.2 Q-9.5 -141.0 -7.6 -141.55 L-7.55 -141.7 -5.15 -141.7 -6.95 -141.1 -7.85 -139.6 -7.85 -136.55 -7.25 -135.65 -7.0 -135.4 Q-6.2 -134.75 -5.15 -134.45 L-4.55 -134.45 -2.95 -134.95 -1.5 -135.95 -1.2 -136.25 -0.9 -140.2 -1.8 -141.7 Q-2.55 -142.45 -3.65 -142.9 L-6.25 -143.45 -6.5 -143.5 -8.45 -143.5 -9.4 -143.5 -11.45 -141.05 Q-13.85 -138.45 -16.6 -136.25 L-16.6 -145.6 -14.65 -146.0 -7.6 -146.3 Q-1.05 -146.45 0.45 -141.95 1.15 -139.95 1.15 -138.3" fill="#def2fe" fill-rule="evenodd" stroke="none"/>
      <path d="M1.55 -66.75 Q2.6 -60.3 2.05 -54.15 L1.0 -43.15 Q-1.2 -45.3 -3.65 -46.95 L-4.05 -47.0 -4.95 -48.8 -4.95 -54.2 -2.25 -59.55 Q-4.35 -77.0 -0.75 -93.0 -0.3 -95.15 0.55 -97.3 -0.2 -90.1 0.0 -85.35 0.45 -73.2 1.55 -66.75 M8.1 -3.55 L7.65 -7.15 8.4 -8.55 8.05 -6.45 Q10.85 -2.45 10.0 2.55 9.35 6.5 8.35 10.35 6.9 15.85 4.85 21.05 L4.1 22.75 3.25 24.55 2.9 25.2 3.05 26.9 2.7 26.45 2.65 25.7 2.4 25.7 2.1 25.05 -1.85 23.4 -3.0 23.25 -4.8 22.4 -5.15 22.35 -2.4 21.15 -1.2 19.95 1.2 18.45 1.5 17.8 4.9 14.55 Q9.0 8.2 9.4 -1.35 L8.1 -3.55 M11.65 60.4 Q12.7 74.3 16.65 87.2 15.3 91.35 15.95 95.5 14.0 105.6 13.75 117.15 L12.95 115.55 Q11.8 108.35 13.8 102.55 15.05 98.9 14.75 94.05 L12.95 91.8 12.95 88.7 Q15.15 82.75 12.1 78.4 L10.75 76.15 Q7.0 72.95 2.25 70.65 1.05 70.05 0.9 69.0 3.95 65.5 7.65 63.25 8.8 62.6 9.4 61.35 L10.75 60.9 11.3 60.05 11.65 60.4 M16.35 153.15 L16.5 154.3 16.6 154.35 16.2 155.25 Q14.25 159.95 12.9 164.9 13.45 166.1 11.3 166.3 9.9 163.4 9.85 159.45 L9.85 159.0 12.1 155.4 16.35 153.15" fill="#caeafe" fill-rule="evenodd" stroke="none"/>
      <path d="M-16.6 -166.3 L-12.3 -164.6 Q9.7 -147.55 4.85 -125.55 -0.45 -97.5 0.0 -85.35 0.45 -73.2 1.55 -66.75 2.6 -60.3 2.05 -54.15 L0.95 -42.7 Q7.7 -31.35 8.7 -18.4 9.2 -12.4 8.05 -6.45 10.85 -2.45 10.0 2.55 8.25 13.1 4.1 22.75 L2.9 25.2 4.95 53.3 11.65 60.4 Q12.7 74.3 16.65 87.2 15.3 91.35 15.95 95.5 11.15 120.55 16.5 154.3 L16.6 154.35 16.2 155.25 Q14.25 159.95 12.9 164.9" fill="none" stroke="#000000" stroke-linecap="round" stroke-linejoin="round" stroke-width="1.5"/>
    </g>
  </defs>
</svg>
