<?xml version="1.0" encoding="UTF-8" standalone="no"?>
<svg xmlns:ffdec="https://www.free-decompiler.com/flash" xmlns:xlink="http://www.w3.org/1999/xlink" ffdec:objectType="frame" height="36.3px" width="36.3px" xmlns="http://www.w3.org/2000/svg">
  <g transform="matrix(1.0, 0.0, 0.0, 1.0, 3.1, 3.15)">
    <use ffdec:characterId="386" height="36.3" transform="matrix(1.0, 0.0, 0.0, 1.0, -3.1, -3.15)" width="36.3" xlink:href="#shape0"/>
    <use ffdec:characterId="387" height="26.1" transform="matrix(1.0, 0.0, 0.0, 1.0, 1.8, 1.9)" width="26.15" xlink:href="#shape1"/>
    <use ffdec:characterId="292" height="26.2" transform="matrix(1.0, 0.0, 0.0, 1.0, 1.8, 1.9)" width="26.25" xlink:href="#sprite0"/>
    <use ffdec:characterId="388" height="12.0" transform="matrix(2.5, 0.0, 0.0, 2.5, 0.6748, -2.0E-4)" width="11.95" xlink:href="#button0"/>
  </g>
  <defs>
    <g id="shape0" transform="matrix(1.0, 0.0, 0.0, 1.0, 3.1, 3.15)">
      <path d="M33.2 15.0 Q33.15 22.5 27.8 27.8 22.5 33.15 15.05 33.15 7.5 33.15 2.15 27.8 -3.15 22.5 -3.1 15.0 -3.15 7.45 2.15 2.1 7.5 -3.2 15.05 -3.15 22.5 -3.2 27.8 2.1 33.15 7.45 33.2 15.0" fill="#000000" fill-opacity="0.03137255" fill-rule="evenodd" stroke="none"/>
      <path d="M32.4 15.05 Q32.35 22.2 27.25 27.25 22.2 32.35 15.05 32.4 7.85 32.35 2.75 27.25 -2.3 22.2 -2.3 15.05 -2.3 7.85 2.75 2.75 7.85 -2.3 15.05 -2.3 22.2 -2.3 27.25 2.75 32.35 7.85 32.4 15.05" fill="#000000" fill-opacity="0.0627451" fill-rule="evenodd" stroke="none"/>
      <path d="M31.1 15.05 Q31.05 21.65 26.35 26.35 21.65 31.05 15.05 31.1 8.4 31.05 3.7 26.35 -1.0 21.65 -1.0 15.05 -1.0 8.4 3.7 3.65 8.4 -1.05 15.05 -1.0 21.65 -1.05 26.35 3.65 31.05 8.4 31.1 15.05" fill="#000000" fill-opacity="0.15294118" fill-rule="evenodd" stroke="none"/>
      <path d="M27.0 9.8 Q28.05 12.2 28.05 15.05 28.05 20.45 24.2 24.3 20.4 28.1 15.0 28.1 9.55 28.1 5.75 24.3 1.9 20.45 1.95 15.05 1.9 12.2 3.0 9.8 3.9 7.6 5.75 5.8 9.55 1.95 15.0 2.0 20.4 1.95 24.2 5.8 26.05 7.6 27.0 9.8" fill="url(#gradient0)" fill-rule="evenodd" stroke="none"/>
      <path d="M29.1 9.8 Q30.0 12.2 30.0 15.0 30.0 21.2 25.55 25.6 21.2 30.0 15.0 30.0 8.75 30.0 4.35 25.6 -0.05 21.2 0.0 15.0 -0.05 12.2 0.85 9.8 1.9 6.8 4.35 4.35 8.75 -0.05 15.0 0.0 21.2 -0.05 25.55 4.35 28.0 6.8 29.1 9.8 M27.0 9.8 Q26.05 7.6 24.2 5.8 20.4 1.95 15.0 2.0 9.55 1.95 5.75 5.8 3.9 7.6 3.0 9.8 1.9 12.2 1.95 15.05 1.9 20.45 5.75 24.3 9.55 28.1 15.0 28.1 20.4 28.1 24.2 24.3 28.05 20.45 28.05 15.05 28.05 12.2 27.0 9.8" fill="#000000" fill-rule="evenodd" stroke="none"/>
      <path d="M22.0 8.35 L21.5 10.25 23.5 9.1 24.45 10.7 22.45 11.9 24.35 12.4 23.9 14.1 20.3 13.15 16.9 15.1 20.3 17.05 23.9 16.05 24.35 17.75 22.45 18.3 24.45 19.45 23.5 21.1 21.5 19.9 22.0 21.85 20.3 22.3 19.35 18.65 15.95 16.75 15.95 20.6 18.6 23.25 17.35 24.5 15.95 23.1 15.95 25.45 14.05 25.45 14.05 23.15 12.65 24.5 11.4 23.25 14.05 20.6 14.05 16.75 10.7 18.65 9.7 22.3 8.0 21.85 8.5 19.9 6.5 21.1 5.55 19.45 7.55 18.3 5.65 17.75 6.15 16.05 9.75 17.05 13.1 15.1 9.75 13.15 6.15 14.1 5.65 12.4 7.55 11.9 5.55 10.7 6.5 9.1 8.5 10.25 8.0 8.35 9.7 7.9 10.7 11.5 14.05 13.45 14.05 9.55 11.4 6.9 12.65 5.65 14.05 7.05 14.05 4.7 15.95 4.7 15.95 7.05 17.35 5.65 18.6 6.9 15.95 9.55 15.95 13.45 19.35 11.5 20.3 7.9 22.0 8.35 Z" fill="none" stroke="#ffffff" stroke-linecap="round" stroke-linejoin="round" stroke-opacity="0.2509804" stroke-width="2.0"/>
      <path d="M21.5 10.25 L23.5 9.1 24.45 10.7 22.45 11.9 24.35 12.4 23.9 14.1 20.3 13.15 16.9 15.1 20.3 17.05 23.9 16.05 24.35 17.75 22.45 18.3 24.45 19.45 23.5 21.1 21.5 19.9 22.0 21.85 20.3 22.3 19.35 18.65 15.95 16.75 15.95 20.6 18.6 23.25 17.35 24.5 15.95 23.1 15.95 25.45 14.05 25.45 14.05 23.15 12.65 24.5 11.4 23.25 14.05 20.6 14.05 16.75 10.7 18.65 9.7 22.3 8.0 21.85 8.5 19.9 6.5 21.1 5.55 19.45 7.55 18.3 5.65 17.75 6.15 16.05 9.75 17.05 13.1 15.1 9.75 13.15 6.15 14.1 5.65 12.4 7.55 11.9 5.55 10.7 6.5 9.1 8.5 10.25 8.0 8.35 9.7 7.9 10.7 11.5 14.05 13.45 14.05 9.55 11.4 6.9 12.65 5.65 14.05 7.05 14.05 4.7 15.95 4.7 15.95 7.05 17.35 5.65 18.6 6.9 15.95 9.55 15.95 13.45 19.35 11.5 20.3 7.9 22.0 8.35 21.5 10.25" fill="#ffffff" fill-rule="evenodd" stroke="none"/>
    </g>
    <linearGradient gradientTransform="matrix(0.011, 0.0115, -0.0115, 0.011, 15.0, 15.05)" gradientUnits="userSpaceOnUse" id="gradient0" spreadMethod="pad" x1="-819.2" x2="819.2">
      <stop offset="0.0" stop-color="#70dc03"/>
      <stop offset="1.0" stop-color="#427102"/>
    </linearGradient>
    <g id="shape1" transform="matrix(1.0, 0.0, 0.0, 1.0, -1.8, -1.9)">
      <path d="M24.85 6.5 Q21.25 3.4 16.4 3.4 11.0 3.4 7.15 7.2 3.35 11.05 3.35 16.5 3.35 21.35 6.4 24.9 L5.6 24.15 Q1.8 20.35 1.8 14.95 1.8 9.5 5.6 5.7 9.45 1.85 14.85 1.9 20.25 1.85 24.1 5.7 L24.85 6.5" fill="#ffffff" fill-opacity="0.5019608" fill-rule="evenodd" stroke="none"/>
      <path d="M26.4 13.4 Q26.35 8.55 23.3 4.95 L24.15 5.7 Q27.95 9.5 27.95 14.95 27.95 20.35 24.15 24.2 20.25 28.0 14.85 28.0 9.45 28.0 5.65 24.2 L4.9 23.4 Q8.45 26.45 13.35 26.45 18.75 26.45 22.6 22.65 26.4 18.8 26.4 13.4" fill="#003366" fill-opacity="0.2" fill-rule="evenodd" stroke="none"/>
    </g>
    <g id="sprite0" transform="matrix(1.0, 0.0, 0.0, 1.0, 0.0, 0.0)">
      <use ffdec:characterId="289" height="26.2" transform="matrix(1.0, 0.0, 0.0, 1.0, 0.0, 0.0)" width="26.25" xlink:href="#morphshape0"/>
    </g>
    <g id="morphshape0" transform="matrix(1.0, 0.0, 0.0, 1.0, 0.0, 0.0)">
      <path d="M0.0 13.05 Q0.0 17.1 2.2 20.3 L3.3 21.65 3.1 21.5 3.8 22.25 3.85 22.3 3.95 22.4 4.4 22.85 4.6 23.0 5.55 23.75 5.85 23.95 7.45 24.9 Q10.05 26.2 13.2 26.2 18.6 26.2 22.4 22.4 26.25 18.55 26.25 13.15 26.25 10.4 25.25 8.05 L22.7 4.3 23.05 4.6 22.45 3.95 22.4 3.9 22.35 3.8 21.75 3.3 21.5 3.05 19.4 1.6 Q16.55 -0.05 13.05 0.0 7.65 -0.05 3.8 3.8 0.0 7.6 0.0 13.05" fill="#ffffff" fill-opacity="0.03137255" fill-rule="evenodd" stroke="none"/>
      <path d="M0.0 13.05 Q0.0 7.6 3.8 3.8 7.65 -0.05 13.05 0.0 16.55 -0.05 19.4 1.6 L21.5 3.05 21.75 3.3 22.35 3.8 22.4 3.9 22.45 3.95 23.05 4.6 22.7 4.3 25.25 8.05 Q26.25 10.4 26.25 13.15 26.25 18.55 22.4 22.4 18.6 26.2 13.2 26.2 10.05 26.2 7.45 24.9 L5.85 23.95 5.55 23.75 4.6 23.0 4.4 22.85 3.95 22.4 3.85 22.3 3.8 22.25 3.1 21.5 3.3 21.65 2.2 20.3 Q0.0 17.1 0.0 13.05 Z" ffdec:has-small-stroke="true" ffdec:original-stroke-width="0.0" fill="none" stroke="#000000" stroke-linecap="round" stroke-linejoin="round" stroke-opacity="0.0" stroke-width="1.0"/>
    </g>
  </defs>
</svg>
