<?xml version="1.0" encoding="UTF-8" standalone="no"?>
<svg xmlns:ffdec="https://www.free-decompiler.com/flash" xmlns:xlink="http://www.w3.org/1999/xlink" ffdec:objectType="frame" height="36.3px" width="36.3px" xmlns="http://www.w3.org/2000/svg">
  <g transform="matrix(1.0, 0.0, 0.0, 1.0, 3.1, 3.15)">
    <use ffdec:characterId="398" height="30.0" transform="matrix(1.0, 0.0, 0.0, 1.0, 0.0, 0.0)" width="30.0" xlink:href="#shape0"/>
    <use ffdec:characterId="387" height="26.1" transform="matrix(1.0, 0.0, 0.0, 1.0, 1.8, 1.9)" width="26.15" xlink:href="#shape1"/>
  </g>
  <defs>
    <g id="shape0" transform="matrix(1.0, 0.0, 0.0, 1.0, 0.0, 0.0)">
      <path d="M24.2 24.3 Q20.4 28.1 15.0 28.1 9.55 28.1 5.75 24.3 1.9 20.45 1.95 15.05 1.9 9.6 5.75 5.8 9.55 1.95 15.0 2.0 20.4 1.95 24.2 5.8 28.05 9.6 28.05 15.05 28.05 20.45 24.2 24.3" fill="#ffffff" fill-opacity="0.5019608" fill-rule="evenodd" stroke="none"/>
      <path d="M30.0 15.0 Q30.0 21.2 25.55 25.6 21.2 30.0 15.0 30.0 8.75 30.0 4.35 25.6 -0.05 21.2 0.0 15.0 -0.05 8.75 4.35 4.35 8.75 -0.05 15.0 0.0 21.2 -0.05 25.55 4.35 30.0 8.75 30.0 15.0 M24.2 24.3 Q28.05 20.45 28.05 15.05 28.05 9.6 24.2 5.8 20.4 1.95 15.0 2.0 9.55 1.95 5.75 5.8 1.9 9.6 1.95 15.05 1.9 20.45 5.75 24.3 9.55 28.1 15.0 28.1 20.4 28.1 24.2 24.3" fill="#003366" fill-opacity="0.2" fill-rule="evenodd" stroke="none"/>
    </g>
    <g id="shape1" transform="matrix(1.0, 0.0, 0.0, 1.0, -1.8, -1.9)">
      <path d="M24.85 6.5 Q21.25 3.4 16.4 3.4 11.0 3.4 7.15 7.2 3.35 11.05 3.35 16.5 3.35 21.35 6.4 24.9 L5.6 24.15 Q1.8 20.35 1.8 14.95 1.8 9.5 5.6 5.7 9.45 1.85 14.85 1.9 20.25 1.85 24.1 5.7 L24.85 6.5" fill="#ffffff" fill-opacity="0.5019608" fill-rule="evenodd" stroke="none"/>
      <path d="M26.4 13.4 Q26.35 8.55 23.3 4.95 L24.15 5.7 Q27.95 9.5 27.95 14.95 27.95 20.35 24.15 24.2 20.25 28.0 14.85 28.0 9.45 28.0 5.65 24.2 L4.9 23.4 Q8.45 26.45 13.35 26.45 18.75 26.45 22.6 22.65 26.4 18.8 26.4 13.4" fill="#003366" fill-opacity="0.2" fill-rule="evenodd" stroke="none"/>
    </g>
  </defs>
</svg>
