<?xml version="1.0" encoding="UTF-8" standalone="no"?>
<svg xmlns:ffdec="https://www.free-decompiler.com/flash" xmlns:xlink="http://www.w3.org/1999/xlink" ffdec:objectType="frame" height="36.3px" width="36.3px" xmlns="http://www.w3.org/2000/svg">
  <g transform="matrix(1.0, 0.0, 0.0, 1.0, 3.1, 3.15)">
    <use ffdec:characterId="406" height="36.3" transform="matrix(1.0, 0.0, 0.0, 1.0, -3.1, -3.15)" width="36.3" xlink:href="#shape0"/>
    <clipPath id="clipPath0">
      <path d="M 15.05 1.95 L 14.38 1.97 L 13.71 2.01 L 13.06 2.09 L 12.43 2.19 L 11.8 2.33 L 11.19 2.49 L 10.6 2.69 L 10.01 2.91 L 9.44 3.17 L 8.88 3.45 L 8.34 3.77 L 7.8 4.12 L 7.28 4.49 L 6.78 4.9 L 6.28 5.33 L 5.8 5.8 L 5.33 6.28 L 4.9 6.78 L 4.49 7.28 L 4.12 7.8 L 3.77 8.34 L 3.45 8.88 L 3.17 9.44 L 2.91 10.01 L 2.69 10.6 L 2.49 11.19 L 2.33 11.8 L 2.19 12.43 L 2.09 13.06 L 2.01 13.71 L 1.97 14.38 L 1.95 15.05 L 1.97 15.72 L 2.01 16.38 L 2.09 17.02 L 2.19 17.65 L 2.33 18.27 L 2.49 18.88 L 2.69 19.48 L 2.91 20.06 L 3.17 20.63 L 3.45 21.19 L 3.77 21.74 L 4.12 22.28 L 4.49 22.8 L 4.9 23.31 L 5.33 23.81 L 5.8 24.3 L 6.28 24.76 L 6.78 25.19 L 7.28 25.59 L 7.8 25.96 L 8.34 26.3 L 8.88 26.62 L 9.44 26.9 L 10.01 27.15 L 10.6 27.37 L 11.19 27.57 L 11.8 27.73 L 12.43 27.86 L 13.06 27.97 L 13.71 28.04 L 14.38 28.09 L 15.05 28.1 L 15.72 28.09 L 16.38 28.04 L 17.02 27.97 L 17.65 27.86 L 18.27 27.73 L 18.88 27.57 L 19.47 27.37 L 20.05 27.15 L 20.62 26.9 L 21.17 26.62 L 21.72 26.3 L 22.25 25.96 L 22.77 25.59 L 23.27 25.19 L 23.77 24.76 L 24.25 24.3 L 24.72 23.81 L 25.15 23.31 L 25.56 22.8 L 25.93 22.28 L 26.28 21.74 L 26.6 21.19 L 26.88 20.63 L 27.14 20.06 L 27.36 19.48 L 27.56 18.88 L 27.72 18.27 L 27.86 17.65 L 27.96 17.02 L 28.04 16.38 L 28.08 15.72 L 28.1 15.05 L 28.08 14.38 L 28.04 13.71 L 27.96 13.06 L 27.86 12.43 L 27.72 11.8 L 27.56 11.19 L 27.36 10.6 L 27.14 10.01 L 26.88 9.44 L 26.6 8.88 L 26.28 8.34 L 25.93 7.8 L 25.56 7.28 L 25.15 6.78 L 24.72 6.28 L 24.25 5.8 L 23.77 5.33 L 23.27 4.9 L 22.77 4.49 L 22.25 4.12 L 21.72 3.77 L 21.17 3.45 L 20.62 3.17 L 20.05 2.91 L 19.47 2.69 L 18.88 2.49 L 18.27 2.33 L 17.65 2.19 L 17.02 2.09 L 16.38 2.01 L 15.72 1.97 L 15.05 1.95 Z"/>
    </clipPath>
    <g clip-path="url(#clipPath0)">
      <use ffdec:characterId="408" height="20.7" transform="matrix(1.0, 0.0, 0.0, 1.0, 6.75, 6.15)" width="19.25" xlink:href="#shape1"/>
    </g>
    <use ffdec:characterId="387" height="26.1" transform="matrix(1.0, 0.0, 0.0, 1.0, 1.8, 1.9)" width="26.15" xlink:href="#shape2"/>
    <use ffdec:characterId="292" height="26.2" transform="matrix(1.0, 0.0, 0.0, 1.0, 1.8, 1.9)" width="26.25" xlink:href="#sprite0"/>
    <use ffdec:characterId="409" height="12.0" transform="matrix(2.5, 0.0, 0.0, 2.5, 0.6748, -2.0E-4)" width="11.95" xlink:href="#button0"/>
  </g>
  <defs>
    <g id="shape0" transform="matrix(1.0, 0.0, 0.0, 1.0, 3.1, 3.15)">
      <path d="M27.8 27.8 Q22.5 33.15 15.05 33.15 7.5 33.15 2.15 27.8 -3.15 22.5 -3.1 15.0 -3.15 7.45 2.15 2.1 7.5 -3.2 15.05 -3.15 22.5 -3.2 27.8 2.1 33.15 7.45 33.2 15.0 33.15 22.5 27.8 27.8" fill="#000000" fill-opacity="0.03137255" fill-rule="evenodd" stroke="none"/>
      <path d="M27.25 27.25 Q22.2 32.35 15.05 32.4 7.85 32.35 2.75 27.25 -2.3 22.2 -2.3 15.05 -2.3 7.85 2.75 2.75 7.85 -2.3 15.05 -2.3 22.2 -2.3 27.25 2.75 32.35 7.85 32.4 15.05 32.35 22.2 27.25 27.25" fill="#000000" fill-opacity="0.0627451" fill-rule="evenodd" stroke="none"/>
      <path d="M15.05 31.1 Q8.4 31.05 3.7 26.35 -1.0 21.65 -1.0 15.05 -1.0 8.4 3.7 3.65 8.4 -1.05 15.05 -1.0 21.65 -1.05 26.35 3.65 31.05 8.4 31.1 15.05 31.05 21.65 26.35 26.35 21.65 31.05 15.05 31.1" fill="#000000" fill-opacity="0.15294118" fill-rule="evenodd" stroke="none"/>
      <path d="M30.0 15.0 Q30.0 21.2 25.55 25.6 21.2 30.0 15.0 30.0 8.75 30.0 4.35 25.6 -0.05 21.2 0.0 15.0 -0.05 8.75 4.35 4.35 8.75 -0.05 15.0 0.0 21.2 -0.05 25.55 4.35 30.0 8.75 30.0 15.0" fill="#000000" fill-rule="evenodd" stroke="none"/>
      <path d="M28.05 15.05 Q28.05 20.45 24.2 24.3 20.4 28.1 15.0 28.1 9.55 28.1 5.75 24.3 1.9 20.45 1.95 15.05 1.9 9.6 5.75 5.8 9.55 1.95 15.0 2.0 20.4 1.95 24.2 5.8 28.05 9.6 28.05 15.05" fill="url(#gradient0)" fill-rule="evenodd" stroke="none"/>
    </g>
    <linearGradient gradientTransform="matrix(0.011, 0.0115, -0.0115, 0.011, 15.0, 15.05)" gradientUnits="userSpaceOnUse" id="gradient0" spreadMethod="pad" x1="-819.2" x2="819.2">
      <stop offset="0.0" stop-color="#feb792"/>
      <stop offset="1.0" stop-color="#eb5301"/>
    </linearGradient>
    <g id="shape1" transform="matrix(1.0, 0.0, 0.0, 1.0, -6.75, -6.15)">
      <path d="M7.7 13.0 L14.5 8.5 24.95 25.7 24.75 26.7 7.7 13.0" fill="url(#gradient1)" fill-rule="evenodd" stroke="none"/>
      <path d="M10.9 14.45 Q9.2 14.45 7.95 13.2 6.75 12.0 6.75 10.3 6.75 8.6 7.95 7.35 9.2 6.15 10.9 6.15 12.6 6.15 13.8 7.35 15.05 8.6 15.05 10.3 15.05 12.0 13.8 13.2 12.6 14.45 10.9 14.45" fill="#ffffff" fill-rule="evenodd" stroke="none"/>
      <path d="M23.1 18.75 L23.4 13.7 26.0 23.45 21.1 26.85 11.55 24.1 17.55 23.45 9.25 18.1 17.9 21.2 15.9 15.8 21.35 19.65 19.15 12.05 23.1 18.75" fill="#ffffff" fill-rule="evenodd" stroke="none"/>
    </g>
    <linearGradient gradientTransform="matrix(0.0078, 0.0095, -0.0086, 0.007, 14.5, 15.75)" gradientUnits="userSpaceOnUse" id="gradient1" spreadMethod="pad" x1="-819.2" x2="819.2">
      <stop offset="0.0" stop-color="#ffffff"/>
      <stop offset="1.0" stop-color="#ffffff" stop-opacity="0.0"/>
    </linearGradient>
    <g id="shape2" transform="matrix(1.0, 0.0, 0.0, 1.0, -1.8, -1.9)">
      <path d="M24.85 6.5 Q21.25 3.4 16.4 3.4 11.0 3.4 7.15 7.2 3.35 11.05 3.35 16.5 3.35 21.35 6.4 24.9 L5.6 24.15 Q1.8 20.35 1.8 14.95 1.8 9.5 5.6 5.7 9.45 1.85 14.85 1.9 20.25 1.85 24.1 5.7 L24.85 6.5" fill="#ffffff" fill-opacity="0.5019608" fill-rule="evenodd" stroke="none"/>
      <path d="M26.4 13.4 Q26.35 8.55 23.3 4.95 L24.15 5.7 Q27.95 9.5 27.95 14.95 27.95 20.35 24.15 24.2 20.25 28.0 14.85 28.0 9.45 28.0 5.65 24.2 L4.9 23.4 Q8.45 26.45 13.35 26.45 18.75 26.45 22.6 22.65 26.4 18.8 26.4 13.4" fill="#003366" fill-opacity="0.2" fill-rule="evenodd" stroke="none"/>
    </g>
    <g id="sprite0" transform="matrix(1.0, 0.0, 0.0, 1.0, 0.0, 0.0)">
      <use ffdec:characterId="289" height="26.2" transform="matrix(1.0, 0.0, 0.0, 1.0, 0.0, 0.0)" width="26.25" xlink:href="#morphshape0"/>
    </g>
    <g id="morphshape0" transform="matrix(1.0, 0.0, 0.0, 1.0, 0.0, 0.0)">
      <path d="M0.0 13.05 Q0.0 17.1 2.2 20.3 L3.3 21.65 3.1 21.5 3.8 22.25 3.85 22.3 3.95 22.4 4.4 22.85 4.6 23.0 5.55 23.75 5.85 23.95 7.45 24.9 Q10.05 26.2 13.2 26.2 18.6 26.2 22.4 22.4 26.25 18.55 26.25 13.15 26.25 10.4 25.25 8.05 L22.7 4.3 23.05 4.6 22.45 3.95 22.4 3.9 22.35 3.8 21.75 3.3 21.5 3.05 19.4 1.6 Q16.55 -0.05 13.05 0.0 7.65 -0.05 3.8 3.8 0.0 7.6 0.0 13.05" fill="#ffffff" fill-opacity="0.03137255" fill-rule="evenodd" stroke="none"/>
      <path d="M0.0 13.05 Q0.0 7.6 3.8 3.8 7.65 -0.05 13.05 0.0 16.55 -0.05 19.4 1.6 L21.5 3.05 21.75 3.3 22.35 3.8 22.4 3.9 22.45 3.95 23.05 4.6 22.7 4.3 25.25 8.05 Q26.25 10.4 26.25 13.15 26.25 18.55 22.4 22.4 18.6 26.2 13.2 26.2 10.05 26.2 7.45 24.9 L5.85 23.95 5.55 23.75 4.6 23.0 4.4 22.85 3.95 22.4 3.85 22.3 3.8 22.25 3.1 21.5 3.3 21.65 2.2 20.3 Q0.0 17.1 0.0 13.05 Z" ffdec:has-small-stroke="true" ffdec:original-stroke-width="0.0" fill="none" stroke="#000000" stroke-linecap="round" stroke-linejoin="round" stroke-opacity="0.0" stroke-width="1.0"/>
    </g>
  </defs>
</svg>
