<?xml version="1.0" encoding="UTF-8" standalone="no"?>
<svg xmlns:ffdec="https://www.free-decompiler.com/flash" xmlns:xlink="http://www.w3.org/1999/xlink" ffdec:objectType="frame" height="36.3px" width="36.3px" xmlns="http://www.w3.org/2000/svg">
  <g transform="matrix(1.0, 0.0, 0.0, 1.0, 3.1, 3.15)">
    <use ffdec:characterId="398" height="30.0" transform="matrix(1.0, 0.0, 0.0, 1.0, 0.0, 0.0)" width="30.0" xlink:href="#shape0"/>
    <clipPath id="clipPath0">
      <path d="M 15.05 1.95 L 14.38 1.97 L 13.71 2.01 L 13.06 2.09 L 12.43 2.19 L 11.8 2.33 L 11.19 2.49 L 10.6 2.69 L 10.01 2.91 L 9.44 3.17 L 8.88 3.45 L 8.34 3.77 L 7.8 4.12 L 7.28 4.49 L 6.78 4.9 L 6.28 5.33 L 5.8 5.8 L 5.33 6.28 L 4.9 6.78 L 4.49 7.28 L 4.12 7.8 L 3.77 8.34 L 3.45 8.88 L 3.17 9.44 L 2.91 10.01 L 2.69 10.6 L 2.49 11.19 L 2.33 11.8 L 2.19 12.43 L 2.09 13.06 L 2.01 13.71 L 1.97 14.38 L 1.95 15.05 L 1.97 15.72 L 2.01 16.38 L 2.09 17.02 L 2.19 17.65 L 2.33 18.27 L 2.49 18.88 L 2.69 19.48 L 2.91 20.06 L 3.17 20.63 L 3.45 21.19 L 3.77 21.74 L 4.12 22.28 L 4.49 22.8 L 4.9 23.31 L 5.33 23.81 L 5.8 24.3 L 6.28 24.76 L 6.78 25.19 L 7.28 25.59 L 7.8 25.96 L 8.34 26.3 L 8.88 26.62 L 9.44 26.9 L 10.01 27.15 L 10.6 27.37 L 11.19 27.57 L 11.8 27.73 L 12.43 27.86 L 13.06 27.97 L 13.71 28.04 L 14.38 28.09 L 15.05 28.1 L 15.72 28.09 L 16.38 28.04 L 17.02 27.97 L 17.65 27.86 L 18.27 27.73 L 18.88 27.57 L 19.47 27.37 L 20.05 27.15 L 20.62 26.9 L 21.17 26.62 L 21.72 26.3 L 22.25 25.96 L 22.77 25.59 L 23.27 25.19 L 23.77 24.76 L 24.25 24.3 L 24.72 23.81 L 25.15 23.31 L 25.56 22.8 L 25.93 22.28 L 26.28 21.74 L 26.6 21.19 L 26.88 20.63 L 27.14 20.06 L 27.36 19.48 L 27.56 18.88 L 27.72 18.27 L 27.86 17.65 L 27.96 17.02 L 28.04 16.38 L 28.08 15.72 L 28.1 15.05 L 28.08 14.38 L 28.04 13.71 L 27.96 13.06 L 27.86 12.43 L 27.72 11.8 L 27.56 11.19 L 27.36 10.6 L 27.14 10.01 L 26.88 9.44 L 26.6 8.88 L 26.28 8.34 L 25.93 7.8 L 25.56 7.28 L 25.15 6.78 L 24.72 6.28 L 24.25 5.8 L 23.77 5.33 L 23.27 4.9 L 22.77 4.49 L 22.25 4.12 L 21.72 3.77 L 21.17 3.45 L 20.62 3.17 L 20.05 2.91 L 19.47 2.69 L 18.88 2.49 L 18.27 2.33 L 17.65 2.19 L 17.02 2.09 L 16.38 2.01 L 15.72 1.97 L 15.05 1.95 Z"/>
    </clipPath>
    <use ffdec:characterId="387" height="26.1" transform="matrix(1.0, 0.0, 0.0, 1.0, 1.8, 1.9)" width="26.15" xlink:href="#shape1"/>
  </g>
  <defs>
    <g id="shape0" transform="matrix(1.0, 0.0, 0.0, 1.0, 0.0, 0.0)">
      <path d="M24.2 24.3 Q20.4 28.1 15.0 28.1 9.55 28.1 5.75 24.3 1.9 20.45 1.95 15.05 1.9 9.6 5.75 5.8 9.55 1.95 15.0 2.0 20.4 1.95 24.2 5.8 28.05 9.6 28.05 15.05 28.05 20.45 24.2 24.3" fill="#ffffff" fill-opacity="0.5019608" fill-rule="evenodd" stroke="none"/>
      <path d="M30.0 15.0 Q30.0 21.2 25.55 25.6 21.2 30.0 15.0 30.0 8.75 30.0 4.35 25.6 -0.05 21.2 0.0 15.0 -0.05 8.75 4.35 4.35 8.75 -0.05 15.0 0.0 21.2 -0.05 25.55 4.35 30.0 8.75 30.0 15.0 M24.2 24.3 Q28.05 20.45 28.05 15.05 28.05 9.6 24.2 5.8 20.4 1.95 15.0 2.0 9.55 1.95 5.75 5.8 1.9 9.6 1.95 15.05 1.9 20.45 5.75 24.3 9.55 28.1 15.0 28.1 20.4 28.1 24.2 24.3" fill="#003366" fill-opacity="0.2" fill-rule="evenodd" stroke="none"/>
    </g>
    <g id="shape1" transform="matrix(1.0, 0.0, 0.0, 1.0, -1.8, -1.9)">
      <path d="M24.85 6.5 Q21.25 3.4 16.4 3.4 11.0 3.4 7.15 7.2 3.35 11.05 3.35 16.5 3.35 21.35 6.4 24.9 L5.6 24.15 Q1.8 20.35 1.8 14.95 1.8 9.5 5.6 5.7 9.45 1.85 14.85 1.9 20.25 1.85 24.1 5.7 L24.85 6.5" fill="#ffffff" fill-opacity="0.5019608" fill-rule="evenodd" stroke="none"/>
      <path d="M26.4 13.4 Q26.35 8.55 23.3 4.95 L24.15 5.7 Q27.95 9.5 27.95 14.95 27.95 20.35 24.15 24.2 20.25 28.0 14.85 28.0 9.45 28.0 5.65 24.2 L4.9 23.4 Q8.45 26.45 13.35 26.45 18.75 26.45 22.6 22.65 26.4 18.8 26.4 13.4" fill="#003366" fill-opacity="0.2" fill-rule="evenodd" stroke="none"/>
    </g>
  </defs>
</svg>
