<?xml version="1.0" encoding="UTF-8" standalone="no"?>
<svg xmlns:ffdec="https://www.free-decompiler.com/flash" xmlns:xlink="http://www.w3.org/1999/xlink" ffdec:objectType="frame" height="471.45px" width="619.8px" xmlns="http://www.w3.org/2000/svg">
  <g transform="matrix(1.0, 0.0, 0.0, 1.0, 8.85, 52.45)">
    <use ffdec:characterId="571" height="58.5" transform="matrix(1.0, 0.0, 0.0, 1.0, -8.85, 360.45)" width="611.45" xlink:href="#shape0"/>
    <use ffdec:characterId="574" height="46.15" transform="matrix(1.0, 0.0, 0.0, 1.0, 239.05, 372.85)" width="116.75" xlink:href="#shape1"/>
    <use ffdec:characterId="575" height="66.75" transform="matrix(1.0, 0.0, 0.0, 1.0, -8.0, -52.45)" width="618.95" xlink:href="#shape2"/>
  </g>
  <defs>
    <g id="shape0" transform="matrix(1.0, 0.0, 0.0, 1.0, 8.85, -360.45)">
      <path d="M395.5 388.9 L399.95 391.1 Q411.9 397.6 426.05 396.45 L427.7 393.8 Q428.75 385.65 426.95 378.0 441.05 381.3 454.25 383.8 472.6 391.7 493.85 393.8 L537.4 395.7 Q555.65 395.8 569.7 390.05 L571.85 390.05 Q574.4 388.2 577.15 387.25 L577.75 386.85 Q581.4 385.3 585.05 383.4 L592.9 380.5 601.85 376.3 601.85 416.0 532.85 417.2 510.2 418.1 490.25 418.55 Q489.2 416.25 487.4 414.25 488.35 415.4 488.4 418.0 L488.4 418.6 483.5 418.65 478.05 418.75 Q446.0 419.15 413.95 418.65 L410.4 418.6 265.65 415.8 265.5 415.8 259.0 415.75 251.9 415.7 236.95 415.65 235.05 415.65 227.8 415.6 223.95 415.6 223.5 415.6 212.0 415.55 200.15 415.5 138.6 415.1 Q98.35 414.85 58.15 414.0 L30.85 413.35 29.05 413.25 15.2 412.4 8.85 412.05 -8.1 411.0 -8.1 376.0 -3.0 377.15 Q5.35 380.6 14.7 382.05 L48.05 387.95 Q65.15 391.25 83.15 390.95 100.95 390.65 118.7 390.7 136.25 390.7 153.75 389.85 171.85 388.6 188.0 384.7 L206.95 380.1 Q213.45 377.1 219.85 373.45 241.45 366.85 251.2 361.2 L251.9 365.5 252.05 366.15 Q251.55 371.0 252.25 376.3 252.45 378.05 253.6 380.1 255.4 380.9 256.7 382.45 L257.25 383.3 Q265.65 387.35 276.65 387.5 289.15 387.7 301.3 385.6 L313.4 385.55 Q331.15 385.3 348.85 385.35 L380.3 386.75 395.5 388.9" fill="#ffffff" fill-rule="evenodd" stroke="none"/>
      <path d="M490.25 418.55 L488.4 418.6 488.4 418.0 Q488.35 415.4 487.4 414.25 489.2 416.25 490.25 418.55" fill="#caeafe" fill-rule="evenodd" stroke="none"/>
      <path d="M454.25 383.8 L477.25 387.6 Q544.0 397.1 585.05 383.4 581.4 385.3 577.75 386.85 L577.15 387.25 Q574.4 388.2 571.85 390.05 L569.7 390.05 Q555.65 395.8 537.4 395.7 L493.85 393.8 Q472.6 391.7 454.25 383.8" fill="#e6efff" fill-rule="evenodd" stroke="none"/>
      <path d="M395.5 388.9 L401.35 389.8 412.65 389.45 413.7 389.15 413.95 389.1 Q423.6 386.65 425.4 377.65 L426.8 378.0 426.95 378.0 Q428.75 385.65 427.7 393.8 L426.05 396.45 Q411.9 397.6 399.95 391.1 L395.5 388.9 M-3.0 377.15 Q52.8 389.65 109.4 388.65 170.95 386.85 204.65 377.8 L219.85 373.45 Q213.45 377.1 206.95 380.1 L188.0 384.7 Q171.85 388.6 153.75 389.85 136.25 390.7 118.7 390.7 100.95 390.65 83.15 390.95 65.15 391.25 48.05 387.95 L14.7 382.05 Q5.35 380.6 -3.0 377.15 M252.05 366.15 Q253.1 370.45 255.7 374.3 L256.75 375.75 259.0 378.2 Q265.45 384.3 274.85 384.7 L301.3 385.6 Q289.15 387.7 276.65 387.5 265.65 387.35 257.25 383.3 L256.7 382.45 Q255.4 380.9 253.6 380.1 252.45 378.05 252.25 376.3 251.55 371.0 252.05 366.15" fill="#d5eaff" fill-rule="evenodd" stroke="none"/>
      <path d="M-8.1 376.0 Q50.2 389.7 109.4 388.65 170.95 386.85 204.65 377.8 238.3 368.7 251.2 361.2 L251.9 365.5 Q252.9 370.15 255.7 374.3 L256.75 375.75 259.0 378.2 Q265.45 384.3 274.85 384.7 294.1 385.85 313.4 385.55 331.15 385.3 348.85 385.35 L380.3 386.75 401.35 389.8 412.65 389.45 413.7 389.15 413.95 389.1 Q423.6 386.65 425.4 377.65 L426.8 378.0 Q546.2 405.85 601.85 376.3" fill="none" stroke="#000000" stroke-linecap="round" stroke-linejoin="round" stroke-width="1.5"/>
    </g>
    <g id="shape1" transform="matrix(1.0, 0.0, 0.0, 1.0, -239.05, -372.85)">
      <path d="M250.9 380.1 L250.75 380.15 248.4 379.5 250.9 380.1" fill="#000000" fill-rule="evenodd" stroke="none"/>
      <path d="M315.55 381.4 Q321.95 382.3 328.1 384.5 331.85 385.8 334.8 388.45 L338.7 392.2 339.0 391.95 339.6 391.35 340.65 390.25 342.35 389.6 Q347.5 387.5 353.55 386.8 L352.8 388.75 352.55 389.5 Q350.65 394.65 347.5 398.4 L347.2 399.5 352.55 399.5 Q350.65 404.65 347.5 408.4 L347.2 409.5 352.55 409.5 Q351.55 412.2 350.2 414.5 L352.55 414.5 350.5 419.0 254.55 419.0 Q253.55 416.85 253.1 414.5 L254.8 414.5 Q253.6 412.15 253.1 409.5 L258.3 409.5 Q254.2 405.2 253.1 399.5 L258.3 399.5 Q254.2 395.2 253.1 389.5 252.45 386.0 252.9 381.9 L242.05 383.0 Q244.5 382.55 244.55 381.65 253.5 381.5 253.5 381.85 L253.65 385.0 Q253.75 383.4 254.25 381.8 L254.45 381.2 269.65 383.1 Q275.7 383.25 280.85 381.5 290.2 384.35 300.55 383.85 L305.3 383.35 311.25 382.7 Q313.5 382.35 315.55 381.4 M254.0 381.1 L244.5 381.5 244.5 381.4 244.25 380.95 Q243.25 379.75 239.05 377.95 250.7 380.35 239.1 377.15 L244.1 378.45 244.05 378.5 245.3 378.75 247.8 379.35 Q249.1 379.75 250.35 380.3 L250.65 380.45 254.0 381.1" fill="#ffffff" fill-rule="evenodd" stroke="none"/>
      <path d="M244.1 378.45 L245.3 378.75 244.05 378.5 244.1 378.45" fill="#caeafe" fill-rule="evenodd" stroke="none"/>
      <path d="M353.55 386.8 Q347.5 387.5 342.35 389.6 L340.65 390.25 339.6 391.35 339.0 391.95 338.7 392.2 334.8 388.45 Q331.85 385.8 328.1 384.5 321.95 382.3 315.55 381.4 L317.45 380.35 318.4 379.8 Q325.5 378.2 332.9 378.3 L335.1 379.2 Q344.05 383.4 353.05 385.25 L353.55 385.0 353.6 385.35 353.55 386.8 M280.85 381.5 Q275.7 383.25 269.65 383.1 L254.45 381.2 254.5 381.1 254.0 381.1 250.65 380.45 250.35 380.3 Q249.1 379.75 247.8 379.35 L248.4 379.5 250.75 380.15 250.9 380.1 252.1 380.35 251.65 380.0 251.85 380.0 258.7 379.05 261.55 378.6 269.05 377.0 Q270.9 377.45 272.45 378.2 276.55 380.2 280.85 381.5" fill="#d5eaff" fill-rule="evenodd" stroke="none"/>
      <path d="M332.9 378.3 Q325.5 378.2 318.4 379.8 L317.45 380.35 Q314.6 382.2 311.25 382.7 L305.3 383.35 300.55 383.85 Q285.45 384.55 272.45 378.2 270.9 377.45 269.05 377.0 267.25 377.9 251.65 380.0 L251.55 379.35 Q257.3 378.3 263.85 375.95 L264.8 375.6 268.25 372.95 268.3 372.85 Q269.35 373.05 269.8 373.95 L269.9 374.0 Q283.7 382.95 301.35 381.3 L310.4 380.15 Q314.3 379.55 317.9 377.75 323.75 374.8 330.2 375.1 L331.65 375.2 336.4 376.0 Q337.75 376.8 338.5 377.9 347.35 382.15 355.8 385.75 L353.6 385.35 353.55 385.0 353.05 385.25 Q344.05 383.4 335.1 379.2 L332.9 378.3" fill="#000000" fill-rule="evenodd" stroke="none"/>
    </g>
    <g id="shape2" transform="matrix(1.0, 0.0, 0.0, 1.0, 8.0, 52.45)">
      <path d="M537.6 10.5 Q533.5 10.35 529.05 10.45 L526.4 10.5 516.15 9.8 515.75 9.75 508.2 8.85 507.2 8.75 491.1 7.35 475.65 6.8 463.3 6.0 Q453.5 5.3 443.6 5.55 L430.1 6.4 429.15 6.4 428.95 6.55 419.55 7.7 Q400.1 10.8 380.3 9.0 L360.85 7.9 339.8 6.55 325.7 5.45 321.9 5.35 321.05 5.35 314.85 5.2 313.8 5.2 305.65 5.1 Q292.2 5.95 280.8 8.3 L255.15 9.65 248.95 9.85 230.15 10.25 223.55 10.25 208.5 9.05 Q190.45 6.9 171.15 7.75 L162.6 8.15 136.8 9.5 Q124.0 10.2 109.6 9.9 L103.25 9.7 101.75 9.65 77.4 8.4 70.55 7.95 Q53.85 6.8 39.75 7.9 25.65 8.95 10.65 12.35 L-3.45 11.95 -8.0 11.35 -8.0 -52.45 Q301.45 -52.45 610.95 -52.05 L610.95 1.0 Q603.75 1.4 596.9 2.75 568.4 8.3 537.6 10.5" fill="#ffffff" fill-rule="evenodd" stroke="none"/>
      <path d="M610.95 1.0 L610.95 4.9 604.55 5.2 Q597.9 4.3 592.15 6.3 L590.95 6.45 590.65 6.5 589.5 6.75 565.8 9.1 544.7 10.35 542.3 10.2 542.4 10.4 538.4 10.55 538.25 10.55 537.6 10.5 Q568.4 8.3 596.9 2.75 603.75 1.4 610.95 1.0" fill="#caeafe" fill-rule="evenodd" stroke="none"/>
      <path d="M610.95 4.95 L610.95 6.0 601.45 6.2 593.55 7.05 Q576.5 10.7 559.25 12.25 L548.95 11.8 541.05 11.8 522.35 11.45 496.25 9.85 458.9 7.3 Q440.8 6.75 423.0 9.1 L414.05 10.1 392.7 11.0 370.2 10.55 339.8 8.55 317.65 7.15 Q305.45 6.55 293.4 8.6 282.6 10.5 271.6 10.8 L255.65 11.35 241.45 11.65 222.6 11.4 216.05 10.8 194.3 9.6 171.6 10.85 164.15 11.15 Q151.8 11.7 139.5 11.55 L116.35 11.2 94.7 11.05 Q83.95 11.05 72.1 10.55 62.0 10.2 51.8 10.0 37.1 9.75 22.9 12.75 10.25 15.2 -2.45 13.8 L-8.0 13.15 -8.0 11.35 -3.45 11.95 10.65 12.35 Q25.65 8.95 39.75 7.9 53.85 6.8 70.55 7.95 L101.75 9.65 103.25 9.7 104.5 9.75 109.6 9.9 Q124.0 10.2 136.8 9.5 L171.15 7.75 Q190.45 6.9 208.5 9.05 L223.55 10.25 230.6 10.3 251.3 9.8 255.65 9.7 280.35 8.4 280.8 8.3 Q292.2 5.95 305.65 5.1 L313.8 5.2 314.85 5.2 321.05 5.35 321.9 5.35 325.7 5.45 339.8 6.55 360.85 7.9 380.3 9.0 Q400.1 10.8 419.55 7.7 L428.95 6.55 430.1 6.4 443.6 5.55 Q453.5 5.3 463.3 6.0 L491.1 7.35 507.2 8.75 508.2 8.85 511.15 9.25 516.15 9.8 526.4 10.5 Q532.05 10.7 537.75 10.55 L538.25 10.55 538.4 10.55 542.4 10.4 544.7 10.35 565.8 9.1 589.5 6.75 607.75 5.1 610.95 4.95" fill="#000000" fill-rule="evenodd" stroke="none"/>
    </g>
  </defs>
</svg>
